<svg xmlns="http://www.w3.org/2000/svg" fill="none" viewBox="0 0 64 64" class="svg-icon" >
<path fill="#F3F4F8" fill-rule="evenodd" d="M4.084 26.078 5 16h1v4h15.802c2.676-2.482 6.26-4 10.198-4 3.938 0 7.522 1.518 10.198 4H58v-4h1l.916 10.078C61.306 26.361 62 27.333 62 29v15.003A.998.998 0 0 1 61 45v2a1 1 0 0 1-1 1H49a1 1 0 0 1-1-1v-2.125L41 44l-9 1-9-1-7 .875V47a1 1 0 0 1-1 1H4a1 1 0 0 1-1-1v-2c-.552 0-1-.445-1-.997V29c0-1.667.695-2.64 2.084-2.922ZM6 22h13.999a14.923 14.923 0 0 0-2.958 7.88c-.817-.225-1.347-.74-1.948-1.322C13.912 27.412 12.456 26 8 26l-2-.006V22Zm16.62 0a12.954 12.954 0 0 0-3.588 8.074L32 31l12.968-.926A12.954 12.954 0 0 0 41.38 22H22.619Zm26.287 6.558c-.6.583-1.13 1.097-1.948 1.322A14.923 14.923 0 0 0 44 22H58v3.994L56 26c-4.456 0-5.911 1.412-7.093 2.558ZM13 32a2 2 0 0 0-2-2H7a2 2 0 0 0-2 2v4a2 2 0 0 0 2 2h4a2 2 0 0 0 2-2v-4Zm38 0a2 2 0 0 1 2-2h4a2 2 0 0 1 2 2v4a2 2 0 0 1-2 2h-4a2 2 0 0 1-2-2v-4Zm-35 5 16 1 16-1v5l-7-.563-9 1.063-9-1.063L16 42v-5Z" clip-rule="evenodd" />
</svg>