<svg width="128" height="128" viewBox="0 0 128 128" fill="none" xmlns="http://www.w3.org/2000/svg">
<path d="M54.8571 9.14286C59.9066 4.0934 68.0934 4.09342 73.1428 9.14288L118.857 54.8572C123.907 59.9066 123.907 68.0934 118.857 73.1429L73.1428 118.857C68.0933 123.907 59.9066 123.907 54.8571 118.857L9.1428 73.1429C4.09334 68.0934 4.09335 59.9066 9.14281 54.8572L54.8571 9.14286Z" fill="#F3F4F8"/>
<path d="M66.07 32.3334C58.2709 32.3334 51.9305 38.6738 51.9305 46.4729V64.3334C51.9305 72.1324 58.2709 78.4729 66.07 78.4729C73.8691 78.4729 80.2096 72.1324 80.2096 64.3334V46.4729C80.2096 38.6738 73.8691 32.3334 66.07 32.3334Z" fill="#101223"/>
<path d="M66.07 96.3334C64.8496 96.3334 63.8375 95.3213 63.8375 94.1008V85.1706C63.8375 83.9501 64.8496 82.938 66.07 82.938C67.2905 82.938 68.3026 83.9501 68.3026 85.1706V94.1008C68.3026 95.3213 67.2905 96.3334 66.07 96.3334Z" fill="#101223"/>
<path d="M77.977 96.3334H54.163C52.9426 96.3334 51.9305 95.3213 51.9305 94.1008C51.9305 92.8803 52.9426 91.8683 54.163 91.8683H77.977C79.1975 91.8683 80.2096 92.8803 80.2096 94.1008C80.2096 95.3213 79.1975 96.3334 77.977 96.3334Z" fill="#101223"/>
<path d="M66.07 87.4031C53.3593 87.4031 43.0002 77.0441 43.0002 64.3334C43.0002 63.1129 44.0123 62.1008 45.2328 62.1008C46.4533 62.1008 47.4654 63.1129 47.4654 64.3334C47.4654 74.6031 55.8002 82.938 66.07 82.938C76.3398 82.938 84.6747 74.6031 84.6747 64.3334C84.6747 63.1129 85.6868 62.1008 86.9072 62.1008C88.1277 62.1008 89.1398 63.1129 89.1398 64.3334C89.1398 77.0441 78.7807 87.4031 66.07 87.4031Z" fill="#101223"/>
</svg>
