<svg width="200" height="150" viewBox="0 0 200 150" fill="none" xmlns="http://www.w3.org/2000/svg">
<g clip-path="url(#clip0_3649_18582)">
<path d="M200 0H0V150H200V0Z" fill="#C9F2FF"/>
<g clip-path="url(#clip1_3649_18582)">
<path d="M136.206 40.531L131.033 43.9794L122.412 42.2552L117.239 40.531L110.342 42.2552L105.169 40.531L108.617 33.6339H115.514L122.274 30.2544C127.486 32.8321 132.202 36.3116 136.206 40.531Z" fill="#03AA6F"/>
<path d="M96.5477 33.6339L94.8235 38.8068L89.6507 40.531L84.4778 49.1523L75.8565 54.3252L63.7867 56.0494V61.2223L67.2352 64.6707V71.5678L62.0627 68.1192L56.8898 64.6707L53.8896 55.6529C59.0537 43.3467 68.9252 33.6183 81.3053 28.6335L86.2022 31.9097L96.5477 33.6339Z" fill="#03AA6F"/>
<path d="M99.9966 81.9132L98.2723 90.5345L91.3752 97.4316V102.604L84.4782 107.777V116.398L79.3055 114.674L75.8569 106.053V88.8103L67.2356 87.086L63.7871 80.1889V75.0161L67.2356 71.5676L72.4084 66.3948L75.8569 73.2919H87.9266L93.0995 81.9132H99.9966Z" fill="#03AA6F"/>
<path d="M143.62 50.5834C153.033 67.376 151.961 88.0827 140.862 103.811L136.206 99.1558V92.2587L132.758 85.3616L129.309 78.4645V71.5674L124.136 68.119L117.239 69.8432L105.17 64.6703L103.445 52.6006L108.618 47.4277H118.964L122.412 52.6006L132.758 54.3248L143.103 50.8764L143.62 50.5834Z" fill="#03AA6F"/>
<path d="M110.342 42.2552L117.239 40.531L122.412 42.2552L131.033 43.9795L136.206 40.531C139.094 43.5537 141.586 46.9314 143.62 50.5834L143.103 50.8766L132.758 54.325L122.412 52.6008L118.964 47.4279H108.618L103.445 52.6008L105.17 64.6705L117.239 69.8434L124.136 68.1192L129.309 71.5676V78.4647L132.758 85.3618L136.206 92.2589V99.1559L140.862 103.811C124.938 126.375 93.7376 131.757 71.1756 115.833C52.0139 102.308 44.8254 77.2834 53.8898 55.6527L56.89 64.6705L62.0629 68.119L67.2358 71.5674L63.7871 75.0161V80.1889L67.2356 87.086L75.8569 88.8102V106.053L79.3053 114.674L84.4782 116.398V107.777L91.3753 102.604V97.4313L98.2724 90.5342L99.9966 81.9129H93.0995L87.9266 73.2916H75.8569L72.4084 66.3946L67.2358 71.5674L67.2356 64.6703L63.7871 61.2221V56.0492L75.8569 54.325L84.4782 49.1521L89.651 40.5308L94.8239 38.8066L96.5481 33.6337L86.2026 31.9095L81.3057 28.6333C94.5653 23.2933 109.477 23.8829 122.274 30.2542L115.515 33.6337H108.618L105.169 40.5308L110.342 42.2552Z" fill="#86DAF1"/>
</g>
</g>
<defs>
<clipPath id="clip0_3649_18582">
<rect width="200" height="150" fill="white"/>
</clipPath>
<clipPath id="clip1_3649_18582">
<rect width="100" height="100" fill="white" transform="translate(50 25)"/>
</clipPath>
</defs>
</svg>
