<svg xmlns="http://www.w3.org/2000/svg" fill="none" viewBox="0 0 48 49" class="svg-icon" >
<g fill="#F3F4F8" clip-path="url(#icon-setup_svg__a)" ><path d="M47.951 21.272c-.066-.574-.2-1.348-.427-2.282l-.187.187c-2.35 2.282-5.54 3.483-9.21 3.483h-1.228c.04.24.066.493.093.747.667 7.125-4.579 13.423-11.693 14.09a12.49 12.49 0 0 1-3.244-.107c0 .133.026.294.04.507.347 3.79-.801 7.245-3.244 9.754l-.387.387c1.028.24 1.882.373 2.496.453a1.336 1.336 0 0 0 1.388-.8l1.509-3.55c.68 0 1.361-.013 2.056-.08a23.22 23.22 0 0 0 1.962-.28l2.122 3.216c.32.494.948.72 1.509.547.68-.214 1.681-.574 2.87-1.12 1.174-.561 2.095-1.095 2.696-1.495.494-.32.72-.948.547-1.508l-1.134-3.683a20.527 20.527 0 0 0 2.843-2.855l3.697 1.107a1.325 1.325 0 0 0 1.509-.56c.387-.6.934-1.521 1.468-2.695a21.478 21.478 0 0 0 1.095-2.869 1.335 1.335 0 0 0-.547-1.508l-3.23-2.094c.24-1.308.36-2.642.333-4.017l3.537-1.534c.548-.24.868-.8.801-1.401l-.04-.04ZM27.074 5.301l-.895-3.75c-.133-.573-.64-1-1.24-1.027-.722-.04-1.776-.04-3.084.08a21.21 21.21 0 0 0-3.044.494 1.32 1.32 0 0 0-1.028 1.227l-.187 3.843c-1.255.44-2.456 1-3.577 1.681l-3.084-2.308a1.322 1.322 0 0 0-1.602 0 20.505 20.505 0 0 0-2.309 2.028A23.286 23.286 0 0 0 4.995 9.89a1.32 1.32 0 0 0 0 1.6l2.323 3.083a19.8 19.8 0 0 0-1.695 3.656l-3.845.213c-.6.04-1.095.454-1.228 1.041-.16.694-.36 1.748-.467 3.042a22.538 22.538 0 0 0-.054 3.069c.027.6.454 1.094 1.028 1.228l3.751.867c.04.28.094.56.16.84 1.602-.64 3.404-.974 5.327-.974H11.482a13.53 13.53 0 0 1-.293-1.814c-.654-7.125 4.579-13.423 11.707-14.09a13.23 13.23 0 0 1 3.417.133c-.133-2.335.32-4.536 1.295-6.444-.174-.027-.36-.067-.534-.094v.054Z" />
<path d="M45.815 14.735a8.231 8.231 0 0 1-1.254 1.574c-1.856 1.802-4.379 2.429-6.835 2.349-.894-.027-1.548 0-2.069.093-.881.16-1.362.494-1.936 1.067l-6.167 6.151-8.436 8.42c-.52.52-.854.96-1.001 1.681-.107.52-.107 1.2-.027 2.162.214 2.321-.32 4.75-2.122 6.59a8.91 8.91 0 0 1-1.682 1.335c-1.669 1-3.644 1.388-5.553 1.148-.508-.067-.721-.64-.374-.988l2.736-2.722c.374-.373.508-.894.36-1.387l-.693-2.349s-.04-.106-.054-.173a1.849 1.849 0 0 0-1.321-1.08l-2.51-.535a1.624 1.624 0 0 0-1.441.414l-.588.587L2.7 41.22c-.347.347-.974.174-1.054-.306a7.712 7.712 0 0 1 1.027-5.471 8.028 8.028 0 0 1 1.215-1.508c1.856-1.801 4.378-2.428 6.835-2.348 1.08.04 1.815 0 2.376-.16.694-.174 1.121-.507 1.615-1.001l8.436-8.42 6.167-6.15c.708-.707 1.068-1.255 1.082-2.575 0-.36-.014-.774-.067-1.281-.214-2.322.334-4.75 2.122-6.592a8.367 8.367 0 0 1 3.097-2.001 8.755 8.755 0 0 1 4.138-.48c.508.066.734.64.374.987l-1.455 1.454-1.895 1.895a1.383 1.383 0 0 0-.36 1.388l.693 2.348c.187.627.721 1.107 1.389 1.24l.96.2 1.562.335c.521.106 1.068-.04 1.442-.414l3.35-3.336c.348-.347.975-.173 1.055.307a7.596 7.596 0 0 1-.988 5.404Z" />
</g>
<defs ><clipPath id="icon-setup_svg__a" ><path fill="#fff" d="M0 .5h48v48H0z" />
</clipPath>
</defs>
</svg>