<svg width="65" height="64" viewBox="0 0 65 64" fill="none" xmlns="http://www.w3.org/2000/svg">
<path d="M12.5776 32.9209L12.6513 33.0013H17.4838L17.209 33.6782H11.7197C11.6728 33.6782 11.6326 33.6648 11.5991 33.6313C11.5655 33.6045 11.5387 33.5643 11.5186 33.5241C11.4985 33.4772 11.4918 33.4303 11.4918 33.3833C11.4918 33.3297 11.4918 33.2828 11.5186 33.2426L12.5508 30.689H13.4824L12.5843 32.9142L12.5776 32.9209Z" fill="white"/>
<path d="M17.8324 33.6849L19.0455 30.689H19.9772L18.7707 33.6849H17.8324Z" fill="white"/>
<path d="M20.634 32.9211L20.7077 33.0016H24.5951L24.9235 32.1839H25.8619L25.2519 33.6852H19.7627C19.7158 33.6852 19.6755 33.6718 19.642 33.6383C19.6085 33.6115 19.5817 33.5713 19.5616 33.5311C19.5415 33.4841 19.5348 33.4372 19.5348 33.3903C19.5348 33.3367 19.5348 33.2898 19.5616 33.2496L20.4195 31.1316C20.4396 31.0847 20.4664 31.0445 20.5066 30.9908C20.5469 30.9372 20.5938 30.8903 20.6474 30.8501C20.701 30.8032 20.7546 30.7697 20.815 30.7428C20.8753 30.716 20.9222 30.7026 20.9758 30.7026H26.4651L26.1903 31.3796H21.3645L21.2238 31.46L20.634 32.9278V32.9211Z" fill="white"/>
<path d="M25.882 33.6849L27.0951 30.689H28.0334L26.8203 33.6849H25.882Z" fill="white"/>
<path d="M34.1394 31.3727L34.4075 30.6958H28.6502L27.4437 33.6851H28.3754H33.2011L33.4759 33.0081H28.6502L28.8378 32.5524H33.6636L33.9518 31.8419H29.126L29.3137 31.3727H34.1394Z" fill="white"/>
<path d="M37.9262 32.5522L39.7024 33.6849H38.134L36.378 32.5455H35.3123L35.1916 32.5925L34.7493 33.6849H33.8311L34.4008 32.2707C34.4142 32.2372 34.441 32.1903 34.4812 32.1367C34.5214 32.0898 34.5683 32.0429 34.6219 31.9959C34.6756 31.949 34.7292 31.9155 34.7828 31.882C34.8364 31.8485 34.8833 31.8351 34.9303 31.8351H39.5281L39.6823 31.4463L39.6085 31.3659H34.7694L35.0442 30.689H40.5268C40.5737 30.689 40.6139 30.7024 40.6474 30.7359C40.6809 30.7627 40.7077 30.8029 40.7278 30.8431C40.7479 30.8833 40.7546 30.9303 40.7546 30.9839C40.7546 31.0375 40.7546 31.0844 40.7278 31.1246L40.3391 32.0831C40.319 32.1233 40.2922 32.1702 40.2453 32.2238C40.1983 32.2774 40.1514 32.3244 40.0978 32.378C40.0442 32.4249 39.9839 32.4651 39.9235 32.4986C39.8632 32.5321 39.8163 32.5455 39.7694 32.5455H37.9128L37.9262 32.5522Z" fill="white"/>
<path d="M58 32.1702C58 32.1702 56.7399 30.5147 54.0255 28.1354C52.1019 17.2574 42.6113 9 31.1903 9C26.559 9 22.2426 10.3606 18.6233 12.6997C15.4598 12.1836 12.0818 11.8016 8.48257 11.5871C8.37534 11.7145 8.2681 11.8418 8.16086 11.9759C11.4584 12.3981 14.4611 12.9946 17.189 13.7051C11.6059 17.941 8 24.6434 8 32.1903C8 39.7373 11.5925 46.4129 17.1488 50.6488C14.4477 51.3525 11.492 51.9357 8.24129 52.3512C8.34853 52.4853 8.46247 52.6126 8.57641 52.7466C12.122 52.5322 15.4464 52.1568 18.5697 51.6475C22.2024 54.0067 26.5322 55.3807 31.1836 55.3807C42.6247 55.3807 52.1287 47.0965 54.0255 36.2051C56.7332 33.8324 57.9933 32.1769 57.9933 32.1769M31.1903 11.0643C40.6944 11.0643 48.7306 17.3445 51.3847 25.9772C45.6944 21.634 36.1032 16.1113 21.7936 13.2694C24.622 11.8619 27.8123 11.0643 31.1903 11.0643ZM10.0643 32.1903C10.0643 24.7373 13.9249 18.1957 19.756 14.4357C38.8646 20.3003 43.4156 32.1702 43.4156 32.1702C43.4156 32.1702 38.8579 44.0603 19.7158 49.9182C13.9115 46.1515 10.0643 39.6233 10.0643 32.1903ZM31.1903 53.3097C27.7922 53.3097 24.5818 52.5054 21.7399 51.0777C36.0898 48.2359 45.6944 42.6997 51.3981 38.3499C48.7641 47.0094 40.7145 53.3097 31.1903 53.3097Z" fill="white"/>
</svg>
