<svg width="64" height="64" viewBox="0 0 64 64" fill="none" xmlns="http://www.w3.org/2000/svg">
<path d="M32.1991 59.165C32.1327 59.165 32.1327 59.165 32.0664 59.0987L29.2792 55.7806C29.2792 55.7806 29.0137 55.4488 28.7483 54.9179C28.6819 54.7188 28.4828 54.2543 28.4828 54.2543L28.3501 53.7897C27.7529 51.6662 27.1556 49.609 26.8902 48.6799C26.8238 48.4145 26.5583 47.8172 26.4256 47.6181C26.2929 47.419 25.9611 46.9545 25.6956 46.6891C23.7048 44.6318 17.0023 37.3984 14.2151 34.3458C13.6178 33.7486 13.2197 33.284 13.087 33.1513C11.9588 31.9568 11.2952 30.5632 11.0297 29.0369L10.7643 27.3115V27.2451C10.6979 27.1788 6.4508 22.1353 6.25171 21.9362C5.12357 20.609 4.52632 18.9499 4.32723 17.8881C4.32723 17.8881 4.06178 16.0964 3.72998 11.7829C3.39817 8.133 3 4.21767 3 4.21767C3 4.15131 3 4.08494 3.06636 4.01858C3.13272 3.95222 3.26544 4.08494 3.26544 4.08494C3.26544 4.08494 13.0206 12.9774 15.8741 15.5655C16.2059 15.8973 16.2723 16.2291 16.2723 16.2291L16.6705 18.419L12.5561 16.2955L32 33.0849L51.4439 16.2955L47.3295 18.419L47.7277 16.2291C47.7277 16.2291 47.794 15.8309 48.1259 15.5655C50.913 12.9774 60.7345 4.08494 60.7345 4.08494C60.7345 4.08494 60.8673 3.95222 60.9336 4.01858C61 4.01858 61 4.15131 61 4.21767C61 4.21767 60.6018 8.133 60.27 11.7829C59.9382 16.0964 59.6728 17.8881 59.6728 17.8881C59.54 18.8836 58.9428 20.5426 57.7483 21.9362C57.5492 22.2016 53.3021 27.2451 53.2357 27.2451V27.3115L52.9702 29.0369C52.7048 30.5632 52.0412 31.9568 50.913 33.1513C50.7803 33.284 50.3821 33.7486 49.7849 34.3458C46.9977 37.3984 40.3616 44.6318 38.3043 46.6891C38.0389 46.9545 37.6407 47.419 37.5744 47.6181C37.4416 47.8172 37.1762 48.4145 37.1098 48.6799C36.9108 49.609 36.3135 51.6662 35.6499 53.7897L35.5172 54.2543C35.5172 54.2543 35.3844 54.7852 35.2517 54.9179C34.9863 55.5151 34.7208 55.7806 34.7208 55.7806L31.9336 59.0987C32.3318 59.0987 32.2654 59.165 32.1991 59.165Z" fill="#DCDDDE"/>
<path d="M50.5812 15.101L54.0984 14.2383C54.0984 14.2383 54.4966 14.1719 54.4302 14.5701C54.4302 14.6364 54.4302 14.7691 54.4302 15.0346L53.7002 23.9934C55.6911 21.8698 57.3501 20.0781 57.6819 19.7463C58.611 18.7508 58.6774 17.49 58.6774 17.49L59.7391 6.54031C59.7391 6.60668 55.1602 10.8538 50.5812 15.101ZM58.2128 13.8401C58.0801 13.7737 57.8147 13.3092 57.3501 14.1055C57.3501 14.1055 56.8856 15.1673 56.6865 16.8264L57.0183 16.4945C57.0847 16.4282 57.0847 16.4945 57.0847 16.4945V16.8264C57.0847 16.8927 57.0183 16.9591 57.0183 16.9591L56.6865 17.2909C56.6865 17.49 56.7529 17.6891 56.9519 17.5563V17.7554C56.9519 17.7554 56.8192 17.8881 56.8192 17.9545C56.6865 18.0872 56.4211 19.0163 56.4211 19.0163C56.4211 19.0163 56.4211 19.0163 56.3547 19.0826C56.3547 19.0826 56.3547 19.0826 56.2883 19.0826C56.2883 19.0826 56.222 18.6181 56.0229 18.6181C55.9565 18.6181 55.8902 18.7508 55.8902 18.7508V18.5518C56.0892 18.2199 56.222 17.8881 56.222 17.6891L55.8902 18.0209C55.8238 18.0872 55.8238 18.0209 55.8238 18.0209V17.6891C55.8238 17.6227 55.8902 17.5563 55.8902 17.5563L56.222 17.2245C56.2883 15.6982 55.8902 15.4991 55.8902 15.4991C55.6247 15.3664 55.0938 16.5609 54.9611 16.8927V16.6273C54.8947 16.6936 54.9611 16.6936 54.9611 16.6273C54.9611 16.2291 55.0275 15.4991 55.6247 14.7028C55.6247 14.7028 56.0229 14.1719 56.3547 14.7028C56.222 14.1055 56.2883 13.3092 56.2883 13.3092C56.2883 13.3092 56.3547 12.5792 56.7529 11.6502C56.7529 11.5838 56.8856 11.3847 56.8856 11.3183C56.9519 11.252 57.0183 11.3183 57.0183 11.3183C57.2838 11.7165 57.2174 12.4465 57.2174 12.4465C57.2174 12.4465 57.151 13.1101 56.8856 14.1055C57.4165 12.6456 57.8146 12.7119 57.8146 12.7119C58.2128 12.6456 58.1465 13.4419 58.2128 13.7737C58.2792 13.7737 58.2792 13.7737 58.2128 13.8401Z" fill="#E1251B"/>
<path d="M32.9954 55.2497L34.3227 53.5907C34.3227 53.5907 34.389 53.4579 34.4554 53.3916C34.4554 53.3252 34.5217 53.2589 34.5217 53.1925C34.7872 51.7989 35.849 46.4236 35.9817 45.9591C36.0481 45.76 36.1144 45.5609 36.2471 45.2955C36.4462 44.8973 36.7117 44.6319 36.7117 44.6319C36.7117 44.6319 49.7849 31.625 50.7803 30.6959C52.1076 29.3023 52.1739 27.5769 52.1739 27.5769L53.103 17.0255C53.103 17.0255 36.9108 31.2268 35.4508 32.5541C34.9199 33.0186 34.5881 33.4831 34.3227 33.9476C33.8581 34.6113 33.8581 35.2749 33.8581 35.2749L32.9954 55.2497Z" fill="#E1251B"/>
<path d="M48.3913 28.7714L45.2059 31.6913L45.1396 33.2177L40.9588 37.133L41.0252 35.6067L36.9107 39.3893L37.9725 34.6776L41.1579 31.6913L41.2242 30.2314L45.405 26.3161L45.3387 27.8424L49.4531 23.9934L48.3913 28.7714Z" fill="#DCDDDE"/>
<path fill-rule="evenodd" clip-rule="evenodd" d="M39.167 34.4122L41.8215 31.9568L41.8879 30.6296L44.7414 27.9087L44.6751 29.3687L47.7941 26.4488L47.1968 29.0369L44.6087 31.4259L44.5423 32.8859L41.6224 35.5403L41.6888 34.1467L38.5698 37.0003L39.167 34.4122Z" fill="#EBA900"/>
<path d="M4.7254 6.60666L5.78719 17.5563C5.78719 17.5563 5.91991 18.7508 6.78261 19.8126C7.11442 20.1444 8.77346 22.0025 10.7643 24.0597L10.0343 15.1009C10.0343 14.8355 10.0343 14.7028 10.0343 14.6364C10.0343 14.2382 10.3661 14.3046 10.3661 14.3046L13.8833 15.1673C9.30435 10.8538 4.7254 6.60666 4.7254 6.60666Z" fill="#231F20"/>
<path d="M30.5401 35.2749C30.5401 35.2749 30.5401 34.5449 30.1419 33.7486C29.9428 33.284 29.5446 32.8195 29.0137 32.355C27.5538 31.0277 11.3616 16.8264 11.3616 16.8264L12.2906 27.3778C12.2906 27.3778 12.357 29.1032 13.6842 30.4968C14.6133 31.4923 27.7529 44.4328 27.7529 44.4328C27.7529 44.4328 28.0183 44.6982 28.2174 45.0964C28.3501 45.3618 28.4165 45.5609 28.4829 45.76C28.6156 46.2909 29.6774 51.6662 29.9428 52.9934C29.9428 53.1261 30.0092 53.1925 30.0092 53.1925C30.0092 53.2589 30.1419 53.3916 30.1419 53.3916L31.4691 55.0506L30.5401 35.2749Z" fill="#231F20"/>
<path d="M24.103 28.3733L24.3021 32.4877L18.0641 26.7807L17.7986 22.8653L24.103 28.3733ZM12.4897 25.4534L12.1579 21.4054L18.0641 26.7807L18.3295 30.8951L12.4897 25.4534ZM18.5286 34.9431L18.2632 30.8951L24.5011 36.6685L24.7002 41.0484L18.5286 34.9431ZM24.5011 36.6685L24.3021 32.4877L30.341 37.9958L30.54 42.3093L24.5011 36.6685Z" fill="#DCDDDE"/>
<path d="M9.96794 19.4145L5.98624 15.4991L5.58807 11.5175L9.83521 15.4328L10.167 19.5472L9.96794 19.4145Z" fill="#DCDDDE"/>
<path d="M9.76889 11.7829L12.8215 14.6364L9.96798 13.9728L9.76889 11.7829Z" fill="#DCDDDE"/>
</svg>
