<svg width="64" height="64" viewBox="0 0 64 64" fill="none" xmlns="http://www.w3.org/2000/svg">
<path d="M19.4049 29.7243H20.1604L19.7809 28.7384L19.4049 29.7243ZM18.6155 30.6932L19.7166 28.0574H20.0012L21.1023 30.6932H20.5263L20.2722 30.0326H19.2829L19.0254 30.6932H18.6155ZM21.2649 30.5713L21.2208 30.0935C21.4715 30.307 21.7392 30.4154 22.017 30.4154C22.1762 30.4154 22.2948 30.3849 22.3761 30.3205C22.532 30.202 22.532 29.9885 22.4168 29.8564C22.3219 29.7412 22.1559 29.6734 21.7595 29.4803C21.4072 29.3109 21.231 29.0636 21.231 28.7384C21.231 28.5114 21.3089 28.3318 21.4614 28.1963C21.8002 27.9015 22.3592 28.0133 22.4134 28.0235C22.5218 28.0438 22.6235 28.0743 22.7251 28.115L22.7691 28.569C22.6506 28.4843 22.5354 28.4199 22.4337 28.3792C22.0746 28.2437 21.6952 28.3352 21.6952 28.6469C21.6952 28.7993 21.7934 28.901 21.9933 29.006C22.4541 29.2398 22.6709 29.3313 22.8369 29.5379C23.0402 29.7954 23.0503 30.2867 22.7251 30.5441C22.5557 30.6797 22.3219 30.744 22.0238 30.744C21.6274 30.7508 21.3665 30.6288 21.2649 30.5713ZM23.7618 30.6932V28.3792C23.5484 28.3826 23.3214 28.3996 22.9758 28.4402L23.0063 28.0574H25.0221L25.0526 28.4402C24.619 28.386 24.3852 28.3792 24.2632 28.3792V30.6932H23.7618ZM26.3807 30.429C26.7873 30.429 27.16 30.1003 27.16 29.3753C27.16 29.3143 27.1735 28.7316 26.7941 28.4504C26.6789 28.3657 26.54 28.3216 26.3807 28.3216C25.8353 28.3216 25.6015 28.8298 25.6015 29.3753C25.6049 30.0969 25.9742 30.429 26.3807 30.429ZM26.3807 30.7508C25.5981 30.7508 25.0594 30.1816 25.0594 29.3753C25.0594 28.569 25.6049 27.9998 26.3807 27.9998C27.1566 27.9998 27.702 28.5588 27.702 29.3753C27.7054 30.1918 27.1633 30.7508 26.3807 30.7508ZM28.1086 30.6932V28.0574H28.3796L29.9483 29.8462V28.0574H30.3176V30.6932H30.0431L28.4779 28.901V30.6932H28.1086ZM31.7134 30.6932L32.0082 28.0574H32.2758L33.2075 29.8937L34.1087 28.0574H34.3764L34.6711 30.6932H34.1392L33.9901 29.067L33.2549 30.5882H33.011L32.2656 29.0873L32.1166 30.6966L31.7134 30.6932ZM35.6841 29.7243H36.4396L36.0602 28.7384L35.6841 29.7243ZM34.8947 30.6932L35.9958 28.0574H36.2804L37.3815 30.6932H36.8055L36.5514 30.0326H35.5621L35.3047 30.6932H34.8947ZM38.1201 29.2567C38.1912 29.2703 38.259 29.277 38.3301 29.277C38.757 29.277 38.862 29.0297 38.862 28.8163C38.862 28.4944 38.635 28.3589 38.3064 28.3589C38.2488 28.3589 38.1844 28.3623 38.1201 28.3691V29.2567ZM37.6186 30.6932V28.0811C37.7643 28.0608 37.9405 28.0472 38.2048 28.0472C38.4385 28.0472 38.6452 28.0743 38.818 28.1319C39.0687 28.2132 39.3702 28.3928 39.3702 28.7892C39.3702 28.9552 39.3194 29.1009 39.2178 29.2296C39.1161 29.3584 38.9738 29.4498 38.7943 29.504L39.7158 30.6932H39.1094L38.2861 29.5684H38.1167V30.6932H37.6186ZM40.3324 30.6932V28.3792C40.119 28.3826 39.892 28.3996 39.5464 28.4402L39.5769 28.0574H41.5927L41.6232 28.4402C41.1896 28.386 40.9558 28.3792 40.8338 28.3792V30.6932H40.3324ZM41.962 28.0574H42.4601V30.6932H41.962V28.0574ZM42.975 30.6932V28.0574H43.2461L44.8147 29.8462V28.0574H45.184V30.6932H44.9096L43.3443 28.901V30.6932H42.975Z" fill="white"/>
<path d="M63.8856 24.9743C63.7162 24.6728 63.3842 24.5 62.9709 24.5H37.1816C36.7479 24.5 36.0873 24.5 35.4063 25.1878C35.1827 25.4114 35.0573 25.635 34.9489 25.8315C34.7355 26.2109 34.583 26.4887 33.8783 26.4887H30.1211C29.4164 26.4887 29.2639 26.2143 29.0505 25.8315C28.942 25.635 28.8167 25.4114 28.5931 25.1878C27.9087 24.5 27.2514 24.5 26.8178 24.5H1.02849C0.618549 24.5 0.283139 24.6728 0.11374 24.9743C-0.0556589 25.2758 -0.035331 25.6587 0.171336 26.0009L0.635489 26.7801C0.886199 27.2104 1.21483 27.2781 1.45538 27.3256C1.6756 27.3696 1.80773 27.3967 1.97713 27.6949L2.38707 28.4165C2.70554 29.006 3.085 29.0805 3.3662 29.1348C3.57964 29.1754 3.78292 29.1923 4.05735 29.6938C4.32161 30.1783 4.72478 30.9134 5.69713 31.2048C5.79199 31.2319 15.3054 34.0202 15.319 34.0236C16.3218 34.3489 16.5827 34.7215 16.8978 35.1857C17.0841 35.4601 17.5788 36.1919 18.7984 36.5239L27.9494 39.0073C28.9285 39.2716 29.5485 38.7905 29.8331 38.5364L31.4932 36.9576C31.7202 36.7408 31.8625 36.6561 32.0048 36.6561C32.1437 36.6561 32.286 36.7408 32.5164 36.9576L34.1765 38.5364C34.4644 38.7905 35.0844 39.2682 36.0602 39.0039L45.2077 36.5205C46.4308 36.1885 46.9254 35.4567 47.1084 35.1823C47.4201 34.7215 47.6776 34.3489 48.6872 34.0202C48.7007 34.0168 58.2142 31.2285 58.309 31.2014C59.2814 30.9101 59.6845 30.1749 59.9488 29.6904C60.2097 29.2127 60.4062 29.1754 60.6129 29.1381C60.8873 29.0873 61.2905 29.0263 61.6191 28.4165L62.029 27.6949C62.1984 27.3967 62.3306 27.3696 62.5508 27.3256C62.7913 27.2781 63.1233 27.2104 63.3707 26.7801L63.8348 26.0009C64.0347 25.6587 64.055 25.2758 63.8856 24.9743ZM46.2749 27.1054V31.6452H17.7312V27.1054H46.2749ZM36.0365 38.3128C35.3318 38.3128 35.0878 37.7063 34.9117 37.2286C34.7084 36.6866 33.5768 33.119 33.2651 32.1365H34.6711C35.4368 33.4273 36.8191 35.7515 37.4221 36.7035C37.5306 36.8729 37.8355 37.4014 38.3911 37.7233C36.2228 38.3128 36.277 38.3128 36.0365 38.3128ZM39.3668 37.398C38.5774 37.398 38.1641 36.7848 37.9134 36.3884C37.395 35.5753 36.2262 33.617 35.3487 32.1365H36.9106C37.8965 33.1902 39.9835 35.4127 40.8034 36.236C40.9253 36.3613 41.193 36.6425 41.5758 36.856C39.6718 37.3743 39.6616 37.398 39.3668 37.398ZM42.5617 36.5409C41.9485 36.5409 41.5182 36.1309 41.2099 35.8226C40.4883 35.0976 38.7706 33.2749 37.7067 32.1365H39.4177C40.5052 32.9395 43.0157 34.7893 43.9982 35.4635C44.1812 35.5889 44.5369 35.8091 44.9536 35.9378C42.7481 36.5409 42.7955 36.5409 42.5617 36.5409ZM46.5866 34.8333C46.302 35.2534 46.0954 35.4635 45.6177 35.4635C45.1806 35.4635 44.7029 35.2399 44.3302 34.9824C43.5137 34.42 41.6334 33.0445 40.4036 32.1365H42.4364C44.9299 33.3867 45.9768 33.9457 46.695 34.1557C46.8238 34.193 46.9424 34.2201 47.0542 34.237C46.8644 34.4268 46.7323 34.6165 46.5866 34.8333ZM47.3421 33.6746C46.773 33.6746 46.031 33.2952 43.734 32.1365H45.9565L49.0734 32.9361C49.2868 32.9937 49.48 33.0377 49.6629 33.0784C47.9215 33.5899 47.6572 33.6746 47.3421 33.6746ZM53.4371 31.9739C51.5941 32.516 51.2959 32.6311 50.7742 32.6311C50.4252 32.6311 49.9678 32.5668 49.2225 32.3703H49.2191L46.7628 31.7401V30.8592L53.4371 31.9739ZM55.3412 31.4149C54.7517 31.5639 54.2062 31.5131 53.3423 31.364H53.3389L46.7662 30.2663V29.565L57.5196 30.7779L55.3412 31.4149ZM59.3966 29.3889C59.3153 29.5413 59.2306 29.687 59.1391 29.8225C58.763 30.3341 58.5326 30.307 57.3807 30.1749L46.7662 28.9755V28.3149L59.007 29.0365C59.0984 29.0433 59.3457 29.0568 59.5965 29.0738C59.5287 29.1619 59.4643 29.2635 59.3966 29.3889ZM61.4768 27.3832C61.4768 27.3832 61.2498 27.783 61.1346 27.9862C60.7789 28.5656 60.6027 28.5554 59.5626 28.4843L46.7662 27.7254V27.1934H61.5988C61.5581 27.2476 61.5174 27.312 61.4768 27.3832ZM63.2927 25.6756L62.9573 26.238C62.7236 26.6073 62.6287 26.6073 61.8359 26.6073H35.1929C35.4775 26.2821 35.552 25.9365 35.8569 25.6316C36.3583 25.1268 36.792 25.1302 37.1884 25.1302H62.9777C63.1572 25.1302 63.2894 25.1878 63.3436 25.2826C63.3978 25.3843 63.3808 25.5299 63.2927 25.6756ZM29.291 38.1705C29.4028 38.0079 29.5044 37.7944 29.64 37.4353C29.85 36.8797 31.0223 33.1834 31.3543 32.1365H32.6519C32.9839 33.1834 34.1561 36.8763 34.3662 37.4353C34.5017 37.7944 34.6034 38.0079 34.7152 38.1705C34.6745 38.14 34.6372 38.1095 34.5966 38.0722L32.9432 36.5036C32.6824 36.2563 32.391 36.0293 32.0014 36.0293C31.6118 36.0293 31.317 36.2563 31.0595 36.5036L29.4096 38.0756C29.3689 38.1095 29.3283 38.14 29.291 38.1705ZM25.615 37.7233C26.1707 37.4014 26.4756 36.8729 26.584 36.7035C27.1871 35.7515 28.5694 33.4307 29.335 32.1365H30.7411C30.4294 33.1156 29.2978 36.6866 29.0945 37.2286C28.9149 37.7063 28.671 38.3128 27.9697 38.3128C27.7291 38.3128 27.7834 38.3128 25.615 37.7233ZM22.4337 36.8593C22.8166 36.6459 23.0808 36.3613 23.2062 36.2393C24.0261 35.4161 26.1131 33.1936 27.0956 32.1399H28.6575C27.78 33.6204 26.6077 35.5787 26.0928 36.3918C25.842 36.7882 25.4287 37.4014 24.6393 37.4014C24.3446 37.398 24.3344 37.3743 22.4337 36.8593ZM19.0525 35.9412C19.4693 35.8125 19.825 35.5922 20.0079 35.4669C20.9938 34.7893 23.5009 32.9428 24.5885 32.1399H26.2994C25.2322 33.2782 23.5179 35.101 22.7962 35.826C22.4913 36.1343 22.0611 36.5443 21.4444 36.5443C21.2107 36.5409 21.2581 36.5409 19.0525 35.9412ZM16.952 34.237C17.0638 34.2201 17.1824 34.1964 17.3111 34.1557C18.026 33.9457 19.0763 33.3867 21.5698 32.1365H23.6026C22.3728 33.0411 20.4924 34.42 19.6759 34.9824C19.2999 35.2399 18.8255 35.4635 18.3885 35.4635C17.9108 35.4635 17.7041 35.2568 17.4195 34.8333C17.2705 34.6165 17.1383 34.4268 16.952 34.237ZM14.3365 33.0784C14.5194 33.0411 14.7125 32.9937 14.926 32.9361L18.0429 32.1365H20.2654C17.9684 33.2952 17.2298 33.6746 16.6572 33.6746C16.3489 33.6746 16.0847 33.5899 14.3365 33.0784ZM17.24 30.8592V31.7401L14.7837 32.3703H14.7803C14.0349 32.5668 13.5776 32.6311 13.2286 32.6311C12.7069 32.6311 12.4087 32.5126 10.5657 31.9739L17.24 30.8592ZM6.48653 30.7779L17.24 29.565V30.2663L10.6639 31.364H10.6605C9.79658 31.5131 9.25111 31.5605 8.66161 31.4149L6.48653 30.7779ZM4.4097 29.0738C4.66041 29.0568 4.90773 29.0433 4.9992 29.0365L17.24 28.3149V28.9755L6.62543 30.1749C5.47352 30.307 5.24314 30.3341 4.86707 29.8225C4.7756 29.687 4.6909 29.5413 4.60959 29.3889C4.54183 29.2669 4.47407 29.1619 4.4097 29.0738ZM2.4074 27.1968H17.24V27.7287L4.44019 28.4876C3.40347 28.5588 3.2239 28.569 2.86817 27.9896C2.75297 27.7863 2.52937 27.3899 2.52598 27.3866C2.48871 27.3154 2.44806 27.2544 2.4074 27.1968ZM0.66598 25.286C0.720188 25.1878 0.855707 25.1336 1.03188 25.1336H26.8212C27.2176 25.1336 27.6512 25.1302 28.1526 25.635C28.4576 25.9433 28.5287 26.2855 28.8167 26.6107H2.16685C1.37407 26.6107 1.28259 26.6107 1.04543 26.2414L0.710024 25.679C0.625325 25.5333 0.608385 25.3877 0.66598 25.286Z" fill="white"/>
</svg>
