<svg width="64" height="64" viewBox="0 0 64 64" fill="none" xmlns="http://www.w3.org/2000/svg">
<path d="M58.41 26.64L62.82 20.4133H1.19666L5.60665 26.64L7.31999 35.8C7.50999 36.6733 7.67332 37.4267 8.26999 38.08C8.88666 38.7533 10.2467 39.23 11.9033 39.6267C16.44 40.7033 26.85 42.7967 32.0067 43.6033C37.16 42.7967 47.5733 40.7033 52.1133 39.6267C53.7733 39.2333 55.13 38.7567 55.7467 38.08C56.3433 37.43 56.5067 36.6733 56.6967 35.8L58.41 26.64ZM32.0067 43.1767C26.8233 42.3633 16.51 40.2867 12 39.2167C8.61332 38.41 8.43332 37.36 8.05665 35.6333C7.92665 35.0367 6.78332 28.8667 6.34332 26.4733L2.35332 20.8367H61.6633L57.67 26.4733C57.2333 28.8667 56.0867 35.0367 55.9566 35.6333C55.58 37.36 55.4 38.41 52.0133 39.2133C47.5033 40.2867 37.1867 42.3633 32.0067 43.1767ZM5.50332 21.8967L8.64999 26.39C9.43999 31.0667 9.92332 34.0733 10.1267 35.12C10.4767 36.9433 10.54 37.73 12.4233 38.2367C16.17 39.1233 27.02 41.3533 32.0067 42.1067C36.9933 41.3533 47.85 39.1267 51.5933 38.2367C53.4767 37.73 53.5366 36.9433 53.89 35.12C54.09 34.0733 54.5767 31.0667 55.3666 26.39L58.5133 21.8967H5.50332ZM7.62665 23.5533H31.6833V25.85H31.0933V24.1467H13.4533L14.4367 25.8567H9.23666L7.62665 23.5533ZM9.45332 26.4H31.6833V28.11H9.73999L9.45332 26.4ZM31.6833 32.62V33.8467H23.4633V32.62H31.6833ZM15.3133 30.9733H10.22L9.82999 28.64H31.6833V30.9733H31.0933V29.1867H15.1233L15.3133 30.9733ZM22.89 37.8067H14.08C13.4633 37.6667 13.0133 37.5667 12.6133 37.4733C11.7833 37.2467 11.5333 37.01 11.4 36.8067C11.3567 36.7433 11.3233 36.6767 11.2867 36.5967H22.8867V37.8067H22.89ZM10.31 31.5233H22.89V34.95H10.8967L10.31 31.5233ZM31.6833 41.2567C29.53 40.92 26.5267 40.3633 23.46 39.7567V35.5067H31.6833V41.2567ZM32.3267 23.5533H40.6233V26.9867H32.3267V23.5533ZM32.3267 28.6433H40.6233V29.8667H32.3267V28.6433ZM52.6166 36.81C52.48 37.0133 52.2333 37.2667 51.4 37.4733C47.71 38.39 37.56 40.4 32.33 41.26V36.5933L52.7267 36.5967C52.7033 36.6633 52.6467 36.76 52.6166 36.81ZM52.8867 36.0867H32.3267V34.3833H53.22L52.8867 36.0867ZM53.3133 33.85H48.36L48.6033 32.1133H32.9167V33.8433H32.3267V31.52H53.7033L53.3133 33.85ZM53.7967 30.9733H41.1933V27.5367H54.37L53.7967 30.9733ZM54.7467 25.86L41.1933 25.8667V24.6467H55.5967L54.7467 25.86ZM36.9767 39.84C36.1567 39.9967 33.8567 40.3967 32.9167 40.5667V37.1833H47.4467C46.7533 38.0033 45.32 38.2467 36.9767 39.84Z" fill="white"/>
</svg>
