<svg xmlns="http://www.w3.org/2000/svg" fill="none" viewBox="0 0 64 64">
  <g clip-path="url(#clip0_4866_18806)">
    <path fill="white" d="M32 7C18.1946 7 7 18.1946 7 32s11.1946 25 25 25 25-11.1946 25-25S45.8104 7 32 7Zm23.3764 25c0 12.9084-10.463 23.3764-23.3764 23.3764-12.9134 0-23.3764-10.468-23.3764-23.3764S19.0916 8.6236 32 8.6236 55.3764 19.0916 55.3764 32Z"/>
    <path fill="white" d="M44.1167 21.3918c.3407.3658.8268.9521 1.1024 1.3079l5.0611-3.2121c-.2555-.3307-.6564-.8318-.9571-1.1876l-3.2071 2.1197-.2204.1904.1653-.2405 1.4131-2.8262-1.0022-1.0022-2.8262 1.4181-.2355.1603.1904-.2204 2.1197-3.2071a29.4915 29.4915 0 0 0-1.1876-.9621l-3.2171 5.0611c.4059.3157.9421.7717 1.2878 1.0874l3.0267-1.5684.1954-.1404-.1403.1955-1.5684 3.0266Z"/>
    <path fill="white" d="m32.6314 14.9826 1.383-3.0968.0902-.2756-.025.2856.1453 4.1391c.4861.0451.9872.1153 1.4782.1955l-.2255-6.1335c-.6915-.0752-1.378-.1303-2.0695-.1604l-1.363 3.3825-.0501.2505-.0451-.2505-1.363-3.3825c-.6865.03-1.378.0852-2.0696.1604l-.2255 6.1335c.4961-.0802.9972-.1504 1.4833-.1955l.1453-4.1391-.025-.2856.0902.2756 1.383 3.0968h1.2628Z"/>
    <path fill="white" d="M21.4418 19.8683c.8017-.8418 1.2527-1.814.451-2.746-.436-.5061-1.1676-.6164-1.7739-.3658l-.0602.025.0201-.0551c.0902-.2405.1453-1.0022-.5061-1.5334-.3157-.2555-.7166-.3507-1.1175-.3106-.7517.0751-1.3279.5913-2.9014 2.3451-.471.5312-1.1625 1.363-1.5785 1.9042l4.3195 4.099c1.4332-1.5885 2.0195-2.1748 3.147-3.3674m-5.6374-.9972c.8719-1.0623 1.7939-2.0294 2.2148-2.4103.1303-.1202.2756-.2405.451-.2906.2857-.0802.5763.1253.6414.4159.0652.2957-.1152.5713-.3207.8018-.461.5211-2.1447 2.285-2.1447 2.285l-.8418-.7968m1.6887 1.6036s1.6436-1.7389 2.1798-2.2951c.2104-.2205.3507-.3558.4961-.4259.1904-.0952.3958-.1103.5812.01.1804.1203.2656.3307.2205.5412-.0551.2455-.2555.4861-.4259.6665-.2255.2455-2.1748 2.3301-2.1798 2.3301l-.8769-.8318.005.005Z"/>
    <path fill="white" d="M46.8276 32H32V17.1724c8.193 0 14.8276 6.6295 14.8276 14.8276Z"/>
    <path fill="white" d="M32 32v14.8276c-8.193 0-14.8276-6.6296-14.8276-14.8276H32Z"/>
    <path fill="#0067B2" d="M32 17.1724V32H17.1724c0-8.193 6.6296-14.8276 14.8276-14.8276Z"/>
    <path fill="#0067B2" d="M46.8276 32c0 8.193-6.6296 14.8276-14.8276 14.8276V32h14.8276Z"/>
  </g>
  <defs>
    <clipPath id="clip0_4866_18806">
      <path fill="white" d="M7 7h50v50H7z"/>
    </clipPath>
  </defs>
</svg>
