<svg width="64" height="64" viewBox="0 0 64 64" fill="none" xmlns="http://www.w3.org/2000/svg">
<path d="M32 15C17.6431 15 6 22.3906 6 31.5C6 40.6094 17.6431 48 32 48C46.3569 48 58 40.6094 58 31.5C58 22.3906 46.3569 15 32 15ZM32 40.9531C29.899 40.9531 28.1481 36.8281 27.9731 31.5859C30.5993 31.8438 33.3131 31.8438 35.9394 31.5859C35.8519 36.8281 34.101 40.9531 32 40.9531ZM28.2357 27.4609C28.8485 23.7656 30.2492 21.1875 32 21.1875C33.7508 21.1875 35.1515 23.7656 35.7643 27.4609C33.2256 27.7187 30.7744 27.7187 28.2357 27.4609ZM32 17.4062C29.1987 17.4062 26.835 21.5312 25.9596 27.2031C20.7071 26.4297 16.9428 24.5391 16.9428 22.3906C16.9428 19.4687 23.6835 17.1484 32 17.1484C40.3165 17.1484 47.0572 19.4687 47.0572 22.3906C47.0572 24.5391 43.3805 26.3437 38.0404 27.2031C37.165 21.4453 34.8013 17.4062 32 17.4062ZM9.67677 30.8984C9.67677 28.0625 10.8148 25.4844 12.6532 23.25C12.6532 23.4219 12.6532 23.5937 12.6532 23.7656C12.6532 27.2891 18.0808 30.2969 25.5219 31.4141C25.5219 31.6719 25.5219 31.9297 25.5219 32.1875C25.5219 38.8047 27.3603 44.3047 29.9865 46.1953C18.6936 45.4219 9.67677 38.8906 9.67677 30.8984ZM33.9259 46.1094C36.5522 44.2187 38.3906 38.6328 38.3906 32.1016C38.3906 31.8438 38.3906 31.5859 38.3906 31.3281C45.9192 30.2109 51.2593 27.2031 51.2593 23.6797C51.2593 23.5078 51.2593 23.3359 51.2593 23.1641C53.1852 25.3984 54.2357 28.0625 54.2357 30.8125C54.3232 38.8906 45.3064 45.4219 33.9259 46.1094Z" fill="white"/>
</svg>
