<svg width="64" height="64" viewBox="0 0 64 64" fill="none" xmlns="http://www.w3.org/2000/svg">
<path d="M30.5409 20.7355C29.7839 20.8938 28.022 21.41 25.737 22.1396L24.7391 22.4561L22.8809 22.4493C20.9332 22.4355 18.1183 22.3254 8.11819 21.8711C-0.601761 21.472 -0.0374066 21.4857 0.0314171 21.6027C0.3893 22.2084 1.09818 22.697 1.82771 22.8278C2.57101 22.9723 5.16566 23.2201 13.5897 23.9703C15.9366 24.1836 18.4142 24.4107 19.0956 24.4864C22.6606 24.8787 23.397 25.2228 24.4088 26.9572C25.4273 28.7122 25.9091 29.4211 26.7419 30.364C27.7673 31.5271 29.6325 32.938 31.2636 33.7776L32 34.1562L32.7364 33.7776C34.3469 32.9517 36.2327 31.5271 37.2581 30.364C38.0909 29.4211 38.5727 28.7122 39.5912 26.9572C40.603 25.2228 41.3394 24.8787 44.9044 24.4864C45.5858 24.4107 48.0634 24.1836 50.4103 23.9703C58.8343 23.2201 61.429 22.9723 62.1723 22.8278C62.9018 22.697 63.6107 22.2084 63.9686 21.6027C64.0374 21.4857 64.6018 21.472 55.8818 21.8711C47.795 22.2359 43.5417 22.4148 41.4288 22.463C39.3641 22.5112 39.6738 22.5663 36.6594 21.6371C33.9752 20.8044 33.1631 20.6185 32.1376 20.591C31.4907 20.5704 31.1948 20.5979 30.5409 20.7355ZM33.8032 22.0157C35.2554 22.3804 37.0585 22.9792 37.8294 23.3508C38.6002 23.7294 38.786 23.9427 38.7654 24.452C38.7447 25.2779 37.6848 27.6936 36.8314 28.8843C36.3084 29.6207 35.2554 30.7081 34.4432 31.3619C33.7894 31.8919 32.3097 32.8692 32.0826 32.9311C31.8004 32.9999 30.2244 31.9538 29.0268 30.9077C27.8086 29.8409 26.8864 28.6365 26.1775 27.1912C25.7921 26.3997 25.2897 25.0095 25.2209 24.5208C25.1314 23.929 25.5581 23.5573 26.9071 23.0343C28.0564 22.5869 30.4102 21.9193 31.5871 21.706C31.9518 21.644 32.7639 21.7541 33.8032 22.0157Z" fill="white"/>
<path d="M27.0378 24.8512C26.7144 25.0646 26.5836 25.4775 26.7144 25.8767C26.8726 26.3929 27.4576 26.62 28.0702 26.4066C28.2767 26.3309 28.2835 26.3171 28.2835 25.9248V25.5188H27.9738C27.671 25.5188 27.5609 25.622 27.7674 25.6977C27.8293 25.7253 27.8706 25.8285 27.8706 25.973C27.8706 26.1864 27.8568 26.207 27.6641 26.207C27.1755 26.207 26.9346 25.5601 27.2581 25.1403C27.3888 24.982 27.4508 24.9613 27.6916 24.982C27.8499 25.0026 28.0289 25.037 28.0977 25.0646C28.1941 25.1127 28.2147 25.0852 28.2147 24.9476C28.2147 24.7548 28.0771 24.6929 27.5884 24.6929C27.3751 24.6929 27.1961 24.7411 27.0378 24.8512Z" fill="white"/>
<path d="M28.5382 24.7411C28.5107 24.7617 28.5176 24.8168 28.5589 24.865C28.5933 24.9063 28.6346 25.2779 28.6415 25.6977L28.6621 26.4479L29.2678 26.4686C29.8321 26.4892 29.8665 26.4823 29.8665 26.3447C29.8665 26.2208 29.8252 26.207 29.4467 26.207H29.0338L29.0544 25.9455C29.0751 25.6909 29.0751 25.6909 29.4054 25.6702C29.6325 25.6564 29.7289 25.622 29.7289 25.5463C29.7289 25.4775 29.6394 25.45 29.3848 25.45H29.0407V25.2091V24.9682H29.4605C29.8184 24.9682 29.8734 24.9544 29.839 24.8581C29.8184 24.7962 29.7977 24.7342 29.7977 24.7204C29.7977 24.6723 28.5864 24.6929 28.5382 24.7411Z" fill="white"/>
<path d="M30.1005 24.7755C30.073 24.8168 30.0867 24.8718 30.128 24.8856C30.1831 24.8994 30.2106 25.154 30.2106 25.7046C30.2106 26.4823 30.2106 26.4892 30.3689 26.4686C30.5066 26.4479 30.5203 26.3997 30.5547 25.973L30.5892 25.4913L30.9883 25.9937C31.298 26.3722 31.4288 26.4823 31.5389 26.4686C31.6834 26.4479 31.6903 26.4135 31.6903 25.5876C31.6903 24.7548 31.6834 24.7273 31.5389 24.7067C31.3944 24.686 31.3875 24.7136 31.3669 25.2366L31.3462 25.7941L30.9126 25.2435C30.5892 24.8237 30.4446 24.6929 30.3207 24.6929C30.2244 24.6929 30.128 24.7273 30.1005 24.7755Z" fill="white"/>
<path d="M32 24.7893C32 24.8443 32.0344 24.9132 32.0688 24.9338C32.1101 24.9613 32.1376 25.2986 32.1376 25.7322V26.4823H32.7226C33.2595 26.4823 33.3076 26.4686 33.3076 26.3447C33.3076 26.2208 33.2595 26.207 32.9291 26.207H32.5506V25.9317V25.6564H32.8947C33.1562 25.6564 33.2388 25.6289 33.2388 25.5532C33.2388 25.4775 33.1562 25.45 32.8947 25.45H32.5506V25.2091V24.9682H32.936C33.2595 24.9682 33.3145 24.9476 33.2939 24.8443C33.2732 24.748 33.1769 24.7273 32.6332 24.7067C32.1101 24.6929 32 24.7067 32 24.7893Z" fill="white"/>
<path d="M33.8032 24.7617C33.7206 24.7961 33.6174 24.9063 33.583 25.0095C33.4797 25.2779 33.6311 25.5188 34.0303 25.739C34.4295 25.9524 34.4914 26.1589 34.1817 26.1933C34.0716 26.207 33.8927 26.1864 33.7825 26.1451C33.583 26.0763 33.5761 26.0831 33.5967 26.2621C33.6174 26.441 33.638 26.4479 34.0372 26.4686C34.3744 26.4823 34.4846 26.4617 34.636 26.3447C34.987 26.0694 34.8631 25.6771 34.34 25.4156C34.0923 25.2917 33.9959 25.2022 33.9959 25.0921C33.9959 24.9613 34.0234 24.9544 34.3744 24.9888C34.7117 25.0233 34.753 25.0095 34.753 24.8994C34.753 24.8306 34.7048 24.7548 34.6428 24.7342C34.4846 24.6723 33.989 24.6929 33.8032 24.7617Z" fill="white"/>
<path d="M35.0558 24.7755C35.0283 24.8168 35.0421 24.8719 35.0834 24.8856C35.1384 24.8994 35.1659 25.154 35.1659 25.6977V26.4823H35.3724H35.5789V25.5876V24.6929H35.3449C35.2141 24.6929 35.0834 24.7273 35.0558 24.7755Z" fill="white"/>
<path d="M36.1915 24.7962C35.7923 25.0164 35.9093 25.4431 36.4392 25.7184C36.6732 25.8423 36.7834 25.9455 36.7834 26.035C36.7834 26.2002 36.5012 26.2552 36.1915 26.1451C35.9919 26.0763 35.985 26.0832 36.0057 26.2621C36.0263 26.441 36.047 26.4479 36.4461 26.4686C36.9692 26.4961 37.2307 26.324 37.2307 25.973C37.2307 25.7253 37.1412 25.622 36.7008 25.3812C36.5081 25.2779 36.4048 25.1678 36.4048 25.0852C36.4048 24.9613 36.4392 24.9544 36.7834 24.9889C37.1206 25.0233 37.1619 25.0095 37.1619 24.8994C37.1619 24.8306 37.1137 24.7549 37.0518 24.7342C36.8591 24.6585 36.3773 24.6929 36.1915 24.7962Z" fill="white"/>
<path d="M2.00668 23.7156C2.02045 23.75 2.26133 23.984 2.54351 24.2456C4.58068 26.1038 6.06728 26.6682 9.83881 26.9916C11.5594 27.143 13.9063 27.2876 16.7556 27.4115C18.1183 27.4734 19.3984 27.556 19.6049 27.5973C19.8595 27.6455 20.0454 27.7349 20.2243 27.8932C20.3619 28.0171 20.4514 28.141 20.4308 28.1616C20.3895 28.2029 15.4273 28.1203 12.6262 28.0309C11.7452 28.0033 11.3392 28.0102 11.3873 28.0584C11.5456 28.2167 14.9868 29.1802 16.8864 29.6L17.8568 29.8134L20.5409 29.8203C23.4521 29.8272 23.4315 29.8272 23.8031 30.2195L23.9614 30.3915L23.6655 30.4328C23.3282 30.4741 21.4356 30.6118 21.1878 30.6118C21.0915 30.6118 21.0571 30.6393 21.0984 30.6737C21.1741 30.7563 23.6173 31.4239 24.7047 31.6716C25.7164 31.8919 27.4577 32.2153 27.4921 32.1809C27.5058 32.1672 27.3475 32.0158 27.1342 31.8506C26.2464 31.1417 25.2415 29.9235 23.9408 27.9965C23.2663 26.9916 22.5781 26.2415 22.1032 25.9799C21.4631 25.6358 20.0109 25.3812 16.9276 25.0715C8.93034 24.2869 2.39209 23.6606 2.09615 23.6606C2.03421 23.6606 1.99292 23.6881 2.00668 23.7156Z" fill="white"/>
<path d="M59.0478 23.9083C57.7057 24.0322 55.0078 24.2937 53.0601 24.4865C51.1124 24.6792 48.5728 24.9269 47.4166 25.0439C43.996 25.3743 42.5576 25.622 41.8969 25.9799C41.422 26.2415 40.7338 26.9916 40.0593 27.9965C38.7586 29.9235 37.7537 31.1417 36.8659 31.8506C36.6526 32.0158 36.4943 32.1672 36.508 32.1809C36.5424 32.2153 38.2837 31.8919 39.2954 31.6716C40.3828 31.4239 42.826 30.7563 42.9018 30.6737C42.943 30.6393 42.9086 30.6118 42.8123 30.6118C42.5645 30.6118 40.6719 30.4741 40.3346 30.4328L40.0387 30.3915L40.197 30.2195C40.5686 29.8272 40.548 29.8272 43.4592 29.8203L46.1433 29.8134L47.1138 29.6C49.0064 29.1802 52.4545 28.2167 52.6128 28.0584C52.6609 28.0102 52.2618 28.0033 51.4084 28.0309C48.7105 28.1135 43.6106 28.2029 43.5693 28.1616C43.5487 28.141 43.6382 28.0171 43.7758 27.8932C43.9548 27.7349 44.1406 27.6455 44.3952 27.5973C44.6017 27.556 45.8818 27.4734 47.2445 27.4115C50.0938 27.2876 52.4338 27.143 54.1613 26.9916C57.926 26.6682 59.4194 26.1038 61.4566 24.2456C61.7388 23.984 61.9865 23.75 61.9934 23.7156C62.0278 23.633 61.7319 23.6537 59.0478 23.9083Z" fill="white"/>
<path d="M20.5685 38.4576C19.4329 38.6503 18.6414 39.7102 18.7378 40.9077C18.7997 41.7199 19.2884 42.4494 20.011 42.8004C20.2863 42.938 20.4377 42.9656 21.0227 42.9656C21.6284 42.9656 21.7591 42.9449 22.1033 42.7798C22.3235 42.6765 22.6126 42.5113 22.7433 42.4081L22.9842 42.2292V41.3757V40.5223H22.2271H21.4701V40.7976V41.0729H21.9174H22.3648V41.4721C22.3648 41.7749 22.3304 41.9057 22.2478 41.9814C21.9863 42.2085 21.6215 42.3324 21.1466 42.3668C20.7061 42.3943 20.6029 42.3737 20.2794 42.2154C19.6876 41.9263 19.4054 41.4239 19.4054 40.66C19.4123 39.7033 20.0523 39.0564 20.9883 39.0564C21.5183 39.0564 21.8899 39.2216 22.2203 39.5932L22.4405 39.8479L22.6745 39.6827C22.8053 39.6001 22.9154 39.5037 22.9154 39.4831C22.9154 39.4625 22.8053 39.3179 22.6745 39.1596C22.2203 38.6297 21.3256 38.3337 20.5685 38.4576Z" fill="white"/>
<path d="M37.5679 38.4507C36.7351 38.6159 36.2809 39.4074 36.5974 40.13C36.7695 40.5155 37.093 40.7426 37.7124 40.9078C38.5176 41.1211 38.6759 41.2588 38.6759 41.7268C38.6759 41.9126 38.6209 42.0296 38.4694 42.1879C38.2699 42.3806 38.2286 42.3943 37.8294 42.3668C37.3339 42.3393 37.1067 42.2016 36.8865 41.8162L36.742 41.5616L36.508 41.7061C36.3772 41.7818 36.2671 41.885 36.2671 41.9263C36.2671 42.0915 36.6731 42.5802 36.9691 42.7729C37.2031 42.9312 37.3407 42.9725 37.7743 42.9862C38.2148 43.0069 38.3456 42.9793 38.6002 42.8486C39.0613 42.6146 39.3091 42.2567 39.3504 41.7956C39.4123 41.0592 39.0407 40.6325 38.0772 40.3503C37.4164 40.1507 37.1618 39.958 37.1618 39.6414C37.1618 38.9945 38.1184 38.8293 38.6484 39.3867L38.8617 39.6139L39.0751 39.4762C39.3297 39.3179 39.3366 39.311 39.1714 39.0564C38.8549 38.5884 38.1873 38.3337 37.5679 38.4507Z" fill="white"/>
<path d="M43.4316 38.4645C43.0462 38.5402 42.6814 38.8155 42.5231 39.1734C42.1653 39.9649 42.5851 40.6325 43.6106 40.9078C44.4296 41.1211 44.5947 41.2519 44.5947 41.7199C44.5947 42.1053 44.3539 42.3255 43.8927 42.3668C43.3972 42.4081 43.0531 42.2498 42.8053 41.8575L42.6264 41.5685L42.4061 41.7061C42.2823 41.7818 42.1859 41.8713 42.1859 41.9057C42.1859 42.1948 42.7709 42.7935 43.1839 42.9312C43.3284 42.9793 43.645 43 43.9065 42.9862C44.4915 42.9518 44.8907 42.7109 45.1316 42.2429C45.5583 41.3964 45.1316 40.6875 43.996 40.3434C43.3009 40.1369 43.0806 39.9718 43.0806 39.662C43.0806 39.3661 43.2458 39.1596 43.5624 39.077C43.9134 38.9807 44.3607 39.1321 44.581 39.4143L44.7462 39.6208L44.9802 39.4693C45.104 39.3868 45.2142 39.2973 45.2142 39.2698C45.2142 39.2422 45.1178 39.1115 44.9939 38.9738C44.6085 38.5333 44.0442 38.3475 43.4316 38.4645Z" fill="white"/>
<path d="M24.223 40.7288V42.9312H25.393H26.563V42.6559V42.3806H25.7027H24.8424V41.6924V41.0041H25.6408H26.4323L26.4116 40.7082L26.391 40.4191L25.6201 40.3985L24.8424 40.3778V39.7309V39.0771H25.7027H26.563V38.8018V38.5265H25.393H24.223V40.7288Z" fill="white"/>
<path d="M27.8018 40.7288V42.9312H28.1115H28.4212L28.4349 41.4102L28.4556 39.8892L29.9215 41.4446C30.7268 42.298 31.4288 43 31.4838 43C31.5733 43 31.5871 42.6765 31.5871 40.7632V38.5265H31.2774H30.9676V40.0543L30.9608 41.5891L29.4673 40.0543C28.6483 39.2147 27.9325 38.5196 27.8912 38.5265C27.8224 38.5265 27.8018 39.0151 27.8018 40.7288Z" fill="white"/>
<path d="M33.0325 40.7288V42.9312H34.2025H35.3725V42.6559V42.3806H34.5122H33.6519V41.6924V41.0041H34.4434H35.2348V40.6944V40.3847H34.4434H33.6519V39.7309V39.0771H34.5122H35.3725V38.8018V38.5265H34.2025H33.0325V40.7288Z" fill="white"/>
<path d="M40.4653 40.7288V42.9312H40.8095H41.1536V40.7288V38.5265H40.8095H40.4653V40.7288Z" fill="white"/>
</svg>
