<svg width="128" height="128" viewBox="0 0 128 128" fill="none" xmlns="http://www.w3.org/2000/svg">
<path d="M54.8571 9.14286C59.9066 4.0934 68.0934 4.09342 73.1428 9.14288L118.857 54.8572C123.907 59.9066 123.907 68.0934 118.857 73.1429L73.1428 118.857C68.0933 123.907 59.9066 123.907 54.8571 118.857L9.1428 73.1429C4.09334 68.0934 4.09335 59.9066 9.14281 54.8572L54.8571 9.14286Z" fill="#F3F4F8"/>
<path d="M55.8365 59.1198C55.8365 56.9149 57.5555 55.1212 59.6686 55.1212C61.7816 55.1212 63.5006 56.9149 63.5006 59.1198C63.5006 61.3247 61.7816 63.1184 59.6686 63.1184C57.5555 63.1184 55.8365 61.3247 55.8365 59.1198ZM92.5212 79.1713L70.3774 73.6946C66.7694 72.802 63.8875 70.0562 62.6696 66.4869C64.9598 65.4679 66.6808 63.3182 67.187 60.7148H87.6973L92.5212 79.1724V79.1713ZM89.9662 92.7388L38.1358 83.9828L36.0736 65.9184C35.4616 60.5586 36.3771 55.1913 38.7193 50.3979C41.0696 45.5874 44.6969 41.6929 49.2082 39.1363C52.9567 37.0121 57.2083 35.8889 61.5036 35.8889C67.2114 35.8889 72.6269 37.7995 77.1626 41.4156C81.6983 45.0306 84.8908 49.9792 86.3928 55.7258L86.6494 56.7077H66.9833C66.0006 53.4688 63.0932 51.1151 59.6686 51.1151C55.4384 51.1151 51.9974 54.7057 51.9974 59.1198C51.9974 63.2321 54.9852 66.6293 58.8152 67.0735C60.302 72.275 64.3539 76.3225 69.4925 77.5923L92.7778 83.3517L89.9672 92.7377L89.9662 92.7388Z" fill="#101223"/>
</svg>
