<svg xmlns="http://www.w3.org/2000/svg" fill="none" viewBox="0 0 45 45" class="svg-icon" >
<rect width="42" height="42" x="1.5" y="1.5" stroke="#fff" stroke-width="3" rx="21" />
<path fill="#fff" d="M22.896 32.773c-.993 0-1.968-.127-2.925-.382a8.472 8.472 0 0 1-2.598-1.203 6.183 6.183 0 0 1-1.846-2.038c-.455-.829-.683-1.804-.683-2.925h4.142c0 .601.091 1.112.274 1.53.182.411.446.748.793 1.013.346.255.76.442 1.244.56a6.714 6.714 0 0 0 1.6.178c.701 0 1.28-.096 1.736-.287.456-.2.793-.47 1.012-.807a2.04 2.04 0 0 0 .328-1.135c0-.465-.1-.866-.301-1.203-.192-.346-.565-.67-1.121-.97-.556-.301-1.372-.62-2.447-.957a23.572 23.572 0 0 1-2.57-.985 10.646 10.646 0 0 1-2.12-1.285 5.67 5.67 0 0 1-1.45-1.723c-.346-.656-.519-1.413-.519-2.27 0-1.12.315-2.096.944-2.925.629-.83 1.495-1.477 2.597-1.941 1.103-.465 2.375-.698 3.815-.698 1.476 0 2.762.265 3.855.793 1.094.52 1.942 1.244 2.543 2.174.61.92.916 1.978.916 3.172h-4.129c0-.556-.118-1.048-.355-1.477-.228-.428-.584-.765-1.067-1.011-.483-.246-1.093-.37-1.832-.37-.71 0-1.303.105-1.777.315-.465.21-.811.488-1.039.834a2.027 2.027 0 0 0-.342 1.162c0 .428.15.811.451 1.149.31.328.757.633 1.34.916.584.273 1.3.537 2.147.793 1.449.446 2.661.961 3.636 1.544.985.584 1.723 1.276 2.215 2.079.502.802.752 1.754.752 2.857 0 1.158-.296 2.151-.888 2.98-.593.82-1.431 1.45-2.516 1.887-1.085.438-2.356.656-3.814.656Z" />
</svg>