<svg width="128" height="128" viewBox="0 0 128 128" fill="none" xmlns="http://www.w3.org/2000/svg">
<path d="M54.8571 9.14286C59.9066 4.0934 68.0934 4.09342 73.1428 9.14288L118.857 54.8572C123.907 59.9066 123.907 68.0934 118.857 73.1429L73.1428 118.857C68.0933 123.907 59.9066 123.907 54.8571 118.857L9.1428 73.1429C4.09334 68.0934 4.09335 59.9066 9.14281 54.8572L54.8571 9.14286Z" fill="#F3F4F8"/>
<g clip-path="url(#clip0_484_6662)">
<path d="M58.2105 95.9983C58.3227 95.9995 58.4349 96.0001 58.5474 96.0001C76.2205 96.0001 90.5474 81.6732 90.5474 64.0001C90.5474 46.3269 76.2205 32.0001 58.5474 32.0001C58.4349 32.0001 58.3227 32.0006 58.2105 32.0018V38.7391C58.3226 38.7376 58.4349 38.7369 58.5474 38.7369C72.4998 38.7369 83.8105 50.0476 83.8105 64.0001C83.8105 77.9525 72.4998 89.2632 58.5474 89.2632C58.4349 89.2632 58.3226 89.2625 58.2105 89.261V95.9983Z" fill="#101223"/>
<path d="M58.2105 44.1264C69.3752 44.1264 78.4211 53.1722 78.4211 64.3369C78.4211 75.5016 69.3752 84.5474 58.2105 84.5474C47.0458 84.5474 38 75.5016 38 64.3369C38 53.1722 47.0458 44.1264 58.2105 44.1264ZM65.708 69.634C65.871 69.471 66.034 69.1451 66.034 68.8191C66.034 68.4116 65.7895 68.0856 65.545 67.8411L60.8183 64.3369V52.6018C60.8183 51.9498 60.1664 51.2979 59.5144 51.2979H56.9066C56.1732 51.2979 55.6027 51.9498 55.6027 52.6018V65.3148C55.6027 66.3743 56.0102 67.2707 56.8251 67.8411L62.2852 71.9159C62.4482 72.0788 62.7742 72.2418 63.0187 72.2418C63.5076 72.2418 63.8336 71.9973 64.0781 71.6714L65.708 69.634Z" fill="#101223"/>
</g>
<defs>
<clipPath id="clip0_484_6662">
<rect width="64" height="64" fill="white" transform="translate(32 32.0001)"/>
</clipPath>
</defs>
</svg>
