<svg width="128" height="128" viewBox="0 0 128 128" fill="none" xmlns="http://www.w3.org/2000/svg">
<path d="M54.8572 9.14285C59.9066 4.09339 68.0934 4.0934 73.1429 9.14286L118.857 54.8572C123.907 59.9066 123.907 68.0934 118.857 73.1429L73.1429 118.857C68.0934 123.907 59.9066 123.907 54.8571 118.857L9.14285 73.1429C4.09339 68.0934 4.0934 59.9066 9.14286 54.8571L54.8572 9.14285Z" fill="#F3F4F8"/>
<path d="M77.2944 67.3331H77.2964L70.1929 76.2237V67.209H53.1401V52.4434H77.2944V67.3331ZM49.3755 76.126H34.0308L25.6372 70.2745H42.271V67.211H25.2212V61.3594H42.2739V58.296H25.2212V52.4444H49.3755V76.126ZM103.444 76.1241H96.3384V58.294H79.7056L88.0991 52.4434H103.444V76.1241ZM60.2466 61.3575H70.1958V58.293H60.2466V61.3575Z" fill="#101223"/>
</svg>
