<svg width="128" height="128" viewBox="0 0 128 128" fill="none" xmlns="http://www.w3.org/2000/svg">
<path d="M54.8572 9.14285C59.9066 4.09339 68.0934 4.0934 73.1429 9.14286L118.857 54.8572C123.907 59.9066 123.907 68.0934 118.857 73.1429L73.1429 118.857C68.0934 123.907 59.9066 123.907 54.8571 118.857L9.14285 73.1429C4.09339 68.0934 4.0934 59.9066 9.14286 54.8571L54.8572 9.14285Z" fill="#427FC3"/>
<path d="M37.5718 57.3276C36.6424 57.3276 35.8889 58.0812 35.8889 59.0105V83.7281C35.8889 84.6575 36.6425 85.4109 37.5718 85.4109H47.711V57.3276H37.5718Z" fill="#101223"/>
<path d="M92.7346 66.6208C92.7346 64.4845 91.5867 62.6112 89.8754 61.5852C90.531 60.6384 90.9156 59.4898 90.9156 58.2535C90.9156 55.0187 88.2838 52.3869 85.049 52.3869H72.6648C73.0444 50.6669 73.5635 48.0859 73.9249 45.384C74.8656 38.3528 74.2227 34.4534 71.9019 33.1124C70.4551 32.2765 68.8951 32.1069 67.5093 32.6345C66.4387 33.0423 64.9929 34.0448 64.1691 36.5054L60.9142 45.0277C59.2641 49.1029 54.2108 53.3813 51.0769 55.7469V86.1556C56.8852 88.1907 62.946 89.2223 69.1294 89.2223H82.6234C85.8582 89.2223 88.4899 86.5905 88.4899 83.3557C88.4899 82.2229 88.1672 81.164 87.6088 80.2664C89.5645 79.3139 90.9154 77.3057 90.9154 74.9883C90.9154 73.7518 90.5308 72.6035 89.8752 71.6566C91.5867 70.6306 92.7346 68.7572 92.7346 66.6208Z" fill="#101223"/>
</svg>
