<svg width="128" height="128" viewBox="0 0 128 128" fill="none" xmlns="http://www.w3.org/2000/svg">
<path d="M54.8572 9.14285C59.9066 4.09339 68.0934 4.0934 73.1429 9.14286L118.857 54.8572C123.907 59.9066 123.907 68.0934 118.857 73.1429L73.1429 118.857C68.0934 123.907 59.9066 123.907 54.8571 118.857L9.14285 73.1429C4.09339 68.0934 4.0934 59.9066 9.14286 54.8571L54.8572 9.14285Z" fill="#FF4A0F"/>
<path d="M63.6429 32.3334C57.5885 32.3334 52.9304 37.6832 53.7632 43.68L56.5399 63.6723C57.0323 67.2176 60.0636 69.8569 63.6429 69.8569C67.2222 69.8569 70.2534 67.2176 70.7458 63.6723L73.5225 43.68C74.3554 37.6832 69.6972 32.3334 63.6429 32.3334Z" fill="#101223"/>
<path d="M63.6429 77.7217C58.5035 77.7217 54.3371 81.8881 54.3371 87.0275C54.3371 92.167 58.5035 96.3334 63.6429 96.3334C68.7824 96.3334 72.9488 92.167 72.9488 87.0275C72.9488 81.8881 68.7824 77.7217 63.6429 77.7217Z" fill="#101223"/>
</svg>
