<svg width="128" height="128" viewBox="0 0 128 128" fill="none" xmlns="http://www.w3.org/2000/svg">
<path d="M54.8572 9.14285C59.9066 4.09339 68.0934 4.0934 73.1429 9.14286L118.857 54.8572C123.907 59.9066 123.907 68.0934 118.857 73.1429L73.1429 118.857C68.0934 123.907 59.9066 123.907 54.8571 118.857L9.14285 73.1429C4.09339 68.0934 4.0934 59.9066 9.14286 54.8571L54.8572 9.14285Z" fill="#1EFF6B"/>
<g clip-path="url(#clip0_381_4780)">
<g clip-path="url(#clip1_381_4780)">
<path d="M83.0361 53.9517V41.0076H69.2595L83.0361 53.9517Z" fill="#101223"/>
<path d="M48.1396 56.6844H79.8594L63.9995 41.7828L48.1396 56.6844Z" fill="#101223"/>
<path d="M81.9355 60.851H46.0649L64.0002 101.881L81.9355 60.851Z" fill="#101223"/>
<path d="M44.9634 53.9517L58.7399 41.0076H44.9634V53.9517Z" fill="#101223"/>
<path d="M40.7969 56.6843V44.1454L28.8958 56.6843H40.7969Z" fill="#101223"/>
<path d="M87.2031 56.6843H99.1042L87.2031 44.1454V56.6843Z" fill="#101223"/>
<path d="M86.4821 60.851L71.854 94.3153L99.555 60.851H86.4821Z" fill="#101223"/>
<path d="M41.5173 60.851H28.4443L56.1453 94.3153L41.5173 60.851Z" fill="#101223"/>
</g>
</g>
<defs>
<clipPath id="clip0_381_4780">
<rect width="85.3333" height="85.3333" fill="white" transform="translate(21.3333 21.3334)"/>
</clipPath>
<clipPath id="clip1_381_4780">
<rect width="71.1111" height="71.1111" fill="white" transform="translate(28.4443 35.8889)"/>
</clipPath>
</defs>
</svg>
