<svg xmlns="http://www.w3.org/2000/svg" fill="none" viewBox="0 0 36 36" class="svg-icon" >
<path fill="#F3F4F8" d="M12.623 14.7c0-1.394 1.088-2.53 2.425-2.53 1.338 0 2.425 1.136 2.425 2.53 0 1.396-1.087 2.531-2.425 2.531-1.337 0-2.425-1.135-2.425-2.53ZM35.84 27.39l-14.014-3.466c-2.283-.565-4.107-2.302-4.877-4.561 1.449-.645 2.538-2.005 2.858-3.653h12.98l3.053 11.68Zm-1.617 8.585-32.8-5.54L.117 19.002A17.743 17.743 0 0 1 1.79 9.181C3.28 6.137 5.574 3.673 8.43 2.055A15.814 15.814 0 0 1 16.209 0c3.613 0 7.04 1.209 9.91 3.497s4.89 5.42 5.841 9.056l.163.621H19.677c-.622-2.05-2.461-3.539-4.629-3.539-2.677 0-4.854 2.273-4.854 5.066 0 2.602 1.89 4.752 4.314 5.033.941 3.291 3.506 5.853 6.757 6.656l14.736 3.645-1.779 5.94Z" />
</svg>