<svg xmlns="http://www.w3.org/2000/svg" fill="none" viewBox="0 0 48 48" class="svg-icon" >
<path fill="#F3F4F8" d="M46.956 30.299a6.321 6.321 0 0 0-2.448-2.18c.334-4.425-1.006-8.124-3.048-8.303l-.074-.007A19.34 19.34 0 0 0 37.842 9.17C34.23 4.047 28.413.988 22.284.988c-6.13 0-11.946 3.059-15.56 8.183A19.347 19.347 0 0 0 3.18 19.817l-.074.006C1.03 20.005-.33 23.82.066 28.345c.399 4.526 2.404 8.045 4.479 7.863l6.772-.594a2.162 2.162 0 0 0 1.964-2.343l-1.06-12.078a2.161 2.161 0 0 0-2.343-1.964l-1.791.157c.161-2.59 1.035-5.137 2.63-7.399 2.74-3.884 6.955-6.111 11.566-6.111 4.61 0 8.826 2.227 11.566 6.111 1.594 2.26 2.466 4.804 2.63 7.391l-1.791-.157a2.162 2.162 0 0 0-2.343 1.965l-1.06 12.078a2.16 2.16 0 0 0 1.964 2.343l6.772.594c1.526.134 3.01-1.744 3.849-4.542.128.134.258.267.361.426a3.08 3.08 0 0 1 .251 2.925l-2.15 4.946a4.11 4.11 0 0 1-3.772 2.474h-2.894c-.237-.76-.92-1.324-1.758-1.324h-5.363c-1.03 0-1.866.836-1.866 1.867v2.172c0 1.03.836 1.866 1.866 1.866h5.363c.839 0 1.521-.563 1.758-1.323h2.894c2.936 0 5.59-1.74 6.76-4.434l2.15-4.947a6.33 6.33 0 0 0-.514-6.008Z" />
</svg>