<svg width="64" height="64" viewBox="0 0 64 64" fill="none" xmlns="http://www.w3.org/2000/svg">
<path d="M33.1548 7.00391H33.1168H30.4665H30.4362L30.406 7.00781C30.3884 7.01074 30.3659 7.01172 30.3337 7.01172H30.2751C30.2507 7.01074 30.2263 7.00977 30.2019 7.00977C30.1843 7.00977 30.1667 7.00977 30.1492 7.00977C28.6922 7.04785 27.0927 7.14355 25.2617 7.30174C23.4259 7.45993 21.7678 7.66305 20.1917 7.92377C17.5054 8.36515 15.4811 8.85634 13.6286 9.51743C12.9021 9.77816 12.3211 10.0174 11.8016 10.2703C10.4472 10.9295 9.5527 11.9772 9.14062 13.3834C9.11816 13.4606 9.10351 13.5328 9.09081 13.5963C9.08203 13.6383 9.07421 13.6793 9.06347 13.7193C9.02344 13.8551 9 14.189 9 14.2779V17.6351L9.00684 17.6732C9.00684 17.6791 9.00684 17.7093 9.00586 17.7318C9.00488 17.7728 9.00293 17.8246 9.00586 17.8802C9.02832 18.2249 9.04883 18.5716 9.06933 18.9182C9.08984 19.2669 9.11035 19.6145 9.13378 19.9631C9.21971 21.2462 9.36717 22.5782 9.58493 24.0381C9.92475 26.327 10.4316 28.6169 11.0927 30.8424C12.9763 37.1955 16.1666 42.9715 20.5745 48.0103C23.0841 50.8763 25.9551 53.3879 29.1082 55.4776C29.7918 55.9317 31.5504 56.875 31.7184 56.9404L31.8707 57L32.024 56.9453C32.1891 56.8858 33.6763 56.1114 34.1616 55.8009C37.9837 53.3742 41.4356 50.2777 44.4198 46.5983C48.0622 42.1083 50.7886 37.0148 52.5228 31.4585C53.2718 29.069 53.8401 26.5819 54.2122 24.0674C54.346 23.1494 54.4593 22.212 54.5481 21.2804C54.6506 20.174 54.7249 19.2434 54.7522 18.2962C54.7825 17.2426 54.7786 16.1743 54.7747 15.1421C54.7747 14.9077 54.7727 14.6734 54.7727 14.439C54.7727 14.1158 54.7434 13.8219 54.6848 13.566C54.3567 12.1061 53.5013 11.0222 52.143 10.3465C51.6411 10.0955 51.0903 9.86116 50.5093 9.64926C48.2633 8.83778 45.741 8.24797 42.5713 7.79097C41.461 7.63082 40.3741 7.51169 39.4572 7.41599C38.4534 7.30858 37.4768 7.22362 36.556 7.16405C35.8168 7.11718 35.0688 7.08398 34.3452 7.05273C34.0103 7.03808 33.6743 7.02344 33.3394 7.00684C33.3228 7.00684 33.3072 7.00586 33.2925 7.00586C33.272 7.00586 33.2505 7.00586 33.2291 7.00684C33.2164 7.00684 33.2046 7.00684 33.1919 7.00684L33.1548 7V7.00391Z" fill="#212121"/>
<path d="M54.3372 14.4419C54.3372 14.1832 54.3176 13.9156 54.26 13.6646C53.9583 12.321 53.1722 11.3474 51.9486 10.7381C51.436 10.4822 50.9008 10.2566 50.3598 10.0604C47.8151 9.14049 45.1785 8.6083 42.5078 8.22453C41.4795 8.0761 40.4464 7.9599 39.4103 7.85151C38.4514 7.74897 37.4885 7.66402 36.5267 7.60055C35.4564 7.53219 34.3862 7.49508 33.3179 7.44431C33.3091 7.44431 33.3003 7.44431 33.2915 7.44431C33.2583 7.44431 33.2241 7.44626 33.1909 7.44626C33.1655 7.44626 33.1402 7.44528 33.1157 7.4404H30.4655C30.4206 7.44626 30.3766 7.44821 30.3327 7.44821C30.2888 7.44821 30.2448 7.44626 30.2009 7.44626C30.1872 7.44626 30.1735 7.44626 30.1599 7.44626C28.5369 7.48922 26.914 7.59762 25.2969 7.73628C23.6114 7.88178 21.9318 8.07806 20.261 8.35441C18.06 8.71572 15.8794 9.1776 13.7731 9.92853C13.1696 10.1453 12.5691 10.3816 11.991 10.6629C10.7753 11.2546 9.94132 12.195 9.55657 13.5074C9.52532 13.6158 9.51068 13.7291 9.48236 13.8346C9.4599 13.9117 9.43451 14.1871 9.43451 14.2798V17.598C9.44916 17.6781 9.43451 17.7699 9.43939 17.8519C9.48529 18.5462 9.52239 19.2415 9.56731 19.9358C9.65813 21.2882 9.81535 22.6348 10.0146 23.9756C10.3534 26.2586 10.8514 28.5046 11.5096 30.7203C13.3942 37.0773 16.5405 42.7401 20.9016 47.7252C23.3868 50.5639 26.2031 53.0315 29.3484 55.1153C30.0515 55.5821 31.777 56.4961 31.8766 56.5352C31.9781 56.4991 33.4282 55.753 33.9262 55.4337C37.8176 52.9622 41.1827 49.8959 44.0809 46.3239C47.7164 41.8427 50.3872 36.8381 52.1068 31.3287C52.8587 28.9313 53.4134 26.4891 53.7805 24.0039C53.9143 23.0869 54.0256 22.1651 54.1135 21.2394C54.2043 20.257 54.2874 19.2698 54.3157 18.2845C54.3528 17.0033 54.3381 15.7221 54.3352 14.441L54.3372 14.4419ZM52.3382 18.3616C52.3011 19.3948 52.2299 20.426 52.1332 21.4533C52.0424 22.4268 51.9174 23.4004 51.7748 24.3681C51.4477 26.577 50.9379 28.7468 50.2749 30.8795C48.692 35.9612 46.238 40.5849 42.9013 44.7302C40.2989 47.9615 37.2874 50.7513 33.8139 53.0286C33.2505 53.3957 32.6636 53.7258 32.0855 54.0734C32.023 54.1134 31.9547 54.1447 31.8775 54.1847C31.7096 54.091 31.5358 54.0002 31.3678 53.9025C29.2957 52.6985 27.3963 51.2552 25.6054 49.6664C24.0743 48.3081 22.6388 46.8512 21.3381 45.2683C18.7221 42.0858 16.5698 38.6202 14.9693 34.8167C13.7106 31.8189 12.7947 28.7185 12.2166 25.5184C12.0115 24.3828 11.8348 23.2461 11.7273 22.0997C11.6395 21.1603 11.5652 20.2209 11.4998 19.2786C11.4061 17.9037 11.409 16.5258 11.4285 15.148C11.4373 14.357 11.7703 13.6871 12.3025 13.1119C12.6218 12.7672 12.9997 12.4997 13.4216 12.2975C14.4518 11.8054 15.5308 11.446 16.6274 11.1414C18.185 10.7058 19.7679 10.3758 21.3674 10.1502C22.6574 9.9676 23.9464 9.79964 25.2422 9.66878C26.9931 9.49204 28.7527 9.41001 30.5094 9.33287C30.904 9.31529 31.2985 9.30748 31.692 9.30748C32.7359 9.30748 33.7778 9.36119 34.8197 9.42173C36.1488 9.49887 37.4788 9.58676 38.8058 9.71175C39.9679 9.826 41.1231 9.98517 42.2793 10.1473C43.7343 10.3494 45.1717 10.6365 46.5925 11.0066C47.8219 11.3259 49.0406 11.6902 50.2026 12.2165C50.6294 12.4069 51.0336 12.6325 51.3725 12.9567C52.0277 13.5855 52.3656 14.3521 52.3656 15.2603C52.3656 16.2934 52.3773 17.3304 52.3402 18.3607L52.3382 18.3616Z" fill="#32CD32"/>
<path d="M27.3348 18.8099C28.117 18.4593 28.6277 17.6693 28.618 16.7993C28.6082 15.8472 28.0213 15.0464 27.1229 14.7584C26.8729 14.6783 26.6093 14.6373 26.3388 14.6373C26.1855 14.6373 26.0263 14.65 25.8642 14.6763C24.8916 14.8316 24.1465 15.6245 24.0518 16.6049C23.9551 17.6107 24.502 18.5081 25.4756 18.8626C25.7138 18.9495 25.9667 19.0335 26.1904 19.1849C26.6562 19.5012 27.0702 19.6721 27.5379 19.7327C27.5711 19.7366 27.6063 19.7395 27.6424 19.7395C27.7313 19.7395 27.8524 19.718 27.9549 19.6536C28.0731 19.5794 28.7303 18.9173 28.7303 18.9173C28.7303 18.9173 28.2098 18.9769 28.0936 18.9778C27.7928 18.9798 27.5741 18.9075 27.3339 18.8099H27.3348ZM26.3759 18.1498L26.3427 18.1517C25.705 18.14 25.2031 17.8041 25.0322 17.2758C24.8486 16.7084 25.0381 16.1001 25.5049 15.7622C25.7304 15.5991 26.0234 15.5093 26.3281 15.5093C26.6718 15.5093 27.0067 15.6255 27.246 15.8276C27.6493 16.1684 27.8055 16.7328 27.6356 17.2328C27.4598 17.7513 27.0888 18.055 26.5331 18.138C26.4755 18.1468 26.4179 18.1488 26.3759 18.1498Z" fill="white"/>
<path d="M45.1014 15.6938C45.1014 16.2836 45.1014 16.8735 45.1004 17.4623L44.5624 16.8451C44.0253 16.229 43.4696 15.5923 42.9355 14.9566C42.8701 14.8785 42.7705 14.7652 42.7089 14.7056H42.0117V18.9407H42.8632V17.476C42.8623 17.2562 42.8535 16.3168 42.8544 16.2153L43.3886 16.8237C43.9149 17.4262 44.4588 18.0492 44.9803 18.6732C45.0076 18.7054 45.201 18.9124 45.2293 18.9397H45.9617V14.7046H45.1024V15.6929L45.1014 15.6938Z" fill="white"/>
<path d="M15.5533 14.7339C15.1461 14.7017 14.733 14.6998 14.3336 14.6968C14.1637 14.6968 13.5397 14.6978 13.5397 14.6978V18.9397H15.4986C15.523 18.9397 15.6353 18.9358 15.6646 18.931C16.7436 18.7581 17.5043 17.8382 17.4741 16.7446C17.4428 15.6489 16.6538 14.8218 15.5533 14.7339ZM16.5523 16.8959C16.5249 17.5306 16.0913 18.0072 15.4742 18.0814C15.2144 18.1126 15.0211 18.1156 14.7262 18.1156C14.652 18.1156 14.527 18.1146 14.443 18.1146V15.5395C14.528 15.5395 15.2633 15.5093 15.5894 15.5845C16.2212 15.7319 16.5815 16.2192 16.5513 16.8949L16.5523 16.8959Z" fill="white"/>
<path d="M36.2806 17.2289H37.8498V16.3901H36.2708V15.5376H36.9319L37.3801 15.5395H37.9026V14.7066H35.3734V18.9397H37.9592V18.1224H36.2728C36.2728 17.8636 36.2806 17.4603 36.2806 17.2279V17.2289Z" fill="white"/>
<path d="M40.2619 14.7056H39.4064V18.9456H40.2619V14.7056Z" fill="white"/>
<path d="M32.8141 14.7095L32.8111 15.8032C32.8082 16.3471 32.8062 16.892 32.8004 17.4359C32.7975 17.7396 32.6578 17.9476 32.3727 18.0736C32.2028 18.1478 32.0309 18.1859 31.86 18.1859C31.6891 18.1859 31.5182 18.1478 31.3503 18.0736C31.1003 17.9632 30.9665 17.7923 30.9411 17.5502L30.9362 17.5033C30.9216 17.3666 30.9069 17.2289 30.906 17.0922C30.903 16.6869 30.903 16.2817 30.904 15.8755V15.1568C30.904 15.0884 30.9021 14.7037 30.9021 14.7037H30.0212C30.0212 14.7037 30.0212 15.4556 30.0212 15.6919C30.0232 16.2954 30.0076 16.9193 30.03 17.5345C30.0544 18.1722 30.405 18.636 31.0456 18.8743C31.2956 18.9671 31.5612 19.0149 31.8346 19.0149C32.0241 19.0149 32.2213 18.9925 32.4205 18.9476C33.191 18.7747 33.6617 18.224 33.7124 17.434C33.7163 17.3695 33.7183 17.3041 33.7183 17.2387C33.7193 16.5229 33.7202 15.8061 33.7202 15.0894C33.7202 15.0396 33.7202 14.7095 33.7202 14.7095H32.815H32.8141Z" fill="white"/>
<path d="M21.7277 14.7095L21.7248 15.8032C21.7219 16.3471 21.7199 16.892 21.7141 17.4359C21.7111 17.7396 21.5715 17.9476 21.2873 18.0736C21.1174 18.1478 20.9456 18.1859 20.7747 18.1859C20.6038 18.1859 20.4329 18.1478 20.2649 18.0736C20.015 17.9632 19.8812 17.7923 19.8558 17.5502L19.8509 17.5033C19.8363 17.3666 19.8216 17.2289 19.8206 17.0922C19.8177 16.6869 19.8177 16.2817 19.8187 15.8755V15.1568C19.8187 15.0884 19.8167 14.7037 19.8167 14.7037H18.9359C18.9359 14.7037 18.9359 15.4556 18.9359 15.6919C18.9379 16.2954 18.9222 16.9193 18.9447 17.5345C18.9691 18.1722 19.3197 18.636 19.9603 18.8743C20.2103 18.9671 20.4759 19.0149 20.7493 19.0149C20.9387 19.0149 21.136 18.9925 21.3352 18.9476C22.1057 18.7747 22.5763 18.224 22.6271 17.434C22.631 17.3695 22.633 17.3041 22.633 17.2387C22.6339 16.5229 22.6349 15.8061 22.6349 15.0894C22.6349 15.0396 22.6349 14.7095 22.6349 14.7095H21.7297H21.7277Z" fill="white"/>
<path d="M48.5358 18.1234C48.5358 17.8646 48.5436 17.4613 48.5436 17.2289H50.1128V16.3901H48.5338V15.5376H49.1949L49.6431 15.5395H50.1656V14.7066H47.6364V18.9397H50.2222V18.1224H48.5358V18.1234Z" fill="white"/>
<path d="M39.257 34.7591C38.9631 33.0727 38.3645 31.5005 37.4915 30.0289C37.4651 29.983 37.4387 29.9332 37.4133 29.8834C37.4221 29.8746 37.4309 29.8639 37.4368 29.8551C38.4445 30.3033 39.4523 30.7496 40.4727 31.2046C40.7774 30.9547 41.0782 30.7086 41.376 30.4625C41.3408 30.3541 41.3174 30.2711 41.2871 30.1861C40.7208 28.6042 39.8917 27.1717 38.8058 25.8915C36.429 23.0928 33.3706 21.6495 29.7341 21.3966C28.4822 21.3097 27.2401 21.4318 26.0117 21.7013C24.6533 21.9972 23.3673 22.4844 22.1613 23.1787C22.092 23.2178 22.0285 23.2637 21.9611 23.3076C22.34 23.2032 22.6994 23.0743 23.0646 22.959C23.3263 22.8741 23.6173 22.8477 23.7872 22.5733C23.7628 22.6319 23.7413 22.6885 23.7149 22.752C23.7471 22.754 23.7716 22.7588 23.7911 22.754C24.3008 22.6651 24.8096 22.5753 25.3164 22.4796C25.4053 22.462 25.497 22.421 25.5732 22.3663C25.7578 22.2335 25.9345 22.086 26.1152 21.9444C26.1542 21.9142 26.2021 21.8898 26.246 21.8644C26.2499 21.8712 26.2548 21.88 26.2587 21.8858C26.1171 22.0597 25.9775 22.2315 25.83 22.4122C26.4218 22.4122 26.9813 22.4141 27.5428 22.4083C27.6209 22.4083 27.702 22.3819 27.7782 22.3536C28.2879 22.1573 28.7967 21.9601 29.3064 21.7618C29.3933 21.7296 29.4831 21.6984 29.5701 21.6681C29.3933 21.8204 29.2 21.9425 29.0105 22.0685C28.8211 22.1964 28.617 22.3077 28.4012 22.4815C29.1199 22.5684 29.7741 22.7149 30.4235 22.8887C30.5016 22.9102 30.5973 22.8868 30.6803 22.8623C31.233 22.6993 31.7818 22.5274 32.3326 22.3594C32.3824 22.3438 32.4332 22.336 32.483 22.3243C32.0523 22.6094 31.5904 22.8272 31.1227 23.1123C31.2272 23.1563 31.2877 23.1797 31.3473 23.2061C31.8131 23.4151 32.2857 23.6084 32.7359 23.8437C32.9409 23.9482 33.1275 23.9746 33.3472 23.9414C34.0415 23.8408 34.7358 23.7519 35.4301 23.6582C34.849 23.915 34.2377 24.0888 33.6274 24.333C34.0844 24.6621 34.5131 24.9726 34.9467 25.2841C34.9115 25.3563 34.8901 25.4013 34.8656 25.4452C34.269 26.5643 33.7817 27.7263 33.394 28.9323C32.8452 30.6471 32.5103 32.395 32.5933 34.2064C32.5972 34.307 32.5611 34.3763 32.4976 34.4418C32.2906 34.6576 32.0387 34.7923 31.7555 34.8665C31.5504 34.9212 31.3395 34.9495 31.109 34.9925C32.0709 37.1935 32.3472 39.4874 32.0191 41.8837C32.0474 41.9013 32.0719 41.9189 32.0953 41.9315C32.1558 41.9599 32.2154 41.9901 32.2759 42.0165C32.9859 42.3085 33.7231 42.3651 34.4741 42.2577C35.3529 42.1337 36.141 41.7743 36.8899 41.3105C38.0891 40.5664 38.8224 39.4913 39.1818 38.1417C39.4796 37.0207 39.4513 35.8889 39.256 34.7572L39.257 34.7591ZM36.1038 26.9627C36.5696 26.6278 37.301 26.6795 37.7454 27.0828C37.303 27.4177 36.4564 27.3396 36.1038 26.9627Z" fill="white"/>
<path d="M29.7243 33.602C29.6941 33.5375 29.6657 33.4721 29.6335 33.4018C29.6999 33.3666 29.7439 33.3412 29.7898 33.3178C30.3102 33.0522 30.818 32.7661 31.278 32.4018C31.5631 32.1763 31.8228 31.9253 32.0299 31.6236C32.273 31.2671 32.3677 30.8765 32.3287 30.4469C32.2896 30.0162 32.1802 29.6032 32.0308 29.2008C31.5426 27.8904 30.8336 26.6981 30.0563 25.5438C30.0437 25.5253 30.0183 25.5165 29.9704 25.4833C30.0065 25.7528 30.0339 25.9862 30.07 26.2186C30.2038 27.0682 30.4596 27.8855 30.7331 28.6979C30.8463 29.0329 30.9411 29.3747 31.0309 29.7174C31.1461 30.1539 31.0153 30.5367 30.7331 30.8707C30.6296 30.9937 30.5075 31.106 30.3796 31.2037C29.9284 31.5454 29.4011 31.7407 28.8894 31.9917C28.8572 31.9243 28.8308 31.8735 28.8074 31.8208C28.657 31.4917 28.5154 31.1587 28.3572 30.8336C27.7401 29.57 27.0389 28.3552 26.2245 27.2078C26.1825 27.1492 26.1562 27.0662 26.0488 27.0457C26.2206 28.9626 26.6981 30.7916 27.3417 32.5844C27.0487 32.6674 26.7811 32.7504 26.5097 32.8188C26.245 32.8852 25.9794 32.9555 25.7099 32.9907C25.1514 33.0629 24.5371 32.9262 24.1924 32.2436C24.129 32.1186 24.0616 31.9956 24.003 31.8677C23.8721 31.5786 23.7442 31.2876 23.6173 30.9966C23.2569 30.1754 22.8302 29.3922 22.299 28.6677C22.2629 28.6189 22.2218 28.5739 22.1828 28.528C22.1955 28.8288 22.2375 29.113 22.2873 29.3952C22.463 30.4078 22.6886 31.4087 23.045 32.3755C23.2276 32.8686 23.4435 33.3451 23.7647 33.768C24.0879 34.1927 24.5176 34.4144 25.042 34.4808C25.6084 34.5531 26.162 34.472 26.7138 34.3627C27.0673 34.2923 27.4169 34.2054 27.7869 34.1224C27.8631 34.3226 27.9442 34.5121 28.0076 34.7064C28.5652 36.4153 28.6941 38.1622 28.4393 39.9375C28.3621 40.4726 28.2225 40.9941 27.9647 41.4755C27.6922 41.9853 27.2665 42.2987 26.703 42.3934C25.7568 42.5526 24.8604 41.7802 25.1338 40.665C25.3652 39.7178 26.5712 39.3653 27.3338 39.9873C27.3905 40.0332 27.4442 40.082 27.5194 40.1465C27.5379 40.0537 27.5565 39.9834 27.5653 39.9131C27.6024 39.6055 27.6414 39.2969 27.6698 38.9884C27.783 37.7453 27.6454 36.5256 27.3153 35.3245C27.286 35.2171 27.2362 35.1653 27.1278 35.1409C26.1474 34.9173 25.1758 34.9427 24.2188 35.2503C21.759 36.0413 20.261 38.5626 20.6995 41.1523C21.1946 44.0769 24.1651 46.1647 27.1776 45.3903C29.3562 44.8298 31.0289 42.8329 31.1481 40.5947C31.1891 39.8184 31.1549 39.0421 31.0582 38.2706C30.8551 36.6467 30.4137 35.0892 29.7253 33.6029L29.7243 33.602Z" fill="white"/>
<path d="M41.9824 38.1866C41.5332 37.7804 41.0333 37.4552 40.4786 37.2141C40.378 37.7414 40.2823 38.2384 40.1837 38.755C41.254 39.3497 41.9756 40.2598 42.3818 41.4423C42.8388 41.29 43.2763 41.1435 43.7411 40.9892C43.3769 39.8936 42.8252 38.9483 41.9824 38.1866Z" fill="white"/>
<path d="M39.8976 39.4942C39.6251 39.9034 39.3537 40.3125 39.0685 40.7412C39.8244 41.6874 40.2052 42.7938 40.1612 44.0535C40.6515 44.076 41.1202 44.0965 41.583 44.117C41.8711 42.7919 40.9053 40.1778 39.8976 39.4942Z" fill="white"/>
</svg>
