<svg width="65" height="64" viewBox="0 0 65 64" fill="none" xmlns="http://www.w3.org/2000/svg">
<path d="M57.4528 32.0002C57.4528 36.8365 56.0187 41.5642 53.3318 45.5855C50.6449 49.6067 46.8259 52.7409 42.3577 54.5917C37.8895 56.4425 32.9729 56.9267 28.2295 55.9832C23.4861 55.0397 19.129 52.7108 15.7092 49.291C12.2894 45.8712 9.9605 41.5141 9.01698 36.7707C8.07347 32.0273 8.55771 27.1107 10.4085 22.6425C12.2593 18.1743 15.3935 14.3553 19.4147 11.6684C23.436 8.9815 28.1637 7.54737 33 7.54737C36.2117 7.54558 39.3922 8.17686 42.3598 9.4051C45.3274 10.6333 48.0237 12.4345 50.2947 14.7055C52.5658 16.9765 54.3669 19.6728 55.5951 22.6404C56.8233 25.608 57.4546 28.7885 57.4528 32.0002ZM33 9.03165C28.4572 9.03165 24.0165 10.3787 20.2393 12.9026C16.4622 15.4264 13.5182 19.0136 11.7798 23.2105C10.0414 27.4075 9.5865 32.0257 10.4728 36.4812C11.359 40.9366 13.5465 45.0292 16.7588 48.2414C19.971 51.4537 24.0636 53.6412 28.519 54.5275C32.9745 55.4137 37.5927 54.9588 41.7897 53.2204C45.9866 51.482 49.5738 48.538 52.0976 44.7609C54.6215 40.9837 55.9685 36.543 55.9685 32.0002C55.9768 28.9816 55.3884 25.9911 54.2371 23.2007C53.0857 20.4103 51.3942 17.875 49.2597 15.7405C47.1252 13.606 44.5899 11.9145 41.7995 10.7631C39.0091 9.6118 36.0186 9.02336 33 9.03165Z" fill="url(#paint0_linear_6798_7323)"/>
<path d="M32.9999 9.03134C28.4572 9.03134 24.0165 10.3784 20.2393 12.9022C16.4621 15.4261 13.5182 19.0133 11.7798 23.2102C10.0413 27.4072 9.58647 32.0254 10.4727 36.4808C11.359 40.9363 13.5465 45.0289 16.7587 48.2411C19.9709 51.4533 24.0635 53.6409 28.519 54.5271C32.9745 55.4134 37.5927 54.9585 41.7896 53.2201C45.9866 51.4817 49.5738 48.5377 52.0976 44.7606C54.6214 40.9834 55.9685 36.5427 55.9685 31.9999C55.9768 28.9813 55.3884 25.9908 54.237 23.2004C53.0857 20.41 51.3942 17.8747 49.2597 15.7402C47.1252 13.6057 44.5899 11.9142 41.7994 10.7628C39.009 9.61148 36.0185 9.02304 32.9999 9.03134ZM32.9999 53.4842C28.7508 53.4842 24.597 52.2242 21.0639 49.8634C17.5308 47.5027 14.7772 44.1473 13.1511 40.2216C11.525 36.2958 11.0995 31.9761 11.9285 27.8085C12.7575 23.641 14.8036 19.8129 17.8083 16.8082C20.8129 13.8036 24.641 11.7574 28.8086 10.9284C32.9761 10.0995 37.2959 10.5249 41.2216 12.151C45.1474 13.7771 48.5028 16.5308 50.8635 20.0639C53.2242 23.5969 54.4842 27.7507 54.4842 31.9999C54.4858 34.8217 53.9312 37.6162 52.8521 40.2235C51.773 42.8308 50.1905 45.1998 48.1952 47.1951C46.1999 49.1905 43.8308 50.7729 41.2235 51.852C38.6162 52.9312 35.8218 53.4858 32.9999 53.4842Z" fill="url(#paint1_linear_6798_7323)"/>
<path opacity="0.4" d="M33 56.4528C37.8363 56.4528 42.564 55.0187 46.5853 52.3318C50.6065 49.6449 53.7407 45.8259 55.5915 41.3577C57.4423 36.8895 57.9265 31.9729 56.983 27.2295C56.0395 22.4861 53.7106 18.129 50.2908 14.7092C46.871 11.2894 42.5139 8.96052 37.7705 8.017C33.0271 7.07348 28.1105 7.55773 23.6423 9.40851C19.1741 11.2593 15.3551 14.3935 12.6682 18.4147C9.98128 22.436 8.54714 27.1637 8.54714 32C8.54536 35.2117 9.17663 38.3922 10.4049 41.3598C11.6331 44.3274 13.4342 47.0237 15.7052 49.2948C17.9763 51.5658 20.6726 53.3669 23.6402 54.5951C26.6077 55.8234 29.7883 56.4546 33 56.4528ZM33 7C37.9445 7 42.778 8.46622 46.8892 11.2133C51.0005 13.9603 54.2048 17.8648 56.097 22.4329C57.9892 27.0011 58.4843 32.0277 57.5196 36.8773C56.555 41.7268 54.174 46.1813 50.6777 49.6777C47.1813 53.174 42.7268 55.555 37.8773 56.5196C33.0277 57.4843 28.0011 56.9892 23.4329 55.097C18.8648 53.2048 14.9603 50.0005 12.2133 45.8892C9.46622 41.778 8 36.9445 8 32C8.01885 25.3754 10.6588 19.0275 15.3431 14.3431C20.0275 9.65882 26.3754 7.01885 33 7Z" fill="url(#paint2_linear_6798_7323)"/>
<path d="M9.71863 32.0775C9.71803 25.8956 12.1682 19.9655 16.5322 15.5869C20.8962 11.2083 26.8181 8.7383 33.0001 8.71826C36.0629 8.72145 39.0951 9.32832 41.9232 10.5042C44.7513 11.68 47.3199 13.4018 49.4822 15.5711C51.6444 17.7404 53.3579 20.3146 54.5245 23.1465C55.6912 25.9784 56.2882 29.0126 56.2815 32.0754C56.2792 35.1286 55.675 38.1513 54.5032 40.9707C53.3315 43.7901 51.6153 46.3507 49.4529 48.5061C47.2905 50.6615 44.7243 52.3693 41.9011 53.5318C39.0779 54.6944 36.0532 55.2888 33.0001 55.2811C29.9471 55.2888 26.9226 54.6945 24.0995 53.5321C21.2765 52.3696 18.7104 50.662 16.548 48.5068C14.3856 46.3517 12.6693 43.7913 11.4975 40.9722C10.3256 38.153 9.72115 35.1305 9.71863 32.0775ZM16.9843 15.984C14.8607 18.0925 13.1741 20.5995 12.0212 23.3612C10.8683 26.1228 10.2717 29.0849 10.2658 32.0775C10.2712 38.0853 12.6603 43.8453 16.9086 48.0933C21.1955 52.3292 26.9735 54.7137 33.0001 54.734C35.9774 54.749 38.9278 54.1691 41.6781 53.0283C44.4283 51.8876 46.923 50.209 49.0158 48.0911C51.1337 45.9984 52.8123 43.5037 53.953 40.7534C55.0937 38.0032 55.6736 35.0528 55.6586 32.0754C55.638 26.0478 53.2527 20.2691 49.0158 15.9818C46.9269 13.8536 44.4345 12.1635 41.6845 11.0102C38.9345 9.85695 35.9821 9.26378 33.0001 9.2654C30.0179 9.26406 27.0654 9.85757 24.3153 11.0112C21.5653 12.1648 19.073 13.8554 16.9843 15.984Z" fill="white"/>
<path opacity="0.4" d="M33 53.5622C28.7352 53.5658 24.5653 52.3036 21.0185 49.9354C17.4717 47.5672 14.7075 44.1997 13.0761 40.2592C11.4447 36.3188 11.0195 31.9828 11.8543 27.8006C12.6892 23.6183 14.7465 19.7779 17.7657 16.7658C21.8061 12.7254 27.2861 10.4556 33 10.4556C38.714 10.4556 44.1939 12.7254 48.2343 16.7658C52.2747 20.8062 54.5446 26.2861 54.5446 32.0001C54.5446 37.7141 52.2747 43.194 48.2343 47.2344C46.2403 49.2451 43.8669 50.8398 41.2518 51.9261C38.6366 53.0123 35.8318 53.5685 33 53.5622ZM33 52.9372C36.4272 52.9311 39.8002 52.0806 42.8204 50.4608C45.8407 48.841 48.4153 46.5019 50.3165 43.6503C52.2178 40.7988 53.387 37.5227 53.7208 34.1117C54.0546 30.7008 53.5428 27.2602 52.2305 24.0941C50.9183 20.9281 48.8461 18.1342 46.1971 15.9595C43.5482 13.7849 40.4042 12.2965 37.0432 11.626C33.6822 10.9555 30.2078 11.1236 26.9272 12.1154C23.6466 13.1072 20.661 14.8921 18.2343 17.3122C16.2688 19.2182 14.7089 21.5018 13.6482 24.0258C12.5875 26.5499 12.0481 29.2623 12.0622 32.0001C12.0626 37.553 14.2686 42.8783 18.1952 46.8047C22.1217 50.7311 27.4471 52.937 33 52.9372Z" fill="url(#paint3_linear_6798_7323)"/>
<path d="M51.9844 42.1563C51.5936 41.8434 36.5158 29.8906 36.5158 29.8906L33.0001 9.81201C32.6976 9.9283 32.4477 10.1507 32.2972 10.4377L29.7972 29.9684L14.2501 41.922C14.2501 41.922 13.9372 42.3127 13.7815 42.547C13.7117 42.7475 13.685 42.9605 13.7029 43.172L32.9222 35.2813L52.1429 43.172C52.2001 43.0024 52.2155 42.8216 52.1879 42.6448C52.1603 42.4679 52.0905 42.3004 51.9844 42.1563Z" fill="white"/>
<path d="M33.1564 32.6251L33 36.2187L50.6564 43.328C50.9028 43.4603 51.183 43.5161 51.4612 43.4884C51.7395 43.4606 52.0032 43.3506 52.2186 43.1723L33.3907 32.5473C33.3714 32.5325 33.3487 32.5227 33.3247 32.5187C33.3007 32.5146 33.2761 32.5165 33.253 32.5242C33.2299 32.5319 33.209 32.5451 33.1922 32.5627C33.1753 32.5803 33.1631 32.6017 33.1564 32.6251Z" fill="#565F64"/>
<path d="M33.1564 32.6251C33.7813 33.7117 34.5141 34.7325 35.3435 35.6723C36.4755 36.8568 37.7635 37.8817 39.1721 38.7187L50.6564 43.328C50.9027 43.4603 51.1829 43.5161 51.4612 43.4884C51.7394 43.4606 52.0031 43.3506 52.2185 43.1723L33.3907 32.5473C33.3713 32.5325 33.3487 32.5227 33.3246 32.5187C33.3006 32.5146 33.276 32.5165 33.2529 32.5242C33.2298 32.5319 33.2089 32.5451 33.1921 32.5627C33.1753 32.5803 33.163 32.6017 33.1564 32.6251Z" fill="url(#paint4_linear_6798_7323)"/>
<path d="M52.1429 42.4688C52.1429 42.391 52.065 42.3131 51.9864 42.1567L35.8907 30.3574L33.7029 31.7638C33.7029 31.7638 33.8593 31.8417 33.9372 31.7638C34.3186 31.6437 34.7278 31.6437 35.1093 31.7638C35.5 31.9224 52.1429 42.5474 52.1429 42.5474V42.4688Z" fill="#A4AAAE" fill-opacity="0.6"/>
<path d="M51.5936 41.7656L36.5936 29.8906L35.8907 30.3592L51.9843 42.2342C51.8781 42.0595 51.7464 41.9015 51.5936 41.7656Z" fill="#333E46"/>
<path d="M33.3906 31.4526L33.3128 31.5311C33.3128 31.5311 33.3128 31.6876 33.4685 31.609C33.5471 31.5311 35.8128 30.359 36.5935 29.8904L33.8571 11.1426C33.8487 10.8631 33.7541 10.593 33.5864 10.3692C33.4186 10.1455 33.1859 9.979 32.9199 9.89258L33.2321 31.6111L33.3906 31.4526Z" fill="#565F64"/>
<path d="M32.0621 11.1432V12.1567L30.3435 29.4224C30.3377 29.5447 30.3635 29.6664 30.4183 29.7758C30.4731 29.8853 30.555 29.9788 30.6564 30.0474L31.6721 30.8282L32.3749 11.766L32.4528 10.2817C32.2167 10.508 32.0768 10.8165 32.0621 11.1432ZM31.1249 31.1432L30.1871 30.3574L14.3278 41.8439C14.3278 41.8439 13.8592 42.1567 13.7814 42.4689L14.3278 42.1567L30.9707 31.6874C31.2814 31.5317 31.3571 31.3753 31.1249 31.1432Z" fill="#A4AAAE" fill-opacity="0.6"/>
<path d="M32.7657 32.6251C32.7657 32.5472 32.6879 32.4686 32.6093 32.5472L13.7029 43.2501C13.9268 43.4109 14.189 43.5101 14.4634 43.5375C14.7377 43.565 15.0144 43.5198 15.2657 43.4065L32.9222 36.2972L32.7657 32.6251Z" fill="#565F64"/>
<path d="M33.3129 31.5314C33.3127 31.5416 33.3146 31.5519 33.3184 31.5614C33.3223 31.5709 33.328 31.5796 33.3353 31.5869C33.3425 31.5941 33.3512 31.5998 33.3607 31.6037C33.3702 31.6075 33.3805 31.6094 33.3907 31.6092H33.4686C33.5472 31.5314 35.8122 30.3592 36.5936 29.8907L36.2815 27.6249L33.8572 11.1428C33.8671 11.0159 33.8514 10.8884 33.8112 10.7676C33.7709 10.6469 33.7069 10.5355 33.6229 10.4399C33.6229 10.4399 34.795 26.2207 34.795 27.9399C34.7941 29.2857 34.2614 30.5766 33.3129 31.5314Z" fill="url(#paint5_linear_6798_7323)"/>
<path d="M32.7657 32.6251C32.7657 32.5472 32.6879 32.4686 32.6093 32.5472L13.7029 43.2501C13.9268 43.4109 14.189 43.5101 14.4634 43.5375C14.7377 43.565 15.0144 43.5198 15.2657 43.4065L32.9222 36.2972L32.7657 32.6251Z" fill="url(#paint6_linear_6798_7323)" fill-opacity="0.8"/>
<path opacity="0.8" d="M15.2657 43.3282L32.9221 36.2189L32.7657 32.7817C32.5856 33.3749 32.2843 33.9242 31.8809 34.3949C31.4775 34.8656 30.9807 35.2473 30.4221 35.516C29.3278 36.1432 18.8571 41.2974 15.1092 43.0939C14.8834 43.2162 14.6484 43.3208 14.4064 43.4067C14.5438 43.4708 14.6957 43.4973 14.8466 43.4835C14.9976 43.4697 15.1422 43.4161 15.2657 43.3282Z" fill="url(#paint7_linear_6798_7323)"/>
<path d="M33.3906 31.4526L33.3128 31.5311C33.3128 31.5311 33.3128 31.6876 33.4685 31.609C33.5471 31.5311 35.8128 30.359 36.5935 29.8904L33.8571 11.1426C33.8487 10.8631 33.7541 10.593 33.5864 10.3692C33.4186 10.1455 33.1859 9.979 32.9199 9.89258L33.2321 31.6111L33.3906 31.4526Z" fill="url(#paint8_linear_6798_7323)"/>
<path d="M33.3906 31.4526L33.3128 31.5311C33.3128 31.5311 33.3128 31.6876 33.4685 31.609C33.5471 31.5311 35.8128 30.359 36.5935 29.8904L33.8571 11.1426C33.8487 10.8631 33.7541 10.593 33.5864 10.3692C33.4186 10.1455 33.1859 9.979 32.9199 9.89258L33.2321 31.6111L33.3906 31.4526Z" fill="url(#paint9_linear_6798_7323)"/>
<path d="M11.9843 41.6879C11.4378 40.4371 8.31284 34.3436 11.75 22.625H10.4221C9.74863 24.5335 9.22607 26.4919 8.85927 28.4821C8.85927 28.4821 8.70284 29.2636 8.62499 30.125C8.56614 30.7482 8.54015 31.3741 8.54713 32C8.47621 34.5251 8.87338 37.0416 9.71856 39.4221C10.9213 43.2907 13.1326 46.7691 16.125 49.5C18.9781 51.8211 22.3588 53.4041 25.9686 54.1093C25.4221 54.0314 16.0471 50.0471 11.9843 41.6879Z" fill="url(#paint10_linear_6798_7323)"/>
<path d="M33.3128 32.4688H32.6093C32.6878 32.4688 32.7657 32.4688 32.7657 32.5473L32.9221 36.1409H33L33.1564 32.5473C33.1564 32.4688 33.2343 32.3909 33.3128 32.4688Z" fill="url(#paint11_linear_6798_7323)"/>
<path d="M40.8129 8.79736C49.0157 11.9224 56.75 20.5159 56.75 31.3752C56.766 34.5023 56.1632 37.6016 54.9763 40.4947C53.7894 43.3877 52.0418 46.0174 49.8343 48.2322C47.6267 50.447 45.0028 52.2032 42.1136 53.3995C39.2244 54.5959 36.1271 55.2089 33 55.2031V56.4531C38.8006 56.4485 44.4111 54.3837 48.8306 50.6267C53.2502 46.8697 56.1915 41.665 57.13 35.9407C58.0684 30.2165 56.943 24.3451 53.9544 19.3736C50.9658 14.4021 46.3084 10.6538 40.8129 8.79736Z" fill="url(#paint12_linear_6798_7323)"/>
<path d="M53.9372 22.7816C48.4686 10.2031 36.1251 9.50022 35.4222 9.42236H35.3436C44.7972 11.1431 50.8122 17.3131 52.9222 23.7974V23.8752C53.8637 26.4557 54.3654 29.1758 54.4065 31.9224C54.4333 34.8748 53.8481 37.8008 52.6879 40.5159C52.6093 40.9066 52.5315 41.3731 52.4529 41.3731H53.7029C57.4529 34.3438 55.8129 27.2345 53.9372 22.7816Z" fill="url(#paint13_linear_6798_7323)"/>
<path d="M9.71863 32.0775C9.71803 25.8956 12.1682 19.9655 16.5322 15.5869C20.8962 11.2083 26.8181 8.7383 33.0001 8.71826C36.0629 8.72145 39.0951 9.32832 41.9232 10.5042C44.7513 11.68 47.3199 13.4018 49.4822 15.5711C51.6444 17.7404 53.3579 20.3146 54.5245 23.1465C55.6912 25.9784 56.2882 29.0126 56.2815 32.0754C56.2792 35.1286 55.675 38.1513 54.5032 40.9707C53.3315 43.7901 51.6153 46.3507 49.4529 48.5061C47.2905 50.6615 44.7243 52.3693 41.9011 53.5318C39.0779 54.6944 36.0532 55.2888 33.0001 55.2811C29.9471 55.2888 26.9226 54.6945 24.0995 53.5321C21.2765 52.3696 18.7104 50.662 16.548 48.5068C14.3856 46.3517 12.6693 43.7913 11.4975 40.9722C10.3256 38.153 9.72115 35.1305 9.71863 32.0775ZM16.9843 15.984C14.8607 18.0925 13.1741 20.5995 12.0212 23.3612C10.8683 26.1228 10.2717 29.0849 10.2658 32.0775C10.2712 38.0853 12.6603 43.8453 16.9086 48.0933C21.1955 52.3292 26.9735 54.7137 33.0001 54.734C35.9774 54.749 38.9278 54.1691 41.6781 53.0283C44.4283 51.8876 46.923 50.209 49.0158 48.0911C51.1337 45.9984 52.8123 43.5037 53.953 40.7534C55.0937 38.0032 55.6736 35.0528 55.6586 32.0754C55.638 26.0478 53.2527 20.2691 49.0158 15.9818C46.9269 13.8536 44.4345 12.1635 41.6845 11.0102C38.9345 9.85695 35.9821 9.26378 33.0001 9.2654C30.0179 9.26406 27.0654 9.85757 24.3153 11.0112C21.5653 12.1648 19.073 13.8554 16.9843 15.984Z" fill="#FBFBFB"/>
<path d="M14.1721 42.0001L30.1093 30.5158C30.8853 30.9462 31.6954 31.3119 32.5314 31.6093C32.6878 31.6872 32.6878 31.5315 32.6878 31.5315L30.7343 29.8886C30.6331 29.8199 30.5512 29.7263 30.4966 29.6169C30.4419 29.5075 30.4163 29.3858 30.4221 29.2636L32.2971 10.4351C32.2185 10.5136 32.2185 10.6701 32.1407 10.7479C32.0773 10.8678 32.05 11.0035 32.0621 11.1386L29.3278 29.9686L14.3278 41.7658C14.25 41.8436 14.1721 41.9222 14.1721 42.0001Z" fill="#333F47"/>
<defs>
<linearGradient id="paint0_linear_6798_7323" x1="14.2486" y1="16.2959" x2="51.7514" y2="47.7052" gradientUnits="userSpaceOnUse">
<stop stop-color="white"/>
<stop offset="0.1" stop-color="#CDD0D0"/>
<stop offset="0.2" stop-color="#A5ACAF"/>
<stop offset="0.3" stop-color="#98A0A4"/>
<stop offset="0.4" stop-color="#828A8F"/>
<stop offset="0.5" stop-color="#667075"/>
<stop offset="0.6" stop-color="#535C63"/>
<stop offset="0.7" stop-color="#475158"/>
<stop offset="0.8" stop-color="#434D54"/>
<stop offset="1" stop-color="#475157"/>
</linearGradient>
<linearGradient id="paint1_linear_6798_7323" x1="15.3992" y1="17.202" x2="50.5557" y2="46.7335" gradientUnits="userSpaceOnUse">
<stop stop-color="#0B1F2A"/>
<stop offset="0.2" stop-color="#333F47"/>
<stop offset="0.5" stop-color="#81898D"/>
<stop offset="0.7" stop-color="#B3B8B8"/>
<stop offset="0.8" stop-color="#DEE0DD"/>
<stop offset="1" stop-color="#FBFBFB"/>
</linearGradient>
<linearGradient id="paint2_linear_6798_7323" x1="41.545" y1="55.4871" x2="24.435" y2="8.45571" gradientUnits="userSpaceOnUse">
<stop stop-color="#E1E3E1"/>
<stop offset="0.1" stop-color="#C1C5C4"/>
<stop offset="0.3" stop-color="#9BA1A2"/>
<stop offset="0.5" stop-color="#7D8487"/>
<stop offset="0.7" stop-color="#687074" stop-opacity="0"/>
<stop offset="0.8" stop-color="#5B6469" stop-opacity="0"/>
<stop offset="1" stop-color="#576065" stop-opacity="0"/>
</linearGradient>
<linearGradient id="paint3_linear_6798_7323" x1="22.2193" y1="13.3294" x2="43.7807" y2="50.6715" gradientUnits="userSpaceOnUse">
<stop stop-color="#E1E3E1"/>
<stop offset="0.1" stop-color="#C1C5C4"/>
<stop offset="0.3" stop-color="#9BA1A2"/>
<stop offset="0.5" stop-color="#7D8487"/>
<stop offset="0.7" stop-color="#687074" stop-opacity="0"/>
<stop offset="0.8" stop-color="#5B6469" stop-opacity="0"/>
<stop offset="1" stop-color="#576065" stop-opacity="0"/>
</linearGradient>
<linearGradient id="paint4_linear_6798_7323" x1="42.7564" y1="37.7759" x2="41.4285" y2="39.9637" gradientUnits="userSpaceOnUse">
<stop stop-color="#27343C"/>
<stop offset="1" stop-color="#00111E" stop-opacity="0"/>
</linearGradient>
<linearGradient id="paint5_linear_6798_7323" x1="38.9222" y1="29.7442" x2="36.7343" y2="26.2285" gradientUnits="userSpaceOnUse">
<stop offset="0.1" stop-color="#02131F"/>
<stop offset="0.9" stop-color="#02131F" stop-opacity="0"/>
</linearGradient>
<linearGradient id="paint6_linear_6798_7323" x1="32.9857" y1="35.3879" x2="29.7043" y2="36.3258" gradientUnits="userSpaceOnUse">
<stop offset="0.2" stop-color="#02131F"/>
<stop offset="0.9" stop-color="#02131F" stop-opacity="0"/>
</linearGradient>
<linearGradient id="paint7_linear_6798_7323" x1="24.2435" y1="39.7374" x2="23.7742" y2="38.566" gradientUnits="userSpaceOnUse">
<stop stop-color="#02131F"/>
<stop offset="0.1" stop-color="#02131F"/>
<stop offset="1" stop-color="#02131F" stop-opacity="0"/>
</linearGradient>
<linearGradient id="paint8_linear_6798_7323" x1="35.8135" y1="20.449" x2="33.1578" y2="20.7611" gradientUnits="userSpaceOnUse">
<stop offset="0.3" stop-color="#02131F"/>
<stop offset="0.8" stop-color="#02131F" stop-opacity="0"/>
</linearGradient>
<linearGradient id="paint9_linear_6798_7323" x1="35.8963" y1="20.404" x2="34.0992" y2="20.6383" gradientUnits="userSpaceOnUse">
<stop offset="0.4" stop-color="#27343C"/>
<stop offset="1" stop-color="#3B474E" stop-opacity="0"/>
</linearGradient>
<linearGradient id="paint10_linear_6798_7323" x1="7.71856" y1="32.65" x2="29.515" y2="45.2279" gradientUnits="userSpaceOnUse">
<stop stop-color="#25323B" stop-opacity="0"/>
<stop offset="0.1" stop-color="#27343C"/>
</linearGradient>
<linearGradient id="paint11_linear_6798_7323" x1="32.9607" y1="36.2195" x2="32.9607" y2="32.4695" gradientUnits="userSpaceOnUse">
<stop offset="0.3" stop-color="#A5ABAF"/>
<stop offset="1" stop-color="#A5ABAF" stop-opacity="0"/>
</linearGradient>
<linearGradient id="paint12_linear_6798_7323" x1="45.2264" y1="8.79736" x2="45.2264" y2="56.4538" gradientUnits="userSpaceOnUse">
<stop stop-color="#6B7378"/>
<stop offset="0.2" stop-color="#333F47"/>
<stop offset="0.5" stop-color="#27343C"/>
<stop offset="0.8" stop-color="#333F47"/>
<stop offset="1" stop-color="#434D54"/>
</linearGradient>
<linearGradient id="paint13_linear_6798_7323" x1="52.7572" y1="13.3231" x2="42.2101" y2="28.7916" gradientUnits="userSpaceOnUse">
<stop offset="0.7" stop-color="#49545B"/>
<stop offset="0.8" stop-color="white" stop-opacity="0"/>
</linearGradient>
</defs>
</svg>
