<svg width="64" height="64" viewBox="0 0 64 64" fill="none" xmlns="http://www.w3.org/2000/svg">
<path d="M32.4207 7.06119L14.0612 10.5488L14 11.6434V12.5918L14.102 15.6546L14.2312 24.819C14.2312 29.0579 15.6215 47.1013 32.4207 56.9286C49.2199 47.0979 50.6034 29.0613 50.6034 24.8122L50.7394 15.6478H50.7428L50.8448 12.5918V11.6434L50.7836 10.5488L32.4207 7.06119Z" fill="white"/>
<path d="M32.4207 9.45084L14 12.5918L14.0408 15.7463L14.1258 15.7089C14.2176 15.6681 23.4432 11.708 32.4105 11.708H32.4207C41.3914 11.708 50.6272 15.6613 50.719 15.7021L50.804 15.7361L50.8448 12.5884L32.4207 9.45084Z" fill="#ED1C24"/>
<path d="M14.0612 11.6332L32.4207 8.23394L50.8448 11.6434V10.4979L32.4309 7.0034L32.4207 7L14 10.4979V11.6434L14.0612 11.6332Z" fill="#00A651"/>
<path d="M42.8531 32.3858C42.8055 32.9739 42.7783 33.3648 42.435 33.8475C42.1528 34.2418 41.201 35.0441 41.4662 34.6192C41.6667 34.303 42.2446 33.9869 42.5131 33.2085C42.7919 32.3994 42.6729 31.4 42.6729 31.4C42.6729 31.4 42.6593 31.3219 42.6559 31.2233C42.6967 31.1145 42.7613 31.1961 42.7613 31.1961L42.7851 31.2471C42.7817 31.2471 42.8905 31.9439 42.8531 32.3858ZM38.451 36.6009C38.3116 36.5126 38.5258 36.2474 38.5292 36.0197C38.5326 35.8395 38.4952 35.7103 38.4952 35.5608C38.4986 35.4112 38.6482 35.367 38.6482 35.367C38.6686 35.3636 38.7399 35.3976 38.8079 35.5506C38.8827 35.7069 38.6821 36.7471 38.451 36.6009ZM35.8913 42.7978L35.8403 42.6959C35.8403 42.6959 35.8336 42.6075 35.9185 42.5769C36.0035 42.5463 36.0477 42.5701 36.0477 42.5701L36.0715 42.6245L35.8913 42.7978ZM35.3814 21.0458C35.2659 21.0288 35.0993 20.8997 35.0993 20.8997C35.0993 20.8997 35.0687 20.8419 35.1741 20.7773C35.2829 20.7093 35.4392 20.7433 35.4392 20.7433L35.5412 20.8011C35.5888 20.8419 35.7316 21.0017 35.7418 21.0866C35.7554 21.175 35.5004 21.0628 35.3814 21.0458ZM35.2965 21.7189C35.1945 21.7019 35.0517 21.5931 35.0517 21.5931C35.0517 21.5931 35.0245 21.5455 35.1197 21.4878C35.2115 21.43 35.3475 21.4606 35.3475 21.4606L35.4358 21.5081L35.6092 21.7563C35.6194 21.8277 35.3984 21.7325 35.2965 21.7189ZM35.2387 22.3138C35.1537 22.3002 35.0381 22.2084 35.0381 22.2084C35.0381 22.2084 35.0143 22.171 35.0925 22.1234C35.1707 22.0758 35.2829 22.0996 35.2829 22.0996L35.3543 22.137L35.497 22.341C35.5038 22.4056 35.3237 22.3274 35.2387 22.3138ZM35.1401 22.8951L34.9735 22.8067L35.0177 22.7353L35.1741 22.7183L35.2353 22.7489L35.3509 22.9188L35.1401 22.8951ZM35.1673 32.8651C34.9701 33.0045 34.8987 32.9807 34.7798 33.1201C34.6438 33.2799 34.6948 33.6844 34.5384 33.63C34.2937 33.5484 34.4568 33.0793 34.7118 32.8685C35.0245 32.6034 35.5038 32.6306 35.1673 32.8651ZM34.9701 43.1038C34.9701 43.1038 34.5894 43.5321 34.3243 43.7802C34.0727 44.0148 33.6512 44.3445 33.6512 44.3445L33.5968 44.3479L33.6002 44.3037L33.607 44.2799L33.6172 44.2527L33.6444 44.2153L33.675 44.1745L33.7022 44.127L33.7872 44.0318L33.9877 43.8414L34.1917 43.6511L34.518 43.3349L34.6812 43.1718L34.8036 43.0834L34.9667 43.0392L34.9701 43.1038ZM34.0081 38.5147C33.9266 38.4162 33.8654 37.9233 33.9164 37.6819C34.0251 37.172 34.45 37.0259 34.2665 37.4168C34.1645 37.6377 34.1407 37.7057 34.1135 37.9131C34.0897 38.1306 34.2121 38.7561 34.0081 38.5147ZM33.4405 27.8274C33.573 27.8512 33.5594 28.0926 33.5662 28.1469C33.607 28.5684 33.726 29.0138 34.0557 29.527C34.518 30.2511 35.3067 30.8052 35.2727 30.8392C35.1877 30.9309 34.4534 30.3565 34.1883 30.0301C33.7498 29.4999 33.4201 28.9322 33.3215 28.2013C33.2943 28.0348 33.2909 27.8036 33.4405 27.8274ZM33.002 21.9738C32.577 22.7081 31.9822 23.2656 31.9822 23.2656C31.7816 23.4151 31.9414 23.167 31.9414 23.167C31.9414 23.167 32.5261 22.3818 32.781 21.8209C32.9612 21.4266 33.0495 20.8861 33.1481 20.7705C33.3657 20.519 33.2569 21.5353 33.002 21.9738ZM33.1685 40.2348C33.1481 40.2484 33.0733 40.2858 32.9884 40.2926C32.9 40.3028 32.9442 40.2382 32.9442 40.2382C32.9442 40.2382 32.9952 40.143 33.0801 40.1022C33.1685 40.058 33.2093 40.1056 33.2093 40.1056L33.1685 40.2348ZM32.8388 44.9258L32.7062 45.021L32.577 45.0448L32.5974 44.9326L32.7504 44.7864H32.8694C32.9102 44.8816 32.8388 44.9258 32.8388 44.9258ZM31.7748 40.6495C31.5607 40.7073 31.4689 40.6767 31.2717 40.6869C31.1188 40.6971 31.0304 40.7141 30.874 40.7107C30.5919 40.7073 30.5715 40.7277 30.1602 40.5985C30.0854 40.5747 30.0004 40.4863 30.0242 40.4489L30.1126 40.4217C30.1126 40.4217 30.6157 40.5033 30.9386 40.5237C31.1697 40.5373 31.2989 40.5475 31.5335 40.5373C31.6626 40.5305 31.5946 40.5237 31.8054 40.5271C31.8836 40.5305 31.8292 40.6359 31.7748 40.6495ZM31.2853 46.4011C31.1935 46.4657 31.3703 46.6424 31.0984 46.6254C30.942 46.6152 31.0168 46.4691 31.0338 46.4453L31.1391 46.3025C31.2105 46.2039 31.2513 46.1869 31.3329 46.1427C31.4145 46.0951 31.4723 46.2073 31.4723 46.2073L31.5063 46.3093C31.4995 46.3603 31.3601 46.3467 31.2853 46.4011ZM28.5999 30.4449C28.7291 30.3293 29.1812 31.1111 29.9222 31.9133C30.7176 32.7734 31.7 33.5246 31.734 33.63C31.7918 33.8101 31.078 33.2527 30.6938 32.9603C29.6843 32.1819 28.4435 30.5876 28.5999 30.4449ZM29.1608 40.5067C29.0554 40.4999 29.0486 40.4693 29.052 40.4523C29.0554 40.4353 29.0792 40.4115 29.1948 40.4047C29.3103 40.3979 29.3103 40.4591 29.3103 40.4591C29.3069 40.5033 29.2627 40.5135 29.1608 40.5067ZM28.3585 18.2652L28.2294 18.3502C28.1478 18.408 28.09 18.5576 28.0322 18.51L28.0084 18.3026C28.0084 18.3026 28.0458 18.1837 28.1138 18.0647C28.1818 17.9457 28.277 17.9423 28.277 17.9423C28.3721 17.9355 28.5217 18.0001 28.5319 18.1395C28.5387 18.2788 28.4265 18.2176 28.3585 18.2652ZM27.6651 25.8728C27.6651 25.8728 27.4101 26.2093 27.2708 26.4099C27.0804 26.6852 26.8527 27.117 26.8017 27.0796C26.7507 27.0388 27.0056 26.5663 27.1348 26.3079C27.2878 26.0054 27.5053 25.8388 27.5835 25.8048C27.7807 25.7199 27.6651 25.8728 27.6651 25.8728ZM26.8764 40.5917C26.8764 40.5917 26.8798 40.6529 26.7745 40.7277C26.6657 40.8025 26.6283 40.7583 26.6113 40.7549L26.4991 40.6393L26.6725 40.5441C26.941 40.5203 26.8764 40.5917 26.8764 40.5917ZM25.8737 28.7962C25.6663 28.7588 25.2278 28.4155 25.051 28.3237C24.8743 28.2319 24.5853 28.2013 24.7077 28.0925L24.7689 28.0552L24.9321 28.1061L25.2584 28.2421C25.2686 28.2455 25.442 28.3203 25.5677 28.3917C25.6901 28.4665 25.8873 28.6024 25.8873 28.6024L25.9722 28.6738C25.9722 28.6704 26.081 28.8336 25.8737 28.7962ZM24.7995 33.6742C24.7111 33.715 24.6533 33.6266 24.6533 33.6266L24.4936 33.2968L24.7179 33.3886C24.7961 33.409 24.8573 33.5348 24.8573 33.5348C24.8573 33.5348 24.8879 33.6334 24.7995 33.6742ZM24.3202 23.7211C24.3746 23.6191 24.5853 23.5783 24.5853 23.5783C24.7417 23.6123 24.7723 23.6225 24.7689 23.7007C24.7655 23.7755 24.5649 23.7619 24.5649 23.7619C24.5649 23.7619 24.2658 23.8231 24.3202 23.7211ZM23.4602 24.9244C23.331 25.0672 22.9197 25.8422 22.8211 25.7165C22.7361 25.6077 23.212 24.8836 23.3208 24.7239C23.4262 24.5607 23.5146 24.5913 23.5146 24.5913L23.5384 24.6253C23.535 24.6321 23.5859 24.7783 23.4602 24.9244ZM23.4466 27.134C23.3412 27.2937 23.2766 27.2971 23.2664 27.2903C23.2596 27.2835 23.2426 27.2121 23.3242 27.0354C23.4092 26.862 23.4976 26.8824 23.4976 26.8824L23.5282 26.913C23.5282 26.913 23.552 26.9742 23.4466 27.134ZM23.4772 30.2273L23.382 30.1389C23.382 30.1389 23.2664 29.9588 23.2256 29.833C23.1882 29.714 23.1678 29.5202 23.1678 29.5202C23.1678 29.5202 23.1338 29.2755 23.144 29.1803C23.1576 29.0647 23.1542 28.9662 23.1746 28.905L23.2426 28.8574C23.3242 28.8574 23.3276 28.9288 23.3276 28.9288V28.9696C23.3276 28.9696 23.3276 29.2313 23.3446 29.4455L23.5146 30.1593L23.4772 30.2273ZM21.6314 27.8002C21.6314 27.8002 21.4954 28.0722 21.4478 27.9668C21.4002 27.8614 21.4988 27.671 21.4988 27.671C21.6212 27.5691 21.6552 27.4263 21.7129 27.4773L21.6314 27.8002ZM21.2404 29.4557L21.1249 29.6596L21.0535 29.4523C21.0671 29.3843 21.0875 29.1701 21.1929 29.2007C21.288 29.2279 21.2472 29.3877 21.2404 29.4557ZM25.2244 25.193L25.2482 25.1964L25.2856 25.2134L25.3502 25.2474L25.4012 25.2915C25.4012 25.2915 25.459 25.3561 25.5405 25.4343C25.6221 25.5125 25.7785 25.798 25.7445 25.832C25.6187 25.9578 25.5677 25.7844 25.3672 25.5737C25.1768 25.3595 25.2244 25.193 25.2244 25.193ZM29.5551 18.5168C29.5551 18.5168 29.725 18.4284 29.7352 18.5372C29.7454 18.6494 29.5619 18.7241 29.5619 18.7241C29.5619 18.7241 29.5041 18.7411 29.4837 18.6358C29.4667 18.5304 29.5551 18.5168 29.5551 18.5168ZM29.7013 17.3066C29.7013 17.3066 30.2757 17.1503 30.6021 16.9701C30.7822 16.8715 30.9862 16.7288 31.044 16.6812C31.2411 16.5214 31.1357 16.7152 31.1357 16.7152C31.1357 16.7152 30.9454 17.0279 30.6836 17.1401C30.4219 17.2556 30.2349 17.3168 29.7454 17.3576C29.6741 17.3644 29.7013 17.3066 29.7013 17.3066ZM31.5233 24.921L31.3669 24.8666L31.2139 24.7986L30.993 24.7341C30.993 24.7341 30.5919 24.6491 30.3063 24.6593C30.0174 24.6729 29.7454 24.7749 29.7454 24.7749C29.7454 24.7749 29.6095 24.8836 29.5823 24.8054C29.5517 24.7273 29.6163 24.6763 29.6163 24.6763L29.6367 24.6525C29.6367 24.6525 30.0854 24.3601 30.7686 24.4519C31.1765 24.5063 31.5811 24.87 31.5233 24.921ZM31.6592 18.8941C31.6592 18.8941 31.9176 18.7853 32.0739 18.7003C32.3323 18.5644 32.8388 18.0341 32.7028 18.2958C32.6382 18.4182 32.4649 18.5644 32.4649 18.5644L32.2167 18.8975C32.023 19.0505 31.7816 18.9655 31.6864 18.9723C31.5912 18.9791 31.6592 18.8941 31.6592 18.8941ZM31.7374 16.9463C31.7374 16.9463 31.768 16.8511 31.8904 16.7831C32.0128 16.7152 32.1725 16.7118 32.1725 16.7118C32.1725 16.7118 32.2609 16.7084 32.3731 16.7797C32.4819 16.8511 32.5668 17.1095 32.5668 17.1095L32.5227 17.3304C32.4513 17.3916 32.3391 17.2828 32.2745 17.2047C32.1997 17.1163 32.1555 17.0891 32.0604 17.0551C31.938 17.0143 31.7714 17.1401 31.734 17.0551L31.7374 16.9463ZM32.4071 16.4568C32.4071 16.4568 32.4717 16.4534 32.5532 16.5044C32.6382 16.5588 32.6994 16.7458 32.6994 16.7458L32.645 16.773L32.56 16.6642L32.3901 16.569C32.3187 16.5384 32.2065 16.586 32.1963 16.5078C32.1895 16.4228 32.4071 16.4568 32.4071 16.4568ZM33.3249 18.6697L33.3385 18.7853C33.3385 18.7853 33.3011 18.9723 33.1991 19.0335C33.0699 19.1049 32.7334 19.1966 32.7164 19.1558C32.696 19.1117 33.1311 18.9825 33.3249 18.6697ZM33.5186 19.1558C33.5186 19.1558 33.4575 19.353 33.3453 19.387C33.2025 19.4278 32.6348 19.4448 32.6246 19.4006C32.6144 19.3564 33.2705 19.302 33.5288 19.0403L33.5186 19.1558ZM34.2597 25.2644L34.3583 25.2508L34.3957 25.2711L34.4704 25.3765L34.3379 25.3595L34.2325 25.3051L34.2597 25.2644ZM34.4059 15.7328C34.4806 15.6852 34.5928 15.709 34.5928 15.709L34.6642 15.7498L34.807 15.9503C34.8138 16.0115 34.637 15.9333 34.552 15.9197C34.4704 15.9061 34.3549 15.8178 34.3549 15.8178C34.3549 15.8178 34.3277 15.7804 34.4059 15.7328ZM34.9395 16.4432L35.0109 16.484L35.1537 16.6846C35.1605 16.7458 34.9837 16.6676 34.8987 16.654C34.8172 16.6404 34.7016 16.552 34.7016 16.552C34.7016 16.552 34.6778 16.5146 34.7526 16.467C34.8274 16.4194 34.9395 16.4432 34.9395 16.4432ZM35.0109 23.4389L34.8614 23.3608L34.8987 23.2962L35.0415 23.2792L35.0959 23.3098L35.2047 23.4627L35.0109 23.4389ZM34.8784 23.9012L34.7288 23.8231L34.7662 23.7585L34.9089 23.7415L34.9633 23.7721L35.0687 23.925L34.8784 23.9012ZM34.6676 24.904L34.5316 24.887L34.4296 24.8326L34.4568 24.7885L34.5554 24.7783L34.5928 24.7986L34.6676 24.904ZM34.603 24.3397L34.6336 24.2854L34.7492 24.2718L34.7934 24.2956L34.8784 24.4179L34.7254 24.4009L34.603 24.3397ZM35.6874 17.4664L35.5514 17.4766C35.4222 17.4698 35.429 17.4222 35.2557 17.5072C35.0823 17.5922 35.2081 17.5548 34.9667 17.6432C34.7254 17.7315 34.7832 17.4936 34.7832 17.4936C34.7832 17.4936 34.8036 17.4528 34.8342 17.3338C34.8648 17.2183 35.0075 17.3304 35.1163 17.3304C35.3033 17.3338 35.4664 17.3236 35.599 17.361C35.718 17.3882 35.7418 17.4528 35.6874 17.4664ZM35.7078 20.332C35.718 20.4068 35.5004 20.3116 35.395 20.2946C35.2931 20.2776 35.1503 20.1688 35.1503 20.1688C35.1503 20.1688 35.1231 20.1212 35.2149 20.0635C35.3067 20.0057 35.446 20.0363 35.446 20.0363L35.5344 20.0838C35.5786 20.1246 35.701 20.2572 35.7078 20.332ZM35.412 19.5672C35.3101 19.5502 35.1673 19.4414 35.1673 19.4414C35.1673 19.4414 35.1401 19.3938 35.2319 19.336C35.3237 19.2782 35.463 19.3088 35.463 19.3088L35.5514 19.3598C35.5922 19.3972 35.7146 19.5332 35.7248 19.6079C35.7316 19.6759 35.514 19.5808 35.412 19.5672ZM35.1095 18.2142C35.1095 18.2142 35.0857 18.1769 35.1673 18.1327C35.2489 18.0885 35.3713 18.1123 35.3713 18.1123L35.446 18.1497L35.599 18.34C35.6058 18.3978 35.412 18.323 35.3237 18.3128C35.2353 18.2992 35.1095 18.2142 35.1095 18.2142ZM35.1945 18.7411C35.2795 18.6867 35.4052 18.7139 35.4052 18.7139L35.4868 18.7581L35.6466 18.9791C35.6534 19.0437 35.4528 18.9621 35.3577 18.9451C35.2659 18.9315 35.1333 18.8329 35.1333 18.8329C35.1333 18.8329 35.1061 18.7921 35.1945 18.7411ZM50.7734 15.5254C50.7054 15.4846 43.7845 11.4667 32.4207 11.4667C21.0569 11.4667 14.1394 15.4846 14.0714 15.5254L14.0408 15.5424L14.1699 24.819C14.1699 26.4167 14.3739 32.1445 16.971 38.8003C20.0473 46.6764 25.2346 52.7951 32.3901 56.983L32.4207 57L32.4513 56.983C39.6068 52.7951 44.7941 46.6798 47.867 38.8037C50.4641 32.1513 50.6646 26.4167 50.6646 24.819L50.804 15.5832V15.5492L50.7734 15.5254Z" fill="black"/>
<path d="M44.444 28.0449C44.3862 28.3407 44.24 28.6058 43.9205 29.0239C43.6043 29.4352 43.6179 29.8228 43.6179 29.8228C43.6179 29.8228 43.5839 30.0029 43.5567 30.387C43.533 30.7712 43.6417 31.3592 43.6417 31.3592C43.6417 31.3592 43.7403 31.8487 43.7607 32.2193C43.7811 32.5898 43.7675 33.4396 43.4208 34.0991C43.2814 34.3642 42.9823 34.7279 42.9823 34.7279C42.9823 34.7279 42.7545 34.9625 42.5676 35.0984C42.3772 35.2378 41.9285 35.4486 41.9285 35.4486L41.575 35.5675L41.5002 35.6151L41.541 35.7001L41.643 35.9381C41.643 35.9381 41.7347 36.244 41.7721 36.4853C41.8061 36.7267 41.7653 36.7811 41.7313 36.9646C41.7007 37.1414 41.6226 37.0598 41.6022 37.4066C41.5852 37.7125 41.7245 37.8655 41.7007 38.2088C41.6905 38.3583 41.5172 38.0184 41.4356 37.8757C41.2588 37.5595 41.303 37.0768 41.2996 36.9578C41.2962 36.8355 41.286 36.7063 41.2418 36.5533C41.1875 36.3562 41.1059 36.2066 41.0175 36.0876C40.9257 35.9687 40.8271 35.9041 40.7965 35.9143L40.7625 36.0196L40.8407 36.1896L40.9699 36.4242C40.9699 36.4242 41.0209 36.5839 41.0413 36.9001C41.0617 37.2162 40.9631 37.6037 40.9631 37.6037C40.9631 37.6037 40.8373 38.0422 40.7048 38.3006C40.5552 38.5861 40.2289 38.9702 40.2289 38.9702C40.2289 38.9702 39.9943 39.1844 39.8175 39.5379C39.6442 39.8914 39.7903 40.0478 39.7292 40.092C39.6646 40.1362 39.5252 39.888 39.4878 39.7215C39.4538 39.5651 39.4708 39.4903 39.5354 39.3135C39.5966 39.1436 39.736 38.9022 39.736 38.9022L39.9467 38.5453C39.9467 38.5453 40.1983 38.0592 40.2798 37.7091C40.3614 37.359 40.2696 36.968 40.2696 36.968C40.2696 36.968 40.2594 36.8389 40.1711 36.8457C40.0827 36.8491 40.0181 36.9307 39.9841 37.0224C39.9127 37.2162 40.0147 37.1788 39.9025 37.5017C39.8141 37.7567 39.7903 37.7227 39.7462 37.8723C39.6918 38.0524 39.6612 38.236 39.6646 38.3482C39.668 38.4603 39.6068 38.4127 39.6068 38.4127C39.6068 38.4127 39.5014 38.2122 39.5014 37.9606C39.5014 37.8281 39.5048 37.7499 39.5218 37.6139C39.5456 37.3964 39.6374 37.0666 39.6374 37.0666C39.6374 37.0666 39.7326 36.7403 39.7122 36.4412C39.6918 36.142 39.5864 36.0842 39.5864 36.0842C39.5864 36.0842 39.5592 36.0468 39.4436 36.0536C39.328 36.0604 39.3314 36.2678 39.3314 36.2678C39.3314 36.2678 39.2974 36.5635 39.2499 36.7471C39.1207 37.257 38.9575 37.5255 38.6584 37.9538C38.3864 38.3414 38.0159 38.6813 37.829 38.8376C37.6454 39.0008 37.0743 39.4155 37.0743 39.4155L36.4081 39.8574C36.4081 39.8574 36.1429 40.1158 36.0205 40.4217C35.8982 40.7277 35.905 40.969 35.9764 41.2511C36.0477 41.5333 36.1497 41.6625 36.2041 41.7406C36.2585 41.8188 36.3605 41.9582 36.3945 42.118C36.4149 42.2165 36.3979 42.2777 36.4047 42.3797C36.4081 42.4681 36.4217 42.5191 36.4217 42.6075C36.4183 42.7502 36.4455 42.8488 36.3639 42.9678C36.3027 43.0562 36.1429 43.1309 36.1429 43.1309C36.1429 43.1309 35.9628 43.2125 35.854 43.2771C34.7186 43.9604 34.3175 44.4057 33.6784 45.1705C33.4745 45.4119 33.6241 45.3983 33.4065 45.6872C33.2773 45.8606 32.9748 45.8572 32.8626 46.0645C32.713 46.3433 33.2093 46.622 32.6349 46.8701C31.8972 47.1897 30.6225 46.9585 30.5953 46.8599C30.5273 46.5846 30.8434 46.2685 30.9556 46.1461C31.4723 45.5784 31.938 45.5648 32.108 45.0957C32.1454 44.9937 32.1318 44.9088 32.5397 44.6028C32.832 44.3887 33.9878 43.5185 34.4943 42.9372C34.6676 42.7366 34.8172 42.6074 34.892 42.3899C34.9668 42.1723 34.8172 42.0364 34.8172 42.0364L34.6098 41.6964L34.2121 40.9826C34.2121 40.9826 34.0456 40.6053 33.9538 40.3877C33.862 40.1702 33.6852 39.5821 33.6852 39.5821C33.6852 39.5821 33.5459 39.0552 33.5357 38.7119C33.5119 38.0082 33.5017 37.8655 33.743 37.138C33.998 36.3868 34.2903 36.2882 34.62 35.265C34.6914 35.0475 34.688 34.6565 34.5725 34.6769C34.4637 34.6939 34.5045 34.9999 34.4467 35.2038C34.2189 35.9925 33.7974 36.312 33.5255 37.1006C33.3453 37.6275 33.3011 37.9504 33.3011 38.5079C33.3011 38.8241 33.2909 38.7629 33.3725 39.3169C33.4031 39.5209 33.4575 39.6297 33.5153 39.8268C33.5595 39.9662 33.6716 40.2314 33.6716 40.2314C33.6716 40.2314 33.8314 40.5815 33.8858 40.8262C33.9028 40.9078 33.9232 40.9554 33.9164 41.0404C33.9062 41.1866 33.862 41.2171 33.7906 41.3497C33.7022 41.5129 33.7566 41.6081 33.4779 41.6693C33.2297 41.7236 32.7198 41.5571 32.7198 41.5571C32.7198 41.5571 30.6293 40.9214 29.2934 41.105C29.0282 41.139 28.8889 41.2375 28.6203 41.2341C28.379 41.2307 28.2566 41.0438 28.0152 41.1118L27.9065 41.1933C27.5495 41.4381 27.8215 41.8494 26.8901 41.6353C26.319 41.5027 25.6255 41.156 25.7479 40.935C25.9077 40.6427 26.1252 40.5951 26.5739 40.4115C27.0566 40.2144 27.7841 40.2687 27.9269 40.2585C28.1002 40.245 28.3484 40.1226 28.6611 40.1192C29.2016 40.109 29.2968 40.1736 29.2968 40.1736L30.2146 40.2551L31.9652 40.2789C31.9652 40.2789 32.2779 40.2551 32.4037 40.2314C32.5295 40.2076 32.6281 39.9594 32.6961 39.8438C32.764 39.7283 32.6927 39.5515 32.6927 39.5515L32.6417 39.4699L32.4751 39.2014L32.1658 38.6847L31.8258 38.0048C31.8258 38.0048 31.6015 37.5289 31.4791 37.2162C31.3601 36.9069 31.2921 36.7301 31.214 36.4106C31.1324 36.0774 31.0814 35.8123 31.0712 35.5471C31.0576 35.1664 31.0474 34.7823 31.1528 34.4696C31.163 34.4356 31.9584 34.9965 32.4309 35.4656C32.6723 35.7035 32.8762 36.0162 32.9442 35.9687C33.0394 35.8497 32.8796 35.6185 32.6077 35.3432C32.4003 35.1358 31.9448 34.7381 31.5947 34.5036C31.2208 34.252 30.5375 33.6537 30.5375 33.6537L29.9698 33.1711L29.3376 32.5864L28.8583 32.0561C28.8583 32.0561 28.4877 31.6006 28.4266 31.5156C28.3688 31.4272 28.192 31.1485 28.0492 30.9071C27.9201 30.6964 27.6685 30.3632 27.6447 30.3327C27.5088 30.1695 27.1994 30.2375 26.8425 30.0233C26.404 29.765 26.302 29.5338 26.302 29.5338L26.268 29.4794L26.217 29.4386L25.9893 29.2789L25.8601 29.1905C25.8601 29.1905 25.7615 29.1089 25.6357 29.0545C25.51 29.0001 25.2312 28.837 25.2312 28.837L24.7349 28.5174L24.4732 28.3101L24.2828 28.1877L24.1809 28.1469L24.0551 28.1367C24.0551 28.1367 23.9599 28.1129 23.8613 28.2251C23.7627 28.3407 23.7865 28.2795 23.9463 28.9253C24.0075 29.1837 24.0041 30.0811 24.0721 30.353C24.1605 30.7066 24.4052 31.1621 24.429 31.2165L24.4698 31.4646C24.4698 31.4646 24.4596 31.6244 24.4766 31.723C24.5514 32.1887 25.2312 31.8827 25.3808 32.5218C25.527 33.1507 25.2924 33.7761 25.2924 33.7761C25.2924 33.7761 25.1463 34.0855 24.9389 34.1364C24.7315 34.184 24.4154 33.7285 24.1809 33.358C23.9531 32.9943 23.7661 32.5184 23.705 32.3688C23.6472 32.2159 23.6166 32.1853 23.5452 32.0731C23.4432 31.9099 23.3616 31.9405 23.2461 31.6822C23.1339 31.4238 23.2325 31.3218 23.1815 31.0975C23.1543 30.9717 23.1237 30.9581 23.0863 30.7814C23.0489 30.6012 22.9979 30.0369 22.9979 30.0369L22.9265 29.51C22.9265 29.51 22.8993 29.2721 22.8687 29.1225C22.7532 28.5956 22.7158 28.0857 22.7158 28.0857L22.6954 27.8784L22.6852 27.6642C22.6852 27.6642 22.6784 27.5588 22.7056 27.4535C22.7294 27.3481 22.7838 27.2563 22.7838 27.2563L22.9061 27.0353L23.1407 26.7396C23.1407 26.7396 23.2529 26.6444 23.4398 26.5323C23.6268 26.4167 23.7933 26.4269 23.7933 26.4269C23.7933 26.4269 23.8409 26.4235 24.1707 26.4643C24.5004 26.5051 25.1768 26.6852 25.3468 26.7294C25.5168 26.7736 25.7173 26.845 25.8499 26.9164C26.2238 27.1203 26.3394 27.0353 26.0403 26.8008C25.8363 26.6444 25.7819 26.573 25.6222 26.4235C25.4862 26.2977 25.3774 26.2161 25.2754 26.0971C25.1734 25.9816 24.8811 25.5499 24.8811 25.5499L24.7009 25.2813L24.5888 25.1657L24.5242 25.1182C24.5242 25.1182 24.4052 25.125 24.2794 25.1012C24.1537 25.0774 24.0959 25.2507 24.0959 25.2507C24.0959 25.2507 23.8239 25.7538 23.552 26.0666C23.1067 26.5662 22.7872 26.9096 22.6206 27.1781C22.3928 27.5486 22.4404 27.9498 22.3249 28.1401C22.2569 28.2523 22.2195 28.2659 22.1821 28.3645C22.0665 28.6534 22.4846 28.8166 22.3894 29.1395C22.2365 29.6494 21.0365 30.1559 20.8768 30.0709C20.7136 29.9825 20.8496 29.2925 20.904 29.0681C20.9583 28.8438 21.1283 28.5106 21.1419 28.4936L21.2099 28.3339C21.2235 28.2659 21.2269 28.1197 21.2371 28.0347C21.2439 27.9498 21.2779 27.8172 21.2779 27.8172C21.2779 27.8172 21.2813 27.79 21.39 27.5588C21.4954 27.3311 21.8863 26.7906 22.1685 26.2773C22.352 25.9408 22.4268 25.7402 22.6138 25.4037C22.7838 25.0978 23.0761 24.6253 23.0761 24.6253C23.0761 24.6253 23.1985 24.3839 23.2597 24.2955C23.3174 24.2071 23.4398 24.0304 23.5554 23.8604C23.671 23.6905 23.7016 23.5647 23.8511 23.4253C23.9769 23.3097 24.0619 23.2486 24.225 23.1908C24.4698 23.1126 24.6364 23.1534 24.8845 23.2214C25.1463 23.2927 25.3196 23.4117 25.4896 23.5511C25.6595 23.6939 25.7819 23.8468 25.7819 23.8468L25.8635 23.9658L25.9145 23.9964L26.0743 24.0984L26.4312 24.3363L27.3286 24.9448L27.5563 25.1114C27.5869 25.1216 27.8147 24.8734 28.2566 24.5675C28.7733 24.2139 28.9534 24.2411 29.1234 24.146C29.29 24.0542 29.3614 23.9726 29.4939 23.8434C29.6945 23.6429 29.6945 23.5341 29.9222 23.2588C30.15 22.98 30.3641 22.8236 30.3641 22.8236C30.3641 22.8236 30.3947 22.793 30.8027 22.3341C31.2106 21.8786 31.3873 21.5285 31.3873 21.5285L31.6083 21.0832C31.6083 21.0832 31.9312 20.3898 32.0366 20.1144C32.142 19.8391 32.142 19.7473 32.142 19.7473C32.142 19.7473 32.159 19.6759 32.0808 19.5365C31.9992 19.3972 31.9142 19.4618 31.7646 19.4923C31.4655 19.5535 31.2887 19.4754 30.9896 19.4244C30.7177 19.3802 30.5715 19.2986 30.2962 19.251C30.0174 19.2034 29.8577 19.1592 29.5789 19.1864L29.4089 19.2204C29.2526 19.2748 29.2084 19.285 29.0894 19.353C28.9534 19.4176 28.8651 19.438 28.7155 19.4414C28.6135 19.4448 28.5489 19.4482 28.4538 19.4108L28.2974 19.319L28.2226 19.2374L28.2396 19.1626L28.3042 19.1048L28.4334 19.0742L28.6271 19.0232C28.6407 19.0198 28.8141 18.9621 28.8923 18.9383L29.052 18.8703L29.0792 18.7547L28.9568 18.7037L28.7971 18.7615L28.5557 18.8363C28.5557 18.8363 28.3756 18.8737 28.2362 18.9077C28.0968 18.9417 27.8997 18.9553 27.8997 18.9553L27.8419 18.9417L27.7637 18.8499L27.7365 18.7275C27.7059 18.5507 27.6719 18.4454 27.7127 18.2686L27.7773 18.0884L27.8555 17.9457L27.9677 17.7655L28.1716 17.4596C28.243 17.3882 28.2906 17.3508 28.379 17.3032C28.5115 17.2284 28.5897 17.208 28.7563 17.191C28.9195 17.174 28.9398 17.1774 29.171 17.123C29.4021 17.0721 29.5653 16.9803 29.5653 16.9803C29.5653 16.9803 30.116 16.7763 30.4525 16.6132C30.8027 16.4432 30.959 16.2562 31.3227 16.1135C31.4757 16.0557 31.5641 16.0251 31.7273 15.9843L31.7646 15.9367L31.6253 15.8585H31.4179L31.5335 15.7803L31.6015 15.7157L31.4655 15.692C31.2514 15.6682 31.2344 15.6308 31.0882 15.5934C30.9148 15.5492 30.8196 15.4948 30.6395 15.488C30.4763 15.4812 30.3268 15.5186 30.2282 15.539C30.1296 15.5662 30.1262 15.4676 30.1636 15.4506C30.4457 15.318 30.4525 15.3078 30.6497 15.301C30.7585 15.2942 30.908 15.318 30.925 15.3282L31.214 15.2704C31.2718 15.2127 31.0372 15.2195 30.925 15.1719C30.823 15.1311 30.6667 15.1209 30.6701 15.0529L30.8027 15.0087L30.9794 14.9849C31.1052 14.9679 31.1154 14.9577 31.2989 14.9407C31.4825 14.9271 31.7443 15.0019 31.7443 15.0019C31.7443 15.0019 32.0196 15.1243 32.1556 15.1889C32.2915 15.2534 32.4547 15.284 32.4547 15.284C32.4547 15.284 32.6485 15.3112 32.7946 15.2195C32.9408 15.1277 32.8592 15.0699 32.8048 14.9849C32.7538 14.9067 32.6893 14.7945 32.7844 14.577C32.8694 14.39 32.9102 14.1725 32.9374 14.1487C32.9646 14.1249 33.0836 14.2915 33.1584 14.3628C33.4269 14.6144 33.7838 14.7402 34.1203 15.267C34.1441 15.3078 34.2699 15.2398 34.6608 15.301C35.0518 15.3622 35.3917 15.7803 35.4801 15.8789C35.5684 15.9775 35.684 15.9741 35.684 15.9741L35.871 15.9979L36.5508 16.0115C36.5508 16.0115 36.8602 15.9571 37.0403 16.0217C37.1627 16.0693 37.5808 16.3446 37.3905 16.45C37.2579 16.5248 37.1321 16.3616 37.0131 16.3548C36.8704 16.3446 36.8092 16.3718 36.6834 16.4024C36.4217 16.4704 35.854 16.6404 36.0579 16.7083L36.1021 16.7219L36.2075 16.7389C36.2075 16.7389 36.4557 16.7967 36.6052 16.8545C36.833 16.9463 36.9384 17.0449 37.1491 17.1672C37.2681 17.2352 37.3225 17.3066 37.4516 17.344C37.5706 17.378 37.6488 17.344 37.7712 17.3644C37.9309 17.3916 38.0227 17.4256 38.1723 17.497C38.3898 17.6023 38.4714 17.7315 38.6686 17.8743C38.7672 17.9457 38.8487 17.9559 38.9235 18.0511L38.9643 18.1088C38.9915 18.1972 38.8182 18.1462 38.7298 18.1292C38.6312 18.1156 38.587 18.0647 38.4952 18.0205C38.3592 17.9593 38.2913 17.8845 38.1451 17.8607C38.0363 17.8403 37.9717 17.8573 37.863 17.8607C37.7576 17.8641 37.6964 17.8845 37.591 17.8845C37.4075 17.8879 37.3021 17.8709 37.1253 17.8335C36.9248 17.7927 36.8262 17.7145 36.6256 17.6737C36.4013 17.6261 36.0002 17.4358 36.0409 17.6261C36.0613 17.7179 36.2755 17.7961 36.2755 17.7961C36.2755 17.7961 36.4217 17.8777 36.5576 17.9355C36.697 17.9933 36.7752 18.0884 36.7752 18.0884L36.8704 18.1598C36.8704 18.1598 36.9689 18.2958 37.0981 18.4488C37.2239 18.5983 37.4482 18.5949 37.4482 18.5949C37.4482 18.5949 37.5842 18.5949 37.8766 18.6527C38.1689 18.7139 38.4646 18.8907 38.4646 18.8907C38.4646 18.8907 38.6924 19.047 38.8249 19.2034C38.9541 19.3564 38.8793 19.438 38.8623 19.455L38.8351 19.4686L38.655 19.2748L38.5394 19.1728C38.5394 19.1728 38.4238 19.0946 38.2743 19.047C38.1281 18.9995 38.0771 19.03 38.0771 19.03C38.0771 19.03 37.761 19.1184 37.4924 19.1082C37.2205 19.1014 37.0777 18.9927 37.0777 18.9927L36.9078 18.8771C36.9078 18.8771 36.6494 18.6357 36.6426 18.7513C36.6358 18.8295 36.7582 18.9145 36.7582 18.9145L36.8976 19.0504C37.0029 19.1524 37.0437 19.2034 37.1627 19.3122C37.2817 19.421 37.3599 19.421 37.3599 19.421L37.4482 19.4414L37.5162 19.4584C37.5162 19.4584 37.557 19.4754 37.744 19.5501C37.9309 19.6249 38.1315 19.7881 38.1315 19.7881L38.1791 19.8085L38.2777 19.8425C38.2947 19.8459 38.3423 19.8459 38.451 19.8629C38.5564 19.8765 38.519 19.9445 38.519 19.9445L38.4986 19.9716L38.4102 20.0328C38.4102 20.0328 38.2947 20.0634 38.2131 20.0668C38.1315 20.0702 38.0227 20.026 38.0227 20.026L37.7814 19.9343L37.4856 19.8629L37.1763 19.8051L37.0029 19.7405C36.9757 19.7235 36.9214 19.7133 36.7888 19.6487C36.6562 19.5875 36.6052 19.5093 36.4421 19.4584C36.2789 19.4074 36.1803 19.3972 36.0545 19.4821C35.8438 19.6283 36.3741 19.6521 36.6392 19.7847C37.0267 19.975 37.2477 20.1178 37.3395 20.3252C37.4312 20.5325 37.5264 20.6073 37.5264 20.6073C37.5264 20.6073 37.8018 20.7433 37.9241 20.8895C37.9921 20.9676 37.9989 21.0322 38.0669 21.1104C38.2165 21.2872 38.5088 21.277 38.5666 21.4265C38.621 21.5659 38.3321 21.5047 38.1791 21.4877C37.9071 21.4605 37.8392 21.2124 37.5842 21.107C37.438 21.0492 37.3497 21.0492 37.2001 21.0016C36.9316 20.9132 36.8058 20.7943 36.5338 20.7127C36.3741 20.6617 36.0783 20.4509 36.1123 20.6141L36.1565 20.7093L36.2347 20.8215L36.3673 20.971C36.4081 21.005 36.5814 21.1342 36.8296 21.2702C37.0777 21.4061 37.2919 21.6645 37.2919 21.6645L37.4007 21.8446C37.4346 21.9262 37.4108 21.9534 37.4652 22.069C37.523 22.1846 37.5502 22.205 37.6216 22.2764C37.8018 22.4531 37.9921 22.4191 38.2233 22.5109L38.3592 22.6163L38.3457 22.7217C38.3457 22.7217 38.0873 22.7863 37.9241 22.7761C37.71 22.7591 37.6148 22.6911 37.4007 22.5891C37.1899 22.4871 37.0777 22.2968 37.0573 22.2866L36.9452 22.1914C36.9044 22.1642 36.8024 22.1404 36.7106 22.1166C36.6188 22.0894 36.5644 22.086 36.4727 22.0588C36.3435 22.0248 36.2143 21.967 36.1531 21.9466C36.0919 21.9262 35.956 21.9024 35.8574 21.9602C35.6568 22.0792 36.1667 22.1608 36.3265 22.3273C36.4081 22.4123 36.4421 22.4735 36.5168 22.5619L36.6732 22.7319L36.8126 22.8066C36.8126 22.8066 36.935 22.861 37.1151 22.963C37.2953 23.0616 37.506 23.3403 37.506 23.3403L37.6352 23.5341L37.71 23.6463L37.7304 23.6973L37.7576 23.7618L37.9173 23.9216L37.9717 23.9964L37.9173 24.0474L37.778 24.0304L37.608 23.8978C37.5468 23.8502 37.4822 23.7312 37.3735 23.6633C37.2783 23.6055 37.1491 23.5817 37.1015 23.5681L36.8874 23.4559L36.7174 23.3811C36.7174 23.3811 36.4795 23.2452 36.3469 23.2078C36.2143 23.1704 36.2993 23.252 36.2993 23.252C36.2993 23.252 36.4183 23.4355 36.5338 23.5103C36.68 23.6055 36.8874 23.6939 36.8194 23.772L36.646 23.7958C36.5372 23.7822 36.4047 23.6497 36.4047 23.6497C36.4047 23.6497 36.3469 23.6123 36.1021 23.5341C35.854 23.4525 35.9458 23.5885 36.0001 23.6599L36.1327 23.772L36.2993 23.8468L36.3741 23.8706C36.3741 23.8706 36.4421 23.8842 36.6664 23.9318C36.8908 23.9862 37.0131 24.0916 37.0131 24.0916C37.0131 24.0916 37.1321 24.2037 37.2987 24.3261C37.4652 24.4485 37.6352 24.4825 37.7236 24.4927C37.8154 24.5063 37.812 24.5675 37.812 24.5675L37.8188 24.6491L37.7746 24.683L37.7202 24.7034L37.6012 24.7306C37.6012 24.7306 37.3497 24.7238 37.1559 24.6762C36.9621 24.6287 36.7888 24.4927 36.7752 24.4859C36.7582 24.4791 36.5746 24.3771 36.4523 24.3397C36.3265 24.2989 36.1327 24.3159 36.1123 24.3227C36.0919 24.3295 36.0239 24.3431 35.9084 24.3737C35.7928 24.4043 35.9356 24.4485 35.9356 24.4485L36.0205 24.4553L36.2211 24.4723C36.2211 24.4723 36.4251 24.4961 36.5984 24.5607C36.7752 24.6253 36.884 24.7544 36.9995 24.87C37.1151 24.9856 37.2443 25.0604 37.2443 25.0604L37.3361 25.1216L37.3837 25.1555L37.3973 25.1861L37.3837 25.2235L37.3497 25.2575L37.2851 25.2507C37.2647 25.2507 37.1355 25.1827 37.0403 25.1386C36.9383 25.0944 36.8874 25.0536 36.782 25.0264C36.6902 25.0026 36.5644 24.9924 36.5372 25.0026C36.51 25.0094 36.3061 25.0366 36.1531 25.0502C35.9967 25.0604 35.8608 25.0638 35.6772 25.04C35.4121 25.0094 35.0653 24.802 35.0212 24.8598C34.9294 24.9822 35.2081 25.0162 35.3407 25.0944C35.5243 25.1997 35.8438 25.2983 35.8438 25.2983C35.8438 25.2983 36.0783 25.3493 36.2143 25.4139C36.5134 25.5533 36.6052 25.7572 36.8432 25.9748C36.9791 26.0937 37.0845 26.1481 37.2613 26.1753C37.4142 26.1957 37.4109 26.1787 37.6556 26.1311C37.9003 26.0836 38.0465 25.8524 38.1179 25.9374L38.1213 25.9918L38.0975 26.0598L38.0261 26.1447C37.9819 26.1889 37.8154 26.2807 37.727 26.3181C37.6386 26.3521 37.4244 26.4133 37.1525 26.4065C36.8806 26.3997 36.5032 26.1923 36.5032 26.1923L36.2279 26.0768C36.2279 26.0768 36.1021 26.0156 36.0171 25.985C35.7894 25.9 35.6432 25.9068 35.4121 25.8456C35.2693 25.8048 35.1741 25.764 35.0416 25.7368C34.909 25.7096 34.9838 25.764 34.9974 25.7844C35.0585 25.866 35.1401 25.8932 35.2421 25.9442C35.3815 26.0122 35.4801 25.9986 35.6228 26.0564C35.7792 26.1209 35.9186 26.2127 36.0035 26.2671C36.0919 26.3249 36.1565 26.3861 36.2381 26.4745L36.5304 26.7226L36.6052 26.8042C36.6154 26.828 36.646 26.8892 36.629 26.9844C36.6154 27.0795 36.5338 27.0116 36.5338 27.0116L36.4591 26.964L36.3843 26.8926L36.2619 26.794C36.2619 26.794 36.1599 26.6988 35.9798 26.607C35.7996 26.5153 35.5854 26.4915 35.5854 26.4915L35.4019 26.5221C35.4087 26.5798 35.4529 26.5866 35.6058 26.6274C35.7554 26.6682 35.8574 26.743 35.8574 26.743C35.8574 26.743 36.0137 26.8586 36.1259 26.9878C36.2347 27.1135 36.2687 27.2393 36.2687 27.2393C36.2687 27.2393 36.3231 27.3413 36.4693 27.4807C36.612 27.6234 36.6868 27.5724 36.68 27.6404L36.6086 27.7186L36.5542 27.7152L36.4625 27.6812L36.2721 27.5622L36.007 27.3515L35.7554 27.1645C35.7554 27.1645 35.6228 27.0795 35.5276 27.032C35.4325 26.9844 35.3033 26.9368 35.2319 26.913L35.028 26.8824C35.028 26.8824 34.8682 26.8586 34.773 26.8246C34.62 26.7668 34.4433 26.6036 34.4229 26.5934L34.2291 26.5391C34.2019 26.5425 34.1407 26.811 34.1237 26.964C34.0592 27.6098 34.2291 28.0381 34.4977 28.633C34.8852 29.4964 35.956 30.5672 35.956 30.5672C35.956 30.5672 36.2245 30.7202 36.3401 30.8119C36.6596 31.0635 37.1899 31.4204 37.6624 31.8895C38.0669 32.2906 38.6006 33.0079 38.6006 33.0079C38.6006 33.0079 38.9099 33.4396 39.0459 33.7421C39.2227 34.1194 39.3654 34.6871 39.3654 34.6871L39.3892 34.8061L39.447 34.8537L39.634 34.8605C39.6544 34.8605 39.8651 34.8469 40.0079 34.8095C40.1507 34.7755 40.4804 34.6225 40.698 34.507C40.9189 34.3914 41.1807 34.1704 41.1807 34.1704C41.1807 34.1704 41.2316 34.1262 41.4866 33.8407C41.7449 33.5552 41.9115 33.1269 41.9727 32.9637C42.0339 32.8039 42.0849 32.4946 42.1223 31.9643C42.1596 31.434 42.0883 30.8765 42.0883 30.8765C42.0883 30.8765 41.9931 30.0947 41.9353 29.8296C41.8775 29.5644 41.7347 29.1327 41.7347 29.1327C41.7347 29.1327 41.6362 28.7486 41.6056 28.5038C41.575 28.2591 41.5682 27.8648 41.5682 27.8648C41.5682 27.8648 41.5682 27.6234 41.6498 27.1747C41.7279 26.726 42.0033 26.2773 42.0033 26.2773C42.0033 26.2773 42.0815 26.1243 42.3772 25.7708C42.6797 25.4105 42.7749 25.3527 43.074 25.1352C43.3086 24.9652 43.6179 24.6932 43.7165 24.7544C43.8253 24.8258 43.6077 24.9618 43.5364 25.0366C43.3494 25.2201 43.0027 25.5465 42.7205 26.036C42.4758 26.4609 42.3874 26.7396 42.3228 27.0184C42.2616 27.2937 42.2888 27.5996 42.2956 27.7016C42.3024 27.8036 42.3602 27.7662 42.3602 27.7662C42.3602 27.7662 42.9585 27.2869 43.2848 26.9232C43.6383 26.5289 43.9511 25.8286 44.07 25.8218C44.155 25.8184 44.1924 26.0054 44.172 26.0904C44.0938 26.4541 44.0666 26.4983 43.9511 26.7396C43.8151 27.0184 43.6927 27.1407 43.5024 27.3923C43.3052 27.6608 43.21 27.7628 43.0503 28.1163C42.8225 28.6262 42.9551 29.0171 42.9551 29.0171C42.9551 29.0171 42.9823 29.2551 43.091 29.2551C43.2712 29.2483 43.6655 28.752 43.9239 28.3441C44.1142 28.0449 44.1856 27.7016 44.308 27.5214C44.3896 27.3753 44.4916 27.7968 44.444 28.0449ZM42.163 44.3105L41.507 44.579C41.507 44.579 41.1705 44.7116 40.6436 44.8238C40.1201 44.9326 39.5728 44.9394 39.5728 44.9394C39.5728 44.9394 39.3008 45.2793 39.2431 45.3881C39.1785 45.4934 38.9473 45.9557 38.9473 45.9557L38.7502 46.4792C38.7502 46.4792 38.9575 46.5166 39.1683 46.4996C39.3756 46.4792 39.5218 46.2821 39.5218 46.2821L39.651 46.3501L39.6204 46.4112C39.6204 46.4112 39.498 46.639 39.3008 46.7988C39.0969 46.9619 38.8148 46.9347 38.8148 46.9347L38.6108 46.9279L38.434 47.3596C38.434 47.3596 38.2029 48.0055 37.7168 48.546C37.2341 49.0967 36.6664 49.287 36.6664 49.287C36.6664 49.287 35.9186 49.576 35.2217 49.1817C34.5283 48.7839 34.4195 48.1279 34.4195 48.1279C34.4195 48.1279 34.2903 47.7064 34.5249 47.2169C34.756 46.7274 35.2353 46.843 35.2353 46.843C35.2353 46.843 35.5548 46.9211 35.5582 47.2339C35.5616 47.5534 35.3135 47.6758 35.1333 47.6758C34.9566 47.6758 34.8376 47.5296 34.8376 47.5296C34.8376 47.5296 34.7424 47.7132 34.7458 47.9069C34.7492 48.0939 34.8376 48.3488 34.9736 48.5188C35.1197 48.6888 35.4937 49.0355 36.0341 48.9641C36.5746 48.8859 36.748 48.665 36.9859 48.4168C37.2205 48.1585 37.3837 47.8151 37.4822 47.6316C37.5808 47.4446 37.7916 46.9279 37.7916 46.9279C37.7916 46.9279 37.6794 46.8701 37.5298 46.9109C37.3905 46.9483 37.2715 47.0809 37.2715 47.0809L37.1695 46.9891L37.2477 46.8565C37.2477 46.8565 37.3565 46.6968 37.5196 46.605C37.6828 46.5098 37.9377 46.4758 37.9377 46.4758L37.9581 46.4418C37.9581 46.4418 38.0567 46.2379 38.2641 45.8232C38.468 45.4153 38.7638 45.1331 38.7638 45.1331L38.9643 44.9054L38.8419 44.8884L38.5088 44.834L37.9309 44.7218C37.9309 44.7218 37.3939 44.5926 37.0437 44.681C36.6902 44.7592 36.544 44.9394 36.5168 44.9666C36.4896 44.9937 36.2993 45.2623 36.5746 45.4459C36.85 45.643 37.2001 45.3371 37.2001 45.3371L37.2987 45.2351L37.3769 45.2691L37.3531 45.3371L37.3021 45.4798C37.1763 45.9014 36.2211 46.2073 35.9934 45.6294C35.7588 45.0617 36.2653 44.6946 36.4794 44.5348C36.6936 44.3751 37.1593 44.2697 37.1593 44.2697C37.1593 44.2697 37.6352 44.1779 37.8664 44.1813C38.1009 44.1847 38.4 44.2357 38.4 44.2357L39.3926 44.3853C39.3926 44.3853 39.9399 44.4974 40.8101 44.3921C41.6837 44.2935 42.2718 44.0861 42.2718 44.0861L42.3262 44.2119L42.163 44.3105ZM28.7257 49.1205C28.7257 49.1205 28.2328 49.3584 27.6447 49.3856C27.0498 49.4094 26.523 49.0865 26.523 49.0865C26.523 49.0865 25.7785 48.6514 25.7955 47.8389C25.8023 47.0265 26.3666 46.8803 26.489 46.8701C26.6079 46.8566 26.8765 46.9245 26.9275 47.2169C26.9887 47.5126 26.7167 47.6894 26.5705 47.7098C26.421 47.7268 26.2646 47.6248 26.2646 47.6248L26.234 47.6418L26.183 47.7268C26.183 47.7268 26.1014 47.9851 26.251 48.291C26.4074 48.5936 26.8765 49.0661 27.8555 48.9981C28.8481 48.9369 29.1744 48.2367 29.0826 47.6928C28.9976 47.1455 28.2838 46.9313 28.2838 46.9313L27.7841 46.7444L27.2436 46.4996C27.2436 46.4996 27.1144 46.4248 26.7983 46.2379C26.4856 46.0509 26.353 45.83 26.217 45.626C26.0981 45.4289 26.1728 44.9835 26.1728 44.9835C26.1728 44.9835 26.2306 44.7388 26.4448 44.4974C26.6691 44.2493 27.1348 44.1371 27.4102 44.1405C27.6923 44.1507 28.0254 44.2731 28.0254 44.2731C28.0254 44.2731 28.158 44.3377 28.2464 44.3785C28.3382 44.4159 28.413 44.4397 28.5727 44.4567C28.7359 44.4703 28.8209 44.3547 28.8991 44.2833L29.0384 44.3139C29.0384 44.3139 29.0758 44.6776 29.12 44.9088C29.1642 45.1467 29.358 45.711 29.358 45.711L29.2288 45.7552L29.2118 45.7178L29.0486 45.4764C29.0486 45.4764 28.8447 45.1637 28.4775 44.8952C28.1104 44.6368 27.6413 44.5382 27.6413 44.5382C27.6413 44.5382 27.0363 44.4159 26.8323 44.7456C26.6249 45.0821 27.0159 45.3847 27.0159 45.3847L27.1722 45.4968L27.468 45.6702L27.9473 45.8844C27.9473 45.8844 28.4266 46.1155 28.6237 46.2039C28.8209 46.2923 29.0384 46.4452 29.0384 46.4452C29.0384 46.4452 29.6469 46.7784 29.6231 47.7302C29.6027 48.6888 28.7257 49.1205 28.7257 49.1205ZM31.9312 14.4614C31.9788 14.3424 31.9992 14.1453 31.9992 14.1453L32.1148 14.2677C32.2847 14.526 32.3425 14.5736 32.4581 14.7606C32.5227 14.8693 32.5839 14.9849 32.5431 15.0767C32.5023 15.1685 32.3663 15.0869 32.2575 15.0597C32.1386 15.0291 32.0944 14.9849 31.9788 14.9237C31.8632 14.8625 31.7884 14.7809 31.7782 14.7096C31.7748 14.6416 31.8904 14.5668 31.9312 14.4614ZM32.4207 12.4388C20.7612 12.4388 14.7852 16.246 14.7852 16.246L14.9654 24.8156C14.9654 28.1707 15.6147 46.1801 32.4207 55.9428C49.2199 46.1801 49.876 28.1775 49.876 24.8156L50.0528 16.246C50.0528 16.246 44.087 12.4388 32.4207 12.4388Z" fill="#FFF200"/>
</svg>
