<svg width="64" height="64" viewBox="0 0 64 64" fill="none" xmlns="http://www.w3.org/2000/svg">
<path d="M18.0028 31.9988C18.0028 23.9524 18.0028 15.906 18 7.85964C18 7.54896 18.0565 7.25524 18.1949 6.98128C18.3587 6.65367 18.6044 6.39948 18.9264 6.2272C19.1551 6.10575 19.3952 6.02385 19.6607 6.02103C19.8443 6.02103 20.025 6.00126 20.2086 6.00126C28.2691 6.00126 36.3268 5.99843 44.3873 6.00126C44.7403 6.00126 45.0793 6.08034 45.3843 6.27239C45.7966 6.53222 46.0593 6.89655 46.1751 7.36821C46.2146 7.52637 46.2316 7.68735 46.2316 7.85399C46.2316 23.9383 46.2316 40.0226 46.2316 56.1069C46.2316 56.4091 46.1864 56.7028 46.0621 56.9768C45.9633 57.1914 45.8277 57.3778 45.6526 57.536C45.4831 57.6885 45.2967 57.8071 45.0849 57.889C44.9041 57.9568 44.7177 57.9935 44.5257 58.002C44.4749 58.0048 44.4212 58.002 44.3704 58.002C36.1969 58.002 28.0262 58.002 19.8527 58.002C19.6211 58.002 19.398 57.9738 19.1806 57.8975C18.8388 57.7761 18.562 57.5727 18.3474 57.279C18.1073 56.9514 18.0028 56.5814 18.0028 56.1775C18.0056 52.6669 18.0028 49.1563 18.0028 45.6458C18.0028 41.0987 18.0028 36.5487 18.0028 31.9988Z" fill="#E7782B"/>
<path d="M18.5055 12.627H45.7288C45.7288 12.627 45.7288 41.6974 45.7288 56.1493C45.7288 56.3103 45.7232 56.4656 45.6723 56.6181C45.5961 56.8497 45.4775 57.0531 45.2882 57.2084C45.1329 57.3355 44.955 57.4287 44.7573 57.4739C44.7121 57.4852 44.6669 57.4965 44.6217 57.4993C44.5511 57.5049 44.4805 57.5021 44.4099 57.5021C36.2138 57.5021 28.0177 57.5021 19.8217 57.5049C19.5929 57.5049 19.3754 57.4739 19.1749 57.3666C18.8925 57.2169 18.6919 56.9937 18.579 56.6915C18.5197 56.5306 18.5055 56.3668 18.5055 56.1973C18.5055 51.2068 18.5055 12.627 18.5055 12.627Z" fill="#C5E1F4"/>
<path d="M18.483 12.3729V10.5145H45.7486L45.7458 12.3729H18.483Z" fill="#043468"/>
<path d="M45.726 8.50357L45.7288 10.2603H18.5027V8.50357H45.726Z" fill="#F7F7F6"/>
<path d="M18.4801 8.2268C18.4801 8.2268 18.4801 7.91331 18.4801 7.82858C18.483 7.56875 18.5366 7.32303 18.675 7.10274C18.8614 6.80901 19.1241 6.61696 19.463 6.52941C19.5844 6.49834 19.703 6.50117 19.8245 6.50117C26.9671 6.50117 34.1097 6.50117 41.2495 6.50117C42.3369 6.50117 43.4242 6.50117 44.5088 6.50117C44.633 6.50117 44.7488 6.51811 44.8618 6.56048C45.0454 6.63108 45.2205 6.71581 45.356 6.86267C45.5848 7.10839 45.7288 7.38799 45.7204 7.73538C45.7175 7.87094 45.7204 8.2268 45.7204 8.2268H18.4801Z" fill="#9F3123"/>
<path d="M30.794 17.5611C30.7884 17.2928 30.8335 17.0357 30.9578 16.7929C31.0369 16.6403 31.1499 16.5161 31.2741 16.4031C31.3419 16.341 31.4182 16.2845 31.4944 16.2336C31.6356 16.1376 31.6921 16.1376 31.8164 16.2478C31.887 16.3099 31.952 16.3777 32.0141 16.4483C32.1214 16.5669 32.2174 16.6912 32.3276 16.807C32.3756 16.8578 32.4349 16.9002 32.497 16.9284C32.7569 17.047 32.9998 17.1883 33.2257 17.3634C33.3472 17.4594 33.4686 17.5498 33.5872 17.6486C33.8132 17.835 34.0391 18.0242 34.2651 18.2163C34.3583 18.2954 34.4486 18.3773 34.539 18.4592C34.8412 18.7247 35.1434 18.993 35.423 19.2839C35.6715 19.5437 35.8975 19.8233 36.0528 20.1509C36.1206 20.2921 36.163 20.4418 36.1884 20.6C36.2477 20.9587 36.1714 21.2919 36.0387 21.6196C35.9201 21.9133 35.7478 22.1675 35.5445 22.4104C35.4061 22.5742 35.2507 22.7097 35.0869 22.8396C34.9598 22.9413 34.8384 23.0515 34.7113 23.1531C34.6096 23.235 34.5814 23.348 34.5757 23.4638C34.5673 23.718 34.5701 23.9722 34.5729 24.2264C34.5729 24.3055 34.5983 24.3817 34.6661 24.4382C34.7367 24.4947 34.8101 24.5229 34.8977 24.4721C34.9796 24.4269 35.0587 24.3817 35.1406 24.3337C35.1491 24.328 35.1547 24.3224 35.1632 24.3167C35.2818 24.2235 35.4032 24.2179 35.5219 24.3083C35.6009 24.3676 35.6885 24.3902 35.7845 24.3845C35.8156 24.3817 35.8467 24.3732 35.8805 24.3648C35.9031 24.3591 35.9257 24.3535 35.9483 24.3478C36.1404 24.2885 36.211 24.3196 36.2872 24.5032C36.3098 24.554 36.3324 24.6048 36.3494 24.6585C36.3691 24.7121 36.4059 24.7291 36.4595 24.7263C36.5188 24.7206 36.581 24.7121 36.6403 24.7093C36.7674 24.7037 36.8916 24.6924 37.0187 24.6952C37.0978 24.698 37.1486 24.763 37.1938 24.8251C37.2362 24.8816 37.2701 24.9409 37.3096 24.9974C37.3718 25.085 37.4085 25.0991 37.5102 25.0737C37.626 25.0454 37.7417 25.0115 37.8604 24.9861C37.8999 24.9776 37.9451 24.9748 37.9846 24.9748C38.1259 24.9748 38.2049 25.0595 38.1823 25.1951C38.1371 25.4549 38.0581 25.7063 37.962 25.9548C37.883 26.161 37.7898 26.3644 37.7305 26.579C37.6796 26.7569 37.6711 26.9349 37.7107 27.1156C37.7305 27.2003 37.7672 27.2822 37.7982 27.3642C37.8717 27.559 37.9507 27.7511 38.0157 27.9516C38.0722 28.1239 38.1174 28.299 38.1513 28.4741C38.1823 28.6351 38.14 28.7932 38.075 28.9373C37.9338 29.2423 37.7954 29.5445 37.5977 29.8213C37.4621 30.0105 37.2757 30.1207 37.0583 30.1658C36.7645 30.228 36.4623 30.2619 36.1658 30.3127C35.9003 30.3579 35.6377 30.4059 35.3722 30.4539C35.3185 30.4652 35.2649 30.485 35.2168 30.5104C35.1265 30.5584 35.0982 30.6319 35.1321 30.7307C35.1688 30.8352 35.2112 30.9397 35.2451 31.0442C35.2931 31.1798 35.3298 31.3153 35.3383 31.4622C35.3496 31.6825 35.2761 31.8717 35.1604 32.0525C35.0248 32.2586 34.8949 32.4676 34.7706 32.6823C34.683 32.832 34.6379 32.9986 34.6266 33.1709C34.6068 33.459 34.587 33.747 34.5673 34.0379C34.5588 34.1763 34.5503 34.3175 34.539 34.4559C34.5249 34.6452 34.5051 34.8372 34.4882 35.0264C34.4853 35.049 34.4882 35.0745 34.4853 35.097C34.4741 35.3484 34.4628 35.6026 34.4515 35.854C34.443 36.0347 34.4373 36.2183 34.4232 36.399C34.3921 36.738 34.3837 37.0797 34.3639 37.4214C34.347 37.7491 34.3187 38.0738 34.3102 38.4015C34.3046 38.5879 34.2792 38.7714 34.2622 38.9578C34.2594 38.9861 34.2622 39.0143 34.2594 39.0426C34.2481 39.2996 34.2396 39.5566 34.2255 39.8136C34.217 39.9915 34.2086 40.1695 34.1973 40.3446C34.1831 40.531 34.1634 40.7146 34.1464 40.901C34.1464 40.9151 34.1464 40.9292 34.1464 40.9433C34.1351 41.2342 34.1238 41.5251 34.1125 41.8132C34.1041 42.0476 34.0956 42.282 34.0843 42.5136C34.073 42.717 34.0504 42.9231 34.0391 43.1265C34.0363 43.1971 34.0702 43.2564 34.1182 43.3129C34.1803 43.3863 34.2368 43.4682 34.2876 43.5501C34.3583 43.6631 34.3667 43.7874 34.3187 43.9116C34.2933 43.9794 34.2961 44.0444 34.3272 44.1122C34.3413 44.1404 34.3554 44.1715 34.3696 44.1997C34.4628 44.3918 34.4317 44.581 34.3413 44.7618C34.2396 44.9651 34.1238 45.1628 34.0109 45.3605C33.8753 45.5949 33.7567 45.835 33.703 46.1005C33.6804 46.2106 33.6748 46.3208 33.6663 46.4337C33.655 46.5862 33.6522 46.7416 33.6352 46.8941C33.6239 46.9901 33.6126 47.0946 33.5675 47.1765C33.463 47.3686 33.4206 47.5747 33.3811 47.7866C33.3443 47.973 33.2935 48.1537 33.189 48.3204C33.0676 48.5152 32.8896 48.6367 32.6947 48.7412C32.6015 48.792 32.4971 48.8174 32.401 48.8598C32.1497 48.9671 31.9068 48.9106 31.6695 48.8174C31.4831 48.744 31.3137 48.6367 31.1668 48.4955C31.0143 48.3458 30.9211 48.1678 30.8731 47.9673C30.8335 47.8007 30.7997 47.634 30.7601 47.4674C30.7488 47.4138 30.729 47.3601 30.7036 47.3121C30.6217 47.1567 30.585 46.9901 30.5652 46.8178C30.5455 46.6427 30.5483 46.462 30.5313 46.2869C30.5144 46.092 30.4636 45.9084 30.3845 45.7248C30.2461 45.4085 30.0456 45.1261 29.8959 44.8182C29.8309 44.6883 29.7886 44.5528 29.7942 44.4031C29.7999 44.2957 29.8479 44.2054 29.8874 44.1122C29.9157 44.0472 29.927 43.9822 29.8959 43.9229C29.8027 43.7309 29.8846 43.5671 29.9976 43.4343C30.1275 43.279 30.184 43.1237 30.167 42.9231C30.1444 42.6859 30.1529 42.4458 30.1331 42.2086C30.1049 41.8725 30.0936 41.5364 30.0766 41.2003C30.0597 40.8699 30.0371 40.5366 30.0202 40.2062C30.0032 39.8786 29.9834 39.5538 29.9637 39.2262C29.9439 38.8901 29.9241 38.554 29.9072 38.2179C29.8902 37.8959 29.862 37.5739 29.8535 37.252C29.8479 37.0571 29.8225 36.8622 29.8055 36.6673C29.8027 36.6448 29.8055 36.6193 29.8055 36.5967C29.7942 36.3397 29.7857 36.0827 29.7744 35.8257C29.766 35.6534 29.7603 35.4811 29.7462 35.3089C29.7208 35.0067 29.6982 34.7045 29.6897 34.3994C29.6812 34.1142 29.6558 33.8318 29.636 33.5465C29.6276 33.4307 29.6078 33.3177 29.5909 33.202C29.5796 33.12 29.5711 33.0353 29.557 32.9534C29.5316 32.8037 29.4581 32.6738 29.3819 32.5467C29.2378 32.3095 29.0881 32.0722 28.9497 31.8293C28.865 31.6797 28.865 31.513 28.8933 31.3407C28.9243 31.1346 29.0175 30.951 29.0825 30.7589C29.1277 30.6319 29.0994 30.5386 28.9526 30.485C28.8283 30.4398 28.6927 30.4172 28.5628 30.3918C28.3538 30.3522 28.142 30.3184 27.933 30.2845C27.7805 30.2619 27.6308 30.2421 27.4783 30.2195C27.2636 30.1884 27.0434 30.1545 26.8598 30.0359C26.7214 29.9484 26.6141 29.8213 26.535 29.6772C26.4135 29.4485 26.2893 29.2197 26.1735 28.9853C26.052 28.7396 26.0577 28.4826 26.1255 28.2227C26.1932 27.9629 26.2949 27.7144 26.3938 27.463C26.4418 27.3387 26.5011 27.2116 26.5209 27.0817C26.5435 26.9462 26.5491 26.7965 26.518 26.6637C26.4616 26.4406 26.3796 26.2231 26.2921 26.0085C26.1961 25.7713 26.1198 25.5284 26.0605 25.2827C26.0605 25.277 26.0605 25.2742 26.0605 25.2685C26.0379 25.0059 26.0803 24.9324 26.3796 24.9805C26.5011 25.0002 26.6225 25.0398 26.7412 25.0737C26.7976 25.0906 26.8428 25.0821 26.8795 25.0369C26.9106 24.9974 26.9417 24.955 26.9727 24.9155C27.0264 24.8505 27.0772 24.7828 27.1366 24.7234C27.162 24.698 27.2128 24.6839 27.2495 24.6867C27.371 24.6896 27.4924 24.698 27.611 24.715C27.8144 24.7432 27.868 24.7178 27.9415 24.5257C27.9471 24.5116 27.9443 24.4975 27.95 24.4834C28.0177 24.345 28.077 24.2716 28.2578 24.3393C28.4301 24.4043 28.5882 24.3874 28.7379 24.2885C28.8537 24.2122 28.9554 24.232 29.0627 24.2998C29.122 24.3393 29.1785 24.3789 29.2378 24.4156C29.2717 24.4382 29.3113 24.4523 29.348 24.4693C29.4779 24.5342 29.6191 24.4382 29.6389 24.2857C29.6615 24.0908 29.6699 23.8931 29.6643 23.6982C29.6586 23.444 29.5965 23.2096 29.4412 22.995C29.2068 22.6787 28.9526 22.3821 28.6532 22.1223C28.5515 22.0347 28.4668 21.9246 28.3792 21.8201C28.142 21.5348 27.9556 21.2213 27.7946 20.8881C27.6506 20.5915 27.4924 20.3006 27.3286 20.0154C27.1902 19.7725 27.0321 19.5409 26.8428 19.3347C26.7044 19.1822 26.5548 19.0382 26.422 18.88C26.1989 18.6173 25.9617 18.366 25.7781 18.0723C25.5917 17.7701 25.442 17.4537 25.3488 17.1092C25.3318 17.0414 25.3064 16.9764 25.2895 16.9115C25.2047 16.6064 25.137 16.2958 25.1567 15.9766C25.1737 15.6914 25.2386 15.4146 25.4109 15.1774C25.4646 15.1039 25.5324 15.0333 25.6058 14.9797C25.747 14.8752 26.0662 14.8836 26.23 15.0474C26.3599 15.1774 26.487 15.3073 26.5971 15.4541C26.7835 15.7027 26.984 15.9456 27.1761 16.1913C27.4331 16.5217 27.7692 16.7533 28.1166 16.9793C28.4922 17.2221 28.8678 17.465 29.2322 17.722C29.3677 17.8181 29.5033 17.8463 29.6615 17.8604C29.9834 17.8887 30.3082 17.8774 30.6302 17.8859C30.7742 17.8887 30.8053 17.8576 30.8081 17.7164C30.794 17.6627 30.794 17.6119 30.794 17.5611Z" fill="#E2762A"/>
<path d="M32.1186 32.4281C31.8672 32.4168 31.6187 32.4111 31.373 32.3914C30.9013 32.3518 30.4382 32.2558 29.9863 32.1061C29.9383 32.0892 29.8959 32.0609 29.8507 32.0383C29.7801 32.0044 29.7123 31.9649 29.6276 31.9649C29.5485 31.9649 29.4835 31.9282 29.4299 31.8548C29.3028 31.6853 29.3028 31.4961 29.331 31.304C29.3536 31.1656 29.4158 31.0414 29.5174 30.934C29.6812 30.7646 29.67 30.4454 29.5457 30.2986C29.4525 30.1913 29.331 30.1235 29.1955 30.0783C28.9752 30.0049 28.7492 29.9512 28.5176 29.9342C28.2889 29.9173 28.0629 29.9004 27.8342 29.8749C27.6647 29.8552 27.4924 29.8297 27.3258 29.7959C27.1111 29.7535 26.9417 29.6377 26.8174 29.4541C26.7016 29.279 26.6084 29.0954 26.5237 28.9034C26.4248 28.6803 26.4333 28.46 26.5039 28.2369C26.5858 27.9798 26.679 27.7285 26.7694 27.4771C26.7807 27.4461 26.7948 27.4178 26.8118 27.3896C26.8372 27.3472 26.9106 27.3161 26.953 27.3274C27.001 27.3416 27.0236 27.3726 27.0377 27.4263C27.0801 27.6042 27.1761 27.737 27.3512 27.8104C27.5009 27.8725 27.6449 27.881 27.7918 27.8076C27.8963 27.7539 28.0036 27.7059 28.1251 27.7426C28.1872 27.7624 28.2493 27.7821 28.3086 27.8076C28.4499 27.8669 28.5911 27.8697 28.7323 27.816C28.865 27.7652 28.9865 27.768 29.1192 27.8217C29.2746 27.8866 29.4412 27.9262 29.6106 27.8979C29.7095 27.881 29.8112 27.8499 29.8987 27.8047C29.9976 27.7539 30.0795 27.7652 30.1755 27.8076C30.2885 27.8556 30.4071 27.9008 30.5285 27.9262C30.6387 27.9488 30.7517 27.9375 30.8562 27.8838C30.9663 27.8302 31.0595 27.8527 31.1696 27.9149C31.3532 28.0194 31.5538 28.0843 31.7712 28.0137C31.8447 27.9911 31.9153 27.9516 31.9802 27.9092C32.0904 27.833 32.1101 27.8217 32.2146 27.9008C32.4603 28.0843 32.7202 28.0843 32.9744 27.9488C33.1354 27.8612 33.2737 27.8415 33.446 27.9121C33.5872 27.9685 33.7397 27.9347 33.881 27.8782C33.9459 27.8527 34.0081 27.8245 34.073 27.7991C34.1577 27.7652 34.2368 27.7539 34.3244 27.8076C34.4712 27.8979 34.6379 27.929 34.8102 27.9008C34.9231 27.8838 35.0389 27.8556 35.1434 27.8104C35.262 27.7595 35.3665 27.7708 35.4767 27.8189C35.5981 27.8697 35.7224 27.8612 35.8467 27.8302C35.9173 27.8104 35.9879 27.7821 36.0557 27.7567C36.146 27.7228 36.2364 27.72 36.3268 27.7652C36.4002 27.8019 36.4737 27.8386 36.5584 27.8556C36.7759 27.8979 37.0583 27.7652 37.1374 27.5449C37.1543 27.4969 37.1713 27.4489 37.191 27.4009C37.239 27.2935 37.2927 27.302 37.3746 27.3641C37.3944 27.3811 37.4085 27.4065 37.4198 27.4319C37.448 27.4941 37.4791 27.559 37.5017 27.624C37.578 27.8527 37.657 28.0787 37.7276 28.3103C37.7926 28.5278 37.77 28.7452 37.6712 28.9486C37.5921 29.1124 37.513 29.2762 37.4141 29.4287C37.2729 29.6462 37.0639 29.7789 36.8069 29.8185C36.5895 29.8495 36.3692 29.858 36.1517 29.8806C35.7789 29.923 35.4004 29.9427 35.0446 30.0726C34.9655 30.1009 34.8892 30.1376 34.8158 30.1743C34.5334 30.3212 34.4967 30.7279 34.6859 30.9171C34.8412 31.0696 34.8949 31.2701 34.8977 31.4791C34.9005 31.6345 34.8638 31.787 34.7339 31.8943C34.6944 31.9282 34.6379 31.9536 34.587 31.9593C34.5192 31.9649 34.4628 31.9903 34.4035 32.0186C34.1803 32.1259 33.9431 32.1909 33.7059 32.2473C33.5308 32.2869 33.3528 32.3208 33.1749 32.3518C33.0704 32.3688 32.9631 32.3801 32.8557 32.3886C32.6129 32.4083 32.3643 32.4168 32.1186 32.4281ZM36.982 29.2028C37.0216 29.2028 37.0385 29.2028 37.0583 29.2028C37.1091 29.2056 37.1543 29.1971 37.1684 29.1378C37.1826 29.0841 37.1543 29.0446 37.1119 29.0192C37.0809 28.9994 37.0442 28.9853 37.0103 28.9796C36.8973 28.957 36.7815 28.9401 36.6685 28.9175C36.3268 28.8469 35.9851 28.7848 35.6377 28.748C35.3383 28.717 35.0389 28.6718 34.7367 28.6435C34.4628 28.6181 34.1888 28.6012 33.912 28.5871C33.6127 28.5729 33.3133 28.5616 33.0139 28.5588C32.2485 28.556 31.4831 28.5419 30.7178 28.5814C30.5652 28.5899 30.4099 28.604 30.2574 28.6068C29.9496 28.6125 29.6417 28.6323 29.3339 28.6661C29.1588 28.6859 28.9837 28.7057 28.8057 28.7198C28.5374 28.7396 28.2719 28.7848 28.0064 28.8356C27.7466 28.8864 27.4868 28.9316 27.2269 28.9796C27.1874 28.9881 27.1394 28.9938 27.1083 29.0192C27.0773 29.0418 27.0462 29.087 27.049 29.1209C27.0518 29.166 27.0914 29.2028 27.1479 29.2028C27.1705 29.2028 27.1959 29.2056 27.2185 29.2028C27.3145 29.1943 27.4133 29.183 27.5094 29.1717C27.8087 29.135 28.1081 29.0954 28.4103 29.0644C28.6758 29.0389 28.9413 29.0248 29.2068 29.0079C29.3734 28.9966 29.5429 28.9853 29.7095 28.9796C30.0428 28.9683 30.376 28.9514 30.7065 28.9514C31.7627 28.9514 32.8219 28.9175 33.8781 28.9712C34.2283 28.9881 34.5814 28.9909 34.9316 29.0051C35.1236 29.0107 35.3157 29.0248 35.5049 29.0361C35.5134 29.0361 35.5247 29.0361 35.5332 29.0361C35.7874 29.0615 36.0415 29.087 36.2957 29.1152C36.4256 29.1293 36.5527 29.1491 36.6827 29.166C36.79 29.183 36.8945 29.1943 36.982 29.2028ZM32.1864 31.7248C32.4321 31.7079 32.7597 31.6853 33.0845 31.6599C33.3359 31.6429 33.5816 31.5978 33.8273 31.5413C33.9629 31.5102 34.0928 31.4622 34.2255 31.4198C34.2679 31.4057 34.3018 31.3803 34.2905 31.3266C34.2792 31.2758 34.2425 31.2617 34.1945 31.2645C34.1606 31.2645 34.1267 31.2617 34.0956 31.2673C33.8329 31.321 33.5703 31.3718 33.302 31.4142C33.0393 31.4565 32.7738 31.4707 32.5112 31.4848C32.1412 31.5017 31.7712 31.5046 31.4012 31.465C31.2657 31.4509 31.1301 31.4481 30.9974 31.4311C30.9013 31.4198 30.8053 31.4001 30.7093 31.3831C30.5172 31.3464 30.328 31.304 30.136 31.2701C30.0879 31.2617 30.0315 31.2645 29.9834 31.2758C29.958 31.2814 29.9298 31.3125 29.9213 31.3379C29.9157 31.3549 29.9439 31.3888 29.9637 31.4001C30.0089 31.4255 30.0569 31.4452 30.1049 31.4594C30.4833 31.578 30.8703 31.6429 31.2628 31.6797C31.5425 31.7107 31.8249 31.7107 32.1864 31.7248Z" fill="#043468"/>
<path d="M31.4379 43.4852C31.2459 43.4626 31.0567 43.4033 30.8674 43.3637C30.7432 43.3383 30.6923 43.2479 30.6782 43.135C30.6641 42.9966 30.6556 42.8554 30.6471 42.717C30.6359 42.4882 30.6246 42.2594 30.6133 42.0307C30.6048 41.8753 30.5963 41.7228 30.585 41.5675C30.5709 41.367 30.5511 41.1693 30.5342 40.9687C30.5314 40.949 30.5342 40.932 30.5342 40.9122C30.5229 40.6129 30.5116 40.3135 30.5003 40.0141C30.4918 39.8277 30.489 39.6385 30.472 39.4521C30.441 39.1104 30.4212 38.7714 30.4156 38.4297C30.4127 38.2574 30.3958 38.0851 30.3873 37.9129C30.3788 37.7462 30.3732 37.5768 30.3591 37.4101C30.328 37.0514 30.3082 36.6928 30.3026 36.3313C30.2998 36.1759 30.2828 36.0234 30.2743 35.8709C30.263 35.6901 30.2574 35.5066 30.2461 35.323C30.2292 35.0095 30.2094 34.6988 30.1896 34.3853C30.1727 34.0972 30.1585 33.8063 30.1303 33.5183C30.1105 33.3064 30.0653 33.0974 30.0032 32.8941C29.9665 32.7755 29.9326 32.654 29.9128 32.5298C29.8874 32.3631 29.9298 32.3292 30.0964 32.3631C30.3817 32.4196 30.6669 32.4874 30.955 32.5326C31.1612 32.5665 31.373 32.5806 31.582 32.5947C31.8164 32.6088 32.0508 32.6258 32.2824 32.6173C32.5564 32.606 32.8303 32.5806 33.1043 32.5495C33.446 32.5072 33.7765 32.4111 34.1154 32.3575C34.2764 32.3321 34.347 32.3998 34.3046 32.558C34.2679 32.6964 34.2199 32.832 34.186 32.9732C34.1408 33.1624 34.0956 33.3516 34.0843 33.5493C34.0645 33.8628 34.0448 34.1735 34.0278 34.487C34.008 34.8174 33.977 35.1479 33.9713 35.4811C33.9685 35.6252 33.9544 35.7692 33.9459 35.9161C33.9261 36.2804 33.9064 36.6447 33.8866 37.0091C33.881 37.1362 33.8697 37.2604 33.8612 37.3875C33.8442 37.6332 33.8273 37.8818 33.8075 38.1275C33.8075 38.1416 33.8075 38.1557 33.8075 38.1699C33.7962 38.4495 33.7849 38.7319 33.7736 39.0115C33.7652 39.2035 33.7567 39.3956 33.7454 39.5848C33.7369 39.7543 33.7256 39.9209 33.7171 40.0876C33.7087 40.2598 33.7002 40.4321 33.6889 40.6044C33.6804 40.7682 33.6691 40.932 33.6607 41.093C33.6409 41.4093 33.6239 41.7285 33.6042 42.0448C33.5957 42.1973 33.5872 42.3526 33.5759 42.5051C33.559 42.7339 33.542 42.9599 33.5223 43.1886C33.5166 43.2508 33.494 43.3072 33.4262 43.3298C33.3217 43.3637 33.2172 43.4089 33.1099 43.4287C32.9263 43.4654 32.7456 43.4993 32.5564 43.4965C32.4095 43.4965 31.6611 43.5134 31.4379 43.4852ZM31.9463 38.3337C31.9463 39.7063 31.9463 41.0817 31.9463 42.4543C31.9463 42.5757 31.9463 42.7 31.9491 42.8215C31.9491 42.861 31.9576 42.9062 31.9717 42.9429C32.0056 43.0248 32.0593 43.0502 32.1384 43.0361C32.2062 43.022 32.2485 42.9768 32.2542 42.8977C32.2655 42.7819 32.2768 42.6661 32.2768 42.5503C32.2796 40.8416 32.2796 39.1358 32.2796 37.4271C32.2796 36.2889 32.2796 35.1507 32.2768 34.0125C32.2768 33.9334 32.2655 33.8544 32.2485 33.7781C32.2429 33.747 32.209 33.7103 32.1807 33.7018C32.0226 33.6567 31.9463 33.716 31.9463 33.8769C31.9463 33.9701 31.9435 34.0662 31.9435 34.1594C31.9463 35.5489 31.9463 36.9413 31.9463 38.3337ZM31.4069 42.5334C31.4012 42.4317 31.3899 42.3018 31.3815 42.1719C31.3702 41.9996 31.3617 41.8273 31.3532 41.655C31.3419 41.4404 31.3335 41.2257 31.325 41.0111C31.3165 40.8303 31.3052 40.6468 31.2967 40.466C31.2854 40.2231 31.277 39.9802 31.2657 39.7373C31.2572 39.5792 31.2487 39.421 31.2402 39.2629C31.229 39.0397 31.2205 38.8138 31.2092 38.5907C31.2007 38.3986 31.1922 38.2066 31.1809 38.0174C31.1725 37.8168 31.1612 37.6163 31.1527 37.4158C31.1442 37.2209 31.1329 37.0232 31.1245 36.8283C31.116 36.6335 31.1047 36.4357 31.0962 36.2409C31.0877 36.0403 31.0764 35.8398 31.068 35.6393C31.0567 35.3625 31.0482 35.0857 31.0369 34.8118C31.0256 34.5265 31.02 34.2413 31.003 33.956C30.9974 33.8741 30.9776 33.7894 30.9493 33.7131C30.9211 33.6369 30.8505 33.6312 30.811 33.699C30.7799 33.7527 30.7573 33.8205 30.7573 33.8826C30.7573 34.0266 30.7714 34.1707 30.7771 34.3147C30.7884 34.5632 30.7968 34.8118 30.8053 35.0575C30.8138 35.3004 30.8223 35.5433 30.8336 35.7862C30.842 36.0234 30.8533 36.2635 30.8618 36.5007C30.8703 36.7521 30.8816 37.0063 30.89 37.2576C30.8985 37.4864 30.9098 37.7152 30.9183 37.9439C30.9268 38.1868 30.9352 38.4297 30.9465 38.6726C30.955 38.8957 30.9663 39.1216 30.9748 39.3448C30.9861 39.6018 30.9945 39.8588 31.003 40.1158C31.0115 40.3248 31.0228 40.5366 31.0313 40.7456C31.0426 41.0393 31.051 41.3359 31.0623 41.6296C31.0736 41.9346 31.0793 42.2397 31.0962 42.5419C31.099 42.6153 31.1216 42.6887 31.1499 42.7565C31.1725 42.8158 31.2544 42.8384 31.3306 42.8158C31.3843 42.8017 31.3956 42.7537 31.3984 42.7057C31.4097 42.6577 31.4069 42.6096 31.4069 42.5334ZM33.4404 34.1594C33.4432 34.0605 33.4432 33.9617 33.4432 33.8628C33.4432 33.8346 33.4432 33.8063 33.4404 33.7781C33.4347 33.7244 33.3669 33.6397 33.333 33.6454C33.2766 33.6567 33.2483 33.6962 33.2427 33.7555C33.2285 33.8854 33.2031 34.0125 33.1947 34.1424C33.1805 34.3514 33.1749 34.5632 33.1664 34.7722C33.1579 34.9925 33.1466 35.2128 33.1382 35.4303C33.1269 35.6675 33.1212 35.9076 33.1099 36.1448C33.1015 36.3171 33.0902 36.4894 33.0817 36.6617C33.0704 36.9102 33.0619 37.1588 33.0534 37.4045C33.0421 37.7236 33.0308 38.0428 33.0195 38.3591C33.0195 38.3676 33.0195 38.3789 33.0195 38.3873C33.0026 38.6189 32.9828 38.8533 32.9687 39.0849C32.9574 39.2939 32.9489 39.5057 32.9405 39.7147C32.932 39.9096 32.9207 40.1073 32.9122 40.3022C32.9038 40.5027 32.8953 40.7032 32.884 40.9038C32.8755 41.1099 32.8642 41.3161 32.8557 41.5195C32.8473 41.7059 32.836 41.8923 32.8303 42.0787C32.8247 42.282 32.8247 42.4825 32.8218 42.6859C32.8218 42.7283 32.8219 42.7706 32.867 42.796C32.9094 42.8186 33.0111 42.8102 33.0365 42.7706C33.0647 42.7311 33.0958 42.6831 33.1015 42.6351C33.1184 42.4854 33.124 42.3385 33.1325 42.1888C33.141 42.0081 33.1495 41.8245 33.1579 41.6409C33.1692 41.3783 33.1777 41.1156 33.189 40.8558C33.1975 40.6439 33.206 40.4349 33.2144 40.2231C33.2257 39.9802 33.2342 39.7373 33.2427 39.4945C33.2511 39.2657 33.2596 39.0369 33.2709 38.8082C33.2794 38.5596 33.2907 38.3111 33.2992 38.0654C33.3076 37.8309 33.3161 37.5965 33.3274 37.3621C33.3359 37.1334 33.3472 36.9046 33.3556 36.6758C33.3641 36.4273 33.3726 36.1787 33.3839 35.933C33.3924 35.7043 33.4037 35.4755 33.4121 35.2467C33.4234 34.888 33.4319 34.5237 33.4404 34.1594Z" fill="#043468"/>
<path d="M26.6367 25.7374C26.6395 25.6159 26.679 25.5679 26.7835 25.5623C26.8344 25.5594 26.8909 25.5566 26.936 25.5736C27.0575 25.6187 27.1563 25.5736 27.2467 25.503C27.3173 25.4493 27.371 25.3787 27.4077 25.294C27.4614 25.1753 27.5461 25.1414 27.6704 25.1782C27.7551 25.2036 27.837 25.2318 27.9217 25.2601C27.9556 25.2714 27.9923 25.2798 28.029 25.2827C28.1929 25.294 28.2211 25.2714 28.2748 25.1188C28.2861 25.0878 28.2917 25.0567 28.303 25.0256C28.3425 24.9211 28.3651 24.9014 28.4809 24.9155C28.5431 24.924 28.6052 24.9494 28.6617 24.9833C28.7492 25.0341 28.8142 25.0341 28.8989 24.9607C29.0345 24.8392 29.0458 24.8364 29.2181 24.9183C29.3678 24.9889 29.5033 24.9805 29.6445 24.9099C29.749 24.859 29.8535 24.8703 29.9467 24.9409C30.0202 24.9946 30.0908 25.0172 30.1812 24.9776C30.3026 24.9268 30.4156 24.972 30.5201 25.0369C30.5794 25.0737 30.6415 25.1076 30.7008 25.1414C30.8053 25.2008 30.9098 25.2092 31.02 25.1499C31.0906 25.1132 31.1668 25.0906 31.2374 25.0539C31.3024 25.02 31.3617 25.0256 31.421 25.0624C31.4436 25.0765 31.4662 25.0963 31.4916 25.1104C31.6413 25.1951 31.7402 25.1838 31.8785 25.0793C31.9181 25.0482 31.9576 25.0144 32 24.9861C32.0932 24.924 32.1497 24.9296 32.2401 25.0031C32.2909 25.0426 32.3389 25.0878 32.3926 25.1245C32.4716 25.1782 32.5564 25.1866 32.6439 25.1443C32.6863 25.1245 32.7315 25.1104 32.7682 25.0821C32.8501 25.0228 32.9292 25.0313 33.0139 25.0737C33.0789 25.1076 33.1523 25.1301 33.2173 25.1612C33.3302 25.2177 33.4347 25.1866 33.5364 25.133C33.5844 25.1076 33.6381 25.0821 33.6804 25.0454C33.7962 24.9466 33.9233 24.9409 34.0561 24.9861C34.1239 25.0087 34.1832 25.0002 34.2368 24.9522C34.3498 24.8534 34.4825 24.859 34.604 24.9211C34.7395 24.9946 34.8666 24.9805 34.9881 24.9099C35.1095 24.8392 35.2027 24.8505 35.2988 24.9522C35.3948 25.0482 35.4371 25.0426 35.5586 24.9776C35.6151 24.9466 35.6772 24.9268 35.7393 24.9155C35.8128 24.8986 35.8664 24.9324 35.8919 25.0059C35.9088 25.0539 35.9257 25.1019 35.9455 25.1499C35.9907 25.2714 36.0641 25.3137 36.1912 25.2827C36.307 25.2544 36.4228 25.2205 36.5386 25.1838C36.6459 25.1499 36.7307 25.1556 36.8013 25.2968C36.8493 25.3956 36.9227 25.4719 37.0074 25.5368C37.0809 25.5905 37.1571 25.6046 37.2447 25.582C37.2927 25.5679 37.3464 25.5623 37.3972 25.5623C37.5497 25.5623 37.626 25.6752 37.5695 25.8193C37.5186 25.9492 37.4593 26.0763 37.4085 26.2034C37.3548 26.3333 37.3096 26.4632 37.2984 26.6044C37.2927 26.6666 37.2588 26.7287 37.2277 26.7824C37.191 26.8417 37.1345 26.8417 37.0894 26.788C37.047 26.7372 37.0159 26.6807 36.9764 26.627C36.8945 26.5084 36.8154 26.387 36.725 26.274C36.6262 26.1497 36.4963 26.0565 36.355 25.9774C36.1856 25.8814 36.0415 25.952 35.9003 26.0424C35.7365 26.1497 35.6292 26.3107 35.5219 26.466C35.4852 26.5197 35.4484 26.5762 35.4033 26.6214C35.3101 26.7146 35.2423 26.7061 35.1632 26.5988C35.0869 26.4943 35.0135 26.3841 34.9372 26.2796C34.7791 26.0593 34.5701 25.8955 34.3357 25.7656C34.2425 25.7148 34.1549 25.7204 34.0561 25.7628C33.7765 25.8899 33.559 26.0904 33.3726 26.3305C33.3218 26.3954 33.2568 26.4547 33.1975 26.514C33.1636 26.5508 33.1297 26.5451 33.1015 26.5084C33.0732 26.4717 33.0422 26.435 33.0196 26.3954C32.8896 26.1384 32.7061 25.9322 32.4632 25.7797C32.3756 25.7261 32.2909 25.6696 32.2033 25.6187C32.1327 25.5764 32.0649 25.5736 31.9915 25.6159C31.6554 25.8023 31.3589 26.0283 31.1838 26.3841C31.1753 26.4011 31.1668 26.418 31.1584 26.435C31.0821 26.5705 31.0397 26.5762 30.9296 26.4604C30.8731 26.3983 30.8166 26.3361 30.7686 26.2655C30.6076 26.0367 30.3817 25.8899 30.1416 25.7628C30.0428 25.7119 29.9467 25.7176 29.862 25.7684C29.6756 25.8814 29.4836 25.9944 29.3423 26.1667C29.2604 26.2683 29.1898 26.3785 29.1136 26.4858C29.091 26.5169 29.074 26.5479 29.0543 26.579C28.9554 26.723 28.8707 26.7259 28.7634 26.5875C28.6476 26.4378 28.5515 26.2712 28.4075 26.1356C28.3143 26.048 28.207 25.9831 28.0884 25.9407C28.0262 25.9181 27.9613 25.9266 27.8991 25.9548C27.6873 26.0424 27.5348 26.2006 27.3964 26.3728C27.3032 26.4886 27.2269 26.6185 27.1394 26.7372C27.114 26.7711 27.0744 26.8247 27.0434 26.8219C26.9812 26.8191 26.9389 26.7739 26.9276 26.7004C26.9191 26.6411 26.8937 26.5847 26.8852 26.5253C26.8626 26.3418 26.7864 26.178 26.7129 26.0113C26.6847 25.9209 26.6226 25.8334 26.6367 25.7374Z" fill="#043468"/>
<path d="M34.1775 23.8931C34.1775 24.0061 34.1775 24.119 34.1775 24.232C34.1775 24.2659 34.1775 24.297 34.1719 24.3309C34.1493 24.4382 34.1408 24.4466 34.0335 24.4043C33.9205 24.3591 33.8386 24.3873 33.7595 24.4692C33.672 24.5596 33.5731 24.6415 33.4799 24.7263C33.4121 24.7856 33.3726 24.7912 33.2907 24.746C33.2173 24.7065 33.1495 24.6585 33.0789 24.6133C32.9631 24.537 32.9151 24.537 32.8021 24.6161C32.7484 24.6528 32.6976 24.6952 32.6467 24.7347C32.5874 24.7771 32.5253 24.7771 32.466 24.7319C32.401 24.6811 32.3332 24.6274 32.2711 24.5709C32.1525 24.4664 32.1073 24.4608 31.9774 24.554C31.9294 24.5907 31.8814 24.6302 31.8362 24.6698C31.7119 24.7799 31.6526 24.7856 31.517 24.6924C31.4747 24.6641 31.4323 24.633 31.3928 24.5992C31.3278 24.5455 31.2628 24.5314 31.1894 24.5794C31.1273 24.6218 31.0651 24.6613 31.003 24.7008C30.8477 24.7997 30.8053 24.794 30.6754 24.6669C30.6076 24.602 30.5398 24.537 30.4749 24.4692C30.393 24.3873 30.3054 24.3534 30.1868 24.4015C30.0795 24.4438 30.0597 24.4241 30.0541 24.3083C30.0484 24.1953 30.0315 24.0851 30.0343 23.9722C30.0371 23.7999 30.0456 23.6276 30.0569 23.4525C30.0625 23.3762 30.0936 23.3536 30.1783 23.3536C30.2913 23.3508 30.4043 23.3508 30.5172 23.3508C30.89 23.3508 31.26 23.3508 31.6328 23.348C31.6893 23.348 31.743 23.3311 31.7995 23.3311C32.0226 23.3339 32.2457 23.3395 32.466 23.3424C32.5281 23.3424 32.5903 23.3565 32.6467 23.3452C32.7993 23.3198 32.9518 23.3198 33.1071 23.3452C33.1805 23.3565 33.2568 23.348 33.333 23.348C33.5533 23.348 33.7765 23.348 33.9968 23.348C34.1436 23.348 34.1747 23.3791 34.1775 23.5316C34.1775 23.6587 34.1747 23.7745 34.1775 23.8931Z" fill="#043468"/>
<path d="M31.5029 47.1624C31.4662 47.1624 31.4267 47.1624 31.3899 47.1624C31.2148 47.1511 31.1951 47.1398 31.1471 46.9732C31.1132 46.8574 31.0877 46.7387 31.0736 46.6201C31.0397 46.3659 31.0256 46.1117 30.9832 45.8576C30.9578 45.6938 30.8844 45.5384 30.8053 45.3916C30.7997 45.3803 30.7855 45.369 30.7799 45.3577C30.7008 45.191 30.7545 45.1741 30.8816 45.1854C30.9776 45.1967 31.0764 45.1995 31.1725 45.2165C31.6131 45.2899 32.0593 45.2758 32.5027 45.2701C32.7399 45.2673 32.9744 45.239 33.2088 45.1939C33.2681 45.1826 33.3302 45.1854 33.3924 45.1854C33.4714 45.1854 33.494 45.2165 33.4658 45.2899C33.4291 45.3803 33.3924 45.4706 33.3443 45.5554C33.2709 45.6796 33.2455 45.8152 33.2229 45.9508C33.1947 46.1485 33.1862 46.349 33.1608 46.5467C33.1382 46.702 33.1071 46.8574 33.0704 47.0099C33.045 47.1144 32.9687 47.1596 32.8303 47.1624C32.5874 47.1624 31.7063 47.1624 31.5029 47.1624Z" fill="#043468"/>
<path d="M31.212 27.2964C31.1951 27.1467 31.2459 27.0055 31.308 26.8699C31.4012 26.6666 31.5029 26.4661 31.6413 26.2881C31.7119 26.1949 31.7882 26.1045 31.8729 26.0255C32.0395 25.8645 32.2118 25.8955 32.3474 26.0311C32.6439 26.322 32.8416 26.6722 32.9772 27.0592C33.0139 27.1608 33.028 27.2681 33.0195 27.3755C32.9941 27.641 32.8529 27.7455 32.5705 27.6523C32.4547 27.6155 32.3615 27.5336 32.2711 27.4489C32.2429 27.4235 32.2175 27.3981 32.1892 27.3698C32.1497 27.3331 32.1045 27.3275 32.0593 27.3529C32.0198 27.3755 31.983 27.4065 31.9491 27.4348C31.8842 27.4884 31.8221 27.5449 31.7571 27.5986C31.6554 27.6805 31.534 27.6918 31.4097 27.6748C31.2967 27.6607 31.2261 27.5562 31.2148 27.4517C31.2092 27.4037 31.212 27.3501 31.212 27.2964Z" fill="#043468"/>
<path d="M30.8759 27.3359C30.8731 27.3782 30.8731 27.4121 30.8646 27.4432C30.811 27.6776 30.6726 27.7172 30.4664 27.6607C30.393 27.6409 30.3308 27.6042 30.2743 27.5505C30.2263 27.5053 30.1783 27.463 30.1275 27.4234C30.0258 27.3415 29.9863 27.3444 29.8874 27.4347C29.8253 27.4912 29.7631 27.5477 29.6954 27.5985C29.6078 27.6663 29.5033 27.6917 29.3932 27.6804C29.3028 27.672 29.2265 27.6324 29.2011 27.5421C29.1757 27.4545 29.1531 27.3698 29.17 27.2709C29.2294 26.8896 29.4158 26.5761 29.6558 26.2852C29.701 26.2316 29.7434 26.1779 29.7942 26.1271C29.9354 25.9859 30.1021 25.9802 30.2348 26.1214C30.3619 26.257 30.4833 26.401 30.5822 26.5564C30.7121 26.7597 30.8223 26.9744 30.8618 27.2173C30.8646 27.2625 30.8703 27.3048 30.8759 27.3359Z" fill="#043468"/>
<path d="M35.0559 27.3077C35.0502 27.3868 35.0587 27.4432 35.0446 27.4884C34.9824 27.672 34.861 27.7172 34.652 27.6579C34.5644 27.6325 34.4797 27.5845 34.4176 27.5082C34.395 27.4828 34.3724 27.4602 34.347 27.4376C34.234 27.3359 34.169 27.3331 34.0589 27.4404C33.9713 27.5252 33.8838 27.6071 33.768 27.6522C33.6833 27.6861 33.5985 27.689 33.5194 27.6635C33.4234 27.6296 33.3641 27.5477 33.3585 27.4404C33.3528 27.3049 33.3585 27.1721 33.4065 27.0394C33.5392 26.675 33.7397 26.3531 34.025 26.0876C34.1295 25.9916 34.2905 25.9972 34.3893 26.0904C34.6068 26.2938 34.7734 26.5338 34.9005 26.8021C34.9542 26.9151 35.0163 27.0253 35.0333 27.1523C35.0389 27.2173 35.0502 27.2766 35.0559 27.3077Z" fill="#043468"/>
<path d="M27.2891 27.2625C27.2891 27.0761 27.3682 26.9095 27.4501 26.7485C27.5376 26.5734 27.6591 26.418 27.7862 26.2712C27.8172 26.2373 27.8568 26.209 27.8935 26.1836C28.0064 26.1045 28.0883 26.1102 28.1957 26.2006C28.3425 26.3277 28.4555 26.483 28.5515 26.6468C28.6504 26.8191 28.7436 26.9942 28.7775 27.1975C28.7944 27.2907 28.7747 27.3755 28.7549 27.4574C28.7323 27.5449 28.5939 27.6155 28.5007 27.5873C28.4018 27.559 28.3058 27.5252 28.2324 27.4461C28.2098 27.4207 28.1872 27.3981 28.1618 27.3755C28.0629 27.2794 28.0177 27.2823 27.9132 27.3755C27.8285 27.4517 27.7438 27.5308 27.628 27.5703C27.4614 27.6268 27.2891 27.5506 27.2919 27.3303C27.2891 27.3105 27.2891 27.2851 27.2891 27.2625Z" fill="#043468"/>
<path d="M35.4484 27.2879C35.4428 27.093 35.519 26.9433 35.5896 26.7937C35.6828 26.5931 35.8156 26.418 35.9653 26.257C36.002 26.2175 36.05 26.1836 36.098 26.1582C36.1856 26.1074 36.2675 26.1215 36.3522 26.2006C36.4849 26.322 36.5979 26.4576 36.6883 26.6101C36.7702 26.7513 36.8465 26.8953 36.8916 27.0507C36.9255 27.1693 36.9594 27.2907 36.9171 27.4178C36.8803 27.5364 36.773 27.6212 36.6544 27.5901C36.5555 27.5647 36.4595 27.528 36.3861 27.4489C36.3663 27.4291 36.3466 27.4094 36.3268 27.3896C36.2138 27.2851 36.1714 27.2879 36.0557 27.3924C35.9737 27.4658 35.8947 27.5449 35.7789 27.5732C35.584 27.624 35.4541 27.5364 35.4484 27.3387C35.4456 27.3162 35.4484 27.2907 35.4484 27.2879Z" fill="#043468"/>
<path d="M32.1243 48.5153C31.7627 48.4927 31.5311 48.3147 31.3815 47.9702C31.3222 47.8318 31.3137 47.6821 31.277 47.5381C31.26 47.4731 31.2939 47.4307 31.3673 47.4081C31.4069 47.3968 31.4492 47.3884 31.4888 47.3884C31.9124 47.3884 32.3332 47.3884 32.7569 47.3884C32.788 47.3884 32.8218 47.394 32.8529 47.4025C32.9066 47.4194 32.9405 47.4505 32.9348 47.5155C32.9094 47.7894 32.8473 48.0492 32.6609 48.2611C32.5168 48.4277 32.3276 48.5096 32.1243 48.5153Z" fill="#043468"/>
<path d="M31.4436 44.0246C31.1386 43.9992 30.8336 43.9597 30.5427 43.858C30.4382 43.8213 30.4156 43.793 30.424 43.7139C30.4297 43.6546 30.4721 43.6123 30.5314 43.6066C30.5596 43.6038 30.5879 43.6038 30.6161 43.6094C30.8194 43.6518 31.0228 43.6998 31.2261 43.7365C31.3391 43.7563 31.4577 43.7704 31.5735 43.7733C31.8983 43.7789 32.2231 43.7761 32.5479 43.7761C32.8049 43.7761 33.0563 43.7309 33.3076 43.6744C33.4121 43.6518 33.5166 43.6264 33.6211 43.6094C33.6748 43.601 33.7341 43.5869 33.7765 43.6462C33.8301 43.7224 33.7962 43.8213 33.6917 43.8552C33.5872 43.8919 33.4771 43.9173 33.3698 43.9399C33.0535 44.0048 32.7343 44.0359 32.4095 44.0331C32.3078 44.0303 31.6639 44.0416 31.4436 44.0246Z" fill="#043468"/>
<path d="M31.6667 45.0385C31.4492 45.0131 31.2318 45.0188 31.0143 44.9679C30.8561 44.9312 30.6952 44.9143 30.5427 44.8521C30.5342 44.8493 30.5229 44.8521 30.5144 44.8465C30.4353 44.8154 30.4043 44.7533 30.424 44.6799C30.441 44.6234 30.5116 44.5923 30.585 44.6093C30.7347 44.6403 30.8844 44.677 31.0341 44.7053C31.147 44.7279 31.2628 44.7476 31.3786 44.7589C31.7514 44.7985 32.1299 44.8041 32.5027 44.7844C32.8416 44.7674 33.1777 44.7194 33.5053 44.6318C33.5505 44.6205 33.5957 44.6149 33.6409 44.6064C33.72 44.5923 33.7708 44.6177 33.7962 44.6855C33.816 44.742 33.7793 44.8211 33.7171 44.8437C33.6211 44.8747 33.5223 44.9086 33.4234 44.9284C33.2003 44.9679 32.9772 45.0216 32.7456 45.0216C32.5366 45.0216 31.8136 45.0555 31.6667 45.0385Z" fill="#043468"/>
<path d="M31.6074 44.5612C31.3532 44.5499 31.099 44.5217 30.8477 44.4652C30.7488 44.4426 30.65 44.42 30.5511 44.3946C30.4749 44.3748 30.424 44.3155 30.4212 44.2506C30.4184 44.1771 30.4438 44.1404 30.5172 44.1432C30.6104 44.1461 30.7036 44.1574 30.794 44.1771C31.0256 44.2308 31.2572 44.2675 31.4944 44.2929C31.8559 44.3296 32.2146 44.3212 32.5761 44.3071C32.8529 44.2958 33.1297 44.2619 33.4008 44.1856C33.4884 44.1602 33.5844 44.1517 33.6748 44.1432C33.7482 44.1376 33.7793 44.163 33.7962 44.2308C33.8103 44.2873 33.7877 44.3353 33.7397 44.3607C33.6917 44.3861 33.6381 44.4116 33.5844 44.42C33.3387 44.4652 33.0986 44.5358 32.8444 44.5415C32.5959 44.5443 31.7712 44.5697 31.6074 44.5612Z" fill="#043468"/>
<path d="M31.452 23.0825C31.3786 23.0825 31.2967 23.0797 31.1979 23.0797C31.1385 23.0797 31.0821 23.0797 31.0228 23.0797C30.9634 23.0797 30.907 23.0797 30.8476 23.0797H30.7912V23.0768C30.7516 23.0768 30.7121 23.0768 30.6725 23.0768C30.6161 23.0768 30.5567 23.0768 30.5003 23.0768C30.3929 23.0768 30.3082 23.0768 30.2291 23.0797H30.2235C30.1388 23.0797 30.0823 23.043 30.0456 22.9611C30.006 22.8678 29.9608 22.7803 29.9241 22.7153C29.8083 22.4979 29.6389 22.3312 29.4581 22.1561C29.4327 22.1307 29.4073 22.1053 29.3818 22.0799C29.122 21.8229 28.9215 21.6223 28.7351 21.4331C28.5713 21.2665 28.4357 21.0688 28.3171 20.8344L28.2888 20.7779C28.2098 20.6225 28.1307 20.4644 28.0601 20.3034C27.8341 19.795 27.6195 19.3431 27.2919 18.9477C27.1733 18.8065 27.0349 18.6766 26.9021 18.5495C26.8711 18.5213 26.84 18.4902 26.8089 18.462C26.7214 18.3801 26.631 18.2982 26.5463 18.2219C26.4559 18.14 26.3627 18.0553 26.2723 17.9705C26.1678 17.8717 26.0859 17.7333 26.0322 17.5638C25.8995 17.16 25.7724 16.7448 25.651 16.3466L25.6171 16.2336C25.5521 16.0218 25.5578 15.8213 25.634 15.6349L25.6397 15.6207C25.6736 15.5388 25.7103 15.4456 25.8148 15.3948C25.8543 15.3778 25.8854 15.3665 25.9193 15.3665C25.9842 15.3665 26.0294 15.4146 26.0661 15.4597C26.1057 15.5078 26.1396 15.5586 26.1706 15.6179C26.2412 15.7506 26.3118 15.8834 26.3796 16.0133L26.4418 16.1348C26.5321 16.3099 26.6395 16.4652 26.7553 16.5979C26.8428 16.6968 26.888 16.8126 26.8993 16.9764C26.9219 17.2786 26.9614 17.5243 27.0913 17.7446C27.1478 17.8434 27.2015 17.9169 27.2552 17.9734C27.5404 18.2812 27.8285 18.5269 28.1392 18.7274C28.3369 18.8545 28.56 18.9308 28.8226 18.9562C29.1728 18.9929 29.4892 19.0353 29.7857 19.1906C29.8168 19.2076 29.845 19.2217 29.8761 19.2415C29.9891 19.3149 30.006 19.3714 29.9524 19.4928C29.9382 19.5267 29.9213 19.5606 29.9072 19.5945C29.8789 19.6566 29.8507 19.7188 29.8253 19.7837C29.7038 20.1085 29.7349 20.4192 29.9269 20.7383C30.0314 20.9106 30.1557 21.0631 30.2658 21.1874C30.4071 21.3484 30.568 21.4924 30.7262 21.6336C30.8251 21.724 30.9296 21.8144 31.0256 21.9104C31.1527 22.0347 31.2826 22.1618 31.3814 22.3256C31.4859 22.495 31.5622 22.6871 31.6074 22.8989C31.6215 22.9611 31.6243 23.0091 31.5933 23.0458C31.5622 23.0853 31.5114 23.0853 31.4775 23.0853C31.4662 23.0825 31.4605 23.0825 31.452 23.0825Z" fill="#F68503"/>
<path d="M25.9136 15.4231C25.9475 15.4231 25.9758 15.4428 26.0181 15.4937C26.0549 15.5389 26.0887 15.5897 26.117 15.6434C26.2102 15.8156 26.2977 15.9879 26.3881 16.1602C26.4757 16.3297 26.583 16.4906 26.7101 16.6347C26.7976 16.7335 26.8315 16.8493 26.84 16.9792C26.8598 17.2532 26.8965 17.5272 27.0377 17.77C27.0857 17.8548 27.1422 17.9367 27.2072 18.0101C27.4755 18.301 27.7692 18.558 28.1025 18.7727C28.3199 18.9139 28.5572 18.9845 28.8114 19.0099C29.1361 19.0438 29.4581 19.0833 29.7547 19.2387C29.7829 19.2528 29.8112 19.2697 29.8394 19.2867C29.9298 19.346 29.9382 19.3714 29.8959 19.4703C29.8535 19.5691 29.8055 19.6651 29.766 19.764C29.6332 20.1142 29.6812 20.4475 29.8733 20.7666C29.9721 20.9332 30.0936 21.0801 30.2207 21.2241C30.4523 21.4896 30.7319 21.7043 30.9832 21.9528C31.1103 22.0771 31.2374 22.2042 31.3306 22.3567C31.4379 22.529 31.5085 22.7154 31.5481 22.9131C31.5707 23.0176 31.5481 23.0289 31.4747 23.0289C31.469 23.0289 31.4605 23.0289 31.4521 23.0289C31.3673 23.0289 31.2826 23.026 31.1979 23.026C31.0821 23.026 30.9635 23.026 30.8477 23.026V23.0232C30.7319 23.0232 30.6161 23.0232 30.5003 23.0232C30.4099 23.0232 30.3167 23.0232 30.2263 23.026C30.2235 23.026 30.2235 23.026 30.2207 23.026C30.1557 23.026 30.1218 23.0006 30.0964 22.9441C30.0597 22.8594 30.0173 22.7747 29.975 22.6928C29.8394 22.4358 29.6247 22.2437 29.4214 22.0432C29.2039 21.8285 28.9893 21.6139 28.7775 21.3964C28.6108 21.2241 28.4753 21.0264 28.3679 20.8118C28.2804 20.6367 28.19 20.4616 28.1109 20.2837C27.8963 19.8007 27.6732 19.3234 27.3343 18.9139C27.1874 18.7388 27.0151 18.5834 26.8457 18.4253C26.6677 18.2586 26.4841 18.1005 26.3062 17.931C26.1961 17.8265 26.1255 17.6881 26.0803 17.5469C25.9362 17.1063 25.8007 16.6629 25.6651 16.2167C25.6086 16.0303 25.6058 15.8411 25.6792 15.6547C25.7131 15.5727 25.7414 15.488 25.8317 15.4457C25.8656 15.4315 25.891 15.4231 25.9136 15.4231ZM25.9136 15.3101C25.8684 15.3101 25.8233 15.327 25.7865 15.344C25.6595 15.4033 25.6143 15.5163 25.5804 15.5982L25.5747 15.6123C25.4956 15.8128 25.49 16.0246 25.5578 16.2506L25.5917 16.3635C25.7131 16.7646 25.8402 17.1769 25.9729 17.5836C26.0323 17.7644 26.117 17.9084 26.23 18.0129C26.3203 18.1005 26.4164 18.1852 26.5067 18.2671C26.5943 18.3462 26.6847 18.4253 26.7694 18.5072C26.8005 18.5354 26.8315 18.5665 26.8626 18.5947C26.9953 18.719 27.1337 18.8489 27.2467 18.9873C27.5715 19.3771 27.7833 19.8261 28.0064 20.3317C28.0799 20.4927 28.1589 20.6536 28.238 20.809L28.2663 20.8655C28.3877 21.1055 28.5261 21.306 28.6956 21.4783C28.882 21.6676 29.0797 21.8681 29.3423 22.1279C29.3677 22.1533 29.3932 22.1788 29.4186 22.2042C29.5965 22.3765 29.7631 22.5403 29.8761 22.7521C29.91 22.817 29.9552 22.9046 29.9947 22.995C30.0371 23.0966 30.1162 23.1475 30.2235 23.1475H30.2291C30.3082 23.1475 30.3958 23.1447 30.5003 23.1447C30.5568 23.1447 30.6161 23.1447 30.6726 23.1447C30.6923 23.1447 30.7121 23.1447 30.7347 23.1447V23.1475H30.8477C30.907 23.1475 30.9663 23.1475 31.0228 23.1475C31.0821 23.1475 31.1386 23.1475 31.1979 23.1475C31.2967 23.1475 31.3758 23.1475 31.4521 23.1503C31.4605 23.1503 31.469 23.1503 31.4747 23.1503C31.5142 23.1503 31.5876 23.1503 31.6356 23.091C31.6808 23.0345 31.6752 22.9639 31.6611 22.8989C31.613 22.6815 31.5368 22.4838 31.4266 22.3087C31.3221 22.142 31.1838 22.0036 31.0623 21.885C30.9635 21.789 30.8618 21.6958 30.7601 21.6054C30.6048 21.467 30.4438 21.3202 30.3054 21.162C30.1981 21.0377 30.071 20.8881 29.9721 20.7214C29.7914 20.4192 29.7575 20.1227 29.8733 19.8176C29.8959 19.7555 29.9241 19.6962 29.9524 19.6312C29.9665 19.5974 29.9834 19.5635 30.0004 19.5267C30.0653 19.3799 30.0371 19.2923 29.9015 19.2048C29.8705 19.185 29.8394 19.1681 29.8083 19.1511C29.5033 18.9901 29.1813 18.9478 28.8255 18.9111C28.5741 18.8856 28.3566 18.8122 28.1674 18.6908C27.8624 18.4931 27.5743 18.2502 27.2947 17.9451C27.2439 17.8915 27.193 17.8209 27.1394 17.7249C27.0151 17.513 26.9756 17.2758 26.9558 16.9821C26.9445 16.8098 26.8937 16.6799 26.7976 16.5725C26.6818 16.4426 26.5802 16.2929 26.4898 16.1207C26.4672 16.0811 26.4474 16.0388 26.4277 15.9992C26.3599 15.8693 26.2893 15.7337 26.2187 15.601C26.1848 15.5389 26.1481 15.4824 26.1085 15.4344C26.0548 15.3638 25.9984 15.3101 25.9136 15.3101Z" fill="black"/>
<path d="M33.5138 23.0825C33.3952 23.0825 33.3302 23.0825 33.2907 23.0373C33.2511 22.9893 33.2596 22.9244 33.2765 22.8029C33.3189 22.5064 33.3387 22.1929 33.3302 21.8737C33.3189 21.4698 33.189 21.0914 32.9404 20.7497C32.7371 20.47 32.4744 20.2046 32.1129 19.9137C31.9576 19.7894 31.7797 19.6369 31.6639 19.4251C31.5876 19.2839 31.5424 19.1257 31.5255 18.9393C31.5198 18.863 31.517 18.7811 31.5227 18.6908C31.5311 18.5608 31.4803 18.462 31.373 18.397C31.2826 18.3434 31.2685 18.2699 31.2656 18.2021C31.2628 18.157 31.26 18.1118 31.2543 18.0666C31.2487 18.0101 31.2431 17.9536 31.2431 17.8943C31.2402 17.5328 31.308 17.1939 31.4436 16.8917C31.4577 16.8634 31.4775 16.8408 31.4944 16.8211C31.5001 16.8154 31.5057 16.8098 31.5114 16.8041C31.534 16.7787 31.5594 16.7646 31.5933 16.7646C31.613 16.7646 31.6356 16.7702 31.6497 16.7759C31.7317 16.807 31.8051 16.8634 31.87 16.9538C32.0084 17.1402 32.1694 17.273 32.3615 17.3577C32.6326 17.4791 32.8896 17.6627 33.172 17.9367C33.2483 18.0101 33.3189 18.0892 33.3895 18.1654C33.4262 18.205 33.4629 18.2473 33.5025 18.2869C33.5957 18.3857 33.6155 18.5043 33.559 18.6456C33.5392 18.6992 33.5194 18.7529 33.4997 18.8037C33.4714 18.8856 33.4403 18.9704 33.4036 19.0494C33.285 19.3234 33.2765 19.5832 33.381 19.8459C33.4375 19.9899 33.4968 20.1368 33.5561 20.278C33.5985 20.3853 33.6437 20.4898 33.6861 20.5971C33.7143 20.6649 33.7425 20.7327 33.7708 20.7977C33.8442 20.9643 33.9176 21.1366 33.96 21.3202C33.9939 21.4755 33.9967 21.6365 33.9657 21.8172C33.9515 21.8963 33.9374 21.9754 33.9205 22.0517C33.8866 22.2239 33.8527 22.399 33.8386 22.5741C33.8301 22.6673 33.816 22.769 33.7934 22.882L33.7877 22.9074C33.7595 23.0543 33.7397 23.074 33.5985 23.0769C33.5872 23.0769 33.5759 23.0769 33.5646 23.0769L33.5138 23.0825Z" fill="#F68503"/>
<path d="M31.5933 16.8211C31.6046 16.8211 31.6159 16.8239 31.63 16.8296C31.7147 16.8606 31.774 16.92 31.8249 16.9877C31.9604 17.1713 32.1271 17.3154 32.3389 17.4114C32.6411 17.5469 32.8981 17.7503 33.1325 17.9791C33.2455 18.0892 33.35 18.2106 33.4601 18.3264C33.5449 18.4168 33.5477 18.5157 33.5053 18.6258C33.4517 18.7586 33.4093 18.897 33.35 19.0297C33.2285 19.3093 33.2144 19.5889 33.3274 19.8713C33.4262 20.1227 33.5307 20.3712 33.6324 20.6198C33.7284 20.857 33.8499 21.0829 33.9064 21.3343C33.9431 21.4925 33.9403 21.6506 33.912 21.8088C33.8668 22.063 33.8047 22.3143 33.7849 22.5742C33.7765 22.6758 33.7595 22.7775 33.7426 22.8764C33.7143 23.0232 33.7228 23.0232 33.6014 23.0261C33.5901 23.0261 33.5816 23.0261 33.5703 23.0261C33.5533 23.0261 33.5364 23.0261 33.5194 23.0261C33.5194 23.0261 33.5194 23.0261 33.5166 23.0261C33.3076 23.0261 33.3048 23.0261 33.3359 22.8114C33.3811 22.5007 33.398 22.1872 33.3895 21.8737C33.3782 21.4445 33.2398 21.0632 32.9885 20.7158C32.7512 20.391 32.4632 20.1199 32.1497 19.8713C31.983 19.7386 31.8221 19.5945 31.7147 19.3997C31.6357 19.2528 31.5961 19.1003 31.582 18.9365C31.5763 18.8574 31.5763 18.7755 31.5792 18.6964C31.5876 18.5467 31.5283 18.4281 31.4041 18.3519C31.3419 18.3123 31.325 18.27 31.325 18.205C31.3222 18.1033 31.3052 18.0017 31.3024 17.8972C31.2996 17.5582 31.3589 17.2306 31.4973 16.92C31.5114 16.8917 31.5368 16.8691 31.5566 16.8437C31.5679 16.8267 31.5792 16.8211 31.5933 16.8211ZM31.5933 16.7081C31.5594 16.7081 31.5114 16.7194 31.469 16.7674C31.4634 16.7731 31.4605 16.7787 31.4549 16.7844C31.4351 16.807 31.4097 16.8324 31.3928 16.8719C31.2544 17.1826 31.1838 17.5272 31.1866 17.8972C31.1866 17.9565 31.1922 18.0158 31.1979 18.0751C31.2035 18.1203 31.2064 18.1655 31.2092 18.2078C31.212 18.2841 31.229 18.3801 31.3447 18.4479C31.4323 18.5016 31.4718 18.5806 31.4662 18.6908C31.4605 18.784 31.4605 18.8687 31.469 18.9478C31.486 19.1398 31.534 19.3065 31.6131 19.4533C31.7345 19.6736 31.9153 19.829 32.0762 19.9589C32.4349 20.2441 32.6948 20.5068 32.8953 20.7836C33.1382 21.1168 33.2653 21.484 33.2737 21.8766C33.2822 22.1929 33.2653 22.5036 33.2201 22.7945C33.2003 22.9216 33.189 23.0063 33.2483 23.0712C33.3048 23.1362 33.3867 23.1362 33.5138 23.1362H33.5166C33.5251 23.1362 33.5336 23.1362 33.542 23.1362C33.5505 23.1362 33.559 23.1362 33.5675 23.1362C33.5788 23.1362 33.5901 23.1362 33.6014 23.1362C33.672 23.1334 33.7284 23.1334 33.7765 23.0882C33.8216 23.0487 33.8301 22.9978 33.8442 22.9216L33.8499 22.8961C33.8725 22.7803 33.8866 22.6787 33.8951 22.5826C33.9092 22.4104 33.9431 22.2353 33.977 22.0658C33.9911 21.9895 34.0081 21.9076 34.0222 21.8286C34.0532 21.6422 34.0532 21.4727 34.0165 21.3117C33.9742 21.1225 33.8979 20.9474 33.8216 20.7779C33.7934 20.713 33.7623 20.6452 33.7369 20.5774C33.6946 20.4701 33.6494 20.3628 33.607 20.2583C33.5505 20.117 33.4912 19.973 33.4319 19.829C33.333 19.5804 33.3415 19.3347 33.4545 19.0749C33.4912 18.993 33.5223 18.9082 33.5505 18.8263C33.5703 18.7755 33.5901 18.719 33.6098 18.6682C33.6748 18.5044 33.6522 18.366 33.542 18.2502C33.5053 18.2106 33.4658 18.1683 33.4291 18.1287C33.3585 18.0525 33.285 17.9734 33.2088 17.8972C32.9235 17.6175 32.6609 17.4283 32.3813 17.3069C32.1977 17.225 32.0452 17.0979 31.9124 16.92C31.8418 16.8239 31.7599 16.759 31.6667 16.7223C31.6498 16.7166 31.6244 16.7081 31.5933 16.7081Z" fill="black"/>
<path d="M32.4434 23.0825H32.2654C32.2259 23.0825 32.1892 23.0825 32.1496 23.0825C31.983 23.0825 31.9576 23.043 31.9463 22.8848C31.9406 22.8199 31.9322 22.7521 31.9237 22.6871L31.918 22.6532C31.8898 22.4358 31.7768 22.255 31.6836 22.1194C31.5396 21.9161 31.3617 21.7353 31.1866 21.563L31.1244 21.5009C31.0623 21.4388 31.0002 21.3795 30.9408 21.3173C30.8279 21.2044 30.7093 21.0886 30.5963 20.9699C30.4522 20.8174 30.3449 20.6932 30.2545 20.5717C30.0258 20.2611 30.0145 19.9645 30.215 19.6369C30.3562 19.4081 30.5031 19.2217 30.6697 19.0664C30.7516 18.9901 30.842 18.9167 30.9606 18.8348C31.0058 18.8009 31.0397 18.7868 31.0708 18.7868C31.1583 18.7868 31.1753 18.8828 31.1837 18.928C31.2035 19.0353 31.2289 19.1426 31.2515 19.2471L31.2656 19.3093C31.2967 19.4561 31.3701 19.5917 31.4859 19.7244C31.6554 19.9165 31.8559 20.0888 32.048 20.2554C32.0762 20.2808 32.1073 20.3062 32.1355 20.3317C32.3445 20.5124 32.6015 20.7384 32.7625 21.0377C32.8529 21.2072 32.9178 21.3964 32.963 21.6195C33.0082 21.8483 32.9828 22.0742 32.9574 22.2917C32.9517 22.3369 32.9461 22.3849 32.9433 22.4301C32.9376 22.4951 32.9404 22.5628 32.9461 22.6335C32.9489 22.6617 32.9489 22.6928 32.9517 22.721C32.9546 22.7238 32.9546 22.7295 32.9546 22.7351C32.9772 22.8594 32.9913 22.9554 32.9404 23.0147C32.8896 23.0769 32.7964 23.0797 32.675 23.0825C32.6467 23.0825 32.6185 23.0825 32.5902 23.0825H32.4434Z" fill="#F68503"/>
<path d="M31.0736 18.8433C31.1047 18.8433 31.1188 18.8744 31.1329 18.9393C31.1583 19.0664 31.1866 19.1935 31.212 19.3206C31.2487 19.49 31.3334 19.6341 31.4464 19.7612C31.6441 19.9871 31.8757 20.1763 32.1016 20.3741C32.3332 20.5774 32.5676 20.7864 32.7173 21.0632C32.8134 21.2411 32.8727 21.4303 32.9122 21.628C32.963 21.8963 32.915 22.159 32.8896 22.4217C32.8783 22.5233 32.8924 22.6278 32.8953 22.7295C32.8953 22.7352 32.8981 22.738 32.9009 22.7436C32.9461 22.9922 32.9235 23.0232 32.675 23.0261C32.6467 23.0261 32.6185 23.0261 32.5902 23.0261C32.5422 23.0261 32.4942 23.0261 32.449 23.0261C32.4462 23.0261 32.4462 23.0261 32.4434 23.0261C32.3841 23.0261 32.3248 23.0261 32.2655 23.0261C32.2259 23.0261 32.1892 23.0261 32.1497 23.0261C32.0197 23.0261 32.0141 23.0176 32.0028 22.882C31.9971 22.8029 31.9858 22.7239 31.9745 22.6476C31.9463 22.4386 31.8503 22.2607 31.7288 22.0912C31.565 21.8596 31.3617 21.6647 31.164 21.4642C30.9889 21.2863 30.8081 21.114 30.6358 20.9333C30.5172 20.809 30.4014 20.6791 30.2969 20.5379C30.0795 20.2441 30.071 19.973 30.2602 19.6652C30.3845 19.4618 30.5285 19.2698 30.7064 19.1059C30.794 19.024 30.8928 18.9478 30.9917 18.88C31.0284 18.8574 31.0538 18.8433 31.0736 18.8433ZM31.0736 18.7303C31.0171 18.7303 30.9691 18.7586 30.9296 18.7868C30.8109 18.8715 30.7149 18.945 30.633 19.024C30.4636 19.1822 30.311 19.3714 30.1698 19.6058C29.9552 19.9561 29.9693 20.2752 30.2122 20.6056C30.3026 20.7299 30.4127 20.857 30.5596 21.0095C30.6726 21.1281 30.7912 21.2439 30.9041 21.3569C30.9663 21.4162 31.0284 21.4783 31.0877 21.5405C31.1075 21.5602 31.1301 21.5828 31.1499 21.6026C31.3306 21.7834 31.5001 21.9528 31.6385 22.1534C31.7288 22.2833 31.8362 22.4555 31.8644 22.6617L31.8701 22.6956C31.8785 22.7634 31.887 22.8255 31.8926 22.8905C31.8983 22.9639 31.9039 23.0345 31.9548 23.0854C32.0084 23.139 32.0819 23.139 32.1525 23.1418C32.192 23.1418 32.2287 23.1418 32.2683 23.1418H32.3558H32.4434H32.4462H32.449H32.5168C32.5422 23.1418 32.5648 23.1418 32.5902 23.1418C32.6185 23.1418 32.6467 23.1418 32.675 23.1418C32.8077 23.1418 32.9179 23.1334 32.9828 23.0543C33.0478 22.9752 33.0365 22.8622 33.0111 22.7267C33.0111 22.721 33.0082 22.7182 33.0082 22.7126C33.0082 22.6843 33.0054 22.6589 33.0026 22.6307C32.9998 22.5629 32.9941 22.4979 32.9998 22.4358C33.0054 22.3906 33.0111 22.3426 33.0139 22.2974C33.0393 22.0743 33.0647 21.8455 33.0195 21.6083C32.9743 21.3795 32.9094 21.1846 32.8134 21.0123C32.6467 20.7045 32.3841 20.4757 32.1722 20.2921C32.144 20.2667 32.1129 20.2413 32.0847 20.2159C31.8926 20.0493 31.6978 19.8798 31.5283 19.6906C31.4182 19.5663 31.3476 19.4392 31.3193 19.3008L31.3052 19.2387C31.2826 19.1342 31.26 19.0269 31.2402 18.9224C31.2346 18.8715 31.2063 18.7303 31.0736 18.7303Z" fill="black"/>
<path d="M34.1916 22.9131C34.1464 22.9131 34.1069 22.8792 34.0984 22.834C34.0928 22.8057 34.09 22.7775 34.0871 22.7492C34.0815 22.5233 34.1323 22.3058 34.1832 22.0968L34.1888 22.0714C34.2283 21.9104 34.2622 21.7523 34.2679 21.5885C34.2764 21.3541 34.2001 21.1394 34.1267 20.9615C34.0137 20.6932 33.8866 20.3797 33.7652 20.0662C33.6691 19.8176 33.6381 19.5465 33.6691 19.2387C33.6861 19.0777 33.7284 18.9336 33.7962 18.8094C33.8358 18.7388 33.9092 18.6936 33.9883 18.6936C34.0306 18.6936 34.0702 18.7049 34.1069 18.7275C34.2792 18.8376 34.4176 18.9336 34.539 19.0268C34.765 19.2019 34.9627 19.4025 35.1095 19.5578C35.3665 19.8289 35.536 20.1509 35.6122 20.5124C35.6348 20.6197 35.6518 20.7299 35.6659 20.8372C35.6716 20.8852 35.68 20.9332 35.6857 20.9784C35.6857 20.9841 35.6857 20.9897 35.6857 20.9954C35.6772 21.3936 35.536 21.741 35.2507 22.0601C34.9768 22.3651 34.6576 22.6109 34.347 22.8481C34.3328 22.8594 34.3159 22.8679 34.299 22.8735C34.2707 22.8848 34.2453 22.8933 34.2171 22.9018C34.2142 22.9131 34.2029 22.9131 34.1916 22.9131Z" fill="#F68503"/>
<path d="M33.9911 18.7529C34.0222 18.7529 34.0504 18.7614 34.0787 18.7783C34.2255 18.8715 34.3696 18.9675 34.5051 19.0749C34.7085 19.233 34.8921 19.4138 35.07 19.6002C35.3213 19.8628 35.4852 20.1735 35.5586 20.5294C35.5897 20.6819 35.6094 20.84 35.632 20.9954C35.632 20.9982 35.632 21.001 35.632 21.001C35.6235 21.4021 35.471 21.7382 35.2112 22.0291C34.9457 22.3256 34.6294 22.5685 34.3159 22.8086C34.3074 22.817 34.2961 22.8227 34.2848 22.8255C34.2566 22.8368 34.2312 22.8453 34.2029 22.8538C34.1973 22.8566 34.1945 22.8566 34.1888 22.8566C34.1719 22.8566 34.1549 22.8425 34.1521 22.8255C34.1464 22.8001 34.1436 22.7747 34.1408 22.7493C34.1351 22.5233 34.1888 22.3058 34.2396 22.0884C34.2792 21.9246 34.3159 21.7636 34.3187 21.5941C34.3272 21.3625 34.2594 21.1535 34.1747 20.9445C34.0532 20.648 33.929 20.3514 33.8132 20.0521C33.7143 19.7951 33.6917 19.5239 33.72 19.25C33.7341 19.1088 33.7708 18.9704 33.8414 18.8433C33.8781 18.784 33.9346 18.7529 33.9911 18.7529ZM33.9911 18.6399C33.8894 18.6399 33.7991 18.6964 33.7482 18.784C33.6776 18.9139 33.6324 19.0664 33.6127 19.233C33.5788 19.5493 33.6127 19.8289 33.7115 20.086C33.8329 20.3966 33.96 20.7101 34.073 20.9813C34.1436 21.1535 34.2171 21.3597 34.2086 21.5828C34.2029 21.7438 34.169 21.8963 34.1323 22.0545L34.1267 22.0799C34.0758 22.2945 34.0222 22.5148 34.0306 22.7464C34.0306 22.7803 34.0363 22.8114 34.0419 22.8396C34.0561 22.9131 34.1182 22.9639 34.1916 22.9639C34.2086 22.9639 34.2255 22.9611 34.2425 22.9554C34.2707 22.947 34.2961 22.9357 34.3244 22.9244C34.347 22.9159 34.3667 22.9046 34.3865 22.8905C34.7 22.6532 35.022 22.4047 35.2988 22.0968C35.5953 21.7664 35.7422 21.4077 35.7478 20.9954C35.7478 20.9869 35.7478 20.9784 35.745 20.97C35.7365 20.9219 35.7309 20.8768 35.7252 20.8287C35.7111 20.7214 35.6942 20.6085 35.6716 20.5011C35.5925 20.1255 35.4174 19.7951 35.1519 19.5183C35.0022 19.3629 34.8017 19.1596 34.5757 18.9845C34.4543 18.8885 34.3131 18.7924 34.1408 18.6823C34.0956 18.6569 34.0448 18.6399 33.9911 18.6399Z" fill="black"/>
<path d="M30.232 19.0494C30.2207 19.0494 30.2066 19.0466 30.1953 19.0438L30.1529 19.0268C30.1134 19.0099 30.0766 18.9958 30.0428 18.9817C30.0004 18.9619 29.958 18.9449 29.9128 18.9252C29.8507 18.8969 29.7857 18.8687 29.7236 18.8404C29.5937 18.7868 29.4581 18.7585 29.3084 18.7557C29.1107 18.7529 28.9243 18.7275 28.7436 18.6766C28.5346 18.6201 28.3341 18.5241 28.1138 18.3716C27.9697 18.2728 27.8596 18.188 27.7636 18.1033C27.5009 17.8717 27.3343 17.6119 27.2495 17.3097L27.2467 17.304C27.2354 17.2645 27.2128 17.1854 27.2863 17.143C27.3117 17.1289 27.3456 17.1205 27.3795 17.1205C27.402 17.1205 27.4246 17.1261 27.4444 17.1346C27.532 17.1741 27.6223 17.225 27.7212 17.2843C27.7692 17.3153 27.8172 17.3436 27.8652 17.3718C28.0771 17.5017 28.2945 17.6345 28.5035 17.7757C28.6108 17.8491 28.7125 17.931 28.8114 18.0101C28.8566 18.0468 28.9046 18.0835 28.9498 18.1202C29.1475 18.2728 29.3395 18.3518 29.557 18.3688C29.5937 18.3716 29.6304 18.3744 29.6699 18.3744C29.7801 18.3744 29.8902 18.3631 29.9976 18.3518C30.0371 18.349 30.0766 18.3434 30.1162 18.3405C30.1473 18.3377 30.1783 18.3349 30.2094 18.3321C30.2856 18.3236 30.3647 18.3151 30.4438 18.3151C30.5568 18.3151 30.65 18.3321 30.7375 18.366C30.7997 18.3914 30.8561 18.4224 30.8674 18.4789C30.8759 18.5382 30.8307 18.5863 30.7771 18.6314C30.7262 18.6738 30.6782 18.7162 30.6274 18.7585C30.5483 18.8291 30.4636 18.8998 30.3817 18.9704C30.3534 18.993 30.3224 19.0099 30.2941 19.024L30.2772 19.0325C30.263 19.0438 30.2461 19.0494 30.232 19.0494Z" fill="#F68503"/>
<path d="M27.3795 17.1798C27.3936 17.1798 27.4077 17.1826 27.419 17.1882C27.5122 17.2306 27.6026 17.2814 27.6901 17.3351C27.9528 17.4961 28.2154 17.6571 28.4725 17.8265C28.6278 17.931 28.769 18.0553 28.9159 18.1683C29.1051 18.3151 29.3084 18.4083 29.5542 18.4281C29.5937 18.4309 29.6332 18.4338 29.6728 18.4338C29.8253 18.4338 29.9722 18.414 30.1247 18.3999C30.232 18.3914 30.3393 18.3744 30.4466 18.3744C30.537 18.3744 30.6274 18.3857 30.7178 18.4225C30.8364 18.4705 30.842 18.5072 30.7432 18.5919C30.6104 18.7049 30.4805 18.8179 30.3478 18.9308C30.3195 18.9563 30.2828 18.9704 30.2518 18.9873C30.2461 18.9901 30.2405 18.993 30.2348 18.993C30.2292 18.993 30.2235 18.993 30.2207 18.9901C30.1642 18.9675 30.1162 18.9478 30.071 18.928C29.9637 18.8828 29.8592 18.832 29.7519 18.7868C29.6135 18.7275 29.4666 18.7021 29.3169 18.6992C29.1305 18.6964 28.9469 18.6738 28.7662 18.623C28.5431 18.5608 28.3425 18.4564 28.1533 18.3264C28.0347 18.2445 27.9161 18.157 27.8088 18.0638C27.5743 17.8548 27.3964 17.6062 27.3117 17.2984C27.3004 17.2589 27.2863 17.2193 27.323 17.1967C27.3343 17.1854 27.3569 17.1798 27.3795 17.1798ZM27.3795 17.0668C27.3371 17.0668 27.2919 17.0781 27.258 17.0979C27.1479 17.1628 27.1818 17.2814 27.1931 17.321V17.3266C27.2778 17.6373 27.4529 17.9056 27.724 18.1457C27.82 18.2332 27.9358 18.318 28.0799 18.4196C28.3058 18.575 28.512 18.6738 28.7266 18.7331C28.913 18.784 29.1023 18.8094 29.3056 18.8122C29.4468 18.815 29.5768 18.8405 29.6982 18.8913C29.7603 18.9167 29.8253 18.9478 29.8874 18.9732C29.9298 18.993 29.9722 19.0127 30.0173 19.0297C30.0541 19.0466 30.0908 19.0607 30.1275 19.0749C30.1416 19.0805 30.1557 19.0862 30.1699 19.0918C30.1868 19.1003 30.2066 19.1031 30.2263 19.1031C30.2518 19.1031 30.2744 19.0975 30.2969 19.0862C30.3026 19.0833 30.3082 19.0805 30.3139 19.0777C30.3421 19.0636 30.3789 19.0438 30.4127 19.0156C30.4975 18.945 30.5794 18.8743 30.6613 18.8037C30.7093 18.7614 30.7601 18.719 30.8081 18.6766C30.8477 18.6428 30.9324 18.5693 30.9155 18.4733C30.8985 18.3773 30.7997 18.3349 30.7517 18.3151C30.6585 18.2756 30.5568 18.2587 30.4382 18.2587C30.3563 18.2587 30.2772 18.2671 30.1981 18.2756C30.167 18.2784 30.136 18.2812 30.1077 18.2841C30.0682 18.2869 30.0286 18.2925 29.9891 18.2954C29.879 18.3067 29.7716 18.318 29.6671 18.318C29.6276 18.318 29.5937 18.318 29.557 18.3151C29.3508 18.2982 29.1672 18.2248 28.9808 18.0779C28.9356 18.0412 28.8876 18.0045 28.8424 17.9677C28.7436 17.8887 28.6391 17.8039 28.5289 17.7305C28.3171 17.5893 28.0997 17.4566 27.8878 17.3266C27.8398 17.2984 27.7918 17.2673 27.7438 17.2363C27.6421 17.1741 27.5517 17.1233 27.4614 17.0809C27.4416 17.0725 27.4134 17.0668 27.3795 17.0668Z" fill="black"/>
<path d="M22.6516 52.3931C22.5866 52.3931 22.5302 52.3931 22.4595 52.3931C22.4934 52.3169 22.5245 52.2491 22.5527 52.1841C22.8804 52.1841 23.2023 52.1841 23.5271 52.1841C23.5215 52.2011 23.5187 52.2124 23.513 52.2237C23.3492 52.588 23.1826 52.9551 23.0159 53.3195C22.9962 53.3647 22.9707 53.407 22.9453 53.4522C22.9001 53.5285 22.8324 53.5652 22.7448 53.5708C22.6883 53.5737 22.629 53.5765 22.5725 53.5765C22.211 53.5765 21.8467 53.5793 21.4852 53.5765C21.3863 53.5765 21.2903 53.5652 21.1914 53.5595C21.1801 53.5595 21.1688 53.5567 21.1575 53.5539C21.0192 53.52 20.9824 53.4522 21.0361 53.3223C21.118 53.1331 21.2027 52.9467 21.2875 52.7603C21.4823 52.3282 21.6772 51.8932 21.8721 51.4611C21.8806 51.4385 21.8919 51.4187 21.9032 51.3961C21.9568 51.2832 22.0472 51.2267 22.1686 51.2154C22.2251 51.2097 22.2816 51.2069 22.3409 51.2069C22.773 51.2069 23.2023 51.2069 23.6344 51.2069C23.6853 51.2069 23.7389 51.2097 23.7898 51.2154C23.8802 51.2267 23.9225 51.2888 23.8915 51.3735C23.8434 51.5006 23.7841 51.6221 23.7305 51.7435C23.6909 51.8339 23.6514 51.9215 23.609 52.0118C23.3492 52.0118 23.095 52.0118 22.8324 52.0118C22.8408 51.9864 22.8465 51.9695 22.8549 51.9525C22.9086 51.8283 22.9651 51.7068 23.0216 51.5825C23.0696 51.4752 23.0385 51.4272 22.9199 51.4272C22.8719 51.4272 22.8239 51.43 22.7759 51.4272C22.694 51.4244 22.6403 51.4639 22.6064 51.5373C22.4991 51.7746 22.3918 52.0118 22.2844 52.2491C22.1376 52.5739 21.9907 52.8987 21.8467 53.2234C21.8382 53.246 21.8269 53.2686 21.8213 53.2912C21.81 53.3449 21.841 53.4099 21.8919 53.4183C21.9935 53.4353 22.098 53.4409 22.1828 53.3675C22.2138 53.3392 22.2421 53.3054 22.259 53.2686C22.3861 52.989 22.5132 52.7094 22.6375 52.4298C22.6431 52.4214 22.6459 52.4129 22.6516 52.3931Z" fill="#161616"/>
<path d="M35.5021 52.393C35.3241 52.7884 35.1519 53.1781 34.9739 53.5707C34.7282 53.5707 34.4797 53.5707 34.2198 53.5707C34.5757 52.7771 34.9316 51.9919 35.2846 51.2068C35.5331 51.2068 35.776 51.2068 36.0359 51.2068C35.889 51.5316 35.7478 51.8479 35.6009 52.1755C35.632 52.1755 35.6546 52.1783 35.6744 52.1783C35.9568 52.1783 36.2364 52.1783 36.5188 52.1812C36.5555 52.1812 36.5923 52.184 36.629 52.1925C36.7024 52.2094 36.7278 52.2574 36.708 52.3309C36.6996 52.3563 36.6911 52.3845 36.6798 52.4099C36.5132 52.7827 36.3437 53.1555 36.1771 53.5283C36.1714 53.5425 36.163 53.5566 36.1545 53.5764C35.9116 53.5764 35.6687 53.5764 35.4173 53.5764C35.4286 53.5481 35.4343 53.5284 35.4456 53.5058C35.5896 53.1838 35.7308 52.8646 35.8749 52.5427C35.8834 52.5229 35.8947 52.5031 35.8975 52.4805C35.9059 52.4325 35.8777 52.3986 35.8325 52.3958C35.7224 52.393 35.615 52.393 35.5021 52.393Z" fill="#161616"/>
<path d="M28.8396 53.5707C28.8226 53.5227 28.8057 53.4747 28.7916 53.4295C28.7436 53.2883 28.6955 53.1471 28.6447 53.0058C28.6334 52.9748 28.6221 52.9409 28.5684 52.9437C28.4752 53.1499 28.3792 53.3589 28.2832 53.5707C28.029 53.5707 27.7748 53.5707 27.5065 53.5707C27.8624 52.7771 28.2182 51.9919 28.5713 51.2039C28.8255 51.2039 29.0796 51.2039 29.3423 51.2039C29.1333 51.6671 28.93 52.1218 28.7238 52.5794C28.7746 52.5963 28.8085 52.5709 28.8396 52.5511C28.9977 52.4438 29.1559 52.3365 29.3084 52.2263C29.3564 52.1924 29.4044 52.1783 29.4609 52.1783C29.6643 52.1812 29.8676 52.1783 30.071 52.1783C30.0907 52.1783 30.1105 52.1783 30.1303 52.1783C30.1331 52.184 30.1331 52.1896 30.1359 52.1953C29.8394 52.4014 29.54 52.6076 29.2378 52.8194C29.3395 53.0708 29.4412 53.3165 29.5428 53.5707C29.3056 53.5707 29.0768 53.5707 28.8396 53.5707Z" fill="#161616"/>
<path d="M30.7742 52.972C30.7262 53.0793 30.6782 53.1809 30.6358 53.2854C30.6076 53.3532 30.65 53.4182 30.7234 53.4238C30.7629 53.4267 30.8053 53.4267 30.8448 53.4238C30.9465 53.4182 31.02 53.3674 31.0623 53.277C31.0934 53.2148 31.1188 53.1527 31.147 53.0877C31.3956 53.0877 31.6441 53.0877 31.9011 53.0877C31.8362 53.2318 31.7853 53.3758 31.6893 53.4944C31.6469 53.5453 31.5848 53.5622 31.5198 53.5679C31.4662 53.5707 31.4125 53.5707 31.3589 53.5707C30.955 53.5707 30.5483 53.5707 30.1444 53.5679C30.0738 53.5679 30.0032 53.5594 29.9354 53.5453C29.8168 53.5199 29.7801 53.4464 29.8253 53.3335C29.8761 53.2092 29.9326 53.0906 29.9863 52.9691C30.0766 52.7658 30.1698 52.5653 30.2574 52.3619C30.2941 52.2744 30.3562 52.2207 30.4494 52.2009C30.5059 52.1896 30.5652 52.1783 30.6246 52.1783C31.0821 52.1755 31.5368 52.1755 31.9943 52.1783C32.0395 52.1783 32.0875 52.1868 32.1299 52.1981C32.2146 52.2207 32.2429 52.2715 32.2203 52.3563C32.2118 52.3873 32.2005 52.4156 32.1892 52.4438C32.144 52.5483 32.0932 52.6528 32.0508 52.7573C31.9915 52.907 31.8814 52.9691 31.7288 52.9691C31.4323 52.9691 31.1386 52.9691 30.842 52.972C30.8223 52.972 30.7997 52.972 30.7742 52.972ZM30.8674 52.763C30.9974 52.763 31.1188 52.7658 31.2374 52.7601C31.2657 52.7573 31.3052 52.7262 31.3221 52.698C31.3617 52.6302 31.3899 52.5568 31.421 52.4833C31.4436 52.4269 31.4154 52.3845 31.356 52.3817C31.2798 52.3788 31.2007 52.3817 31.1244 52.3817C31.0736 52.3817 31.0341 52.4071 31.0115 52.4495C30.9606 52.5511 30.9183 52.6528 30.8674 52.763Z" fill="#161616"/>
<path d="M33.9261 53.5735C33.6719 53.5735 33.4178 53.5735 33.1579 53.5735C33.1664 53.5481 33.1749 53.5283 33.1833 53.5086C33.3274 53.1866 33.4686 52.8675 33.6126 52.5455C33.6578 52.4466 33.6239 52.393 33.5138 52.393C33.4403 52.393 33.3697 52.393 33.2963 52.393C33.2907 52.393 33.285 52.3958 33.2737 52.3986C33.1014 52.7855 32.9263 53.1781 32.7484 53.5707C32.4942 53.5707 32.2429 53.5707 31.9802 53.5707C32.192 53.1019 32.3982 52.6415 32.6072 52.1755C32.6326 52.1755 32.6524 52.1755 32.6721 52.1755C33.189 52.1755 33.7087 52.1755 34.2255 52.1755C34.2763 52.1755 34.33 52.1783 34.3808 52.1868C34.4825 52.2037 34.5108 52.2602 34.474 52.3563C34.4401 52.4438 34.3978 52.5285 34.3611 52.6161C34.2255 52.9183 34.0899 53.2205 33.9544 53.5227C33.9459 53.5396 33.9346 53.5538 33.9261 53.5735Z" fill="#161616"/>
<path d="M39.3205 52.1812C39.5775 52.1812 39.8317 52.1812 40.0944 52.1812C40.0831 52.2094 40.0746 52.232 40.0661 52.2518C39.9221 52.5709 39.778 52.8929 39.634 53.212C39.6255 53.2318 39.6171 53.2487 39.6114 53.2685C39.5888 53.3419 39.634 53.4125 39.7103 53.4238C39.891 53.4493 39.9983 53.3899 40.0746 53.2233C40.2215 52.8957 40.3683 52.5709 40.5152 52.2433C40.5236 52.2235 40.5349 52.2037 40.5462 52.1812C40.792 52.1812 41.0377 52.1812 41.2862 52.1812C41.2806 52.2009 41.2777 52.215 41.2721 52.2263C41.1055 52.5963 40.9388 52.9663 40.7694 53.3363C40.7524 53.3758 40.7298 53.4125 40.7101 53.4493C40.6677 53.5255 40.5999 53.5622 40.5152 53.5679C40.453 53.5735 40.3937 53.5764 40.3316 53.5764C39.9757 53.5764 39.6171 53.5792 39.2612 53.5764C39.1595 53.5764 39.0578 53.5651 38.9562 53.5594C38.9392 53.5594 38.9223 53.5538 38.9082 53.5481C38.7895 53.5142 38.7528 53.4521 38.8008 53.3363C38.8771 53.1555 38.9618 52.9748 39.0409 52.794C39.1228 52.6104 39.2075 52.4269 39.2894 52.2433C39.2979 52.2235 39.3092 52.2037 39.3205 52.1812Z" fill="#161616"/>
<path d="M43.3254 52.6556C43.0655 52.6556 42.817 52.6556 42.5572 52.6556C42.5826 52.602 42.6023 52.5539 42.6249 52.5059C42.6616 52.424 42.6391 52.393 42.5487 52.393C42.4696 52.393 42.3933 52.393 42.3143 52.393C42.2578 52.393 42.2182 52.4156 42.1956 52.4664C42.1674 52.5285 42.1392 52.5907 42.1109 52.6528C42.0798 52.7262 42.1053 52.7658 42.1872 52.7658C42.4414 52.7658 42.6984 52.7658 42.9526 52.7658C42.9949 52.7658 43.0373 52.7686 43.0796 52.7771C43.1644 52.7912 43.1983 52.8448 43.1841 52.9296C43.1785 52.9522 43.1728 52.9776 43.1644 52.9974C43.1022 53.1329 43.0401 53.2685 42.978 53.4041C42.9271 53.517 42.8368 53.5679 42.7125 53.5679C42.2606 53.5679 41.8059 53.5679 41.354 53.565C41.2749 53.565 41.1958 53.5481 41.1196 53.5283C41.0405 53.5057 41.0066 53.4408 41.0349 53.3645C41.0659 53.277 41.1083 53.1894 41.145 53.1047C41.402 53.1047 41.6506 53.1047 41.9104 53.1047C41.885 53.1612 41.8596 53.212 41.8398 53.2628C41.8285 53.2883 41.8228 53.3193 41.8257 53.3476C41.8285 53.3871 41.8539 53.4154 41.8934 53.4238C41.9047 53.4266 41.9189 53.4266 41.933 53.4266C42.1166 53.4295 42.2154 53.4436 42.3143 53.1894C42.3256 53.1612 42.3397 53.1357 42.351 53.1075C42.3849 53.0284 42.3623 52.9917 42.2775 52.9917C42.0375 52.9917 41.7974 52.9917 41.5574 52.9889C41.498 52.9889 41.4387 52.9832 41.3822 52.9691C41.306 52.9522 41.2806 52.9126 41.289 52.8364C41.2947 52.794 41.3088 52.7488 41.3258 52.7093C41.3822 52.5794 41.4416 52.4494 41.5009 52.3195C41.5461 52.2235 41.6195 52.1783 41.724 52.1783C42.2154 52.1783 42.7068 52.1783 43.2011 52.1811C43.2632 52.1811 43.3254 52.1896 43.3875 52.2009C43.4553 52.215 43.4807 52.2546 43.4609 52.3195C43.4186 52.4325 43.3677 52.5455 43.3254 52.6556Z" fill="#161616"/>
<path d="M38.0242 52.7573C38.0665 52.6613 38.1089 52.5737 38.1456 52.4833C38.1654 52.4325 38.14 52.3958 38.0863 52.3901C38.0665 52.3873 38.0496 52.3901 38.0298 52.3901C37.7135 52.3901 37.3972 52.3901 37.0809 52.3901C37.0583 52.3901 37.0329 52.3901 36.9961 52.3901C37.03 52.3139 37.0611 52.2461 37.0922 52.1783C37.1148 52.1783 37.1345 52.1783 37.1571 52.1783C37.674 52.1783 38.1936 52.1783 38.7105 52.1783C38.7613 52.1783 38.815 52.1811 38.8658 52.1896C38.9477 52.2066 38.9788 52.2574 38.9449 52.3365C38.8941 52.4579 38.8404 52.5765 38.7867 52.6952C38.6907 52.907 38.5947 53.1188 38.4987 53.3306C38.4789 53.3702 38.4591 53.4097 38.4365 53.4464C38.3913 53.5227 38.3236 53.5622 38.236 53.565C38.1739 53.5679 38.1146 53.5707 38.0524 53.5707C37.705 53.5707 37.3577 53.5735 37.0103 53.5707C36.9171 53.5707 36.8267 53.5594 36.7335 53.5537C36.7165 53.5537 36.6968 53.5481 36.6798 53.5424C36.5668 53.5114 36.5301 53.4436 36.5753 53.3334C36.6346 53.1894 36.6996 53.051 36.7674 52.9098C36.8126 52.8166 36.8916 52.7686 36.9933 52.7629C37.0696 52.7573 37.1487 52.7545 37.2249 52.7545C37.4678 52.7545 37.7079 52.7545 37.9507 52.7545C37.9705 52.7573 37.9931 52.7573 38.0242 52.7573ZM37.9282 52.9719C37.7898 52.9719 37.6655 52.9691 37.5412 52.9748C37.513 52.9776 37.4763 53.0058 37.4593 53.0341C37.417 53.1132 37.3831 53.1951 37.3492 53.277C37.3181 53.3532 37.3633 53.421 37.4452 53.4266C37.4904 53.4295 37.5328 53.4295 37.5779 53.4266C37.6655 53.421 37.7361 53.3786 37.7756 53.3024C37.8293 53.1979 37.8745 53.0906 37.9282 52.9719Z" fill="#161616"/>
<path d="M27.6562 52.6528C27.402 52.6528 27.1535 52.6528 26.8909 52.6528C26.9134 52.602 26.9332 52.5568 26.953 52.5116C26.9897 52.4297 26.9615 52.3845 26.8683 52.3845C26.8174 52.3845 26.7638 52.3845 26.7129 52.3845C26.631 52.3873 26.5717 52.4212 26.5378 52.4975C26.4248 52.746 26.3119 52.9974 26.2017 53.2459C26.1565 53.3476 26.2074 53.4238 26.3175 53.4238C26.4926 53.4266 26.5576 53.3843 26.631 53.2261C26.6508 53.1781 26.6734 53.1329 26.696 53.0849C26.9502 53.0849 27.2043 53.0849 27.4585 53.0849C27.4585 53.0934 27.4614 53.1019 27.4585 53.1047C27.4077 53.2148 27.3569 53.325 27.3004 53.4351C27.2552 53.5255 27.1761 53.5707 27.0744 53.5707C26.696 53.5735 26.3203 53.5763 25.9419 53.5763C25.812 53.5763 25.6792 53.565 25.5493 53.5594C25.5465 53.5594 25.5465 53.5594 25.5437 53.5594C25.3799 53.5311 25.3347 53.4577 25.4025 53.3024C25.5437 52.9832 25.6877 52.6641 25.8317 52.3478C25.8741 52.2517 25.9447 52.2009 26.0492 52.1896C26.0916 52.184 26.1339 52.1783 26.1763 52.1783C26.6677 52.1783 27.1592 52.1783 27.6506 52.1783C27.8087 52.1783 27.8455 52.2348 27.7833 52.3788C27.7466 52.4636 27.7071 52.5483 27.6704 52.6302C27.6675 52.6387 27.6619 52.6443 27.6562 52.6528Z" fill="#161616"/>
<path d="M24.253 51.2152C24.51 51.2152 24.7613 51.2152 25.0268 51.2152C24.671 52.006 24.3179 52.7884 23.9649 53.5735C23.7107 53.5735 23.4565 53.5735 23.191 53.5735C23.5469 52.7827 23.8999 52.0004 24.253 51.2152Z" fill="#161616"/>
<path d="M24.5919 52.7912C24.8461 52.7912 25.0918 52.7912 25.3488 52.7912C25.2302 53.0567 25.1144 53.3109 24.9986 53.5735C24.75 53.5735 24.5015 53.5735 24.2417 53.5735C24.3603 53.3052 24.4761 53.0482 24.5919 52.7912Z" fill="#161616"/>
<path d="M24.6738 52.6133C24.7387 52.4692 24.8009 52.3308 24.863 52.1924C25.1144 52.1924 25.3601 52.1924 25.6199 52.1924C25.555 52.3365 25.4928 52.472 25.4307 52.6133C25.1793 52.6133 24.9336 52.6133 24.6738 52.6133Z" fill="#161616"/>
</svg>
