<svg width="64" height="64" viewBox="0 0 64 64" fill="none" xmlns="http://www.w3.org/2000/svg">
<g clip-path="url(#clip0_5774_6105)">
<path d="M26.0038 50.4546C26.1136 50.47 26.1964 50.5663 26.1945 50.678V52.8354C26.1964 52.9471 26.1155 53.0434 26.0038 53.0588V53.2591H27.015V53.0627C26.9052 53.0473 26.8224 52.951 26.8243 52.8392V50.68C26.8224 50.5683 26.9033 50.4719 27.015 50.4565V50.2812H26.0038V50.4565V50.4546Z" fill="white"/>
<path d="M30.0257 52.9706C29.9351 53.0304 29.8292 53.0612 29.7194 53.0612H28.7775C28.6735 53.0612 28.5868 52.9745 28.5868 52.8686V50.6766C28.5849 50.5648 28.6658 50.4685 28.7775 50.4531V50.2778H27.7662V50.4531C27.876 50.4685 27.9589 50.5648 27.9569 50.6766V52.8339C27.9589 52.9456 27.878 53.0419 27.7662 53.0573V53.2576H30.3974L30.7075 52.5527L30.5765 52.4795C30.4205 52.6721 30.2337 52.8377 30.0237 52.9687" fill="white"/>
<path d="M42.3167 52.7162L42.1067 52.8896C41.735 53.1959 41.1879 53.14 40.8855 52.7644L40.1227 51.8206C39.778 51.3929 39.8415 50.765 40.2653 50.4164L40.4097 50.2969C40.7969 49.9791 41.3651 50.0369 41.681 50.4279L42.4534 51.3833C42.7809 51.7878 42.7212 52.3849 42.3186 52.7162M41.2669 49.8481C40.2614 49.8481 39.4467 50.6302 39.4467 51.5971C39.4467 52.5641 40.2614 53.3461 41.2669 53.3461C42.2724 53.3461 43.0872 52.5641 43.0872 51.5971C43.0872 50.6302 42.2724 49.8481 41.2669 49.8481Z" fill="white"/>
<path d="M32.3486 51.9266L32.9862 50.8575L33.6257 51.9266H32.3486ZM35.0145 52.9744L33.0652 49.7827L32.6819 50.3182L32.8764 50.6476L31.3932 52.9763C31.3586 53.0303 31.2989 53.063 31.2353 53.063H31.2045V53.2576H31.9788V53.063H31.8786C31.8054 53.063 31.7457 53.0033 31.7457 52.9301C31.7457 52.9051 31.7534 52.8781 31.7669 52.8569L32.235 52.125H33.7509L34.1939 52.8588C34.2324 52.9224 34.2112 53.0033 34.1496 53.0418C34.1284 53.0553 34.1053 53.0611 34.0803 53.0611H33.9936V53.2556H35.1724V53.0611H35.1705C35.105 53.0611 35.0453 53.0283 35.0106 52.9725" fill="white"/>
<path d="M24.2086 50.455C24.2086 50.455 24.222 50.455 24.2278 50.455C24.301 50.4685 24.3492 50.5417 24.3357 50.6149C24.3299 50.6419 24.3164 50.6669 24.2972 50.6862L23.3264 51.6839L22.2843 50.2759H21.4541V50.4492H21.5639C21.6679 50.4492 21.7546 50.5359 21.7546 50.6419V52.8647C21.7546 52.9706 21.6698 53.0573 21.5639 53.0573V53.2576H22.2843V53.0611C22.1803 53.0611 22.0936 52.9764 22.0936 52.8705V51.1041L23.2031 52.6412L23.6538 52.0942L23.4708 51.8496L24.3992 50.8769V52.8339C24.4012 52.9456 24.3203 53.0419 24.2086 53.0573V53.2576H25.2198V53.0611C25.11 53.0457 25.0272 52.9494 25.0291 52.8377V50.6785C25.0291 50.5667 25.1081 50.4704 25.2198 50.455V50.2797H24.2086V50.455Z" fill="white"/>
<path d="M38.3775 50.455C38.4969 50.455 38.5933 50.5533 38.5933 50.6727L38.5971 52.3543L37.6995 51.449L36.5515 50.2798H35.7213V50.4531H35.8311C35.9351 50.4531 36.0199 50.5379 36.0199 50.6438V52.8666C36.0199 52.9726 35.9351 53.0573 35.8292 53.0573V53.2576H36.5496V53.0612C36.4456 53.0612 36.3589 52.9745 36.3608 52.8686V50.9096L37.5743 52.2098L38.7011 53.3443H38.9111V50.6766C38.9092 50.5648 38.9901 50.4685 39.0998 50.4531V50.2778H38.3775V50.455Z" fill="white"/>
<path d="M23.7732 42.3168C24.4069 42.3168 24.9212 41.6041 24.9212 40.9646V27.9243C24.9212 27.2848 24.4069 26.5721 23.7732 26.5721V25.5108H29.8773V26.5721C29.2436 26.5721 28.7293 27.2848 28.7293 27.9243V40.98C28.7293 41.6195 29.2436 42.3322 29.8773 42.3322V43.5226H23.7732V42.3168ZM31.2064 42.3341C31.8382 42.3341 32.3486 41.6233 32.3486 40.9858V27.7259C32.3486 27.0883 31.8363 26.5721 31.2064 26.5721V25.5108H41.1436V29.0338H40.0977C40.0977 27.6758 39.0055 26.574 37.6591 26.574H36.1317V32.8784H37.1756C37.9577 32.8784 38.5933 32.2389 38.5933 31.4473V31.2527H39.8242V36.0451H38.5933V35.6868C38.5933 34.8971 37.9577 34.2576 37.1756 34.2576H36.1317V40.9858C36.1317 41.6233 36.644 42.3341 37.2739 42.3341H37.2893V43.5245H31.2083V42.3341H31.2064ZM20.5546 46.8106H43.9154V22.2305H20.5546V46.8106Z" fill="white"/>
<path d="M47.2669 53.4134C47.2669 54.9178 46.0573 56.1371 44.5664 56.139H19.9536C18.4627 56.139 17.255 54.9178 17.2531 53.4134V10.1666C17.2531 8.66229 18.4627 7.44302 19.9536 7.44109H44.5664C46.0573 7.44302 47.265 8.66229 47.2669 10.1666V53.4134ZM44.5664 6.79004H19.9536C18.1102 6.79197 16.6097 8.30595 16.6078 10.1647V53.4115C16.6097 55.2722 18.1102 56.7862 19.9536 56.7881H44.5664C46.4098 56.7862 47.9103 55.2722 47.9122 53.4134V10.1666C47.9103 8.30595 46.4098 6.79197 44.5664 6.79004Z" fill="white"/>
<path d="M40.1092 16.6154C40.0707 16.7156 40.1189 16.8292 40.2171 16.8697C40.3153 16.9101 40.429 16.86 40.4675 16.7599C40.5002 16.6732 40.4713 16.5769 40.3943 16.5249C40.2903 16.4709 40.1632 16.5114 40.1073 16.6154" fill="white"/>
<path d="M44.734 16.5772C44.7224 16.5887 44.7109 16.6022 44.7012 16.6157C44.6281 16.7082 44.6396 16.8411 44.7282 16.9181C44.8207 17.0125 44.9709 17.0164 45.0653 16.922C45.1597 16.8295 45.1616 16.6754 45.0691 16.581C44.9767 16.4867 44.8264 16.4828 44.7321 16.5772" fill="white"/>
<path d="M36.6151 17.7309C36.5862 17.7714 36.5573 17.8099 36.5265 17.8484C36.2896 18.1296 35.2649 19.2738 34.4038 19.2603C34.4038 19.2603 34.0687 19.2873 34.0687 18.7133C34.0687 18.1393 34.5945 17.8022 34.8334 17.8022C35.051 17.8022 35.1917 17.8734 35.157 18.0584C35.1377 18.1604 34.8122 18.0121 34.8122 18.2934C34.8083 18.3762 34.8719 18.4455 34.9528 18.4494C34.9567 18.4494 34.9605 18.4494 34.9644 18.4494C35.1685 18.4455 35.3342 18.2837 35.3438 18.0776C35.3438 17.7714 35.1493 17.6481 34.8276 17.6481C34.244 17.6481 33.7875 18.2645 33.7393 18.3049C33.6314 18.4012 33.0613 18.9309 33.0613 18.9309C33.0497 18.9406 33.0324 18.9406 33.0228 18.929C33.017 18.9232 33.0151 18.9155 33.017 18.9078C33.0131 18.6998 32.8879 18.5129 32.6972 18.432C32.4179 18.2953 32.2465 18.2182 32.2504 18.0468C32.2542 17.8869 32.3813 17.7579 32.6491 17.7579C33.0208 17.7579 32.8879 17.8831 32.8533 17.9428C32.8128 18.0141 32.8147 18.1547 32.9939 18.1547C33.0728 18.1643 33.1499 18.1219 33.1846 18.0507C33.2269 17.9505 33.1961 17.8349 33.1114 17.7694C32.9765 17.6866 32.8205 17.6481 32.6626 17.6577C32.4391 17.6577 32.1984 17.6905 31.8902 17.9986C31.32 18.5669 30.4802 19.3566 30.1431 19.3566C29.806 19.3566 29.8831 19.0292 29.9832 18.8751C30.0796 18.7267 30.7499 17.6808 30.8038 17.5999L30.7999 17.5941H30.3338C30.3338 17.5941 29.9852 18.1662 29.912 18.2856C29.91 18.2895 29.9062 18.2895 29.9023 18.2876C29.9004 18.2876 29.8985 18.2837 29.8985 18.2818C29.8946 18.1431 29.8195 17.5749 29.2243 17.5749C28.6291 17.5749 28.24 18.1932 28.1765 18.3088C28.1707 18.3203 28.1591 18.328 28.1457 18.328C28.0937 18.328 27.9588 18.33 27.9588 18.33C27.9588 18.1836 27.9338 17.7559 27.6641 17.7444C27.3328 17.729 26.8802 18.0429 26.7935 18.1046C26.7896 18.1065 26.7858 18.1046 26.7896 18.0988L27.0708 17.6288L27.067 17.623H26.6028C26.4102 18.0738 25.7591 18.2991 25.7591 18.2991C25.3142 17.2783 24.3414 18.0622 24.0564 18.3261C24.0525 18.33 24.0448 18.33 24.0409 18.3261C24.0371 18.3222 24.0371 18.3165 24.0409 18.3126C25.5626 16.1322 27.0342 15.5813 27.0362 15.5794C27.4888 15.6718 27.9473 15.7412 28.4076 15.7835C30.0661 15.8452 30.2741 14.936 30.2991 14.7761C30.3011 14.7627 30.3107 14.7511 30.3242 14.7472C30.7884 14.5739 31.1024 14.1347 31.1178 13.6358C31.1178 13.6243 31.1274 13.6127 31.139 13.6108C31.2699 13.5857 31.9807 13.4374 32.5143 13.0792C32.5181 13.0772 32.522 13.0772 32.5258 13.0792C32.5277 13.083 32.5277 13.0869 32.5258 13.0888C32.3178 13.3373 31.2333 14.7126 32.1752 14.8108C32.7492 14.8705 33.5582 14.2965 33.6835 14.206C33.6873 14.2021 33.6931 14.2041 33.6969 14.206C33.6969 14.2079 33.6989 14.2098 33.6969 14.2118C33.6892 14.3235 33.6834 14.807 34.1342 14.807C34.5849 14.807 35.0934 14.3216 35.1782 14.2349C35.182 14.231 35.1878 14.231 35.1897 14.2349C35.1897 14.2349 35.1917 14.2387 35.1917 14.2407C35.209 14.3601 35.3149 14.8127 35.7907 14.8339C36.1259 14.8436 36.4456 14.6895 36.6536 14.4236C36.6575 14.4198 36.6633 14.4198 36.6671 14.4236C36.669 14.4256 36.671 14.4294 36.671 14.4313C36.6671 14.5373 36.7056 14.8801 37.3413 14.8801C37.3413 14.909 37.3605 15.5928 37.8171 15.9588C37.8248 15.9646 37.8248 15.9742 37.8209 15.9819L36.6151 17.7309ZM29.4439 18.9251C29.1858 19.2545 28.7852 19.3701 28.5482 19.1813C28.3113 18.9926 28.3306 18.5727 28.5887 18.2433C28.8468 17.9139 29.2474 17.8003 29.4844 17.9871C29.7213 18.1759 29.702 18.5958 29.4439 18.9251ZM25.2891 14.832C25.2891 14.832 25.2776 14.8224 25.2795 14.8147C25.2795 14.8147 25.2795 14.8127 25.2795 14.8108C25.3142 14.7549 25.4355 14.57 25.4625 14.5257C25.4663 14.52 25.4721 14.5161 25.4779 14.518C25.6146 14.518 26.2773 14.3466 26.9071 13.8882C27.1094 13.7418 27.4696 13.4413 27.5081 13.4085C27.5081 13.4085 27.51 13.4085 27.5119 13.4085C27.537 13.6532 27.6795 13.8689 27.8933 13.9845C28.2786 14.2118 28.4346 14.7183 27.7412 14.7183C27.3212 14.7183 27.381 14.5739 27.4041 14.545C27.5601 14.3504 27.4021 14.2522 27.302 14.2522C27.1768 14.2522 27.0766 14.3543 27.0766 14.4814C27.0766 14.6702 27.3001 14.8243 27.7257 14.8243C28.0243 14.8204 28.3094 14.6895 28.5097 14.4679C28.5463 14.4294 29.1897 13.8362 29.2994 13.736C29.3014 13.7341 29.3052 13.736 29.3052 13.736C29.3052 13.736 29.3052 13.7398 29.3052 13.7418C29.2648 13.8805 29.1935 14.6086 29.8696 14.7684C29.8792 14.7704 29.8869 14.78 29.885 14.7915C29.885 14.7915 29.885 14.7915 29.885 14.7935C29.8426 14.9167 29.571 15.5601 28.3691 15.5601C27.8124 15.537 27.2596 15.4407 26.728 15.275C26.0557 15.0439 25.397 14.8609 25.2833 14.8281M29.6828 13.5453C29.7617 13.3392 30.0121 13.0214 30.3762 13.0214C30.981 13.0214 30.9174 13.632 30.9174 13.632C30.9174 13.632 30.8808 14.337 30.2009 14.4005C30.2009 14.4005 29.6905 14.4545 29.6385 13.8747C29.6288 13.763 29.6442 13.6512 29.6828 13.5472M35.7599 13.4875C36.018 13.1581 36.4186 13.0426 36.6556 13.2313C36.8925 13.4201 36.8732 13.84 36.6151 14.1694C36.357 14.4988 35.9564 14.6143 35.7194 14.4256C35.4825 14.2368 35.5018 13.8169 35.7599 13.4875ZM24.7922 14.9649C24.6901 15.1036 23.6865 16.423 22.4172 16.3922C22.3979 16.3922 22.3825 16.3787 22.3806 16.3595C22.3478 16.1148 22.2342 14.5488 24.7845 14.9495C24.7902 14.9495 24.7941 14.9533 24.7941 14.9591C24.7941 14.961 24.7941 14.963 24.7941 14.9649M37.5628 14.5854C37.6032 14.3928 37.9153 13.6917 38.3275 13.6917C38.7127 13.6917 38.0232 14.5681 37.5859 14.6105C37.5744 14.6105 37.5628 14.6028 37.5628 14.5912C37.5628 14.5893 37.5628 14.5874 37.5628 14.5835M38.079 15.9376C38.1811 15.7816 38.9824 14.6509 39.907 14.6163C40.0822 14.6105 40.4347 14.6452 40.4347 15.0843C40.4347 15.7046 39.2694 16.6349 38.0867 15.9646C38.0771 15.9607 38.0732 15.9473 38.079 15.9396M45.0133 18.5977C45.0133 18.5977 45.0037 18.6015 45.0017 18.6035C44.6627 18.9945 44.3122 19.3373 43.9616 19.3373C43.611 19.3373 43.8807 18.8616 43.8807 18.8616L44.6377 17.6596C44.6435 17.65 44.6415 17.6365 44.6319 17.6288C44.6281 17.6269 44.6242 17.625 44.6203 17.625H44.2081C44.1966 17.625 44.185 17.6327 44.1793 17.6423C43.6996 18.5226 43.0216 19.2237 42.6749 19.3393C42.3571 19.4452 41.9545 19.295 42.3282 18.8269C42.4457 18.6824 42.5516 18.5264 42.6422 18.3646C42.7115 18.2529 42.7597 18.1277 42.7828 17.9986C42.7982 17.8985 42.777 17.7964 42.7231 17.7097C42.6499 17.6192 42.5362 17.571 42.4206 17.5787C42.1163 17.5787 41.6193 17.8908 41.4267 18.0179C41.4171 18.0237 41.4055 18.0218 41.3998 18.0121C41.3959 18.0064 41.3959 17.9967 41.3998 17.9909L41.6213 17.6423C41.6271 17.6327 41.6232 17.6192 41.6136 17.6134C41.6097 17.6134 41.6078 17.6115 41.6039 17.6096H41.2014C41.1898 17.6096 41.1802 17.6153 41.1744 17.625C40.9625 17.9794 40.7275 18.3203 40.4752 18.6439C40.2556 18.8924 39.7047 19.3547 39.4004 19.3547C38.9882 19.3547 39.333 18.7595 39.3426 18.7441L40.088 17.625C40.088 17.625 40.09 17.6134 40.0842 17.6096C40.0822 17.6096 40.0803 17.6076 40.0784 17.6076H39.6431C39.6315 17.6076 39.62 17.6134 39.6142 17.623C38.9496 18.6786 37.8344 19.3894 37.5069 19.3662C37.1795 19.3431 37.2719 18.9579 37.6264 18.563C37.9827 18.1682 38.1002 17.6905 37.715 17.6596C37.322 17.6288 37.0466 17.8349 36.931 17.8927C36.9272 17.8966 36.9194 17.8946 36.9156 17.8908C36.9117 17.8869 36.9137 17.8812 36.9156 17.8773C37.062 17.625 37.8556 16.2689 37.9538 16.1033C37.9577 16.0956 37.9692 16.0917 37.9769 16.0975C38.3968 16.4018 38.9419 16.3421 38.9439 16.3421C40.6948 16.3421 41.0839 14.4564 39.9667 14.4564C38.8495 14.4564 38.0636 15.6333 37.9384 15.8163C37.9307 15.8278 37.9134 15.8317 37.9018 15.824C37.9018 15.824 37.9018 15.824 37.8999 15.824C37.6341 15.5755 37.4973 15.2192 37.5301 14.8551C37.5301 14.8455 37.5378 14.8397 37.5455 14.8358C37.819 14.7492 38.0675 14.5989 38.2736 14.3967C38.6992 13.9402 38.6068 13.6994 38.522 13.5992C38.4854 13.5569 38.4334 13.5318 38.3776 13.528C38.2697 13.5203 38.0598 13.5492 37.7978 13.8034C37.5821 14.0018 37.4376 14.2657 37.3837 14.5546C37.3817 14.5681 37.3682 14.5797 37.3548 14.5777C36.9194 14.52 37.1853 14.1039 37.1853 14.1039L37.9923 12.8538C37.9923 12.8538 37.9943 12.8365 37.9866 12.8307C37.9846 12.8307 37.9808 12.8288 37.9769 12.8288H37.532C37.5204 12.8288 37.5089 12.8345 37.5031 12.8461L37.0832 13.5357C37.0832 13.5357 37.0678 13.5472 37.0601 13.5434C37.0543 13.5395 37.0504 13.5337 37.0504 13.526C37.062 13.3373 36.9734 12.8172 36.384 12.8172C35.7946 12.8172 35.3746 13.4297 35.2263 13.8747C35.2148 13.9132 35.1955 13.9498 35.1705 13.9825C35.0588 14.127 34.7217 14.5238 34.3499 14.5238C33.8818 14.5238 34.2825 13.9363 34.2825 13.9363L35.5191 12.0005C35.5249 11.9909 35.5364 11.9851 35.548 11.9851H36.0064C36.018 11.9851 36.0276 11.9793 36.0353 11.9697L36.1393 11.8194C36.1393 11.8194 36.1432 11.7963 36.1336 11.7905C36.1297 11.7886 36.1259 11.7867 36.122 11.7867H35.652L35.6482 11.7809L35.914 11.3456C35.914 11.3456 35.9159 11.3263 35.9082 11.3225C35.9063 11.3225 35.9024 11.3206 35.8986 11.3206H35.4998C35.4883 11.3206 35.4767 11.3263 35.471 11.3379L35.2109 11.7751C35.2051 11.7848 35.1936 11.7925 35.182 11.7925H34.8026C34.791 11.7925 34.7795 11.7982 34.7737 11.8098L34.7024 11.935C34.6928 11.9523 34.6986 11.9716 34.714 11.9812C34.7197 11.9851 34.7255 11.9851 34.7313 11.9851H35.0587C35.0703 11.9851 35.0799 11.9947 35.0799 12.0063C35.0799 12.0101 35.0799 12.014 35.0761 12.0178C34.9432 12.2432 34.14 13.5954 33.8125 13.9113C33.6064 14.1116 32.9265 14.518 32.4468 14.518C31.9672 14.518 32.3929 13.9036 32.3929 13.9036L33.6334 12.0024C33.6391 11.9928 33.6507 11.987 33.6623 11.987H34.1111C34.1111 11.987 34.1284 11.9832 34.1361 11.9755L34.2767 11.831C34.2767 11.831 34.2825 11.8137 34.2767 11.8079C34.2729 11.804 34.269 11.8021 34.2652 11.8021H33.8241C33.8125 11.8021 33.8048 11.7925 33.8048 11.7828C33.8048 11.779 33.8048 11.7751 33.8087 11.7732L34.0648 11.3475C34.0648 11.3475 34.0668 11.3302 34.0591 11.3244C34.0571 11.3244 34.0533 11.3225 34.0514 11.3225H33.6546C33.643 11.3225 33.6314 11.3283 33.6257 11.3398L33.3599 11.7828C33.3541 11.7925 33.3425 11.8002 33.331 11.8002H32.9188C32.9072 11.8002 32.8976 11.806 32.8918 11.8137L32.7839 11.962C32.7839 11.962 32.7801 11.9793 32.7878 11.9851C32.7897 11.987 32.7936 11.9889 32.7974 11.9889H33.1846C33.2096 11.9889 33.2135 11.9966 33.2 12.0178L32.7955 12.6361C32.7627 12.6862 32.7242 12.7324 32.6799 12.771C32.1444 13.2236 31.3181 13.4201 31.1447 13.4644C31.1274 13.4683 31.1101 13.4586 31.1062 13.4413C30.9694 12.8654 30.5091 12.8307 30.38 12.8307C29.9909 12.8307 29.7367 13.0387 29.5017 13.3469C29.2474 13.6474 28.9662 13.9228 28.6599 14.1694C28.6542 14.1732 28.6465 14.1732 28.6426 14.1694C28.6407 14.1655 28.6388 14.1617 28.6407 14.1578C28.658 13.9363 28.5309 13.7264 28.3248 13.6435C28.0455 13.5068 27.8741 13.4297 27.8779 13.2583C27.8818 13.0984 28.0089 12.9694 28.2766 12.9694C28.6484 12.9694 28.5155 13.0946 28.4808 13.1543C28.4404 13.2256 28.4423 13.3662 28.6214 13.3662C28.712 13.3739 28.7948 13.318 28.8217 13.2313C28.8468 13.1389 28.8121 13.0387 28.737 12.979C28.6022 12.8962 28.4461 12.8576 28.2882 12.8673C27.7893 12.8673 27.5832 13.2853 26.8936 13.7784C26.5084 14.0577 26.0615 14.2407 25.5915 14.31C25.5896 14.31 25.5858 14.31 25.5858 14.3061C25.5858 14.3061 25.5858 14.3042 25.5858 14.3023C26.0018 13.6339 27.354 11.0355 29.6885 10.5443C29.7059 10.5404 29.7174 10.5231 29.7136 10.5058C29.7136 10.5058 29.7136 10.5019 29.7136 10.5C29.415 9.71218 28.5694 9.45215 27.9203 9.45215C27.3193 9.45215 26.8166 9.83546 26.7318 9.90288C26.7241 9.90866 26.7145 9.90866 26.7049 9.90288C25.553 9.1767 24.6785 9.99919 24.3915 10.3305C24.3857 10.3382 24.3857 10.3498 24.3934 10.3575C24.3992 10.3632 24.4089 10.3632 24.4166 10.3575C24.6169 10.213 25.0349 9.95874 25.501 9.95874C26.0557 9.95874 26.335 10.2496 26.4063 10.3363C26.4159 10.3478 26.4333 10.3498 26.4448 10.3401C26.4448 10.3401 26.4468 10.3401 26.4487 10.3382C26.5681 10.2168 27.1633 9.6544 27.8606 9.6544C28.5579 9.6544 28.9585 10.2689 29.051 10.4229C29.0606 10.4364 29.0548 10.4557 29.0413 10.4653C29.0394 10.4653 29.0375 10.4672 29.0356 10.4672C28.5386 10.6406 27.4099 11.0451 25.788 13.4721C25.2853 14.2233 25.0214 14.6644 24.9963 14.7203C24.9925 14.728 24.9848 14.7318 24.9771 14.7299C24.8076 14.6895 23.2493 14.3408 22.3478 15.04C22.0762 15.25 21.8547 15.7219 21.9144 16.3402C21.9144 16.3537 21.9067 16.3672 21.8932 16.3691C21.8913 16.3691 21.8875 16.3691 21.8855 16.3691C21.3635 16.2497 20.9282 15.8875 20.7106 15.3944C20.7067 15.3848 20.6932 15.379 20.6836 15.3848C20.6759 15.3887 20.672 15.3944 20.672 15.4021C20.6605 15.7508 20.7144 17.0124 22.134 17.0182L22.1475 17.0259C22.1918 17.0991 22.5713 17.6866 23.284 17.5595C23.2936 17.5595 23.2994 17.5479 23.2974 17.5383C23.2974 17.5325 23.2936 17.5287 23.2878 17.5248C23.1607 17.4612 22.8159 17.2744 22.6849 17.0067C22.6772 16.9913 22.6849 16.9758 22.6984 16.9681C22.7022 16.9681 22.7042 16.9662 22.708 16.9662C22.9584 16.9354 24.3337 16.6927 25.1312 15.0574C25.135 15.0477 25.1466 15.0419 25.1581 15.0439C25.6763 15.1614 26.1886 15.3058 26.6914 15.4773C26.6991 15.4792 26.7029 15.4869 26.701 15.4946C26.701 15.4985 26.6972 15.5023 26.6933 15.5042C26.493 15.5736 25.5761 15.9684 24.1931 17.6616C22.6233 19.5839 22.369 19.8882 22.2014 20.0654C22.0339 20.2427 20.2772 22.1111 18.9789 19.7919C18.977 19.7881 18.9731 19.7862 18.9693 19.7881C18.9674 19.7881 18.9654 19.7919 18.9654 19.7939C18.952 20.0077 18.9154 21.4658 20.3619 21.4966C21.4772 21.5216 22.1302 20.6934 23.1511 19.4067C23.4303 19.0542 24.8865 17.4092 25.3122 18.5707C25.3199 18.5919 25.3411 18.6015 25.3623 18.5958C25.3623 18.5958 25.3623 18.5958 25.3642 18.5958L26.1424 18.2548C26.1598 18.2471 26.179 18.2548 26.1887 18.2722C26.1925 18.2837 26.1925 18.2953 26.1867 18.3049L25.4567 19.4857C25.4471 19.5011 25.4509 19.5223 25.4663 19.5338C25.4721 19.5377 25.4779 19.5396 25.4837 19.5396H25.8978C25.9094 19.5396 25.9209 19.5338 25.9267 19.5223L26.4179 18.6882C26.4294 18.6613 26.6933 18.1296 27.2615 18.1084C27.4715 18.1007 27.5447 18.1932 27.5254 18.5264C27.5254 18.538 27.5331 18.5476 27.5428 18.5476H27.5466L28.0802 18.4763C28.1033 18.4725 28.0975 18.4937 28.0937 18.5168C28.0397 18.7229 27.8856 19.4548 28.5848 19.5878C28.8083 19.6301 29.1184 19.5377 29.4458 19.2487C29.4574 19.2391 29.4747 19.2391 29.4844 19.2487C29.4882 19.2526 29.4901 19.2584 29.4901 19.2642C29.4998 19.4837 29.6828 19.6532 29.9004 19.6436C29.9023 19.6436 29.9043 19.6436 29.9062 19.6436C30.3357 19.6436 31.1756 18.8616 31.1756 18.8616L31.9037 18.1913C31.9037 18.1913 31.9114 18.1874 31.9152 18.1913C31.9152 18.1913 31.9171 18.1951 31.9171 18.197C31.9229 18.2972 31.948 18.3954 31.9942 18.486C32.0308 18.5592 32.0789 18.6247 32.1386 18.6805C32.2561 18.7903 32.4122 18.8385 32.5162 18.9637C32.5817 19.0369 32.6202 19.1293 32.624 19.2276C32.6221 19.4722 32.3255 19.5203 32.1386 19.5203C31.7168 19.5203 31.7784 19.3759 31.8016 19.347C31.9576 19.1524 31.7996 19.0542 31.6995 19.0542C31.5743 19.0542 31.4741 19.1563 31.4741 19.2834C31.4741 19.4722 31.6976 19.6263 32.1232 19.6263C32.4199 19.6147 32.6992 19.4876 32.9053 19.2719C33.0189 19.1659 33.722 18.4609 33.722 18.4609C33.7278 18.4552 33.7393 18.4552 33.7451 18.4609C33.7489 18.4648 33.7509 18.4706 33.7489 18.4763C33.6411 18.773 33.5178 19.6051 34.2709 19.6051C34.9605 19.6051 35.8273 18.798 36.07 18.5572C36.0739 18.5534 36.0796 18.5534 36.0835 18.5572C36.0873 18.5611 36.0873 18.5649 36.0835 18.5688L35.4748 19.5069C35.4671 19.5184 35.471 19.5338 35.4825 19.5415C35.4864 19.5435 35.4902 19.5454 35.496 19.5454H35.9236C35.9371 19.5454 35.9486 19.5377 35.9544 19.5261C36.0141 19.4086 36.3435 18.7672 36.5804 18.4937C36.8424 18.1932 37.0697 17.9062 37.4299 17.9062C37.7901 17.9062 37.4665 18.2645 37.2392 18.5303C37.0119 18.7961 36.5978 19.607 37.3914 19.607C38.0809 19.607 38.7397 18.9213 38.8976 18.7422C38.8996 18.7402 38.9034 18.7402 38.9073 18.7422C38.9092 18.7441 38.9092 18.7479 38.9073 18.7499C38.732 19.0985 38.7358 19.6243 39.2155 19.6243C39.6546 19.6243 40.1651 19.189 40.2864 19.0792C40.2884 19.0792 40.2903 19.0792 40.2922 19.0792C40.2922 19.0792 40.2922 19.0831 40.2922 19.085L40.0168 19.4914C40.011 19.5011 40.0129 19.5146 40.0225 19.5223C40.0264 19.5242 40.0302 19.5261 40.0341 19.5261H40.4521C40.4656 19.5261 40.4771 19.5184 40.4829 19.5069C40.6389 19.1852 40.8277 18.8808 41.0434 18.5958C41.3381 18.2413 41.862 17.8465 42.2935 17.8465C42.725 17.8465 42.1298 18.4937 41.9507 18.7749C41.7734 19.0581 41.6752 19.6147 42.2974 19.6147C42.8405 19.6147 43.2393 19.2353 43.3317 19.139C43.3356 19.1351 43.3414 19.1332 43.3471 19.137C43.351 19.139 43.3529 19.1428 43.351 19.1486C43.3337 19.4009 43.5243 19.6186 43.7748 19.6359C43.7979 19.6359 43.8191 19.6359 43.8422 19.6359C44.3372 19.6398 44.9805 18.9463 45.0692 18.8481C45.0749 18.8404 45.0788 18.8308 45.0769 18.8211L45.0499 18.615C45.0499 18.6035 45.0383 18.5958 45.0268 18.5977" fill="white"/>
<path d="M26.0038 50.4546C26.1136 50.47 26.1964 50.5663 26.1945 50.678V52.8354C26.1964 52.9471 26.1155 53.0434 26.0038 53.0588V53.2591H27.015V53.0627C26.9052 53.0473 26.8224 52.951 26.8243 52.8392V50.68C26.8224 50.5683 26.9033 50.4719 27.015 50.4565V50.2812H26.0038V50.4565V50.4546Z" fill="white"/>
<path d="M30.0257 52.9706C29.9351 53.0304 29.8292 53.0612 29.7194 53.0612H28.7775C28.6735 53.0612 28.5868 52.9745 28.5868 52.8686V50.6766C28.5849 50.5648 28.6658 50.4685 28.7775 50.4531V50.2778H27.7662V50.4531C27.876 50.4685 27.9589 50.5648 27.9569 50.6766V52.8339C27.9589 52.9456 27.878 53.0419 27.7662 53.0573V53.2576H30.3974L30.7075 52.5527L30.5765 52.4795C30.4205 52.6721 30.2337 52.8377 30.0237 52.9687" fill="white"/>
<path d="M42.3167 52.7162L42.1067 52.8896C41.735 53.1959 41.1879 53.14 40.8855 52.7644L40.1227 51.8206C39.778 51.3929 39.8415 50.765 40.2653 50.4164L40.4097 50.2969C40.7969 49.9791 41.3651 50.0369 41.681 50.4279L42.4534 51.3833C42.7809 51.7878 42.7212 52.3849 42.3186 52.7162M41.2669 49.8481C40.2614 49.8481 39.4467 50.6302 39.4467 51.5971C39.4467 52.5641 40.2614 53.3461 41.2669 53.3461C42.2724 53.3461 43.0872 52.5641 43.0872 51.5971C43.0872 50.6302 42.2724 49.8481 41.2669 49.8481Z" fill="white"/>
<path d="M32.3486 51.9266L32.9862 50.8575L33.6257 51.9266H32.3486ZM35.0145 52.9744L33.0652 49.7827L32.6819 50.3182L32.8764 50.6476L31.3932 52.9763C31.3586 53.0303 31.2989 53.063 31.2353 53.063H31.2045V53.2576H31.9788V53.063H31.8786C31.8054 53.063 31.7457 53.0033 31.7457 52.9301C31.7457 52.9051 31.7534 52.8781 31.7669 52.8569L32.235 52.125H33.7509L34.1939 52.8588C34.2324 52.9224 34.2112 53.0033 34.1496 53.0418C34.1284 53.0553 34.1053 53.0611 34.0803 53.0611H33.9936V53.2556H35.1724V53.0611H35.1705C35.105 53.0611 35.0453 53.0283 35.0106 52.9725" fill="white"/>
<path d="M24.2086 50.455C24.2086 50.455 24.222 50.455 24.2278 50.455C24.301 50.4685 24.3492 50.5417 24.3357 50.6149C24.3299 50.6419 24.3164 50.6669 24.2972 50.6862L23.3264 51.6839L22.2843 50.2759H21.4541V50.4492H21.5639C21.6679 50.4492 21.7546 50.5359 21.7546 50.6419V52.8647C21.7546 52.9706 21.6698 53.0573 21.5639 53.0573V53.2576H22.2843V53.0611C22.1803 53.0611 22.0936 52.9764 22.0936 52.8705V51.1041L23.2031 52.6412L23.6538 52.0942L23.4708 51.8496L24.3992 50.8769V52.8339C24.4012 52.9456 24.3203 53.0419 24.2086 53.0573V53.2576H25.2198V53.0611C25.11 53.0457 25.0272 52.9494 25.0291 52.8377V50.6785C25.0291 50.5667 25.1081 50.4704 25.2198 50.455V50.2797H24.2086V50.455Z" fill="white"/>
<path d="M38.3775 50.455C38.4969 50.455 38.5933 50.5533 38.5933 50.6727L38.5971 52.3543L37.6995 51.449L36.5515 50.2798H35.7213V50.4531H35.8311C35.9351 50.4531 36.0199 50.5379 36.0199 50.6438V52.8666C36.0199 52.9726 35.9351 53.0573 35.8292 53.0573V53.2576H36.5496V53.0612C36.4456 53.0612 36.3589 52.9745 36.3608 52.8686V50.9096L37.5743 52.2098L38.7011 53.3443H38.9111V50.6766C38.9092 50.5648 38.9901 50.4685 39.0998 50.4531V50.2778H38.3775V50.455Z" fill="white"/>
<path d="M23.7732 42.3168C24.4069 42.3168 24.9212 41.6041 24.9212 40.9646V27.9243C24.9212 27.2848 24.4069 26.5721 23.7732 26.5721V25.5108H29.8773V26.5721C29.2436 26.5721 28.7293 27.2848 28.7293 27.9243V40.98C28.7293 41.6195 29.2436 42.3322 29.8773 42.3322V43.5226H23.7732V42.3168ZM31.2064 42.3341C31.8382 42.3341 32.3486 41.6233 32.3486 40.9858V27.7259C32.3486 27.0883 31.8363 26.5721 31.2064 26.5721V25.5108H41.1436V29.0338H40.0977C40.0977 27.6758 39.0055 26.574 37.6591 26.574H36.1317V32.8784H37.1756C37.9577 32.8784 38.5933 32.2389 38.5933 31.4473V31.2527H39.8242V36.0451H38.5933V35.6868C38.5933 34.8971 37.9577 34.2576 37.1756 34.2576H36.1317V40.9858C36.1317 41.6233 36.644 42.3341 37.2739 42.3341H37.2893V43.5245H31.2083V42.3341H31.2064ZM20.5546 46.8106H43.9154V22.2305H20.5546V46.8106Z" fill="white"/>
<path d="M47.2669 53.4134C47.2669 54.9178 46.0573 56.1371 44.5664 56.139H19.9536C18.4627 56.139 17.255 54.9178 17.2531 53.4134V10.1666C17.2531 8.66229 18.4627 7.44302 19.9536 7.44109H44.5664C46.0573 7.44302 47.265 8.66229 47.2669 10.1666V53.4134ZM44.5664 6.79004H19.9536C18.1102 6.79197 16.6097 8.30595 16.6078 10.1647V53.4115C16.6097 55.2722 18.1102 56.7862 19.9536 56.7881H44.5664C46.4098 56.7862 47.9103 55.2722 47.9122 53.4134V10.1666C47.9103 8.30595 46.4098 6.79197 44.5664 6.79004Z" fill="white"/>
<path d="M40.1092 16.6154C40.0707 16.7156 40.1189 16.8292 40.2171 16.8697C40.3153 16.9101 40.429 16.86 40.4675 16.7599C40.5002 16.6732 40.4713 16.5769 40.3943 16.5249C40.2903 16.4709 40.1632 16.5114 40.1073 16.6154" fill="white"/>
<path d="M44.734 16.5772C44.7224 16.5887 44.7109 16.6022 44.7012 16.6157C44.6281 16.7082 44.6396 16.8411 44.7282 16.9181C44.8207 17.0125 44.9709 17.0164 45.0653 16.922C45.1597 16.8295 45.1616 16.6754 45.0691 16.581C44.9767 16.4867 44.8264 16.4828 44.7321 16.5772" fill="white"/>
<path d="M36.6151 17.7309C36.5862 17.7714 36.5573 17.8099 36.5265 17.8484C36.2896 18.1296 35.2649 19.2738 34.4038 19.2603C34.4038 19.2603 34.0687 19.2873 34.0687 18.7133C34.0687 18.1393 34.5945 17.8022 34.8334 17.8022C35.051 17.8022 35.1917 17.8734 35.157 18.0584C35.1377 18.1604 34.8122 18.0121 34.8122 18.2934C34.8083 18.3762 34.8719 18.4455 34.9528 18.4494C34.9567 18.4494 34.9605 18.4494 34.9644 18.4494C35.1685 18.4455 35.3342 18.2837 35.3438 18.0776C35.3438 17.7714 35.1493 17.6481 34.8276 17.6481C34.244 17.6481 33.7875 18.2645 33.7393 18.3049C33.6314 18.4012 33.0613 18.9309 33.0613 18.9309C33.0497 18.9406 33.0324 18.9406 33.0228 18.929C33.017 18.9232 33.0151 18.9155 33.017 18.9078C33.0131 18.6998 32.8879 18.5129 32.6972 18.432C32.4179 18.2953 32.2465 18.2182 32.2504 18.0468C32.2542 17.8869 32.3813 17.7579 32.6491 17.7579C33.0208 17.7579 32.8879 17.8831 32.8533 17.9428C32.8128 18.0141 32.8147 18.1547 32.9939 18.1547C33.0728 18.1643 33.1499 18.1219 33.1846 18.0507C33.2269 17.9505 33.1961 17.8349 33.1114 17.7694C32.9765 17.6866 32.8205 17.6481 32.6626 17.6577C32.4391 17.6577 32.1984 17.6905 31.8902 17.9986C31.32 18.5669 30.4802 19.3566 30.1431 19.3566C29.806 19.3566 29.8831 19.0292 29.9832 18.8751C30.0796 18.7267 30.7499 17.6808 30.8038 17.5999L30.7999 17.5941H30.3338C30.3338 17.5941 29.9852 18.1662 29.912 18.2856C29.91 18.2895 29.9062 18.2895 29.9023 18.2876C29.9004 18.2876 29.8985 18.2837 29.8985 18.2818C29.8946 18.1431 29.8195 17.5749 29.2243 17.5749C28.6291 17.5749 28.24 18.1932 28.1765 18.3088C28.1707 18.3203 28.1591 18.328 28.1457 18.328C28.0937 18.328 27.9588 18.33 27.9588 18.33C27.9588 18.1836 27.9338 17.7559 27.6641 17.7444C27.3328 17.729 26.8802 18.0429 26.7935 18.1046C26.7896 18.1065 26.7858 18.1046 26.7896 18.0988L27.0708 17.6288L27.067 17.623H26.6028C26.4102 18.0738 25.7591 18.2991 25.7591 18.2991C25.3142 17.2783 24.3414 18.0622 24.0564 18.3261C24.0525 18.33 24.0448 18.33 24.0409 18.3261C24.0371 18.3222 24.0371 18.3165 24.0409 18.3126C25.5626 16.1322 27.0342 15.5813 27.0362 15.5794C27.4888 15.6718 27.9473 15.7412 28.4076 15.7835C30.0661 15.8452 30.2741 14.936 30.2991 14.7761C30.3011 14.7627 30.3107 14.7511 30.3242 14.7472C30.7884 14.5739 31.1024 14.1347 31.1178 13.6358C31.1178 13.6243 31.1274 13.6127 31.139 13.6108C31.2699 13.5857 31.9807 13.4374 32.5143 13.0792C32.5181 13.0772 32.522 13.0772 32.5258 13.0792C32.5277 13.083 32.5277 13.0869 32.5258 13.0888C32.3178 13.3373 31.2333 14.7126 32.1752 14.8108C32.7492 14.8705 33.5582 14.2965 33.6835 14.206C33.6873 14.2021 33.6931 14.2041 33.6969 14.206C33.6969 14.2079 33.6989 14.2098 33.6969 14.2118C33.6892 14.3235 33.6834 14.807 34.1342 14.807C34.5849 14.807 35.0934 14.3216 35.1782 14.2349C35.182 14.231 35.1878 14.231 35.1897 14.2349C35.1897 14.2349 35.1917 14.2387 35.1917 14.2407C35.209 14.3601 35.3149 14.8127 35.7907 14.8339C36.1259 14.8436 36.4456 14.6895 36.6536 14.4236C36.6575 14.4198 36.6633 14.4198 36.6671 14.4236C36.669 14.4256 36.671 14.4294 36.671 14.4313C36.6671 14.5373 36.7056 14.8801 37.3413 14.8801C37.3413 14.909 37.3605 15.5928 37.8171 15.9588C37.8248 15.9646 37.8248 15.9742 37.8209 15.9819L36.6151 17.7309ZM29.4439 18.9251C29.1858 19.2545 28.7852 19.3701 28.5482 19.1813C28.3113 18.9926 28.3306 18.5727 28.5887 18.2433C28.8468 17.9139 29.2474 17.8003 29.4844 17.9871C29.7213 18.1759 29.702 18.5958 29.4439 18.9251ZM25.2891 14.832C25.2891 14.832 25.2776 14.8224 25.2795 14.8147C25.2795 14.8147 25.2795 14.8127 25.2795 14.8108C25.3142 14.7549 25.4355 14.57 25.4625 14.5257C25.4663 14.52 25.4721 14.5161 25.4779 14.518C25.6146 14.518 26.2773 14.3466 26.9071 13.8882C27.1094 13.7418 27.4696 13.4413 27.5081 13.4085C27.5081 13.4085 27.51 13.4085 27.5119 13.4085C27.537 13.6532 27.6795 13.8689 27.8933 13.9845C28.2786 14.2118 28.4346 14.7183 27.7412 14.7183C27.3212 14.7183 27.381 14.5739 27.4041 14.545C27.5601 14.3504 27.4021 14.2522 27.302 14.2522C27.1768 14.2522 27.0766 14.3543 27.0766 14.4814C27.0766 14.6702 27.3001 14.8243 27.7257 14.8243C28.0243 14.8204 28.3094 14.6895 28.5097 14.4679C28.5463 14.4294 29.1897 13.8362 29.2994 13.736C29.3014 13.7341 29.3052 13.736 29.3052 13.736C29.3052 13.736 29.3052 13.7398 29.3052 13.7418C29.2648 13.8805 29.1935 14.6086 29.8696 14.7684C29.8792 14.7704 29.8869 14.78 29.885 14.7915C29.885 14.7915 29.885 14.7915 29.885 14.7935C29.8426 14.9167 29.571 15.5601 28.3691 15.5601C27.8124 15.537 27.2596 15.4407 26.728 15.275C26.0557 15.0439 25.397 14.8609 25.2833 14.8281M29.6828 13.5453C29.7617 13.3392 30.0121 13.0214 30.3762 13.0214C30.981 13.0214 30.9174 13.632 30.9174 13.632C30.9174 13.632 30.8808 14.337 30.2009 14.4005C30.2009 14.4005 29.6905 14.4545 29.6385 13.8747C29.6288 13.763 29.6442 13.6512 29.6828 13.5472M35.7599 13.4875C36.018 13.1581 36.4186 13.0426 36.6556 13.2313C36.8925 13.4201 36.8732 13.84 36.6151 14.1694C36.357 14.4988 35.9564 14.6143 35.7194 14.4256C35.4825 14.2368 35.5018 13.8169 35.7599 13.4875ZM24.7922 14.9649C24.6901 15.1036 23.6865 16.423 22.4172 16.3922C22.3979 16.3922 22.3825 16.3787 22.3806 16.3595C22.3478 16.1148 22.2342 14.5488 24.7845 14.9495C24.7902 14.9495 24.7941 14.9533 24.7941 14.9591C24.7941 14.961 24.7941 14.963 24.7941 14.9649M37.5628 14.5854C37.6032 14.3928 37.9153 13.6917 38.3275 13.6917C38.7127 13.6917 38.0232 14.5681 37.5859 14.6105C37.5744 14.6105 37.5628 14.6028 37.5628 14.5912C37.5628 14.5893 37.5628 14.5874 37.5628 14.5835M38.079 15.9376C38.1811 15.7816 38.9824 14.6509 39.907 14.6163C40.0822 14.6105 40.4347 14.6452 40.4347 15.0843C40.4347 15.7046 39.2694 16.6349 38.0867 15.9646C38.0771 15.9607 38.0732 15.9473 38.079 15.9396M45.0133 18.5977C45.0133 18.5977 45.0037 18.6015 45.0017 18.6035C44.6627 18.9945 44.3122 19.3373 43.9616 19.3373C43.611 19.3373 43.8807 18.8616 43.8807 18.8616L44.6377 17.6596C44.6435 17.65 44.6415 17.6365 44.6319 17.6288C44.6281 17.6269 44.6242 17.625 44.6203 17.625H44.2081C44.1966 17.625 44.185 17.6327 44.1793 17.6423C43.6996 18.5226 43.0216 19.2237 42.6749 19.3393C42.3571 19.4452 41.9545 19.295 42.3282 18.8269C42.4457 18.6824 42.5516 18.5264 42.6422 18.3646C42.7115 18.2529 42.7597 18.1277 42.7828 17.9986C42.7982 17.8985 42.777 17.7964 42.7231 17.7097C42.6499 17.6192 42.5362 17.571 42.4206 17.5787C42.1163 17.5787 41.6193 17.8908 41.4267 18.0179C41.4171 18.0237 41.4055 18.0218 41.3998 18.0121C41.3959 18.0064 41.3959 17.9967 41.3998 17.9909L41.6213 17.6423C41.6271 17.6327 41.6232 17.6192 41.6136 17.6134C41.6097 17.6134 41.6078 17.6115 41.6039 17.6096H41.2014C41.1898 17.6096 41.1802 17.6153 41.1744 17.625C40.9625 17.9794 40.7275 18.3203 40.4752 18.6439C40.2556 18.8924 39.7047 19.3547 39.4004 19.3547C38.9882 19.3547 39.333 18.7595 39.3426 18.7441L40.088 17.625C40.088 17.625 40.09 17.6134 40.0842 17.6096C40.0822 17.6096 40.0803 17.6076 40.0784 17.6076H39.6431C39.6315 17.6076 39.62 17.6134 39.6142 17.623C38.9496 18.6786 37.8344 19.3894 37.5069 19.3662C37.1795 19.3431 37.2719 18.9579 37.6264 18.563C37.9827 18.1682 38.1002 17.6905 37.715 17.6596C37.322 17.6288 37.0466 17.8349 36.931 17.8927C36.9272 17.8966 36.9194 17.8946 36.9156 17.8908C36.9117 17.8869 36.9137 17.8812 36.9156 17.8773C37.062 17.625 37.8556 16.2689 37.9538 16.1033C37.9577 16.0956 37.9692 16.0917 37.9769 16.0975C38.3968 16.4018 38.9419 16.3421 38.9439 16.3421C40.6948 16.3421 41.0839 14.4564 39.9667 14.4564C38.8495 14.4564 38.0636 15.6333 37.9384 15.8163C37.9307 15.8278 37.9134 15.8317 37.9018 15.824C37.9018 15.824 37.9018 15.824 37.8999 15.824C37.6341 15.5755 37.4973 15.2192 37.5301 14.8551C37.5301 14.8455 37.5378 14.8397 37.5455 14.8358C37.819 14.7492 38.0675 14.5989 38.2736 14.3967C38.6992 13.9402 38.6068 13.6994 38.522 13.5992C38.4854 13.5569 38.4334 13.5318 38.3776 13.528C38.2697 13.5203 38.0598 13.5492 37.7978 13.8034C37.5821 14.0018 37.4376 14.2657 37.3837 14.5546C37.3817 14.5681 37.3682 14.5797 37.3548 14.5777C36.9194 14.52 37.1853 14.1039 37.1853 14.1039L37.9923 12.8538C37.9923 12.8538 37.9943 12.8365 37.9866 12.8307C37.9846 12.8307 37.9808 12.8288 37.9769 12.8288H37.532C37.5204 12.8288 37.5089 12.8345 37.5031 12.8461L37.0832 13.5357C37.0832 13.5357 37.0678 13.5472 37.0601 13.5434C37.0543 13.5395 37.0504 13.5337 37.0504 13.526C37.062 13.3373 36.9734 12.8172 36.384 12.8172C35.7946 12.8172 35.3746 13.4297 35.2263 13.8747C35.2148 13.9132 35.1955 13.9498 35.1705 13.9825C35.0588 14.127 34.7217 14.5238 34.3499 14.5238C33.8818 14.5238 34.2825 13.9363 34.2825 13.9363L35.5191 12.0005C35.5249 11.9909 35.5364 11.9851 35.548 11.9851H36.0064C36.018 11.9851 36.0276 11.9793 36.0353 11.9697L36.1393 11.8194C36.1393 11.8194 36.1432 11.7963 36.1336 11.7905C36.1297 11.7886 36.1259 11.7867 36.122 11.7867H35.652L35.6482 11.7809L35.914 11.3456C35.914 11.3456 35.9159 11.3263 35.9082 11.3225C35.9063 11.3225 35.9024 11.3206 35.8986 11.3206H35.4998C35.4883 11.3206 35.4767 11.3263 35.471 11.3379L35.2109 11.7751C35.2051 11.7848 35.1936 11.7925 35.182 11.7925H34.8026C34.791 11.7925 34.7795 11.7982 34.7737 11.8098L34.7024 11.935C34.6928 11.9523 34.6986 11.9716 34.714 11.9812C34.7197 11.9851 34.7255 11.9851 34.7313 11.9851H35.0587C35.0703 11.9851 35.0799 11.9947 35.0799 12.0063C35.0799 12.0101 35.0799 12.014 35.0761 12.0178C34.9432 12.2432 34.14 13.5954 33.8125 13.9113C33.6064 14.1116 32.9265 14.518 32.4468 14.518C31.9672 14.518 32.3929 13.9036 32.3929 13.9036L33.6334 12.0024C33.6391 11.9928 33.6507 11.987 33.6623 11.987H34.1111C34.1111 11.987 34.1284 11.9832 34.1361 11.9755L34.2767 11.831C34.2767 11.831 34.2825 11.8137 34.2767 11.8079C34.2729 11.804 34.269 11.8021 34.2652 11.8021H33.8241C33.8125 11.8021 33.8048 11.7925 33.8048 11.7828C33.8048 11.779 33.8048 11.7751 33.8087 11.7732L34.0648 11.3475C34.0648 11.3475 34.0668 11.3302 34.0591 11.3244C34.0571 11.3244 34.0533 11.3225 34.0514 11.3225H33.6546C33.643 11.3225 33.6314 11.3283 33.6257 11.3398L33.3599 11.7828C33.3541 11.7925 33.3425 11.8002 33.331 11.8002H32.9188C32.9072 11.8002 32.8976 11.806 32.8918 11.8137L32.7839 11.962C32.7839 11.962 32.7801 11.9793 32.7878 11.9851C32.7897 11.987 32.7936 11.9889 32.7974 11.9889H33.1846C33.2096 11.9889 33.2135 11.9966 33.2 12.0178L32.7955 12.6361C32.7627 12.6862 32.7242 12.7324 32.6799 12.771C32.1444 13.2236 31.3181 13.4201 31.1447 13.4644C31.1274 13.4683 31.1101 13.4586 31.1062 13.4413C30.9694 12.8654 30.5091 12.8307 30.38 12.8307C29.9909 12.8307 29.7367 13.0387 29.5017 13.3469C29.2474 13.6474 28.9662 13.9228 28.6599 14.1694C28.6542 14.1732 28.6465 14.1732 28.6426 14.1694C28.6407 14.1655 28.6388 14.1617 28.6407 14.1578C28.658 13.9363 28.5309 13.7264 28.3248 13.6435C28.0455 13.5068 27.8741 13.4297 27.8779 13.2583C27.8818 13.0984 28.0089 12.9694 28.2766 12.9694C28.6484 12.9694 28.5155 13.0946 28.4808 13.1543C28.4404 13.2256 28.4423 13.3662 28.6214 13.3662C28.712 13.3739 28.7948 13.318 28.8217 13.2313C28.8468 13.1389 28.8121 13.0387 28.737 12.979C28.6022 12.8962 28.4461 12.8576 28.2882 12.8673C27.7893 12.8673 27.5832 13.2853 26.8936 13.7784C26.5084 14.0577 26.0615 14.2407 25.5915 14.31C25.5896 14.31 25.5858 14.31 25.5858 14.3061C25.5858 14.3061 25.5858 14.3042 25.5858 14.3023C26.0018 13.6339 27.354 11.0355 29.6885 10.5443C29.7059 10.5404 29.7174 10.5231 29.7136 10.5058C29.7136 10.5058 29.7136 10.5019 29.7136 10.5C29.415 9.71218 28.5694 9.45215 27.9203 9.45215C27.3193 9.45215 26.8166 9.83546 26.7318 9.90288C26.7241 9.90866 26.7145 9.90866 26.7049 9.90288C25.553 9.1767 24.6785 9.99919 24.3915 10.3305C24.3857 10.3382 24.3857 10.3498 24.3934 10.3575C24.3992 10.3632 24.4089 10.3632 24.4166 10.3575C24.6169 10.213 25.0349 9.95874 25.501 9.95874C26.0557 9.95874 26.335 10.2496 26.4063 10.3363C26.4159 10.3478 26.4333 10.3498 26.4448 10.3401C26.4448 10.3401 26.4468 10.3401 26.4487 10.3382C26.5681 10.2168 27.1633 9.6544 27.8606 9.6544C28.5579 9.6544 28.9585 10.2689 29.051 10.4229C29.0606 10.4364 29.0548 10.4557 29.0413 10.4653C29.0394 10.4653 29.0375 10.4672 29.0356 10.4672C28.5386 10.6406 27.4099 11.0451 25.788 13.4721C25.2853 14.2233 25.0214 14.6644 24.9963 14.7203C24.9925 14.728 24.9848 14.7318 24.9771 14.7299C24.8076 14.6895 23.2493 14.3408 22.3478 15.04C22.0762 15.25 21.8547 15.7219 21.9144 16.3402C21.9144 16.3537 21.9067 16.3672 21.8932 16.3691C21.8913 16.3691 21.8875 16.3691 21.8855 16.3691C21.3635 16.2497 20.9282 15.8875 20.7106 15.3944C20.7067 15.3848 20.6932 15.379 20.6836 15.3848C20.6759 15.3887 20.672 15.3944 20.672 15.4021C20.6605 15.7508 20.7144 17.0124 22.134 17.0182L22.1475 17.0259C22.1918 17.0991 22.5713 17.6866 23.284 17.5595C23.2936 17.5595 23.2994 17.5479 23.2974 17.5383C23.2974 17.5325 23.2936 17.5287 23.2878 17.5248C23.1607 17.4612 22.8159 17.2744 22.6849 17.0067C22.6772 16.9913 22.6849 16.9758 22.6984 16.9681C22.7022 16.9681 22.7042 16.9662 22.708 16.9662C22.9584 16.9354 24.3337 16.6927 25.1312 15.0574C25.135 15.0477 25.1466 15.0419 25.1581 15.0439C25.6763 15.1614 26.1886 15.3058 26.6914 15.4773C26.6991 15.4792 26.7029 15.4869 26.701 15.4946C26.701 15.4985 26.6972 15.5023 26.6933 15.5042C26.493 15.5736 25.5761 15.9684 24.1931 17.6616C22.6233 19.5839 22.369 19.8882 22.2014 20.0654C22.0339 20.2427 20.2772 22.1111 18.9789 19.7919C18.977 19.7881 18.9731 19.7862 18.9693 19.7881C18.9674 19.7881 18.9654 19.7919 18.9654 19.7939C18.952 20.0077 18.9154 21.4658 20.3619 21.4966C21.4772 21.5216 22.1302 20.6934 23.1511 19.4067C23.4303 19.0542 24.8865 17.4092 25.3122 18.5707C25.3199 18.5919 25.3411 18.6015 25.3623 18.5958C25.3623 18.5958 25.3623 18.5958 25.3642 18.5958L26.1424 18.2548C26.1598 18.2471 26.179 18.2548 26.1887 18.2722C26.1925 18.2837 26.1925 18.2953 26.1867 18.3049L25.4567 19.4857C25.4471 19.5011 25.4509 19.5223 25.4663 19.5338C25.4721 19.5377 25.4779 19.5396 25.4837 19.5396H25.8978C25.9094 19.5396 25.9209 19.5338 25.9267 19.5223L26.4179 18.6882C26.4294 18.6613 26.6933 18.1296 27.2615 18.1084C27.4715 18.1007 27.5447 18.1932 27.5254 18.5264C27.5254 18.538 27.5331 18.5476 27.5428 18.5476H27.5466L28.0802 18.4763C28.1033 18.4725 28.0975 18.4937 28.0937 18.5168C28.0397 18.7229 27.8856 19.4548 28.5848 19.5878C28.8083 19.6301 29.1184 19.5377 29.4458 19.2487C29.4574 19.2391 29.4747 19.2391 29.4844 19.2487C29.4882 19.2526 29.4901 19.2584 29.4901 19.2642C29.4998 19.4837 29.6828 19.6532 29.9004 19.6436C29.9023 19.6436 29.9043 19.6436 29.9062 19.6436C30.3357 19.6436 31.1756 18.8616 31.1756 18.8616L31.9037 18.1913C31.9037 18.1913 31.9114 18.1874 31.9152 18.1913C31.9152 18.1913 31.9171 18.1951 31.9171 18.197C31.9229 18.2972 31.948 18.3954 31.9942 18.486C32.0308 18.5592 32.0789 18.6247 32.1386 18.6805C32.2561 18.7903 32.4122 18.8385 32.5162 18.9637C32.5817 19.0369 32.6202 19.1293 32.624 19.2276C32.6221 19.4722 32.3255 19.5203 32.1386 19.5203C31.7168 19.5203 31.7784 19.3759 31.8016 19.347C31.9576 19.1524 31.7996 19.0542 31.6995 19.0542C31.5743 19.0542 31.4741 19.1563 31.4741 19.2834C31.4741 19.4722 31.6976 19.6263 32.1232 19.6263C32.4199 19.6147 32.6992 19.4876 32.9053 19.2719C33.0189 19.1659 33.722 18.4609 33.722 18.4609C33.7278 18.4552 33.7393 18.4552 33.7451 18.4609C33.7489 18.4648 33.7509 18.4706 33.7489 18.4763C33.6411 18.773 33.5178 19.6051 34.2709 19.6051C34.9605 19.6051 35.8273 18.798 36.07 18.5572C36.0739 18.5534 36.0796 18.5534 36.0835 18.5572C36.0873 18.5611 36.0873 18.5649 36.0835 18.5688L35.4748 19.5069C35.4671 19.5184 35.471 19.5338 35.4825 19.5415C35.4864 19.5435 35.4902 19.5454 35.496 19.5454H35.9236C35.9371 19.5454 35.9486 19.5377 35.9544 19.5261C36.0141 19.4086 36.3435 18.7672 36.5804 18.4937C36.8424 18.1932 37.0697 17.9062 37.4299 17.9062C37.7901 17.9062 37.4665 18.2645 37.2392 18.5303C37.0119 18.7961 36.5978 19.607 37.3914 19.607C38.0809 19.607 38.7397 18.9213 38.8976 18.7422C38.8996 18.7402 38.9034 18.7402 38.9073 18.7422C38.9092 18.7441 38.9092 18.7479 38.9073 18.7499C38.732 19.0985 38.7358 19.6243 39.2155 19.6243C39.6546 19.6243 40.1651 19.189 40.2864 19.0792C40.2884 19.0792 40.2903 19.0792 40.2922 19.0792C40.2922 19.0792 40.2922 19.0831 40.2922 19.085L40.0168 19.4914C40.011 19.5011 40.0129 19.5146 40.0225 19.5223C40.0264 19.5242 40.0302 19.5261 40.0341 19.5261H40.4521C40.4656 19.5261 40.4771 19.5184 40.4829 19.5069C40.6389 19.1852 40.8277 18.8808 41.0434 18.5958C41.3381 18.2413 41.862 17.8465 42.2935 17.8465C42.725 17.8465 42.1298 18.4937 41.9507 18.7749C41.7734 19.0581 41.6752 19.6147 42.2974 19.6147C42.8405 19.6147 43.2393 19.2353 43.3317 19.139C43.3356 19.1351 43.3414 19.1332 43.3471 19.137C43.351 19.139 43.3529 19.1428 43.351 19.1486C43.3337 19.4009 43.5243 19.6186 43.7748 19.6359C43.7979 19.6359 43.8191 19.6359 43.8422 19.6359C44.3372 19.6398 44.9805 18.9463 45.0692 18.8481C45.0749 18.8404 45.0788 18.8308 45.0769 18.8211L45.0499 18.615C45.0499 18.6035 45.0383 18.5958 45.0268 18.5977" fill="white"/>
</g>
<defs>
<clipPath id="clip0_5774_6105">
<rect width="31.3044" height="50" fill="white" transform="translate(16.6078 6.79004)"/>
</clipPath>
</defs>
</svg>
