<?xml version="1.0" encoding="UTF-8"?>
<svg id="Layer_1" data-name="Layer 1" xmlns="http://www.w3.org/2000/svg" viewBox="0 0 384.02 144">
  <defs>
    <style>
      .cls-1 {
        fill: #102b4e;
      }

      .cls-2 {
        fill: #fff;
      }
    </style>
  </defs>
  <g id="g8">
    <g id="g10">
      <path id="path12" class="cls-1" d="M192.01,0C85.43,0,0,31.95,0,72s86.14,72,192.01,72,192.01-32.3,192.01-72S297.88,0,192.01,0"/>
      <path id="path14" class="cls-2" d="M267.64,87.25c.06.33.48.65.9.8.15.05.23.16.06.51-1.2,2.56-2.29,4.04-3.79,6.27-1.38,2.06-2.93,3.66-4.81,5.21-2.84,2.35-6.77,4.9-10.03,3.18-1.45-.75-2.07-2.77-2.04-4.41.08-4.61,2.12-9.34,5.9-13.99,4.61-5.68,9.72-8.63,13.06-7.02,3.46,1.65,2.36,5.66.81,8.81-.11.24-.12.45-.06.65h0ZM304.81,51.35c.25-.44-.01-.76-.57-.76-2.89,0-6.69,0-9.7,0-.72,0-1.09.09-1.43.75-1.11,2.13-14.67,22.45-17.2,26.4-.43.6-.94.52-1-.17-.26-2.34-2.28-5.04-5.47-6.33-2.43-.99-4.81-1.17-7.28-.84-4.46.6-8.43,2.95-11.93,5.61-5.27,4-9.81,9.19-15.67,13.02-3.2,2.09-7.59,3.91-10.52,1.19-2.65-2.46-2.35-7.93,1.71-12.16.43-.44.94-.07.86.33-.38,1.91.09,3.81,1.54,5.15,1.77,1.59,4.31,1.77,6.48.71,2.56-1.27,4.07-3.72,4.51-6.5.68-4.32-2.64-8.12-6.8-8.43-3.38-.24-6.61.94-9.77,3.54-1.58,1.31-2.48,2.28-3.85,4.23-.33.48-.85.53-.83-.18.16-5.53-2.13-8.63-6.69-8.73-3.55-.08-7.33,1.84-10.28,4.19-3.24,2.6-6.07,6.04-9.1,9.28-.38.4-.71.38-.81-.39-.09-3.66-1.01-7.21-2.71-9.72-.6-.88-1.86-1.31-2.92-.72-.49.27-2.19,1.05-3.43,2.05-.61.51-.85,1.24-.58,2.18,1.63,5.47,1.28,11.69-.94,16.94-2.04,4.81-6,9.15-10.65,10.61-3.07.97-6.25.5-8.22-2.22-2.71-3.75-1.61-10.27,2.42-15.69,3.56-4.77,8.72-7.8,13.86-9.75.6-.23.73-.62.56-1.14-.28-.85-.72-2-.91-2.52-.47-1.25-1.79-1.46-3.4-1.28-3.73.43-7.1,1.71-10.43,3.5-8.71,4.67-13.08,13.7-15,18.53-.92,2.32-1.71,3.77-2.73,5.05-1.37,1.73-3.1,3.3-6.25,6.07-.29.25-.5.78-.26,1.28.32.67,1.96,2.98,2.42,3.19.51.25,1.11-.1,1.35-.27,2.21-1.5,4.85-3.87,6.14-5.47.45-.55.92-.32,1.16.52,1.21,4.3,4.36,7.81,8.73,9.28,7.99,2.69,16.28-1.21,22.53-8,3.98-4.32,5.41-7.09,6.93-8.98,2.58-3.2,7.68-10.36,13.75-14.96,2.23-1.69,4.86-2.99,6.18-2.13,1.06.69,1.41,2.29-.3,5.39-6.19,11.3-15.29,24.57-16.96,27.79-.31.56-.04,1,.55,1,3.24-.02,6.45,0,9.39,0,.49-.02.71-.25.95-.59,4.75-7.43,9.22-14.51,14.01-21.82.27-.43.52-.1.53.09.1,1.7.52,4.02,1.52,5.54,1.81,2.82,4.38,4.03,7.22,4.05,2.26.03,3.41-.32,5.85-1.23,1.99-.74,3.58-1.7,4.81-2.58.71-.5.84.33.82.46-1.1,5.9.26,12.89,6.12,15.79,7.02,3.46,14.73-1.4,19.16-5.79.43-.42.9-.38.94.53.09,1.68.85,3.67,2.24,5.06,3.72,3.73,11.22,2.25,18.75-3.57,4.83-3.73,9.89-9,14.46-14.58.17-.22.3-.56-.03-.91-.7-.73-1.7-1.56-2.39-2.2-.31-.27-.78-.19-1.04,0-4.68,4.45-8.9,9.53-14.99,13.73-2.05,1.43-5.33,2.59-6.8.6-.57-.77-.51-1.84.06-3.24,1.78-4.43,29.9-47.24,31.36-49.77"/>
      <path id="path16" class="cls-2" d="M172.5,56.51c.12.64.37.76.66.71,1.43-.29,3-1.47,3.93-2.83.85-1.24,1.24-3.03.4-3.74-.75-.64-1.97-.46-2.87.34-1.8,1.59-2.35,3.85-2.11,5.53h0M100.83,111.62c-10.49.07-19.72-6.41-20.78-17.62-.59-6.22,1.17-11.76,4.68-16.32,3.12-4.07,8.4-7.45,12.87-8.27,1.45-.27,3.41-.1,4.22.87,1.27,1.47.9,3.09-.36,3.74-3.41,1.74-7.51,4.72-9.55,8.79-1.65,3.32-1.98,7.33.54,11.14,4.21,6.36,15.95,6.53,26.86-3.61,2.7-2.48,5.12-4.87,7.58-7.69,4.81-5.5,6.41-7.5,12.79-16.36.08-.1.1-.24.06-.3-.05-.11-.14-.14-.33-.16-4.27.12-7.98,1.39-11.6,4.09-1.04.76-2.54.65-3.19-.35-.73-1.13-.21-2.6.99-3.43,5.81-4.04,12.17-4.78,18.65-5.87,0,0,.45.02.82-.47,2.66-3.42,4.67-6.5,7.51-9.96,2.86-3.51,6.55-6.73,9.38-9.15,3.94-3.39,6.47-4.53,9.03-5.93.68-.35-.09-.78-.29-.78-14.34-2.69-29.24-6.18-43.48-.91-9.86,3.68-14.18,11.5-12.1,16.73,1.48,3.71,6.35,4.31,10.92,2.08,3.79-1.86,7.3-4.85,9.79-8.71,1.39-2.14,4.32-.59,2.74,3.12-4.17,9.79-12.13,17.56-21.82,17.89-8.25.27-13.58-5.8-13.56-13.29.03-14.77,16.48-24.5,33.76-25.96,20.81-1.72,40.53,3.82,61.19,6.33,15.83,1.92,31.01,1.96,46.93-1.7,1.88-.41,3.2.79,3.08,2.69-.16,2.75-2.28,5.39-7.52,8.25-5.96,3.27-12.2,4.26-18.71,4.31-15.75.13-30.42-6.01-45.6-9.31.02.66.19,1.46-.36,1.88-8.41,6.2-16.01,12.5-21.1,21.35-.17.2-.08.4.22.38,4.42-.23,8.39-.35,12.52-.68.72-.06.75-.24.69-.77-.37-3.05.53-6.53,3.21-8.92,2.75-2.46,6.18-2.74,8.46-.97,2.59,2.02,2.36,5.65.95,8.37-1.44,2.76-3.83,4.24-6.11,4.96,0,0-.48.11-.41.54.09.7,3.21,2.42,3.47,2.88.26.44.12,1.12-.35,1.64-.33.38-.85.73-1.51.72-.53-.01-.86-.2-1.54-.57-1.4-.76-3.15-2-4.31-3.47-.4-.5-.6-.51-1.59-.45-4.47.26-11.43.93-16.15,1.52-1.14.14-1.31.36-1.55.75-7.52,12.4-15.55,25.78-24.37,34.73-9.46,9.6-17.32,12.13-25.66,12.19"/>
      <path id="path18" class="cls-2" d="M192,11.77C93.96,11.77,14.48,38.87,14.48,72.02s79.47,60.25,177.52,60.25,177.51-27.1,177.51-60.25S290.05,11.77,192,11.77h0ZM192,137.73c-101.62,0-183.99-29.42-183.99-65.71S90.39,6.31,192,6.31s183.98,29.42,183.98,65.71-82.37,65.71-183.98,65.71"/>
    </g>
  </g>
</svg>