<svg width="64" height="64" viewBox="0 0 64 64" fill="none" xmlns="http://www.w3.org/2000/svg">
<path d="M8.04081 15.0737C9.37869 14.8306 17.2902 12.8096 21.5611 11.7095C22.9247 11.3514 24.3011 12.2084 24.3011 13.3852V38.3542C24.3011 38.7763 24.9572 38.9298 25.2274 38.5844L48.5759 8.97215C48.9361 8.51166 49.5407 8.23025 50.1967 8.21746L56.7575 8C56.9633 8 57.0791 8.20466 56.9376 8.31979L55.3167 9.79081C54.9565 10.1234 54.4291 10.328 53.8759 10.328H53.0783C52.4994 10.328 51.972 10.5711 51.6504 10.9804L16.5312 56.646C16.0423 57.2856 14.846 57.0042 14.846 56.2367V18.1181C14.846 16.6215 13.0964 15.5342 11.3598 15.9819L7.50051 16.954C7.17891 17.0308 6.8959 16.7622 7.0374 16.5191C7.29469 16.0714 7.61629 15.5214 7.77066 15.2656C7.82212 15.1632 7.91217 15.0993 8.04081 15.0737Z" fill="white"/>
</svg>
