<svg width="64" height="64" viewBox="0 0 64 64" fill="none" xmlns="http://www.w3.org/2000/svg">
<path d="M31.5203 56.2085C25.2257 53.278 19.759 48.4814 16.1254 42.6993C12.4919 36.9172 10.5799 30.1955 10.1133 21.5354C9.96222 18.7364 9.96222 15.2342 10.1133 10.8319L10.1462 9.90547L11.0595 9.75435C18.0243 8.59135 25.068 8 32 8C38.932 8 45.9822 8.59135 52.9405 9.75435L53.8538 9.90547L53.8867 10.8319C54.0378 15.2342 54.0378 18.7298 53.8867 21.5354C53.4136 30.1955 51.5081 36.9172 47.8746 42.6993C44.241 48.4814 38.7743 53.278 32.4797 56.2085L32 56.4319L31.5203 56.2085Z" fill="black"/>
<path d="M22.2625 37.2982C22.1245 37.3245 22.0523 37.2522 22.0325 37.1602C21.98 36.9171 21.842 36.0761 21.796 35.8264C21.7697 35.6884 21.8157 35.6161 21.934 35.5767C22.5319 35.3796 23.5438 35.0379 24.3585 34.7554C24.5688 34.6831 24.6345 34.5977 24.7528 34.4137C25.0944 33.8684 25.9289 32.3965 26.3231 31.6344C26.3823 31.5227 26.3757 31.3978 26.31 31.2927L26.1326 30.9904C26.0735 30.8853 25.9289 30.7802 25.8106 30.7473C24.9827 30.5371 23.892 30.2677 23.3729 30.1428C23.2612 30.1165 23.1364 30.1165 23.0247 30.156L22.9327 30.1888C23.7278 30.4582 24.398 30.7013 25.2521 31.0233C25.3244 31.0496 25.4033 31.135 25.4295 31.2138L25.5084 31.4701C25.5412 31.5752 25.5281 31.6869 25.4821 31.7855C25.1207 32.4951 24.4899 33.4413 23.9906 34.0458C23.9183 34.1378 23.8197 34.2035 23.708 34.2495C23.2218 34.4334 22.3414 34.7225 21.9537 34.8211C21.8748 34.8408 21.842 34.8342 21.7763 34.7882C21.4938 34.5911 20.9155 34.0523 20.9155 34.0523C20.9155 34.0523 20.8695 34.6437 20.863 34.9065C20.863 34.9328 20.8695 34.9656 20.8827 34.9919C20.9812 35.2219 21.1521 35.6621 21.2309 35.8855C21.2506 35.9447 21.2638 35.9972 21.2769 36.0564C21.3755 36.444 21.6449 37.5873 21.6449 37.5873C21.6843 37.7581 21.7829 37.8173 21.934 37.7844C22.1311 37.7384 22.7619 37.5676 23.0181 37.4822C23.0576 37.469 23.0904 37.4493 23.1233 37.4165C23.2875 37.2654 23.5701 37.0091 23.5701 37.0091C23.5701 37.0091 22.6173 37.2325 22.2625 37.2982Z" fill="white"/>
<path d="M23.6882 33.7961C24.0102 33.4085 24.4307 32.7908 24.7921 32.2061L22.1638 34.3744C22.5975 34.2429 23.1823 34.0458 23.5305 33.9144C23.5897 33.8881 23.6488 33.8487 23.6882 33.7961Z" fill="white"/>
<path d="M23.7475 25.0638L23.2744 25.1032C23.2349 25.1032 23.2087 25.136 23.2021 25.1755L23.1561 25.734C23.1561 25.7602 23.1824 25.7865 23.2087 25.7799L23.6817 25.6748C23.7409 25.6617 23.8066 25.6091 23.8329 25.5565C23.892 25.4251 23.9051 25.2674 23.846 25.1295C23.8394 25.09 23.7934 25.0638 23.7475 25.0638Z" fill="white"/>
<path d="M19.1744 32.0483L19.8906 32.8828L20.1008 31.4372C19.6803 31.5029 19.2992 31.7658 19.1744 32.0483Z" fill="white"/>
<path d="M42.4408 31.8972C42.1517 31.3781 40.6996 29.4201 38.8861 27.5278C38.8204 27.4621 38.7415 27.4029 38.6561 27.3635L38.3604 27.2321C38.3604 27.2321 38.8861 29.5384 39.1226 30.7999C39.1555 30.9576 39.2343 31.1087 39.346 31.2204C40.1542 32.022 40.693 32.6463 41.1398 33.3099C41.3369 33.599 41.4486 33.9341 41.4683 34.2758C41.5932 36.109 41.534 38.6255 41.3303 40.025C41.2909 40.3076 41.2186 40.4127 41.0347 40.5573C39.2803 41.9765 36.3761 44.4733 35.1343 45.7086C35.0028 45.84 34.9569 45.8991 34.8714 46.0174C34.7072 46.2671 34.5298 46.6285 34.5298 46.6285C34.5298 46.6285 34.2341 45.7217 34.1684 45.2289C34.1355 44.999 34.1355 44.9333 34.1684 44.6967C34.3195 43.6389 35.0554 41.1946 35.1803 40.8332C35.1934 40.8004 35.1934 40.7675 35.1934 40.7347V40.5047C34.924 41.0632 33.5507 44.1645 33.2551 45.2289C33.1959 45.4523 33.2025 45.5443 33.2616 45.7086C33.439 46.2211 33.9581 47.4958 34.2012 48.0149C34.2012 48.0149 34.7663 46.957 35.0948 46.4182C35.1868 46.2671 35.2985 46.1357 35.4299 46.0174C36.409 45.1107 39.9308 42.1736 41.5734 40.9318C41.7968 40.7675 41.8626 40.6492 41.9217 40.4193C42.5853 37.8765 42.8679 34.9591 42.5393 32.1995C42.5328 32.0943 42.4933 31.9958 42.4408 31.8972Z" fill="white"/>
<path d="M35.2263 24.4593C35.292 24.341 35.3182 24.2096 35.2985 24.0716C35.246 23.7496 35.1606 23.3751 35.0948 23.0926C35.0817 23.04 35.0489 22.994 34.9963 22.9743L34.5035 22.7378C34.4378 22.7049 34.3655 22.6983 34.2932 22.7115C33.0974 22.9217 31.8358 23.1714 30.8831 23.3883C30.8042 23.408 30.7385 23.454 30.6991 23.5262L30.4034 24.0387C30.3837 24.0782 30.4034 24.1307 30.4494 24.1373C30.6991 24.1833 31.2051 24.2753 31.3825 24.3016C31.4876 24.3147 31.527 24.3147 31.6124 24.2753C32.2169 24.0256 33.2025 23.6445 33.9384 23.3751C33.9976 23.3554 34.0567 23.3554 34.1158 23.3751L34.4509 23.4802C34.4969 23.4934 34.5429 23.5328 34.5692 23.5722C34.6612 23.7365 34.7597 23.9139 34.8123 24.0322C34.8517 24.1176 34.832 24.2293 34.7597 24.3279C34.5101 24.6892 34.083 25.2543 33.7939 25.6091C33.7282 25.688 33.7085 25.7931 33.7347 25.8917C33.9056 26.483 34.2801 27.7051 34.4772 28.2899C34.5035 28.3622 34.5363 28.4148 34.5955 28.4673L34.878 28.7236C34.878 28.7236 34.4312 26.6604 34.3261 26.0691C34.3064 25.9771 34.3129 25.8851 34.3655 25.8062C34.602 25.458 35.0226 24.8206 35.2263 24.4593Z" fill="white"/>
<path d="M45.9233 26.1611C45.8904 26.0034 45.8378 25.9377 45.7064 25.8392C44.366 24.8404 41.9546 23.4277 40.5222 22.8232C40.3383 22.7444 40.128 22.7378 39.944 22.8101C39.2607 23.0598 38.17 23.5197 37.0332 24.0519C37.0332 24.0519 37.5326 24.0914 37.7757 24.1177C37.9006 24.1308 37.9466 24.1308 38.0648 24.0979C38.4131 24.006 39.0307 23.8483 39.5169 23.7366C39.7535 23.684 40.0032 23.7366 40.2003 23.8811C40.8705 24.3805 41.9415 25.2412 42.6314 25.8194C42.7497 25.918 42.8877 26.0034 43.0322 26.056C44.0769 26.4765 44.5369 26.6868 44.7734 26.805C44.9377 26.8904 45.0559 27.0416 45.1019 27.219C45.3713 28.2703 45.5553 29.8801 45.6539 31.0431C45.6736 31.2599 45.6407 31.4767 45.5685 31.6804C45.2728 32.5149 44.5434 33.9013 44.1295 34.5583C44.0901 34.6175 44.0572 34.6635 43.9849 34.7226C43.8404 34.8474 43.5841 35.0511 43.3936 35.2023C43.3542 35.2285 43.3344 35.2745 43.3344 35.3205C43.3279 35.7739 43.2425 36.6412 43.2425 36.6412C44.2478 35.3797 45.2005 33.7501 46.0547 32.0089C46.127 31.8644 46.1532 31.7855 46.1664 31.6541C46.3569 29.8012 46.2387 27.5935 45.9233 26.1611Z" fill="white"/>
<path d="M32.5783 48.7048C32.3417 48.1725 31.113 45.2618 30.7779 44.1448C30.6597 43.7505 30.6465 43.6454 30.6925 43.1986C30.9751 40.4587 31.9541 36.1024 32.1118 35.5044C32.1446 35.3796 32.1381 35.3467 32.1183 35.2153C32.0789 34.9854 31.9475 34.21 31.9475 34.21C31.4941 35.235 29.9106 39.4928 29.3258 42.0027C29.2141 42.4758 29.2338 42.6007 29.3324 42.8569C30.1734 45.0384 32.3155 48.9742 32.7097 49.5721L32.6243 48.8887C32.6177 48.823 32.6046 48.7573 32.5783 48.7048Z" fill="white"/>
<path d="M30.6663 48.869C30.6663 48.869 30.1998 48.5668 30.0552 48.4682C29.9041 48.3697 29.8581 48.3237 29.7858 48.2645C28.8134 47.3841 25.3901 43.1789 24.3651 41.3523C24.1943 41.0434 24.1417 40.8989 24.1614 40.5901C24.1811 40.2353 24.2468 39.5585 24.3191 39.1577C24.3651 38.908 24.4177 38.7437 24.6279 38.5532C25.2061 38.0275 26.1457 37.0814 26.6385 36.582C26.8553 36.3652 26.9605 36.2272 27.0722 36.0104C27.519 35.1693 28.8988 32.1797 29.3587 30.951C29.4376 30.7342 29.4442 30.675 29.4113 30.4451C29.3259 29.8012 28.8068 28.1388 28.8068 28.1388L28.7608 28.6973C28.7608 28.7367 28.7608 28.7761 28.7674 28.809C28.8068 29.0521 28.9645 29.9983 28.9579 30.4911C28.9579 30.6619 28.9448 30.721 28.8594 30.8984C28.1695 32.2586 25.4755 35.879 23.7737 37.837C23.5832 38.0604 23.5241 38.2049 23.4715 38.4546C23.3861 38.8686 23.2809 39.8147 23.2218 40.5638C23.189 40.9646 23.2152 41.1026 23.4715 41.5297C24.4965 43.238 27.9986 47.3249 29.1353 48.2777C29.2076 48.3434 29.293 48.3959 29.3785 48.4419C29.7793 48.6588 30.8765 49.2041 30.8765 49.2041L30.7057 48.9084C30.6991 48.9019 30.686 48.8822 30.6663 48.869Z" fill="white"/>
<path d="M25.5872 24.5053L27.7621 23.8285C27.8869 23.7891 27.9986 23.7037 28.0643 23.5854L29.2207 21.5879C29.247 21.5419 29.2142 21.4828 29.1616 21.4828L28.1694 21.4959C28.084 21.4959 27.9723 21.5156 27.8935 21.5419C27.0327 21.831 25.804 22.3764 25.1141 22.7378C25.0353 22.7772 24.963 22.8429 24.9104 22.9152L23.8657 24.203C23.8329 24.2424 23.7869 24.2753 23.7343 24.3016L23.0575 24.5907C23.0247 24.6038 22.9984 24.6301 22.9852 24.663L22.9524 24.7287C22.9524 24.7287 24.3848 24.6827 24.8644 24.6498C25.1207 24.6235 25.3375 24.5841 25.5872 24.5053Z" fill="white"/>
<path d="M29.5689 19.8007C32.3023 19.597 35.4496 19.6561 36.2118 19.6693C36.3235 19.6693 36.4352 19.689 36.5469 19.7284L37.1054 19.9124C35.7321 19.9847 32.414 20.2803 31.0736 20.5103L31.5466 20.5826C31.5795 20.5892 31.6123 20.5892 31.6452 20.5892C32.6374 20.53 34.5823 20.4643 35.4364 20.4512C35.6467 20.4512 35.7518 20.4643 35.9621 20.5497C36.4614 20.7403 37.4536 21.1937 37.8675 21.3973C38.0844 21.509 38.2355 21.5419 38.4523 21.555C38.8991 21.5748 39.5825 21.6207 40.0884 21.6733C40.2264 21.6865 40.3578 21.7259 40.4826 21.7916C41.5208 22.3107 42.7561 23.0531 43.6103 23.6248C43.6628 23.6576 43.7154 23.6839 43.7745 23.6905L44.195 23.7759C44.195 23.7759 42.8481 22.4026 42.3224 21.9361C42.2436 21.8704 42.1647 21.8113 42.0727 21.7587C40.0687 20.6154 38.2684 19.6758 37.2565 19.2488C37.0922 19.1831 36.9214 19.1371 36.744 19.1239C33.6427 18.8874 30.4034 18.9465 28.0051 19.1568C27.8342 19.1699 27.6963 19.2553 27.6174 19.3736C27.5254 19.5116 27.3677 19.7547 27.2298 19.9847C27.164 20.0964 27.0786 20.1949 26.9801 20.2803C26.5464 20.6614 25.8236 21.2725 25.3637 21.6142C25.3243 21.647 25.3046 21.6602 25.2717 21.6799C25.0812 21.8113 24.4438 22.2318 24.3256 22.3041C24.2796 22.3304 24.273 22.3435 24.2401 22.3829C24.2007 22.4289 24.0102 22.6786 24.0102 22.6786C25.9156 21.6076 28.3468 20.2606 29.1812 19.8927C29.2995 19.8467 29.4309 19.8138 29.5689 19.8007Z" fill="white"/>
<path d="M20.6592 25.8588C20.6329 25.8917 20.6067 25.918 20.5738 25.9377C18.8786 27.1467 17.9259 27.922 17.5448 28.2374C17.3936 28.3885 17.2425 28.5331 17.1111 28.6711C16.9928 28.7959 16.96 28.8419 16.9534 28.9405C16.9468 29.0259 16.9403 29.1376 16.9403 29.1967C16.9403 29.2296 16.9468 29.2624 16.9665 29.2887C16.9928 29.3215 17.1242 29.4792 17.1571 29.5121C17.1702 29.5252 17.1965 29.5318 17.2097 29.5187C17.4593 29.3413 17.8142 29.0784 18.1361 28.8353C18.1624 28.8156 18.2084 28.7696 18.2281 28.7368C18.2807 28.6448 18.3529 28.5068 18.3924 28.4214C18.4186 28.3622 18.4384 28.3491 18.5041 28.3031C18.5698 28.2637 18.7603 28.1388 18.7603 28.1388C18.7603 28.1388 18.6158 28.7302 18.5106 28.9405C18.4778 29.0127 18.4384 29.0587 18.4121 29.0916C18.1624 29.3544 17.709 29.8603 17.4791 30.1363C17.4002 30.2283 17.4265 30.3466 17.4922 30.4385C17.7025 30.7474 18.1361 31.2796 18.3989 31.5621C18.4778 31.6475 18.5172 31.6804 18.5895 31.7264C18.6946 31.7855 18.7735 31.8118 18.7735 31.8118C18.7735 31.8118 18.9903 30.7736 19.0823 30.4451C19.1151 30.3334 19.1808 30.248 19.3188 30.2151C20.4358 29.9392 22.8407 29.5384 22.8407 29.5384C22.5844 29.2361 21.7434 28.3622 21.4871 28.1454C21.4083 28.0797 21.336 28.0468 21.2374 28.0337C20.9286 28.0009 19.9102 27.922 19.9102 27.922C19.9102 27.922 19.9956 27.8234 20.0613 27.7577C20.1204 27.6986 20.1599 27.6723 20.2387 27.646C21.4871 27.2124 23.1495 26.5816 24.1285 26.1808C24.3388 26.0954 24.4439 26.0297 24.6081 25.8588C24.6804 25.78 24.8315 25.6157 24.917 25.5172C24.9367 25.4975 24.9432 25.4843 24.9498 25.458C24.9564 25.4252 24.963 25.3726 24.963 25.3726C24.963 25.3726 24.549 25.6814 24.3847 25.7997C24.2336 25.9048 24.1351 25.9508 23.9577 25.9968C23.616 26.0888 22.9721 26.2399 22.5844 26.3254C22.4793 26.3516 22.4267 26.3516 22.3347 26.3122C22.2756 26.2925 22.1573 26.2465 22.085 26.2137C22.0128 26.1808 21.9733 26.1742 21.8945 26.1939C21.5528 26.2728 20.6264 26.4962 20.6264 26.4962C20.6264 26.4962 21.0535 26.1151 21.0863 26.0888C21.1257 26.056 21.1454 26.0494 21.2177 26.0231C21.5397 25.8917 21.9339 25.7537 22.269 25.6157C22.3479 25.5829 22.3807 25.55 22.3873 25.4712C22.407 25.2149 22.4793 24.7484 22.5253 24.5053C22.5384 24.433 22.5581 24.4002 22.6173 24.3542C22.8144 24.1965 23.5371 23.6446 23.708 23.5197C23.7211 23.5066 23.7277 23.5 23.7408 23.4869L23.9379 23.2437C23.4254 23.5394 22.5056 24.0848 22.0325 24.387C21.8288 24.5184 21.7302 24.5841 21.5331 24.7418C21.5134 24.7616 21.4937 24.7813 21.474 24.801C21.3426 24.9587 20.8366 25.6157 20.6592 25.8588Z" fill="white"/>
<path d="M52.1522 21.7916C51.7054 30.0049 49.905 36.3652 46.4817 41.8123C43.0585 47.2593 37.9268 51.7601 32.0001 54.5132C26.0735 51.7601 20.9418 47.2593 17.5186 41.8123C14.0953 36.3652 12.2949 30.0049 11.8481 21.7916C11.7036 19.1108 11.7036 15.7401 11.8481 11.5021C18.5501 10.3851 25.3244 9.81345 32.0001 9.81345C38.6759 9.81345 45.4502 10.3785 52.1522 11.5021C52.2967 15.7401 52.2967 19.1108 52.1522 21.7916ZM52.9341 10.8188C45.7984 9.59005 38.7679 9.01184 32.0001 9.01184C25.2324 9.01184 18.2019 9.59005 11.0662 10.8188C10.9611 13.677 10.8363 18.0924 11.0399 21.8376C11.4933 30.1889 13.3331 36.674 16.8352 42.2393C20.3242 47.7915 25.7252 52.5617 32.0001 55.4002C38.2751 52.5683 43.6761 47.7915 47.1651 42.2393C50.6606 36.674 52.507 30.1889 52.9603 21.8376C53.1575 18.0924 53.0392 13.677 52.9341 10.8188Z" fill="white"/>
<path d="M31.1459 15.8518C30.4428 15.8584 30.088 15.7336 30.088 15.0502V13.7755C30.088 13.1382 30.41 12.9279 31.0539 12.9213C31.9804 12.9148 32.9068 12.9148 33.8333 12.9279V13.401C32.8411 13.3879 31.8489 13.3879 30.8634 13.3944C30.7319 13.3944 30.594 13.5127 30.594 13.6441V15.1093C30.594 15.2408 30.7254 15.3787 30.8634 15.3722C31.7504 15.3656 32.6374 15.3656 33.531 15.3787V14.5903C33.0185 14.5837 32.4994 14.5837 31.9869 14.5837V14.1106C32.6703 14.1106 33.3536 14.1172 34.037 14.1238V15.8584C33.0645 15.8453 32.1052 15.8453 31.1459 15.8518Z" fill="white"/>
<path d="M18.2084 14.9319C18.2084 15.0568 18.077 15.1816 17.939 15.1948C17.0717 15.2867 16.1978 15.3853 15.3305 15.4904V14.4063C16.1978 14.3012 17.0717 14.2026 17.939 14.1106C18.0704 14.0975 18.2084 14.196 18.2084 14.334V14.9319ZM17.7879 13.6572C16.7957 13.7624 15.8036 13.8741 14.818 13.9989V16.9294C14.9888 16.9097 15.1596 16.8834 15.3305 16.8637V15.9569C16.1452 15.8584 16.9665 15.7664 17.7879 15.681C18.3792 15.6218 18.7143 15.3722 18.7143 14.7611V14.4326C18.7078 13.8281 18.3792 13.5981 17.7879 13.6572Z" fill="white"/>
<path d="M23.5832 13.6506V13.1775C22.3413 13.2564 21.0995 13.3484 19.8576 13.4601V16.3905C21.0995 16.2788 22.3413 16.1869 23.5832 16.108V15.6349C22.5122 15.7006 21.4346 15.7795 20.3636 15.8715V15.083C21.3163 15.0041 22.269 14.9319 23.2284 14.8662V14.3931C22.2756 14.4522 21.3163 14.5245 20.3636 14.6099V13.8871C21.4346 13.7952 22.5056 13.7163 23.5832 13.6506Z" fill="white"/>
<path d="M39.0176 13.5719V13.0988C37.7757 13.0331 36.5339 12.9871 35.2855 12.9608V15.8913C36.5273 15.9242 37.7691 15.9701 39.0176 16.0293V15.5562C37.94 15.5036 36.869 15.4576 35.7914 15.4314V14.6429C36.7507 14.6692 37.7034 14.7086 38.6627 14.7546V14.2749C37.71 14.2289 36.7507 14.1895 35.7914 14.1632V13.4405C36.869 13.4733 37.9466 13.5127 39.0176 13.5719Z" fill="white"/>
<path d="M25.9091 15.9833C25.252 16.0096 24.8512 15.8913 24.8512 15.2277V13.1119C25.022 13.1054 25.1863 13.0922 25.3571 13.0857V15.2934C25.3571 15.4248 25.4688 15.5365 25.6265 15.5299C26.4347 15.4905 27.2429 15.4642 28.0511 15.4379C28.2022 15.4314 28.3073 15.3131 28.3073 15.1817V12.974C28.4782 12.9674 28.6556 12.9674 28.8264 12.9608V15.0765C28.8264 15.7467 28.4716 15.8913 27.7686 15.9176C27.1378 15.9307 26.5201 15.957 25.9091 15.9833Z" fill="white"/>
<path d="M41.3434 16.1672C40.6404 16.1212 40.2856 15.9832 40.2856 15.2868V13.9792C40.2856 13.3221 40.6141 13.1907 41.3434 13.2367C41.9873 13.2827 42.6313 13.3287 43.2752 13.3813C43.9125 13.4338 44.333 13.6112 44.333 14.2814V15.589C44.333 16.2461 43.9717 16.3643 43.2752 16.3052C42.6313 16.2592 41.9873 16.2132 41.3434 16.1672ZM41.0609 13.6901C40.9098 13.677 40.7915 13.7887 40.7915 13.9398V15.3853C40.7915 15.5167 40.9032 15.6613 41.0609 15.6678C41.8954 15.7204 42.7298 15.7861 43.5643 15.8584C43.6957 15.8715 43.8337 15.7467 43.8337 15.6153V14.1698C43.8337 14.0186 43.7023 13.8872 43.5643 13.8806C42.7298 13.8084 41.8954 13.7492 41.0609 13.6901Z" fill="white"/>
<path d="M49.1823 13.9989C47.8813 13.8346 46.5738 13.6901 45.2728 13.5587V14.0317C45.8444 14.0843 46.4095 14.1434 46.9811 14.2091V16.6665C47.152 16.6863 47.3228 16.706 47.4936 16.7257V14.2683C48.0587 14.334 48.6238 14.3997 49.1823 14.472V13.9989Z" fill="white"/>
</svg>
