<svg width="64" height="64" viewBox="0 0 64 64" fill="none" xmlns="http://www.w3.org/2000/svg">
    <path d="M51.6199 20.0302H51.382C51.3785 20.0197 51.3727 20.0104 51.3692 20C51.2009 20.0035 51.0373 20.0093 50.8794 20.0186H21.1391C18.2191 20.0186 16.3691 20.8461 15.5915 22.4999L8 42.4355C8 44.0894 9.28826 44.9169 11.8683 44.9169C14.4483 44.9169 16.0766 44.1033 16.759 42.4761L19.5329 34.9903H47.2421V42.3821C47.2421 44.0998 48.7022 44.9575 51.6222 44.9575H52.5588C52.5751 44.9378 52.5948 44.918 52.6122 44.8983C52.6969 44.9076 52.7805 44.918 52.8652 44.9273C54.9056 44.7091 55.9594 43.9199 56 42.5446V22.6055C56 20.8879 54.54 20.0302 51.6199 20.0302ZM21.066 29.9858L23.1098 25.0231H47.2421V29.9858H21.066Z"
          fill="white"/>
</svg>
