<svg width="65" height="64" viewBox="0 0 65 64" fill="none" xmlns="http://www.w3.org/2000/svg">
<g clip-path="url(#clip0_5774_6109)">
<path d="M44.3408 15.6264L43.2719 17.2327C50.4401 20.1796 53.3352 25.5322 53.3352 31.2663C53.3352 34.1342 52.5617 36.7271 51.0494 36.7271H32.2553C29.6942 36.7271 28.9328 35.817 30.0828 33.5396C32.1388 29.4841 38.2966 21.7236 42.0943 17.0585C42.6496 16.3756 43.1039 15.3042 41.1114 14.7722C39.0726 14.2273 35.7781 14 32.985 14C18.8523 14 9 21.6434 9 31.4945C9 40.5633 17.5439 49.0295 32.9507 49.0295C39.7592 49.0295 48.1059 47.1156 52.8446 41.7492H48.7607C44.1486 45.9154 38.1286 46.8674 32.9845 46.8674C20.5502 46.8674 12.6819 40.4137 12.6819 31.4949C12.6819 23.2727 21.5911 15.8892 32.8308 15.8892C34.1755 15.8892 34.6143 16.178 33.1931 17.9427C30.3197 21.5118 25.1844 28.5814 22.7712 32.7226C20.1866 37.1605 22.8242 40.768 28.6311 40.768H52.1409C53.5918 40.768 54.4179 39.941 55.262 38.44C55.9415 37.2374 57 34.8016 57 31.4953C57 24.8134 51.9871 18.6706 44.3408 15.6272" fill="white"/>
</g>
<defs>
<clipPath id="clip0_5774_6109">
<rect width="48" height="35.0291" fill="white" transform="translate(9 14)"/>
</clipPath>
</defs>
</svg>
