<svg width="64" height="64" viewBox="0 0 64 64" fill="none" xmlns="http://www.w3.org/2000/svg">
<path d="M7.57458 56.9987H4V56.5137L7.41448 56.5062C7.45488 56.5062 7.47732 56.4869 7.4848 56.4467C7.4878 56.4393 7.4878 56.4333 7.4878 56.4289L7.4848 56.0584V56.051H4V54.9813C4 54.8117 4.06883 54.6912 4.20798 54.6228C4.26783 54.5901 4.33517 54.5752 4.41297 54.5752H7.98007V55.0632L4.57307 55.0602C4.53267 55.0602 4.51023 55.078 4.50275 55.1152C4.49975 55.1227 4.49826 55.1286 4.49826 55.1346V55.5675H7.98306V56.5895C7.98306 56.7621 7.91423 56.8826 7.77807 56.9525C7.71672 56.9853 7.6479 57.0002 7.57308 57.0002L7.57458 56.9987Z" fill="white"/>
<path d="M12.4629 56.5866C12.4629 56.7562 12.394 56.8782 12.2579 56.9496C12.198 56.9823 12.1307 56.9972 12.0529 56.9972H8.90324C8.73417 56.9972 8.61147 56.9318 8.53516 56.8008C8.49775 56.7369 8.4798 56.6655 8.4798 56.5866V54.9799C8.4798 54.8163 8.54862 54.6987 8.68479 54.6243C8.74912 54.5901 8.82244 54.5723 8.90474 54.5723H12.0544C12.2279 54.5723 12.3491 54.6407 12.4195 54.7791C12.4494 54.8386 12.4644 54.9055 12.4644 54.9784V56.5851L12.4629 56.5866ZM10.992 56.0272L11.3302 55.6895L11.9631 56.3188V55.1302C11.9631 55.09 11.9451 55.0677 11.9077 55.0602C11.9033 55.0573 11.8973 55.0573 11.8928 55.0573H9.05137C9.01097 55.0573 8.98853 55.0751 8.98105 55.1123C8.97805 55.1197 8.97806 55.1257 8.97806 55.1316V56.4378C8.97806 56.478 9.00349 56.5003 9.05287 56.5078H11.4768L10.992 56.0272Z" fill="white"/>
<path d="M16.4429 56.4393C16.4429 56.4125 16.4429 55.7907 16.4399 54.5737H16.9457L16.9427 56.5881C16.9427 56.7577 16.8739 56.8797 16.7377 56.9511C16.6778 56.9838 16.6105 56.9987 16.5327 56.9987H13.3831C13.214 56.9987 13.0913 56.9332 13.015 56.8023C12.9776 56.7383 12.9596 56.6669 12.9596 56.5881V54.5737H13.4699L13.4669 56.4393C13.4669 56.4795 13.4923 56.5018 13.5417 56.5092H16.3756C16.416 56.5092 16.4384 56.4854 16.4459 56.4393H16.4429Z" fill="white"/>
<path d="M21.011 54.5737C21.1846 54.5737 21.3058 54.6422 21.3761 54.7805C21.4061 54.84 21.421 54.907 21.421 54.9799V56.9972H20.9183V56.0495H17.9467V56.9972H17.4365V54.9799C17.4365 54.8103 17.5053 54.6898 17.6444 54.6213C17.7043 54.5886 17.7716 54.5737 17.8494 54.5737H21.011ZM20.8464 55.0587H18.017C17.9766 55.0587 17.9542 55.0766 17.9467 55.1138C17.9437 55.1212 17.9437 55.1272 17.9437 55.1331C17.9437 55.1584 17.9437 55.3027 17.9467 55.566H20.9183V55.1361C20.9183 55.0974 20.9003 55.0721 20.8629 55.0617C20.8584 55.0587 20.8524 55.0587 20.8479 55.0587H20.8464Z" fill="white"/>
<path d="M25.0105 56.9987H21.9163V54.5737H25.0105C25.2739 54.5737 25.4938 54.6704 25.6689 54.8623C25.823 55.0319 25.8993 55.2313 25.8993 55.4589V56.1105C25.8993 56.3753 25.8006 56.594 25.6046 56.7696C25.4355 56.9228 25.2365 56.9987 25.009 56.9987H25.0105ZM25.0135 56.5137C25.1302 56.5137 25.2305 56.4601 25.3158 56.3515C25.3696 56.2831 25.3981 56.2102 25.3981 56.1328V55.4411C25.3981 55.322 25.3427 55.2209 25.2305 55.1376C25.1617 55.0855 25.0883 55.0602 25.015 55.0602H22.416V56.5152H25.015L25.0135 56.5137Z" fill="white"/>
<path d="M28.865 56.051H26.8959V56.9987H26.3976V54.5737H29.9722C30.1458 54.5737 30.267 54.6422 30.3373 54.7805C30.3672 54.84 30.3822 54.907 30.3822 54.9799V55.6389C30.3822 55.8115 30.3133 55.9335 30.1772 56.0019C30.1158 56.0347 30.047 56.0495 29.9722 56.0495H29.4994L30.4495 56.9972H29.8166L28.8665 56.0495L28.865 56.051ZM29.8151 55.5631C29.854 55.5631 29.8779 55.5452 29.8854 55.508C29.8884 55.5006 29.8899 55.4946 29.8899 55.4902V55.1346C29.8899 55.0944 29.8704 55.0706 29.8345 55.0602C29.8271 55.0572 29.8211 55.0572 29.8166 55.0572H26.9048V55.5645H29.8166L29.8151 55.5631Z" fill="white"/>
<path d="M34.449 54.5737C34.6226 54.5737 34.7438 54.6422 34.8141 54.7805C34.844 54.84 34.859 54.907 34.859 54.9799V56.9972H34.3563V56.0495H31.3847V56.9972H30.8745V54.9799C30.8745 54.8103 30.9433 54.6898 31.0824 54.6213C31.1423 54.5886 31.2096 54.5737 31.2874 54.5737H34.449ZM34.2859 55.0587H31.4565C31.4161 55.0587 31.3937 55.0766 31.3862 55.1138C31.3832 55.1212 31.3832 55.1272 31.3832 55.1331C31.3832 55.1584 31.3832 55.3027 31.3862 55.566H34.3578V55.1361C34.3578 55.0974 34.3398 55.0721 34.3024 55.0617C34.2979 55.0587 34.2919 55.0587 34.2874 55.0587H34.2859Z" fill="white"/>
<path d="M38.5877 56.42C38.5877 56.4646 38.6071 56.4899 38.6475 56.4973C38.652 56.5003 38.658 56.5018 38.6625 56.5018H42.062V56.9972H38.4919C38.3258 56.9972 38.2046 56.9288 38.1313 56.7904C38.0969 56.7264 38.0789 56.655 38.0789 56.5762V54.9799C38.0789 54.8103 38.1478 54.6898 38.2869 54.6213C38.3468 54.5886 38.4141 54.5737 38.4919 54.5737H42.0889V55.0587H38.679C38.6191 55.0587 38.5892 55.0929 38.5892 55.1629V56.4215L38.5877 56.42Z" fill="white"/>
<path d="M46.5403 56.5866C46.5403 56.7562 46.4715 56.8782 46.3353 56.9496C46.2755 56.9823 46.2081 56.9972 46.1303 56.9972H42.9807C42.8116 56.9972 42.6889 56.9318 42.6126 56.8008C42.5752 56.7369 42.5573 56.6655 42.5573 56.5866V54.9799C42.5573 54.8163 42.6261 54.6987 42.7622 54.6243C42.8266 54.5901 42.8999 54.5723 42.9822 54.5723H46.1318C46.3054 54.5723 46.4266 54.6407 46.4969 54.7791C46.5268 54.8386 46.5418 54.9055 46.5418 54.9784V56.5851L46.5403 56.5866ZM46.0421 56.4378V55.1316C46.0421 55.0915 46.0241 55.0692 45.9867 55.0617C45.9822 55.0587 45.9762 55.0587 45.9717 55.0587H43.1303C43.0899 55.0587 43.0675 55.0766 43.06 55.1138C43.057 55.1212 43.0555 55.1272 43.0555 55.1331V56.4393C43.0555 56.4795 43.0809 56.5018 43.1303 56.5093H45.9717C46.0121 56.5093 46.0346 56.4855 46.0421 56.4393V56.4378Z" fill="white"/>
<path d="M49.5045 56.051H47.5354V56.9987H47.0371V54.5737H50.6117C50.7852 54.5737 50.9064 54.6422 50.9768 54.7805C51.0067 54.84 51.0217 54.907 51.0217 54.9799V55.6389C51.0217 55.8115 50.9528 55.9335 50.8167 56.0019C50.7553 56.0347 50.6865 56.0495 50.6117 56.0495H50.1389L51.089 56.9972H50.4561L49.5059 56.0495L49.5045 56.051ZM50.4546 55.5631C50.4935 55.5631 50.5174 55.5452 50.5249 55.508C50.5279 55.5006 50.5294 55.4946 50.5294 55.4902V55.1346C50.5294 55.0944 50.5099 55.0706 50.474 55.0602C50.4665 55.0572 50.4606 55.0572 50.4561 55.0572H47.5443V55.5645H50.4561L50.4546 55.5631Z" fill="white"/>
<path d="M55.09 56.9987H51.5154V56.5137L54.9299 56.5062C54.9703 56.5062 54.9927 56.4869 55.0002 56.4467C55.0032 56.4393 55.0047 56.4333 55.0047 56.4289L55.0002 56.0584V56.051H51.5154V54.9813C51.5154 54.8117 51.5842 54.6912 51.7234 54.6228C51.7832 54.5901 51.8505 54.5752 51.9283 54.5752H55.4954V55.0632L52.0884 55.0602C52.048 55.0602 52.0256 55.078 52.0181 55.1152C52.0151 55.1227 52.0136 55.1286 52.0136 55.1346V55.5675H55.4984V56.5895C55.4984 56.7621 55.4296 56.8826 55.2935 56.9525C55.2321 56.9853 55.1633 57.0002 55.0885 57.0002L55.09 56.9987Z" fill="white"/>
<path d="M56.486 56.051V56.4988H59.9678V56.9987H55.9952V54.5737H59.9678V55.0617H56.486V55.5645H58.2591V56.0495H56.486V56.051Z" fill="white"/>
<path d="M25.6315 8.84188C21.8863 9.22571 17.7836 10.0246 14.0489 11.6522C13.9846 11.6804 13.8529 11.7548 13.7616 11.8099C13.5058 11.9616 13.2454 12.1446 13.196 12.1684C13.1811 12.1758 13.1796 12.1044 13.3651 11.9542C13.4893 11.853 13.5596 11.792 13.6673 11.7161C13.8693 11.5733 14.0579 11.4469 14.2329 11.3308C19.5237 7.8109 25.6375 7.31104 25.6375 7.31104L25.6315 8.84337V8.84188Z" fill="#008A38"/>
<path d="M38.4051 8.8536C42.1502 9.23743 46.253 10.0363 49.9877 11.6639C50.052 11.6921 50.1837 11.7665 50.275 11.8216C50.5308 11.9733 50.7912 12.1563 50.8406 12.1801C50.8555 12.1875 50.857 12.1161 50.6715 11.9659C50.5473 11.8647 50.477 11.8037 50.3692 11.7278C50.1672 11.585 49.9787 11.4586 49.8037 11.3425C44.5129 7.82262 38.3991 7.32275 38.3991 7.32275L38.4051 8.85509V8.8536Z" fill="#DB0E15"/>
<path d="M25.5732 8.84178C27.8894 8.60821 30.0695 8.53382 31.9458 8.53382C33.8221 8.53382 36.0979 8.61118 38.4695 8.85814V7.32432C36.0979 7.07736 33.8625 7 31.9458 7C30.0291 7 27.8879 7.0729 25.5732 7.30795V8.84178Z" fill="white"/>
<path d="M25.5687 7.40905C27.8849 7.17548 30.0665 7.10109 31.9443 7.10109C33.8221 7.10109 36.0979 7.17846 38.471 7.42542V7.32871C36.0979 7.08175 33.8625 7.00439 31.9443 7.00439C30.0261 7.00439 27.8849 7.07729 25.5687 7.31235V7.40905Z" fill="white"/>
<path d="M31.9458 7.00439C30.068 7.00439 27.8865 7.07729 25.5703 7.31235V7.40905C27.8865 7.17548 30.068 7.10109 31.9458 7.10109C33.8237 7.10109 36.0995 7.17846 38.4726 7.42542V7.32871C36.0995 7.08175 33.8641 7.00439 31.9458 7.00439Z" fill="#1D1D1B"/>
<path d="M25.5687 8.8446C27.8849 8.61103 30.0664 8.53664 31.9428 8.53664C33.8191 8.53664 36.0964 8.614 38.468 8.86096V8.76426C36.0964 8.5173 33.861 8.43994 31.9428 8.43994C30.0245 8.43994 27.8849 8.51284 25.5687 8.7479V8.8446Z" fill="white"/>
<path d="M31.9428 8.43994C30.0664 8.43994 27.8849 8.51284 25.5687 8.7479V8.8446C27.8849 8.61103 30.0664 8.53664 31.9428 8.53664C33.8191 8.53664 36.0964 8.614 38.468 8.86096V8.76426C36.0964 8.5173 33.861 8.43994 31.9428 8.43994Z" fill="#1D1D1B"/>
<path d="M31.9308 10.1509C25.0165 10.1509 19.1721 11.3232 15.1816 13.0028C13.7212 13.6723 13.2125 14.5664 13.2125 16.4677C13.2125 33.3442 19.8469 43.7968 30.0769 51.2859C30.8071 51.7888 31.3128 52.0119 31.9293 52.0119C32.5457 52.0119 33.053 51.7888 33.7817 51.2859C44.0131 43.7968 50.6461 33.3442 50.6461 16.4677C50.6461 14.5649 50.1403 13.6723 48.677 13.0028C44.6864 11.3247 38.842 10.1509 31.9278 10.1509H31.9308Z" fill="url(#paint0_linear_4866_19037)"/>
<path d="M23.8136 42.6051C23.7717 42.6051 23.7313 42.6051 23.6894 42.6006C23.5802 42.5932 23.5173 42.5709 23.4874 42.5218C23.453 42.4697 23.4754 42.4102 23.4919 42.373L23.4964 42.3656C23.5787 42.1573 23.7103 41.9118 23.7582 41.8226C23.7702 41.8032 23.7777 41.7884 23.7777 41.7854C23.7851 41.7661 23.7926 41.7437 23.7702 41.7259C23.7582 41.7184 23.7328 41.711 23.7058 41.7333C23.6011 41.827 23.3198 42.1469 23.3198 42.1499C23.2674 42.2094 23.2106 42.2391 23.1552 42.2317C23.0729 42.2198 23.0206 42.1424 23.0011 42.1082C22.8964 41.9074 22.8619 41.5131 22.9787 41.2825C23.1058 41.0252 23.2255 40.9285 23.3348 40.8511L23.3393 40.8466C23.3841 40.8124 23.4186 40.7901 23.4365 40.7604C23.4485 40.741 23.456 40.7113 23.4664 40.6785L23.4709 40.6637C23.5727 40.314 23.8375 40.0492 24.0964 39.7963C24.3777 39.5166 24.647 39.2563 24.6545 38.9067C24.6545 38.4901 24.7338 38.0141 24.861 37.66C24.9103 37.5291 24.9926 37.3952 25.0749 37.2687C25.1572 37.1378 25.244 37.0039 25.2889 36.8745C25.4086 36.5397 25.4056 36.1455 25.3906 35.7394C25.3787 35.4969 25.3712 35.2439 25.3906 34.9762C25.4176 34.5373 25.5777 34.1311 25.7497 33.6997C25.9637 33.1597 26.1837 32.6018 26.1238 31.965C26.0445 31.0903 26.248 30.5726 26.6221 29.97C26.6864 29.8689 26.8839 29.6204 27.0455 29.4151C27.1473 29.2887 27.2325 29.1801 27.255 29.1473C27.7936 28.3395 27.9582 27.5436 28.1004 26.8399C28.3069 25.8342 28.4819 24.9639 29.5981 24.3123C29.9423 24.107 30.2909 23.918 30.6321 23.7321L30.6365 23.7276C30.9702 23.5446 31.2799 23.3735 31.5193 23.2248C31.9159 22.9793 32.2151 22.774 32.4814 22.5955C32.6655 22.469 32.8226 22.3649 32.9797 22.2682C33.6306 21.8591 33.9343 21.7029 34.9084 21.9364C35.2301 22.0153 35.6116 22.1417 36.0949 22.3054C36.3538 22.3917 37.6675 22.8305 38.3782 23.0165C38.5503 23.0611 38.6476 23.0358 38.7373 22.9124C38.7972 22.8261 38.8466 22.6892 38.872 22.5955C38.9588 22.2756 38.9393 21.7624 38.5952 21.3815C38.2959 21.0498 37.5882 20.8489 36.7533 20.8638C36.6186 20.8683 36.484 20.8683 36.3418 20.8712H36.3373C35.0012 20.8935 33.4839 20.9203 31.8635 20.7329C30.3029 20.5543 30.0261 20.0515 30.071 19.6647C30.1054 19.3776 30.2849 19.1068 30.6066 18.8569C30.8954 18.6337 31.2171 18.4954 31.3443 18.4478C31.9727 18.1978 33.062 17.9643 34.6914 18.2499C35.7029 18.4284 36.5932 18.7676 36.867 18.9937C36.8894 19.0086 36.8969 19.0458 36.8894 19.0726C36.882 19.0949 36.8625 19.1172 36.8251 19.1217C36.8176 19.1217 36.7129 19.1261 36.6381 19.1261C36.5633 19.1261 36.454 19.1187 36.3239 19.1068C35.9303 19.08 35.3423 19.0399 34.5792 19.0726C34.4146 19.08 34.3174 19.1366 34.3129 19.1544C34.3129 19.1544 34.3278 19.2065 34.5672 19.266C34.7992 19.3225 35.1657 19.385 35.5817 19.385C35.649 19.385 35.679 19.385 35.7059 19.4192C35.7433 19.4683 35.7283 19.5234 35.6984 19.5501C35.661 19.5844 35.5712 19.6394 35.4515 19.6885C35.1702 19.8001 34.8755 19.8641 34.5717 19.8745C34.253 19.8864 33.9209 19.8447 33.5872 19.748C33.1907 19.6364 32.854 19.4609 32.5533 19.3091C32.2241 19.141 31.9428 18.9967 31.6884 18.9848H31.6839C31.5493 18.9625 31.3548 19.0339 31.1857 19.1604C30.9912 19.3091 30.8715 19.507 30.849 19.7078C30.837 19.8045 30.861 19.876 30.9163 19.9459C31.1079 20.1735 31.6645 20.3223 32.6236 20.3996C33.6231 20.4814 34.9563 20.4071 36.1308 20.3401L36.3972 20.3252C37.6555 20.2538 38.6027 20.4487 39.1368 20.8831C39.7174 21.3562 39.9269 21.9215 39.8176 22.7145C39.7832 22.96 39.7234 23.1727 39.6156 23.4554C39.6156 23.4598 39.5812 23.5491 39.5588 23.5967C39.5438 23.6309 39.5214 23.6979 39.5513 23.7499C39.6007 23.8362 39.8954 24.3867 39.9523 24.4983C40.4685 25.4325 41.1433 26.8131 41.3304 27.6358C41.4246 28.0598 41.3573 28.2755 41.2406 28.5552C41.1762 28.7085 41.1388 28.8275 41.1732 29.0313C41.1957 29.1949 41.26 29.3631 41.3199 29.5118L41.3423 29.5713C41.4321 29.8019 41.5114 30.0028 41.4516 30.4193C41.4471 30.4714 41.4321 30.5309 41.3797 30.5502H41.3752C41.3528 30.5547 41.3304 30.5428 41.3184 30.5354C41.3139 30.5309 41.3109 30.5309 41.3064 30.5279C41.2915 30.5205 41.2795 30.513 41.2645 30.5056C41.0954 30.4119 40.8456 30.2705 40.1304 30.3375C40.0855 30.342 40.0436 30.3256 40.0181 30.2929C39.9912 30.2557 39.9837 30.2066 40.0032 30.159C40.0675 29.9656 40.1274 29.8168 40.1752 29.6978C40.3772 29.1949 40.3847 29.1771 39.9014 27.8664C39.6545 27.1999 39.7623 26.8726 39.882 26.4962C39.9119 26.4025 39.9463 26.3058 39.9717 26.1987C40.054 25.8669 40.069 25.4206 39.5333 24.6024C39.2745 24.2037 38.6386 23.8243 38.1702 23.7871C38.1209 23.7871 38.0835 23.7871 38.061 23.7946C38.0461 23.799 38.0386 23.802 38.0341 23.8094C38.0296 23.8169 38.0341 23.8243 38.0416 23.8362C38.0715 23.8734 38.1283 23.93 38.1837 23.985C38.251 24.0519 38.3229 24.1189 38.3752 24.1829C38.7942 24.6069 38.9333 25.3596 38.884 25.9131C38.8421 26.3891 38.685 26.6941 38.453 26.7506C38.1912 26.8146 37.8845 26.5647 37.5358 26.0098C37.3667 25.742 37.2216 25.4296 37.0795 25.132C36.7159 24.3584 36.3717 23.625 35.664 23.5536C35.6445 23.5491 35.6341 23.558 35.6296 23.561C35.6251 23.5655 35.6251 23.5759 35.6341 23.5878C36.6859 25.0948 37.3114 27.1717 37.865 29.0075C37.9069 29.1458 37.9473 29.2797 37.9847 29.4092C37.9922 29.4315 37.9922 29.4657 37.9697 29.491C37.9578 29.5059 37.9323 29.5252 37.8875 29.5207C37.8755 29.5207 37.8426 29.5163 37.8007 29.5163C37.7214 29.5118 37.6166 29.5118 37.5418 29.5044C37.455 29.4969 37.4326 29.43 37.4251 29.4107C37.0286 28.6147 36.3687 27.5495 36.1787 27.3264C36.0096 27.1285 35.8271 27.0095 35.6281 26.9723C35.4261 26.9307 35.2869 26.9916 35.2495 27.014C35.2421 27.0184 35.1822 27.0512 35.1822 27.1032C35.1822 27.1374 35.2091 27.2118 35.3917 27.316C35.6012 27.435 35.7104 27.551 35.7283 27.673C35.7478 27.8188 35.6266 27.9334 35.5338 28.0271C35.5069 28.0539 35.4815 28.0792 35.459 28.1015C35.4171 28.1461 35.4545 28.2205 35.471 28.2428C35.5533 28.3841 35.6775 28.4139 35.8076 28.4481C35.8301 28.4555 35.8525 28.46 35.8795 28.4674C35.8914 28.4719 35.9019 28.4749 35.9139 28.4749C36.0381 28.5091 36.1234 28.5314 36.285 28.762C36.4121 28.945 36.5618 29.186 36.7608 29.7231C36.7682 29.7424 36.7757 29.7647 36.7832 29.7826C36.8401 29.9284 36.8775 30.0251 37.0376 30.0132C38.3289 29.9492 39.5722 30.5458 39.9209 30.7273C39.9628 30.7496 40.0077 30.7615 40.0525 30.757C40.6406 30.7451 41.0521 30.8731 41.3782 31.1661C41.5099 31.2822 41.6072 31.4042 41.685 31.5053C41.6969 31.5202 41.7119 31.5351 41.7224 31.55C41.7373 31.5649 41.7523 31.5872 41.7718 31.6095C41.9034 31.7776 42.1428 32.0856 42.4002 32.2343C42.8087 32.4724 43.1708 32.5021 43.5763 32.3236C43.6331 32.3013 43.8351 32.2046 43.868 32.1852C43.9354 32.148 43.9773 32.1778 43.9922 32.1927C44.0221 32.2224 44.0296 32.2745 44.0117 32.3087L44.0072 32.3132C43.9099 32.4843 43.7408 32.6256 43.6137 32.7149C42.9329 33.124 42.258 33.1731 41.5473 32.8562C41.1882 32.7 40.9338 32.4872 40.7094 32.3057C40.4655 32.1049 40.2755 31.9487 40.0391 31.9293V31.9412C40.0391 31.9978 40.0885 32.2581 40.2635 32.4366C40.3727 32.5482 40.5074 32.6568 40.6451 32.7684C40.8097 32.9023 40.9787 33.0362 41.1164 33.185C41.2735 33.3531 41.3678 33.6164 41.3483 33.844C41.3334 34.027 41.2989 34.1981 41.2615 34.4212C41.2496 34.4778 41.2421 34.5328 41.2316 34.5923C41.2271 34.6072 41.2241 34.6295 41.2166 34.6637C40.9428 36.1262 40.9174 36.6885 40.9398 36.9042C40.9548 37.05 40.9922 37.1542 41.0266 37.2464C41.091 37.4294 41.1538 37.596 41.0685 37.9352C41.0685 37.9917 41.073 38.0141 41.1029 38.0736C41.3319 38.4455 41.3842 38.8695 41.2451 39.1611C41.1733 39.2846 40.9488 39.5895 40.7588 39.533C40.7214 39.5211 40.6915 39.4913 40.6645 39.4363C40.6525 39.414 40.6346 39.35 40.6047 39.2459C40.5777 39.1566 40.5478 39.0599 40.5328 39.0227C40.5284 39.0108 40.5134 39.0004 40.4984 39.0004C40.491 39.0004 40.4835 39.0153 40.479 39.0346C40.4715 39.0763 40.4595 39.2027 40.4565 39.3069C40.452 39.3813 40.4491 39.4527 40.4416 39.4854C40.4371 39.5122 40.4221 39.5345 40.3997 39.5494C40.3698 39.5687 40.3323 39.5717 40.2949 39.5613C40.1109 39.5047 39.9688 39.4452 39.8565 39.3827C39.4451 39.1373 39.5678 38.8799 39.7099 38.5824C39.8072 38.3815 39.9164 38.1539 39.9044 37.8683C39.7323 37.5112 39.8251 37.2538 39.8999 37.0426C39.9299 36.9563 39.9568 36.8819 39.9568 36.8194C39.9568 36.083 39.4211 35.2112 39.1892 34.872C39.1024 34.756 38.9573 34.7233 38.8002 34.7857C37.7782 35.2767 37.2126 36.2184 37.2845 37.3059C37.3114 37.541 37.2725 37.6377 37.1722 37.779C37.0256 37.9843 36.8131 38.1777 36.6859 38.2893L36.6485 38.3235C36.4166 38.5318 36.2401 38.5214 35.9453 38.4946L35.866 38.4871C35.5219 38.4529 35.1657 38.4157 34.66 38.4797C34.2814 38.5288 33.8969 38.5065 33.6455 38.0215C33.5408 37.8162 33.469 37.657 33.3867 37.4666C33.3642 37.4175 33.3418 37.3654 33.3194 37.3133C33.2969 37.2613 33.2625 37.1824 33.2296 37.1051C33.1847 37.0009 33.1398 36.8894 33.1054 36.8105C33.0934 36.7837 33.0635 36.7287 33.0156 36.7212C32.9662 36.7138 32.9139 36.7584 32.8809 36.8001C32.3827 37.3357 32.4126 38.1807 32.45 38.5199C32.465 38.6686 32.438 38.7326 32.4051 38.7847C32.4006 38.7891 32.0341 39.5062 31.0316 39.5925H31.0166C30.8924 39.5925 30.7547 39.588 30.7024 39.4467C30.6799 39.3827 30.7622 39.2191 30.9418 38.9513C30.9642 38.9216 30.9567 38.8992 30.9463 38.8873C30.9358 38.8754 30.9089 38.8754 30.8745 38.9067C30.8595 38.9216 30.7922 38.9855 30.7203 39.0555C30.5932 39.1819 30.5064 39.2637 30.4884 39.2786C30.4465 39.3128 30.3986 39.3232 30.3538 39.3158C30.3044 39.3084 30.264 39.2786 30.2341 39.237C30.1742 39.1507 30.1817 39.0064 30.1817 38.9647C30.2011 38.6999 30.3014 38.0527 30.9044 37.7031C30.9193 37.6957 30.9388 37.6838 30.9567 37.6763C31.051 37.6273 31.1632 37.5648 31.2186 37.4383C31.3383 37.1557 31.5702 36.7688 31.6675 36.6052C31.6869 36.571 31.7019 36.5487 31.7049 36.5383C31.7468 36.4639 31.7318 36.4148 31.66 36.3701C31.4535 36.2511 30.8924 36.3062 30.7353 36.5561C30.6904 36.6275 30.6605 36.6974 30.6261 36.7867C30.5961 36.8655 30.5587 36.9548 30.5019 37.0694L30.4944 37.0842C30.3777 37.3044 30.1832 37.6719 29.7717 38.0557C29.4575 38.3309 29.3258 38.5764 29.2286 38.8665C29.2016 38.9454 29.1762 39.0272 29.1567 39.0941C29.0595 39.411 28.9652 39.7115 28.7333 39.9094C28.6764 39.9659 28.6465 40.0552 28.6465 40.1147C28.6465 40.3795 28.5642 40.5833 28.3996 40.7395C28.0734 41.0415 27.4944 41.1903 27.1083 41.0639C27.0859 41.0564 27.0365 41.0341 27.0111 40.982C26.9961 40.9478 26.9961 40.9076 27.0186 40.866C27.0784 40.7247 27.1577 40.6056 27.2176 40.5089C27.2625 40.4375 27.2999 40.378 27.3118 40.3408C27.3163 40.3334 27.3074 40.3259 27.2999 40.3185C27.2924 40.314 27.2699 40.2992 27.24 40.326C27.1158 40.4152 27.0186 40.5313 26.9363 40.6205C26.8839 40.68 26.842 40.7291 26.8046 40.7589C26.7627 40.7886 26.7178 40.8035 26.6729 40.7961C26.6206 40.7886 26.5712 40.7544 26.5263 40.6994C26.462 40.6131 26.4395 40.5283 26.429 40.4643C26.3991 40.3036 26.3842 39.7457 26.7059 39.295C26.8256 39.1269 27.0425 38.9855 27.2744 38.9305C27.4615 38.874 27.5213 38.7743 27.5707 38.6805C27.5931 38.6389 27.6126 38.6062 27.6425 38.5764C27.6919 38.5273 27.852 38.4157 27.867 38.4053C28.4475 38.0632 28.6944 37.2851 28.7722 37.0277C28.832 36.8745 28.7991 36.7108 28.6779 36.5591C28.4759 36.3285 28.5208 35.9789 28.5657 35.6129C28.6031 35.3005 28.645 34.9806 28.5163 34.7456C28.4939 34.7009 28.464 34.6742 28.4266 34.6712C28.3398 34.6563 28.1946 34.7426 28.048 34.8914C27.4375 35.5385 27.1278 36.3166 26.8271 37.0723C26.5308 37.8088 26.2285 38.569 25.6405 39.2236C25.434 39.4765 25.434 39.8038 25.434 40.1206C25.434 40.4822 25.434 40.8496 25.1497 41.1367C25.0824 41.2037 25.06 41.226 25.06 41.3123C25.0525 41.5578 24.9807 41.8821 24.8759 42.1648C24.8684 42.1841 24.864 42.1945 24.8565 42.2019C24.837 42.2466 24.8221 42.2763 24.7622 42.3403L24.7577 42.3448C24.6186 42.4638 24.3388 42.6096 23.7986 42.6096L23.8136 42.6051ZM23.7388 41.6485C23.7657 41.6485 23.7911 41.656 23.8106 41.6708C23.8555 41.7051 23.8674 41.7601 23.8405 41.8196C23.836 41.8241 23.8285 41.8389 23.8181 41.8613C23.7687 41.9505 23.6415 42.193 23.5592 42.3968L23.5547 42.4043C23.5398 42.4415 23.5323 42.4682 23.5427 42.4906C23.5577 42.5173 23.6071 42.5322 23.6894 42.5352C23.7313 42.5352 23.7687 42.5397 23.8091 42.5397C24.3223 42.5397 24.5871 42.4058 24.7188 42.2897C24.7682 42.2377 24.7787 42.2153 24.7936 42.1737C24.7981 42.1618 24.8056 42.1469 24.8131 42.132C24.9148 41.8598 24.9852 41.5444 24.9926 41.3063C24.9926 41.1903 25.03 41.1501 25.1019 41.0787C25.3637 40.8139 25.3637 40.4569 25.3682 40.1147C25.3682 39.7829 25.3682 39.4452 25.5896 39.1685C26.1702 38.5243 26.4694 37.7686 26.7612 37.0396C27.065 36.2809 27.3792 35.4954 28.0046 34.8363C28.1737 34.6652 28.3338 34.576 28.446 34.5938C28.4879 34.6013 28.5478 34.6236 28.5882 34.7099C28.7273 34.9628 28.6854 35.2975 28.645 35.6218C28.6031 35.9714 28.5627 36.3032 28.7423 36.5115C28.8814 36.69 28.9143 36.876 28.847 37.0515C28.7647 37.3119 28.5133 38.1122 27.9074 38.4693C27.8954 38.4767 27.7428 38.5853 27.6934 38.63C27.6709 38.6523 27.656 38.682 27.6335 38.7163C27.5812 38.81 27.5094 38.9364 27.2924 38.9989C27.0754 39.0554 26.8734 39.1819 26.7642 39.3381C26.4575 39.7666 26.4724 40.2992 26.4979 40.4509C26.5098 40.5075 26.5278 40.5818 26.5802 40.6562C26.6101 40.6979 26.6445 40.7202 26.6744 40.7232C26.7014 40.7276 26.7238 40.7187 26.7492 40.7009C26.7792 40.6785 26.8211 40.6294 26.8689 40.5744C26.9512 40.4807 27.053 40.3617 27.1832 40.265C27.24 40.2233 27.2999 40.2352 27.3328 40.2575C27.3702 40.2843 27.3852 40.3245 27.3747 40.3617C27.3597 40.4063 27.3223 40.4703 27.2729 40.5476C27.2131 40.6413 27.1383 40.7604 27.0784 40.8972C27.0665 40.9195 27.0665 40.9389 27.0709 40.9538C27.0829 40.9805 27.1158 40.991 27.1203 40.9954C27.4869 41.1115 28.033 40.9731 28.3413 40.686C28.4909 40.5446 28.5657 40.3587 28.5657 40.1132C28.5657 40.0418 28.6001 39.9302 28.6749 39.8558C28.8919 39.6728 28.9817 39.3827 29.0759 39.0748C29.0984 39.0078 29.1208 38.926 29.1508 38.8472C29.2525 38.5452 29.3902 38.2893 29.7163 38.0066C30.1173 37.6347 30.2999 37.2851 30.4241 37.0575L30.4316 37.0426C30.4884 36.931 30.5213 36.8447 30.5513 36.7674C30.5887 36.6781 30.6186 36.5992 30.668 36.5219C30.855 36.2273 31.461 36.1753 31.6944 36.3136C31.8036 36.3776 31.8291 36.4698 31.7692 36.5814C31.7617 36.5933 31.7498 36.6156 31.7273 36.6483C31.6301 36.812 31.4011 37.1958 31.2814 37.474C31.2171 37.6273 31.0824 37.6972 30.9852 37.7492C30.9657 37.7567 30.9508 37.7686 30.9358 37.776C30.3672 38.1078 30.27 38.7252 30.2505 38.9781C30.246 39.0495 30.255 39.1536 30.2879 39.2057C30.3074 39.2325 30.3298 39.2503 30.3552 39.2548C30.3822 39.2593 30.4076 39.2503 30.4346 39.2325C30.454 39.2176 30.5737 39.1016 30.659 39.0123C30.7338 38.9379 30.8011 38.8739 30.8161 38.8591C30.8834 38.8025 30.9508 38.81 30.9852 38.8397C31.0226 38.8695 31.0375 38.9335 30.9927 39.0004C30.8355 39.2355 30.7562 39.3946 30.7607 39.4289C30.7907 39.5151 30.873 39.5226 31.0046 39.5226H31.0166C31.7797 39.4586 32.2106 38.9945 32.3303 38.7564C32.3528 38.7192 32.3797 38.6701 32.3647 38.5362C32.3273 38.1866 32.2974 37.3148 32.8136 36.7569C32.8854 36.6781 32.9528 36.6454 33.0156 36.6558C33.0949 36.6677 33.1428 36.745 33.1622 36.7867C33.1996 36.8655 33.2445 36.9771 33.2894 37.0842C33.3238 37.1631 33.3538 37.2404 33.3762 37.2925C33.3987 37.3446 33.4211 37.3967 33.4435 37.4458C33.5258 37.6317 33.5977 37.7924 33.7024 37.9932C33.8371 38.2536 34.0465 38.4886 34.6376 38.4142C35.1538 38.3503 35.5129 38.3845 35.8615 38.4217L35.9408 38.4291C36.2251 38.4514 36.3822 38.4663 36.5887 38.2759L36.6261 38.2417C36.7503 38.1301 36.9598 37.9397 37.1019 37.7433C37.1992 37.6094 37.2261 37.5276 37.2037 37.3193C37.1288 36.202 37.7094 35.2306 38.7613 34.7247C38.9528 34.6459 39.1353 34.6905 39.2401 34.8333C39.4765 35.18 40.0226 36.0652 40.0226 36.8254C40.0226 36.9042 39.9927 36.9816 39.9583 37.0753C39.8865 37.2732 39.7967 37.5186 39.9628 37.8489L39.9673 37.8564V37.8638C39.9792 38.1732 39.8655 38.4113 39.7653 38.6196C39.6231 38.9171 39.5289 39.115 39.882 39.3262C39.9867 39.3902 40.1259 39.4452 40.3054 39.5018C40.3204 39.5062 40.3398 39.5062 40.3473 39.4973C40.3518 39.4973 40.3548 39.4928 40.3548 39.4899C40.3593 39.4556 40.3623 39.3857 40.3668 39.3143C40.3742 39.1953 40.3817 39.0763 40.3937 39.0316C40.4131 38.9528 40.458 38.9379 40.4835 38.9379C40.5328 38.9335 40.5777 38.9721 40.5927 39.0093C40.6077 39.0465 40.6376 39.1432 40.6645 39.237C40.687 39.3113 40.7139 39.3976 40.7214 39.4155C40.7363 39.4497 40.7513 39.4675 40.7663 39.472C40.8785 39.5062 41.073 39.2965 41.1673 39.1373C41.2944 38.8725 41.2421 38.4708 41.0251 38.1212L41.0206 38.1167C40.9862 38.0423 40.9787 38.0081 40.9787 37.9412V37.9337C41.058 37.6168 41.0012 37.4532 40.9368 37.2821C40.9024 37.1854 40.862 37.0738 40.8471 36.9206C40.8097 36.6037 40.9039 35.8405 41.1239 34.6578C41.1314 34.6236 41.1358 34.5983 41.1388 34.5864C41.1508 34.5269 41.1613 34.4674 41.1688 34.4108C41.2107 34.1907 41.2406 34.0196 41.2555 33.841C41.275 33.6357 41.1882 33.3903 41.0416 33.2385C40.9024 33.0927 40.7378 32.9588 40.5777 32.8294C40.4311 32.7104 40.2964 32.6018 40.1842 32.4902C39.9927 32.2968 39.9373 32.0216 39.9403 31.9427C39.9403 31.9234 39.9448 31.8936 39.9628 31.8758C39.9777 31.8639 39.9927 31.8564 40.0196 31.8609C40.2785 31.8802 40.476 32.0439 40.7304 32.2522C40.9518 32.4352 41.2017 32.639 41.5503 32.7952C42.2356 33.0972 42.891 33.0526 43.5463 32.6568C43.7154 32.5378 43.8426 32.4069 43.9129 32.2804L43.9174 32.273C43.9174 32.273 43.9174 32.2537 43.9099 32.2462C43.9024 32.2388 43.883 32.2507 43.88 32.2537C43.8456 32.273 43.6361 32.3727 43.5807 32.395C43.1543 32.5854 42.7728 32.5557 42.3373 32.3013C42.068 32.1451 41.8211 31.8252 41.6865 31.6571C41.667 31.6348 41.6521 31.6125 41.6371 31.5976C41.6251 31.5827 41.6146 31.5678 41.5997 31.553C41.5249 31.4563 41.4276 31.3372 41.3004 31.2257C40.9862 30.946 40.5927 30.824 40.0241 30.8344C39.9643 30.8344 39.9074 30.8225 39.855 30.7927C39.5109 30.6097 38.2825 30.0221 37.0091 30.0861C36.7922 30.101 36.7398 29.9596 36.68 29.8064C36.6725 29.787 36.665 29.7692 36.6575 29.7469C36.4585 29.2187 36.3134 28.9807 36.1892 28.8007C36.0426 28.5924 35.9722 28.5731 35.86 28.5433C35.848 28.5389 35.8376 28.5359 35.8256 28.5314C35.8032 28.524 35.7807 28.5195 35.7583 28.5121C35.6236 28.4779 35.4695 28.4407 35.3722 28.2696C35.3229 28.1833 35.3229 28.0985 35.3677 28.042C35.3902 28.0152 35.4171 27.9899 35.447 27.9631C35.5368 27.8768 35.6341 27.7801 35.6236 27.6686C35.6116 27.5719 35.5114 27.4707 35.3243 27.3665C35.1553 27.2728 35.073 27.1806 35.073 27.0869C35.073 27.0154 35.1298 26.9604 35.1822 26.9336C35.2241 26.9113 35.3842 26.8444 35.6086 26.889C35.8226 26.9307 36.0201 27.0601 36.1997 27.2684C36.3942 27.496 37.0495 28.5493 37.458 29.3645C37.458 29.369 37.4625 29.372 37.4625 29.3764C37.47 29.3988 37.4775 29.4181 37.5149 29.4211C37.5867 29.4285 37.6914 29.433 37.7663 29.433C37.8111 29.433 37.8411 29.433 37.856 29.4374H37.871C37.871 29.4374 37.8755 29.4255 37.871 29.4226C37.8291 29.2916 37.7917 29.1548 37.7513 29.0209C37.2456 27.194 36.6201 25.1201 35.5727 23.6235L35.5682 23.619C35.5488 23.5818 35.5488 23.5446 35.5727 23.5149C35.5847 23.4955 35.6146 23.4702 35.6745 23.4777C36.4196 23.5521 36.7907 24.3376 37.1498 25.0963C37.2919 25.3939 37.4341 25.7033 37.6032 25.9666C37.9249 26.4769 38.2211 26.7253 38.4411 26.6733C38.6356 26.6242 38.7777 26.3385 38.8151 25.9026C38.8645 25.3671 38.7283 24.6411 38.3244 24.232C38.272 24.168 38.2047 24.101 38.1373 24.0386C38.0775 23.979 38.0206 23.927 37.9877 23.8823C37.9653 23.8526 37.9578 23.8184 37.9653 23.7856C37.9727 23.7663 37.9922 23.7336 38.0446 23.7217C38.079 23.7142 38.1194 23.7098 38.1762 23.7142C38.67 23.7514 39.3224 24.1382 39.5947 24.5622C40.1453 25.4028 40.1304 25.8729 40.0406 26.218C40.0136 26.3266 39.9807 26.4233 39.9508 26.52C39.8311 26.8845 39.7294 27.197 39.9658 27.8411C40.4565 29.1771 40.4446 29.2068 40.2396 29.7246C40.1902 29.8436 40.1348 29.9894 40.0705 30.1828C40.0585 30.2096 40.063 30.2319 40.075 30.2467C40.087 30.2587 40.1019 30.2661 40.1199 30.2661C40.8575 30.1991 41.1239 30.3479 41.2959 30.4446C41.3109 30.452 41.3259 30.4595 41.3378 30.4669C41.3453 30.4714 41.3498 30.4744 41.3573 30.4788H41.3618C41.3663 30.4714 41.3738 30.452 41.3767 30.4149C41.4366 30.0162 41.3618 29.8347 41.272 29.6041L41.2496 29.5475C41.1897 29.3913 41.1224 29.2158 41.0999 29.0491C41.0625 28.826 41.1074 28.6951 41.1718 28.5359C41.281 28.2681 41.3438 28.0628 41.2585 27.6611C41.0715 26.8459 40.4057 25.4727 39.888 24.5459C39.8281 24.4343 39.5363 23.8838 39.487 23.802C39.4421 23.7202 39.4675 23.6309 39.4914 23.5818C39.5109 23.5372 39.5438 23.4435 39.5483 23.4435C39.6575 23.1682 39.7129 22.96 39.7473 22.7219C39.852 21.9558 39.6501 21.4113 39.0919 20.9575C38.5712 20.5335 37.6436 20.3431 36.4047 20.4145L36.1383 20.4294C34.9593 20.4963 33.6261 20.5707 32.6191 20.4889C31.6375 20.4071 31.0615 20.2509 30.8595 20.0084C30.7877 19.9221 30.7622 19.8298 30.7727 19.7138C30.7951 19.4936 30.9298 19.2749 31.1393 19.1142C31.3188 18.9759 31.5358 18.9015 31.6899 18.9238C31.9592 18.9357 32.248 19.0845 32.5847 19.2556C32.8809 19.4088 33.2176 19.5799 33.6036 19.687C33.9328 19.7807 34.2545 19.8209 34.5657 19.8105C34.8575 19.7986 35.1463 19.7391 35.4186 19.6275C35.5234 19.5858 35.6101 19.5338 35.6475 19.5011C35.652 19.4966 35.655 19.4862 35.6431 19.4713C35.6356 19.4668 35.6086 19.4668 35.5832 19.4668C35.1598 19.4668 34.7857 19.3999 34.5493 19.3434C34.3323 19.2868 34.2306 19.2273 34.2381 19.15C34.2455 19.0607 34.4146 19.0086 34.5747 19.0012C35.3453 18.967 35.9333 19.0086 36.3268 19.0354C36.4615 19.0473 36.5662 19.0547 36.6411 19.0547H36.8176C36.5438 18.8346 35.676 18.5043 34.6795 18.3287C33.0695 18.0461 31.9922 18.2767 31.3742 18.5221C31.25 18.5712 30.9358 18.7081 30.656 18.9238C30.3493 19.1589 30.1802 19.4148 30.1503 19.6796C30.0934 20.1899 30.6889 20.5276 31.8755 20.6659C33.4929 20.8519 35.0056 20.8266 36.3373 20.8043H36.3418C36.481 20.7998 36.6186 20.7998 36.7533 20.7968C37.6106 20.7849 38.3363 20.9947 38.652 21.3399C39.0156 21.7415 39.0381 22.2816 38.9438 22.6237C38.9169 22.7204 38.8615 22.8692 38.7972 22.9659C38.685 23.1147 38.5578 23.1519 38.3558 23.0998C37.6451 22.9138 36.3268 22.475 36.0725 22.3887C35.5892 22.225 35.2121 22.0986 34.8889 22.0197C33.9448 21.7891 33.65 21.9409 33.0171 22.3396C32.863 22.4363 32.7059 22.5404 32.5263 22.6639C32.26 22.8424 31.9607 23.0477 31.5597 23.2932C31.3203 23.442 31.0061 23.6131 30.6725 23.7961L30.65 23.7663L30.6695 23.8005C30.3328 23.9865 29.9812 24.1769 29.64 24.3807C28.5537 25.013 28.3787 25.8699 28.1767 26.8563C28.0301 27.5674 27.8655 28.3752 27.3193 29.1935C27.2969 29.2306 27.2101 29.3348 27.1054 29.4657C26.9438 29.6665 26.7463 29.9165 26.6864 30.0132C26.3198 30.6008 26.1208 31.1111 26.2001 31.9636C26.26 32.6181 26.0355 33.185 25.8186 33.731C25.6495 34.1549 25.4924 34.5566 25.4669 34.9851C25.4475 35.2529 25.455 35.4983 25.4669 35.7408C25.4819 36.1544 25.4864 36.5516 25.3622 36.9027C25.3128 37.0411 25.2231 37.178 25.1408 37.3119C25.0585 37.4428 24.9792 37.5648 24.9343 37.6882C24.8101 38.0304 24.7323 38.499 24.7323 38.9097C24.7248 39.289 24.448 39.5613 24.1562 39.8514C23.9048 40.1013 23.643 40.3542 23.5502 40.6889L23.5457 40.7038C23.5338 40.7455 23.5233 40.7782 23.5083 40.805C23.4784 40.8496 23.441 40.8794 23.3886 40.9136L23.3841 40.9181C23.2794 40.9924 23.1702 41.0817 23.0505 41.3197C22.9487 41.525 22.9787 41.8999 23.0729 42.0785C23.0849 42.0978 23.1178 42.1573 23.1672 42.1648C23.1971 42.1692 23.2315 42.1499 23.2689 42.1082C23.2809 42.0933 23.5532 41.7809 23.6624 41.6842C23.6999 41.65 23.7298 41.6426 23.7567 41.6426L23.7388 41.6485ZM36.2161 38.0676H36.1667C35.9498 38.0527 35.646 38.0334 35.646 38.0334H35.6416C35.6041 38.026 35.5817 38.0111 35.5667 37.9888C35.5443 37.9471 35.5623 37.9025 35.5712 37.8876C35.5787 37.8683 35.5832 37.8534 35.5862 37.8385C35.6086 37.7344 35.6535 37.3803 35.3199 37.2538L35.3154 37.2494C35.2884 37.2345 35.251 37.2003 35.2854 37.1304L35.2929 37.108C35.4201 36.7956 35.5817 36.4088 35.7044 35.8688C35.7837 35.5415 35.7313 35.3481 35.6176 35.1205C35.5952 35.0714 35.5608 35.0267 35.5233 34.9821L35.3363 34.7366C35.3019 34.6994 35.2914 34.6548 35.3019 34.6176C35.3124 34.5804 35.3438 34.5507 35.3917 34.5313L35.6535 34.4644C35.6685 34.457 35.6685 34.4376 35.6685 34.4302C35.6685 34.4183 35.661 34.4034 35.649 34.4004L35.5144 34.3558C35.3677 34.2963 35.2854 34.1802 35.2331 34.1133C35.2211 34.0984 35.2031 34.0687 35.1882 34.0419C35.1583 33.9853 35.1358 33.9303 35.1238 33.8663L35.1089 33.7919C35.1014 33.7919 35.0894 33.7919 35.082 33.7994C34.88 34.0002 34.8351 34.2978 34.9697 34.5209C35.1238 34.7738 35.1613 34.8259 35.2391 34.9345C35.269 34.9762 35.3064 35.0238 35.3558 35.0952C35.4231 35.1919 35.4605 35.2663 35.48 35.3525C35.5099 35.479 35.5024 35.7885 35.4201 36.0116L35.2061 36.6558C35.1463 36.7867 35.0819 36.8611 34.9997 36.8834C34.9174 36.9057 34.8455 36.8685 34.7977 36.8343C34.6884 36.7629 34.5837 36.5844 34.5283 36.3731C34.5283 36.3687 34.3817 35.8256 34.3862 35.1145C34.3817 35.0699 34.3637 35.0208 34.3263 35.0029C34.2844 34.9836 34.2291 35.0104 34.1872 35.0372L33.6814 35.4537C33.6366 35.476 33.5647 35.4879 33.5124 35.4492C33.4824 35.4299 33.4405 35.3778 33.4555 35.2707C33.46 35.2514 33.8221 33.6595 34.2036 32.7654C34.4954 32.032 34.1513 31.6303 33.7922 31.2019C33.3014 30.58 33.2535 30.0623 33.4181 29.8466C33.5348 29.6933 33.8221 29.5713 34.5343 29.854C34.7662 29.9581 34.9054 29.918 35.0924 29.854C35.2121 29.8168 35.3513 29.7722 35.5383 29.7528C35.9243 29.7186 36.0396 29.8912 36.0695 29.9433C36.0994 30.0028 36.1114 30.0667 36.1114 30.0995C36.1159 30.1218 36.1039 30.1367 36.0994 30.1441C36.0919 30.1515 36.08 30.1634 36.0575 30.1634C35.6266 30.1902 35.0655 30.4089 34.856 30.8403C34.7064 31.1498 34.7692 31.5143 35.043 31.8981C35.4291 32.4381 36.1997 32.8175 37.0121 32.8696C37.7079 32.9142 38.3229 32.7015 38.6924 32.2968V32.2894H38.685C38.456 32.3757 38.281 32.4277 38.1089 32.453C37.9024 32.4872 37.5553 32.4976 37.1962 32.4262C36.9149 32.3697 36.5258 32.2477 36.276 31.9606C36.1219 31.785 36.0665 31.5991 36.1189 31.4577C36.1533 31.3715 36.2431 31.2643 36.478 31.2346C36.6426 31.2197 36.7473 31.239 36.8296 31.2495C36.8715 31.2569 36.9044 31.2614 36.9343 31.2614C37.0465 31.2614 37.1064 31.2019 37.1363 31.1572C37.1857 31.0784 37.1857 30.9817 37.1633 30.9296C37.1184 30.8136 37.0091 30.6797 36.8745 30.5726C36.7697 30.4982 36.7802 30.4238 36.7922 30.397C36.8116 30.3449 36.867 30.3107 36.9268 30.3107C37.7648 30.3598 38.6072 30.4937 38.9259 31.5425C38.9303 31.5544 38.9333 31.5723 38.9378 31.5946C38.9498 31.6392 38.9648 31.7181 38.9872 31.7478C39.0291 31.8118 39.0994 31.8669 39.1742 31.9264C39.2087 31.9561 39.2461 31.9829 39.2835 32.0156C39.6126 32.3028 39.8715 32.8116 38.9393 34.2531C38.9124 34.2978 38.8825 34.3097 38.8525 34.3245L38.8406 34.329C37.7962 34.7232 36.7518 35.8331 36.9313 37.3446C36.9358 37.4309 36.9089 37.5454 36.8296 37.6243C36.8176 37.6362 36.5782 37.8772 36.4256 37.9813C36.3732 38.0379 36.3134 38.0631 36.2086 38.0631L36.2161 38.0676ZM35.6505 37.959C35.6775 37.959 35.9647 37.9783 36.1712 37.9932C36.3029 38.0007 36.3508 37.9739 36.4002 37.9441C36.5498 37.84 36.7937 37.5975 36.7937 37.5945C36.858 37.5306 36.876 37.4338 36.873 37.3743C36.6889 35.8256 37.7558 34.6875 38.8271 34.2844L38.8346 34.2799C38.8615 34.268 38.872 34.265 38.887 34.2383C39.7817 32.8532 39.5722 32.3816 39.2461 32.0974C39.2087 32.0632 39.1712 32.0379 39.1368 32.0082C39.0545 31.9412 38.9827 31.8847 38.9303 31.8103C38.9034 31.7687 38.8855 31.6913 38.8705 31.6318C38.866 31.6125 38.863 31.5946 38.8585 31.5872C38.5548 30.5815 37.7393 30.452 36.9268 30.4074C36.8999 30.4074 36.8745 30.4223 36.867 30.4416C36.8595 30.4684 36.879 30.5011 36.9239 30.5354C37.0735 30.6544 37.1857 30.7957 37.2351 30.9222C37.2695 30.9936 37.2695 31.12 37.2052 31.2197C37.1633 31.2837 37.0855 31.3581 36.9388 31.3581C36.9014 31.3581 36.864 31.3506 36.8221 31.3462C36.7398 31.3343 36.6381 31.3194 36.4855 31.3313C36.3283 31.3506 36.2236 31.4101 36.1862 31.5068C36.1413 31.6229 36.1937 31.7821 36.3283 31.9353C36.7667 32.4337 37.7094 32.4634 38.0954 32.4009C38.26 32.3742 38.4366 32.3221 38.6565 32.2403C38.6865 32.2284 38.7164 32.2328 38.7388 32.2552C38.7538 32.2671 38.7658 32.2849 38.7658 32.3072C38.7658 32.3295 38.7613 32.3519 38.7463 32.3667C38.3573 32.7907 37.7199 33.0064 37.0017 32.9663C36.1667 32.9142 35.3737 32.5229 34.9757 31.965C34.6121 31.4518 34.669 31.068 34.7842 30.8329C35.0012 30.3821 35.5817 30.1441 36.0306 30.1143C36.0261 30.0846 36.0156 30.04 35.9962 30.0028C35.9737 29.9611 35.8795 29.8242 35.5398 29.854C35.3603 29.8689 35.2286 29.9135 35.1089 29.9507C34.9099 30.0147 34.7573 30.0667 34.4984 29.9462C33.9747 29.7335 33.6186 29.7231 33.472 29.912C33.2954 30.1471 33.4525 30.6752 33.846 31.1736C34.2051 31.5976 34.5792 32.0335 34.2695 32.8116C33.8879 33.6967 33.5288 35.2826 33.5243 35.302C33.5198 35.3362 33.5198 35.3838 33.5513 35.4061C33.5737 35.4254 33.6111 35.421 33.6381 35.4061L34.1393 34.9925C34.2216 34.936 34.2934 34.9256 34.3533 34.9509C34.4356 34.9881 34.4505 35.0922 34.455 35.122V35.1294C34.4505 35.8286 34.5942 36.3657 34.5942 36.3687C34.6465 36.5621 34.7438 36.7257 34.8336 36.7852C34.871 36.812 34.9233 36.8373 34.9757 36.8224C35.0326 36.8075 35.0849 36.7436 35.1328 36.6364L35.3468 35.9967C35.4261 35.7914 35.4336 35.4939 35.4066 35.3793C35.3872 35.3005 35.3543 35.2335 35.2944 35.1487C35.245 35.0773 35.2076 35.0297 35.1777 34.9881C35.0954 34.8765 35.058 34.8244 34.9039 34.567C34.7498 34.3141 34.8021 33.9794 35.0281 33.7562C35.055 33.7295 35.1029 33.719 35.1373 33.7339C35.1642 33.7458 35.1792 33.7637 35.1822 33.7905L35.1972 33.8648C35.2091 33.9169 35.2271 33.969 35.254 34.0181C35.269 34.0449 35.2839 34.0702 35.2914 34.0821C35.3558 34.1683 35.4231 34.2531 35.5353 34.2978L35.667 34.3394C35.7089 34.3513 35.7388 34.3885 35.7418 34.4361C35.7448 34.4837 35.7149 34.5254 35.67 34.5447L35.4081 34.6117C35.3887 34.6191 35.3737 34.631 35.3707 34.6459C35.3677 34.6608 35.3752 34.6801 35.3932 34.7024L35.5802 34.9479C35.6221 34.997 35.655 35.0491 35.682 35.1011C35.8017 35.3436 35.854 35.5519 35.7717 35.9015C35.6445 36.4445 35.4829 36.8403 35.3558 37.1527L35.3483 37.172C35.3483 37.172 35.3438 37.1765 35.3438 37.1795C35.3393 37.1839 35.3363 37.1943 35.3363 37.1988L35.3408 37.2033C35.6475 37.3193 35.6999 37.6243 35.652 37.8697C35.6475 37.8891 35.6401 37.9069 35.6326 37.9293V37.9337C35.6206 37.9605 35.6251 37.9679 35.6251 37.9709C35.6326 37.956 35.6401 37.959 35.652 37.9635L35.6505 37.959ZM34.85 38.0587C34.5612 38.0587 34.4086 37.9575 34.3293 37.8727C34.1124 37.6421 34.0929 37.3327 34.1423 37.1393C34.1767 37.0128 34.2545 36.9161 34.3518 36.8894C34.3862 36.8775 34.4266 36.87 34.464 36.9161C34.5059 36.9801 34.6256 37.1735 34.6555 37.2107C34.6854 37.2553 34.7453 37.2925 34.7827 37.3074C34.8276 37.3267 34.877 37.3416 34.9248 37.3565C34.9772 37.3758 35.0296 37.3907 35.064 37.4056C35.1657 37.4502 35.2406 37.5246 35.266 37.6213C35.2929 37.7076 35.281 37.7998 35.2316 37.8742C35.1493 38.0051 35.0251 38.0602 34.85 38.0602V38.0587ZM34.3937 36.9563C34.3937 36.9563 34.3817 36.9563 34.3712 36.9608C34.2994 36.9831 34.2396 37.0575 34.2141 37.1586C34.1692 37.3342 34.1842 37.6124 34.3832 37.8207C34.4849 37.9248 34.645 37.9813 34.8515 37.9813C35.046 37.9813 35.1253 37.9025 35.1702 37.8326C35.2076 37.776 35.2151 37.7091 35.1972 37.6421C35.1747 37.5677 35.1149 37.5082 35.0356 37.471C35.0012 37.4562 34.9563 37.4413 34.9039 37.4219C34.8545 37.4071 34.8021 37.3877 34.7573 37.3699C34.7079 37.3505 34.6376 37.3059 34.5957 37.2464C34.5657 37.2018 34.4341 36.9965 34.4041 36.9518C34.3992 36.9548 34.3952 36.9563 34.3922 36.9563H34.3937ZM29.4261 36.4579C29.3438 36.4579 29.2719 36.443 29.2121 36.4058C29.0954 36.3344 29.0355 36.1976 29.0206 35.9848C29.0161 35.7572 29.0325 35.5757 29.043 35.415C29.0655 35.0758 29.0849 34.8527 28.9233 34.5819C28.9188 34.5775 28.9114 34.5626 28.9009 34.5522C28.8814 34.5224 28.8859 34.5001 28.8934 34.4852C28.9054 34.4629 28.9278 34.4555 28.9428 34.4555C30.0695 34.3692 30.3508 34.0196 30.4136 33.9125C30.4136 33.9125 30.4136 33.908 30.4091 33.908C30.1323 33.8782 28.856 33.841 28.3503 33.9154C27.6246 34.0196 27.0769 34.9464 26.845 35.3451C26.7881 35.4418 26.7507 35.5088 26.7253 35.5355C26.6535 35.6099 26.5682 35.6367 26.4859 35.607C26.4066 35.5772 26.3512 35.4954 26.3512 35.4091C26.3512 35.1815 26.4859 34.0761 26.5802 33.6819C26.7343 33.0228 26.9512 32.5943 27.5468 32.5021C27.5961 32.4947 27.6515 32.4872 27.7113 32.4798C28.0779 32.4277 28.7632 32.331 28.8754 32.1599C28.8904 32.1406 28.8949 32.1227 28.8874 32.1004C28.8306 31.8802 28.7976 31.6913 28.7976 31.5827C28.7976 31.5113 28.8171 31.4637 28.85 31.4339C28.8919 31.3997 28.9517 31.3923 29.049 31.4146C29.0984 31.4265 29.1508 31.4444 29.2106 31.4637C29.2854 31.4905 29.3677 31.5158 29.462 31.5381C30.7203 31.8326 31.3757 31.6095 32.1612 31.2628C32.1912 31.248 32.465 31.1245 32.4829 31.1171C32.5622 31.0724 32.6625 31.0828 32.7268 31.1468C32.7942 31.2108 32.8091 31.303 32.7687 31.3923C32.7313 31.4711 32.6864 31.5113 32.6071 31.5857C32.5877 31.605 32.5697 31.6229 32.5473 31.6422L32.4979 31.6913C32.1986 31.971 31.3966 32.7148 31.9248 33.9244C32.2465 34.6652 32.4081 35.0074 32.5877 35.4061C32.655 35.5549 32.7298 35.7111 32.8166 35.9015C32.8615 35.9982 32.8959 36.0919 32.8241 36.1366C32.7717 36.1708 32.7149 36.141 32.67 36.1098C32.3887 35.9313 31.4834 35.7185 30.6665 36.0428C30.5498 36.0875 30.4345 36.1395 30.3253 36.1842C29.9737 36.3255 29.6595 36.4594 29.4276 36.4594L29.4261 36.4579ZM28.9727 34.5254C28.9802 34.5328 28.9847 34.5403 28.9847 34.5403L28.9892 34.5447C29.1612 34.8393 29.1433 35.0848 29.1208 35.4225C29.1089 35.5831 29.0939 35.7617 29.0984 35.9848C29.1104 36.1708 29.1627 36.2898 29.2525 36.3463C29.4545 36.4698 29.8585 36.2972 30.2894 36.1113C30.4016 36.0622 30.5183 36.0146 30.6336 35.9655C31.4086 35.656 32.3513 35.8123 32.7074 36.0369C32.7568 36.0666 32.7717 36.0666 32.7822 36.0637C32.7942 36.0562 32.7942 36.0265 32.7478 35.9223C32.661 35.7319 32.5907 35.5757 32.5188 35.4269C32.3348 35.0282 32.1777 34.6861 31.856 33.9452C31.3054 32.691 32.1328 31.916 32.447 31.6258C32.4665 31.6065 32.4814 31.5916 32.4964 31.5812C32.5188 31.5589 32.5413 31.5396 32.5563 31.5217C32.6311 31.4503 32.673 31.4131 32.7029 31.3506C32.7298 31.2911 32.7223 31.2316 32.676 31.1944C32.6385 31.1602 32.5787 31.1423 32.5188 31.1751C32.4994 31.187 32.1927 31.3238 32.1897 31.3238C31.3892 31.6779 30.7263 31.9041 29.4455 31.6035C29.3483 31.5812 29.2615 31.5515 29.1867 31.5247C29.1268 31.5053 29.0774 31.4875 29.0325 31.4756C28.9652 31.4607 28.9203 31.4607 28.8979 31.4801C28.8784 31.4949 28.871 31.5247 28.871 31.5693C28.871 31.6735 28.9054 31.8564 28.9577 32.0677C28.9697 32.1094 28.9622 32.1495 28.9353 32.1867C28.8111 32.3697 28.265 32.459 27.7188 32.5363C27.659 32.5438 27.6021 32.5512 27.5542 32.5586C27.0006 32.6449 26.7986 33.0496 26.649 33.6833C26.5592 34.0627 26.4246 35.1755 26.4246 35.3957C26.4246 35.4522 26.462 35.5043 26.5113 35.5222C26.5637 35.5415 26.6206 35.5266 26.6684 35.4731C26.6879 35.4507 26.7283 35.3838 26.7777 35.2975C27.0171 34.8914 27.5707 33.9422 28.3353 33.8351C28.8485 33.7607 30.1323 33.7979 30.4136 33.8277C30.4405 33.8321 30.466 33.847 30.4779 33.8723C30.4899 33.8946 30.4899 33.9214 30.4734 33.9437C30.3986 34.0895 30.0874 34.4317 28.9757 34.5239L28.9727 34.5254ZM40.3503 35.7319C40.271 35.7319 40.1887 35.6754 40.1184 35.5787C39.9463 35.3362 39.7593 35.0163 39.6201 34.7828L39.5857 34.7262C39.5812 34.7188 39.5782 34.7114 39.5707 34.6994C39.4959 34.5432 39.4914 34.4272 39.5663 34.3201C39.6381 34.2115 39.9149 33.7503 39.9822 33.609C40.054 33.4557 40.1363 33.4304 40.1962 33.4379C40.3383 33.4498 40.4476 33.661 40.5029 33.8544C40.6226 34.2829 40.6496 34.9747 40.5927 35.354C40.5583 35.5742 40.491 35.7007 40.3862 35.726C40.3742 35.7304 40.3593 35.7304 40.3488 35.7304L40.3503 35.7319ZM40.054 33.6432C39.9867 33.7845 39.7054 34.2502 39.6306 34.3617C39.5737 34.4436 39.5737 34.5373 39.6381 34.6667C39.6426 34.6742 39.6456 34.6816 39.6501 34.6861L39.6845 34.7456C39.8191 34.9762 40.0062 35.296 40.1782 35.5385C40.2381 35.6248 40.3129 35.6694 40.3698 35.6575C40.4416 35.6382 40.4939 35.5311 40.5194 35.3481C40.5718 34.9836 40.5493 34.2903 40.4326 33.8782C40.3727 33.6729 40.2755 33.5242 40.1932 33.5167C40.1333 33.5093 40.084 33.5837 40.054 33.6432ZM30.7293 29.6784C30.6021 29.6784 30.4256 29.6368 30.2011 29.5029C30.1114 29.4464 30.0321 29.3913 29.9647 29.3422C29.6505 29.1146 29.4934 29.003 28.8231 29.5356C28.8186 29.5401 28.7034 29.6293 28.5867 29.6546C28.5193 29.6695 28.455 29.6591 28.4146 29.6204C28.3877 29.5936 28.3577 29.549 28.3697 29.4642C28.3921 29.2857 28.4744 29.1027 28.5612 28.9093C28.633 28.7457 28.7079 28.5775 28.7557 28.396C28.8605 28.0762 28.9128 27.5778 28.9622 27.0973C28.9817 26.9068 29.0041 26.7134 29.0266 26.5349C29.0685 26.2106 29.1956 26.0618 29.4455 26.0321C29.5922 26.0202 29.7792 26.1109 29.872 26.6197C30.0889 28.0345 30.4705 28.4838 30.7772 28.8453C30.8595 28.942 30.9388 29.0358 31.0061 29.1354C31.0136 29.1473 31.0181 29.1548 31.0256 29.1652C31.063 29.2366 31.1827 29.4553 30.9956 29.6011C30.9732 29.616 30.8909 29.6755 30.7293 29.6755V29.6784ZM29.5532 29.0834C29.7223 29.0834 29.8495 29.1726 30.0066 29.2842C30.0739 29.3333 30.1488 29.3883 30.2385 29.4404C30.6171 29.668 30.8565 29.616 30.9418 29.549C31.036 29.4746 31.039 29.366 30.9538 29.2068C30.9493 29.1994 30.9463 29.192 30.9388 29.1845C30.8745 29.0834 30.7966 28.9941 30.7144 28.9019C30.4001 28.5329 30.0141 28.0762 29.7897 26.6391C29.7253 26.285 29.6026 26.099 29.4455 26.1139C29.2315 26.1407 29.1313 26.2671 29.0939 26.5528C29.0714 26.7313 29.052 26.9247 29.0296 27.1151C28.9802 27.5986 28.9278 28.1015 28.8201 28.4288C28.7707 28.6147 28.6959 28.7858 28.6211 28.9495C28.5388 29.1399 28.4595 29.314 28.437 29.4821C28.4325 29.5237 28.4415 29.5535 28.4595 29.5713C28.4819 29.5936 28.5238 29.5981 28.5687 29.5907C28.666 29.5684 28.7752 29.4865 28.7752 29.4865C29.1418 29.189 29.3737 29.0848 29.5532 29.0848V29.0834Z" fill="url(#paint1_linear_4866_19037)"/>
<path d="M31.9308 51.5269C31.455 51.5269 31.0435 51.3588 30.3582 50.8901C24.9298 46.915 20.9691 42.4296 18.24 37.1735C16.7616 34.326 15.635 31.1959 14.8823 27.8679C14.0968 24.3763 13.6988 20.5424 13.6988 16.4661C13.6988 15.5809 13.8185 14.9591 14.0729 14.5113C14.3197 14.0754 14.7207 13.7481 15.3761 13.4461C17.42 12.5907 19.8305 11.9093 22.5447 11.4243C25.4834 10.8962 28.6435 10.6313 31.9293 10.6313C35.2151 10.6313 38.3752 10.8962 41.3139 11.4198C44.0281 11.9033 46.4386 12.5817 48.4795 13.4416C49.1349 13.7436 49.5389 14.0739 49.7857 14.5098C50.0401 14.9561 50.1598 15.578 50.1598 16.4646C50.1598 20.541 49.7633 24.3777 48.9762 27.8664C48.2281 31.1944 47.0969 34.3245 45.6186 37.172C42.8894 42.4281 38.9288 46.9135 33.5004 50.8887C32.8151 51.3573 32.4036 51.5254 31.9278 51.5254L31.9308 51.5269ZM31.9308 10.7831C28.651 10.7831 25.5028 11.0479 22.5716 11.5686C19.8694 12.0491 17.4694 12.726 15.436 13.5785C14.815 13.8656 14.432 14.1736 14.2 14.5842C13.9606 15.0082 13.8484 15.6077 13.8484 16.4676C13.8484 20.532 14.2449 24.3584 15.0275 27.8352C15.7756 31.1513 16.8993 34.271 18.3701 37.1066C21.0874 42.3403 25.0375 46.8109 30.4435 50.7711C31.0944 51.2219 31.4849 51.3781 31.9293 51.3781C32.3737 51.3781 32.7597 51.2174 33.4151 50.7681C38.8211 46.8109 42.7697 42.3403 45.4885 37.1036C46.9593 34.2665 48.086 31.1483 48.8311 27.8322C49.6137 24.3525 50.0102 20.5291 50.0102 16.4646C50.0102 15.6047 49.8979 15.0052 49.6585 14.5812C49.4266 14.1751 49.0451 13.8626 48.4226 13.5755C46.3937 12.7231 43.9937 12.0491 41.2914 11.5656C38.3558 11.0479 35.2076 10.7846 31.9293 10.7846L31.9308 10.7831Z" fill="url(#paint2_linear_4866_19037)"/>
<path d="M31.9308 52.1978C31.2156 52.1978 30.65 51.9077 29.9692 51.4391L29.9647 51.4346C24.451 47.3955 20.4185 42.8327 17.64 37.4844C16.1347 34.5879 14.9856 31.4027 14.2255 28.0181C13.428 24.4789 13.024 20.593 13.024 16.4676C13.024 14.4875 13.5671 13.5338 15.1023 12.8317L15.1068 12.8272C17.1956 11.9494 19.6584 11.2532 22.425 10.7608C25.4056 10.2326 28.6016 9.96484 31.9308 9.96484C35.26 9.96484 38.456 10.2326 41.4366 10.7652C44.2032 11.2562 46.666 11.9524 48.7548 12.8317L48.7593 12.8361C50.29 13.5398 50.8376 14.489 50.8376 16.4691C50.8376 20.593 50.4336 24.4789 49.6361 28.0196C48.873 31.4027 47.7224 34.5893 46.2216 37.4859C43.4446 42.8387 39.4121 47.4015 33.8969 51.4361L33.8924 51.4406C33.2116 51.9092 32.646 52.1993 31.9308 52.1993V52.1978ZM30.1862 51.1326C30.9268 51.6429 31.3847 51.8244 31.9308 51.8244C32.4769 51.8244 32.9348 51.6414 33.6755 51.1326C39.1413 47.1307 43.1363 42.6081 45.8865 37.3118C47.3768 34.4421 48.5139 31.2851 49.271 27.9348C50.0611 24.4253 50.4621 20.5647 50.4621 16.4661C50.4621 14.6422 49.9937 13.8091 48.6052 13.1723C46.5418 12.305 44.1059 11.6207 41.3692 11.1327C38.4111 10.6046 35.2376 10.3368 31.9308 10.3368C28.6241 10.3368 25.4505 10.6046 22.4924 11.1297C19.7527 11.6177 17.3183 12.3065 15.2564 13.1694C13.8679 13.8091 13.3996 14.6392 13.3996 16.4676C13.3996 20.5662 13.8005 24.4253 14.5906 27.9363C15.3462 31.2896 16.4848 34.4465 17.9751 37.3133C20.7268 42.6096 24.7173 47.1322 30.1862 51.1341V51.1326Z" fill="url(#paint3_linear_4866_19037)"/>
<path d="M15.6634 19.4458V14.7476L16.401 14.517V18.5115C16.7078 18.4103 17.1492 18.2764 17.5203 18.1723L17.5696 18.1574L17.5352 18.8641L17.5083 18.8715C17.2719 18.9429 16.4414 19.1884 15.7083 19.422L15.6634 19.4443V19.4458ZM15.7382 14.8041V19.3416C16.434 19.1185 17.2016 18.8879 17.4634 18.8135L17.4903 18.2631C17.1118 18.3717 16.6704 18.5055 16.3741 18.6022L16.3247 18.6171V14.6226L15.7367 14.8056L15.7382 14.8041ZM48.1952 19.4413L47.4471 19.2107V14.5587L48.1952 14.7893V19.4413ZM47.5249 19.1587L48.1234 19.3446V14.8443L47.5249 14.6583V19.1587ZM46.6974 18.9801L45.9194 18.7599L44.7134 15.4171C44.6865 15.3457 44.664 15.2757 44.6416 15.2043C44.6416 15.2906 44.6461 15.3724 44.6461 15.4498V18.4237L43.9982 18.2675V13.6303L44.8735 13.8386L44.881 13.858L45.9852 16.9851C46.0122 17.0595 46.0301 17.1264 46.0526 17.1979V14.16L46.6929 14.3429L46.6974 18.9801ZM45.9792 18.7004L46.6226 18.8834V14.398L46.1318 14.2567V17.8405L46.057 17.5088C46.0121 17.3079 45.9747 17.1741 45.9179 17.0059L44.8211 13.9011L44.076 13.7255V18.211L44.5742 18.33V15.4528C44.5742 15.3665 44.5742 15.2817 44.5698 15.1924C44.5653 15.0957 44.5653 14.9916 44.5653 14.883V14.5185L44.6401 14.8755C44.685 15.0883 44.7298 15.2326 44.7867 15.3933L45.9777 18.6989L45.9792 18.7004ZM17.7327 18.8239L18.9043 13.8624L19.7946 13.6393L20.9736 18.0206L20.2135 18.1916L19.9442 17.1413L18.7352 17.4433L18.4809 18.6201L17.7327 18.8254V18.8239ZM18.9686 13.9249L17.8375 18.7198L18.418 18.5591L18.6724 17.3823L19.9981 17.0506L20.2674 18.1039L20.8809 17.9655L19.7422 13.73L18.9671 13.9234L18.9686 13.9249ZM43.2456 18.1009L42.4899 17.9298V13.2956L43.2456 13.4488V18.1009ZM42.5648 17.8733L43.1707 18.0116V13.5083L42.5648 13.3849V17.8733ZM21.2714 17.9625V13.3105L22.2066 13.1275L22.9098 15.487C22.9293 15.551 22.9472 15.6254 22.9667 15.7072C22.9891 15.6105 23.0115 15.5242 23.034 15.4498L23.7417 12.8671L24.6515 12.7333V17.3704L23.9587 17.4746V14.2358C23.9512 14.2626 23.9437 14.2849 23.9392 14.3072L22.9846 17.7171L22.8948 17.7319L21.9597 14.6271C21.9552 14.6122 21.9522 14.6003 21.9477 14.5854V17.8272L21.2699 17.961L21.2714 17.9625ZM21.3462 13.37V17.8703L21.8744 17.7691V14.6539C21.8744 14.5304 21.8744 14.3787 21.8669 14.2403L21.9417 14.2284C21.9687 14.3668 21.9986 14.4887 22.036 14.6078L22.9412 17.6085L23.8734 14.2849C23.9108 14.1466 23.9482 13.9904 23.9826 13.8565L24.0574 13.8684C24.05 13.9874 24.0425 14.1585 24.0425 14.2968V17.3868L24.5856 17.305V12.824L23.8106 12.9356L23.1148 15.4706C23.0849 15.5867 23.0475 15.7384 23.0056 15.8991L22.9607 16.0851L22.9308 15.8946C22.9083 15.7488 22.8784 15.612 22.8485 15.5078L22.1632 13.2108L21.3477 13.3715L21.3462 13.37ZM41.7149 17.784L40.9593 17.6457V15.6015L39.7682 15.4081V17.4523L39.0126 17.3511V12.699L39.7682 12.8181V14.761L40.9593 14.9544V13.0115L41.7149 13.1379V17.7825V17.784ZM41.0341 17.5861L41.6401 17.6947V13.2019L41.0341 13.0977V15.0407L39.6934 14.8205V12.8776L39.0874 12.7809V17.2812L39.6934 17.363V15.3233L41.0341 15.5435V17.5876V17.5861ZM25.419 17.2737V12.6321L26.7747 12.4759C27.2385 12.4238 27.5871 12.4982 27.8161 12.699C28.0106 12.8701 28.1078 13.1275 28.1078 13.4652V13.9338C28.1078 14.2656 27.9807 14.4962 27.7263 14.6375C28.033 14.7342 28.1871 14.9767 28.1871 15.3635V15.9631C28.1871 16.64 27.7981 17.0164 26.9961 17.1056L25.4205 17.2737H25.419ZM25.4939 12.6961V17.1919L26.9797 17.0283C27.7472 16.939 28.1063 16.5998 28.1063 15.9601V15.3605C28.1063 14.9618 27.9447 14.7461 27.6051 14.6836L27.4809 14.6613L27.5976 14.6122C27.8939 14.4887 28.0315 14.273 28.0315 13.9309V13.4622C28.0315 13.1453 27.9417 12.9073 27.7652 12.7511C27.5557 12.5651 27.2265 12.4937 26.7836 12.5458L25.4924 12.6946L25.4939 12.6961ZM37.0361 17.1845C36.5947 17.1845 36.1937 17.0431 35.9049 16.7858C35.5862 16.4986 35.4216 16.0791 35.4216 15.5718V13.797C35.4216 12.9296 35.9453 12.3717 36.7577 12.3717C37.6974 12.3717 38.3453 13.0263 38.3707 14.0052V14.0499L37.6076 13.9561V13.9219C37.6001 13.5009 37.3533 13.0769 36.8176 13.0769C36.4211 13.0769 36.1742 13.3596 36.1742 13.8133V15.6328C36.1742 16.1579 36.4809 16.4852 36.9792 16.4852C37.3907 16.4852 37.6046 16.2472 37.6046 15.8009V15.1344L36.9493 15.063V14.3965L38.3677 14.5602V15.8143C38.3722 16.6846 37.8844 17.18 37.0346 17.18L37.0361 17.1845ZM36.7592 12.4461C35.9917 12.4461 35.4979 12.9787 35.4979 13.797V15.5718C35.4979 16.2829 35.9019 17.1086 37.0361 17.1086C37.8366 17.1086 38.2974 16.64 38.2974 15.8173V14.6301L37.0286 14.4843V15.002L37.6839 15.0734V15.8069C37.6839 16.2978 37.4326 16.5656 36.9837 16.5656C36.448 16.5656 36.1039 16.2011 36.1039 15.6387V13.8193C36.1039 13.3239 36.3852 13.0085 36.8221 13.0085C37.3203 13.0085 37.6645 13.3626 37.6869 13.8937L38.2974 13.968C38.2525 13.0412 37.654 12.4461 36.7592 12.4461ZM30.1517 16.9866C29.2615 16.9866 28.7333 16.4466 28.7333 15.542V13.7523C28.7333 12.8061 29.3288 12.1709 30.2161 12.1709C31.1034 12.1709 31.6495 12.7407 31.6495 13.6601V15.4498C31.6495 16.3841 31.0615 16.9866 30.1517 16.9866ZM30.2161 12.2483C29.3632 12.2483 28.8081 12.8404 28.8081 13.7553V15.545C28.8081 16.4004 29.3093 16.9152 30.1517 16.9152C30.9941 16.9152 31.5747 16.3573 31.5747 15.4558V13.6616C31.5747 12.7764 31.0689 12.2468 30.2161 12.2468V12.2483ZM35.0759 16.9643L34.253 16.9226L33.4675 14.8488L33.0665 14.8339V16.878L32.3034 16.8706V12.2334H32.3408C32.7597 12.2334 33.3672 12.2408 33.7113 12.2557C34.5238 12.2974 34.9203 12.6648 34.9203 13.3834V13.7895C34.9203 14.3072 34.6809 14.642 34.2246 14.761L35.0774 16.9643H35.0759ZM34.3054 16.8527L34.9637 16.8869L34.1183 14.7134L34.1602 14.7015C34.6136 14.5973 34.841 14.2924 34.841 13.794V13.3849C34.841 12.7154 34.47 12.3688 33.7024 12.3316C33.3687 12.3167 32.7896 12.3093 32.3737 12.3093V16.7977L32.9872 16.8051V14.761L33.5153 14.7803L34.3054 16.8542V16.8527ZM18.7951 16.8304L19.3262 14.4144L19.8769 16.5626L18.7951 16.8304ZM19.3337 14.7387L18.8953 16.7307L19.7901 16.5076L19.3337 14.7402V14.7387ZM26.1103 16.5805V15.0466L26.8779 14.9752C27.1173 14.9529 27.2744 14.9827 27.3687 15.0719C27.451 15.1463 27.4884 15.2653 27.4884 15.4439V15.9571C27.4884 16.2993 27.3043 16.4704 26.8974 16.5076L26.1118 16.579L26.1103 16.5805ZM26.1851 15.1136V16.4986L26.8929 16.4317C27.2639 16.3945 27.4136 16.2561 27.4136 15.9556V15.4424C27.4136 15.2862 27.3836 15.185 27.3163 15.1255C27.237 15.0541 27.0993 15.0288 26.8824 15.0466L26.1866 15.1136H26.1851ZM30.1802 16.3647C29.7014 16.3647 29.4245 16.0598 29.4245 15.5272V13.6705C29.4245 13.1453 29.7388 12.7957 30.2026 12.7957C30.6664 12.7957 30.9657 13.1052 30.9657 13.6259V15.4825C30.9657 16.033 30.6694 16.3647 30.1802 16.3647ZM30.2026 12.8701C29.7836 12.8701 29.4994 13.19 29.4994 13.6705V15.5272C29.4994 16.0181 29.7433 16.2904 30.1802 16.2904C30.6171 16.2904 30.8909 15.9883 30.8909 15.4825V13.6214C30.8909 13.1453 30.6395 12.8701 30.2026 12.8701ZM26.1103 14.5854V13.1602L26.7911 13.0858C27.0305 13.0591 27.1921 13.0903 27.2894 13.1796C27.3717 13.2539 27.4136 13.37 27.4136 13.5366V13.9502C27.4136 14.3147 27.237 14.4783 26.8001 14.5155L26.1118 14.5869L26.1103 14.5854ZM26.1851 13.2272V14.5036L26.7911 14.4471C27.2445 14.4054 27.3373 14.2269 27.3373 13.9561V13.5396C27.3373 13.3938 27.3073 13.2971 27.24 13.2376C27.1577 13.1632 27.0156 13.1409 26.7986 13.1632L26.1851 13.2272ZM33.7054 14.2775H33.653L32.9901 14.2507V12.8404L33.6784 12.8671C34.045 12.882 34.2246 13.0531 34.2246 13.3878V13.794C34.2246 13.9576 34.1827 14.0737 34.0974 14.1555C34.0106 14.2373 33.8804 14.279 33.7039 14.279L33.7054 14.2775ZM33.065 14.1808L33.656 14.2031C33.84 14.2105 33.9672 14.1763 34.0495 14.1019C34.1168 14.035 34.1513 13.9338 34.1513 13.7925V13.3834C34.1513 13.0888 34.0046 12.9519 33.6754 12.9371L33.065 12.9148V14.1808Z" fill="url(#paint4_linear_4866_19037)"/>
<path d="M43.883 32.2239C43.8485 32.2433 43.6435 32.34 43.5867 32.3623C43.1707 32.5482 42.7967 32.5155 42.3777 32.273C42.0785 32.0975 41.8016 31.7107 41.6924 31.5768C41.6056 31.4682 41.5009 31.3313 41.3513 31.1974C41.0745 30.9475 40.7004 30.7883 40.0525 30.7987C40.0001 30.7987 39.9478 30.7868 39.9029 30.7645C39.2475 30.4178 38.1178 29.9983 37.039 30.0534C36.8251 30.0682 36.7951 29.912 36.7248 29.7409C36.5303 29.2202 36.3837 28.9777 36.2535 28.7873C36.0844 28.5448 36.0096 28.5448 35.8675 28.5047C35.7103 28.46 35.5413 28.4451 35.4365 28.2622C35.4246 28.2398 35.3722 28.1431 35.4291 28.0762C35.5712 27.9081 35.9677 27.682 35.3722 27.3472C35.0086 27.1419 35.1702 27.0125 35.23 26.9783C35.3123 26.9336 35.459 26.8994 35.631 26.9366C35.8031 26.9708 36.0051 27.075 36.1996 27.3011C36.3941 27.5287 37.0525 28.585 37.4505 29.3898C37.455 29.4017 37.4655 29.4568 37.5373 29.4642C37.6495 29.4761 37.841 29.4761 37.8784 29.4791C37.9383 29.4836 37.9428 29.4345 37.9353 29.4151C37.3697 27.5466 36.7188 25.2198 35.5877 23.6012C35.5652 23.5565 35.5832 23.5045 35.655 23.5119C36.6665 23.6161 36.9612 25.0457 37.5537 25.9875C38.3138 27.197 38.7627 26.7239 38.8345 25.9056C38.8839 25.3358 38.7328 24.6098 38.3333 24.2052C38.239 24.0891 38.0715 23.9448 37.9996 23.8585C37.9727 23.8288 37.9697 23.7767 38.037 23.7574C38.064 23.7499 38.1044 23.7455 38.1567 23.7499C38.6251 23.7871 39.273 24.1635 39.5453 24.5801C40.1064 25.44 40.0615 25.9012 39.9867 26.2061C39.855 26.7268 39.6126 27.0289 39.9149 27.8516C40.5178 29.4821 40.3607 29.1429 40.0166 30.1664C39.9867 30.2453 40.0361 30.3048 40.1034 30.2973C40.8889 30.2259 41.1298 30.4015 41.3019 30.4952C41.3213 30.5026 41.3363 30.5175 41.3468 30.5175C41.3767 30.5056 41.3887 30.4684 41.3917 30.4164C41.456 29.9775 41.3647 29.7915 41.2645 29.5312C41.2046 29.3779 41.1373 29.2068 41.1179 29.0402C41.0834 28.8245 41.1223 28.7055 41.1897 28.5448C41.3019 28.2696 41.3662 28.0569 41.2765 27.6477C41.0775 26.7774 40.3592 25.3433 39.9029 24.5206C39.8655 24.4492 39.5513 23.8615 39.5019 23.7723C39.4675 23.7128 39.4824 23.6413 39.5094 23.5863C39.5318 23.5417 39.5662 23.4479 39.5662 23.4479C39.6755 23.1727 39.7353 22.96 39.7652 22.719C39.87 21.9379 39.6635 21.383 39.0994 20.9218C38.5712 20.4904 37.636 20.3 36.3852 20.3714L36.1263 20.3862C34.9502 20.4532 33.6186 20.5276 32.6116 20.4458C31.642 20.3669 31.0734 20.2107 30.8789 19.9771C30.8146 19.9027 30.7891 19.8165 30.7996 19.7123C30.822 19.504 30.9492 19.2913 31.1512 19.1395C31.3233 19.0057 31.5298 18.9342 31.6749 18.9566C31.9368 18.9685 32.2211 19.1128 32.5547 19.2839C32.851 19.4371 33.1876 19.6082 33.5812 19.7198C33.9148 19.8135 34.2395 19.8581 34.5552 19.8462C34.8515 19.8343 35.1433 19.7718 35.4201 19.6632C35.5368 19.6141 35.6221 19.5621 35.6595 19.5293C35.6789 19.5145 35.6864 19.4802 35.664 19.4505C35.649 19.4311 35.634 19.4311 35.5742 19.4311C35.1582 19.4311 34.7842 19.3642 34.5477 19.3121C34.2859 19.2452 34.2635 19.1857 34.2664 19.1589C34.2739 19.1024 34.4086 19.0503 34.5657 19.0428C35.3363 19.0086 35.9243 19.0503 36.3133 19.0771C36.448 19.089 36.5527 19.0919 36.6276 19.0964H36.8116C36.834 19.0919 36.8415 19.0771 36.8415 19.0741C36.846 19.0592 36.837 19.0399 36.8296 19.0324C36.5602 18.8093 35.6759 18.4745 34.6689 18.296C33.0515 18.0089 31.9667 18.2439 31.3413 18.4894C31.2171 18.5385 30.8954 18.6754 30.6111 18.8956C30.2969 19.1381 30.1203 19.4014 30.0904 19.6766C30.0485 20.0485 30.3193 20.5291 31.85 20.7046C33.4704 20.8906 34.9876 20.8653 36.3238 20.843C36.463 20.8385 36.6006 20.8385 36.7353 20.8355C37.5807 20.8236 38.3004 21.026 38.6071 21.3681C38.9632 21.7594 38.9812 22.2875 38.8914 22.6148C38.8645 22.7115 38.8121 22.8529 38.7493 22.9466C38.652 23.0775 38.5473 23.1177 38.3483 23.0656C37.7228 22.902 36.6081 22.5375 36.065 22.3545C35.5817 22.1938 35.2046 22.0644 34.8784 21.9855C33.9193 21.7505 33.6201 21.9067 32.9767 22.3098C32.8226 22.4065 32.6625 22.5152 32.4829 22.6371C32.2166 22.8157 31.9218 23.0165 31.5208 23.2664C31.2814 23.4152 30.9672 23.5863 30.6335 23.7693C30.2924 23.9553 29.9452 24.1457 29.5996 24.3495C28.4983 24.9937 28.3233 25.8536 28.1213 26.8503C27.9747 27.557 27.8146 28.3618 27.2714 29.1726C27.2116 29.2619 26.7402 29.8317 26.6385 29.9909C26.2674 30.586 26.0654 31.1007 26.1447 31.9636C26.2046 32.6077 25.9801 33.1731 25.7662 33.7161C25.5971 34.1445 25.437 34.5462 25.4101 34.9821C25.3906 35.2499 25.3981 35.4998 25.4101 35.7409C25.425 36.1425 25.4325 36.5412 25.3083 36.8879C25.214 37.1527 24.9746 37.416 24.8819 37.6734C24.7622 38.0051 24.6799 38.4738 24.6799 38.9052C24.6724 39.2697 24.3986 39.5375 24.1113 39.8201C23.8569 40.0701 23.5906 40.3334 23.4933 40.6726C23.4814 40.7172 23.4709 40.7514 23.4559 40.7812C23.429 40.8229 23.3916 40.8481 23.3437 40.8824C23.2465 40.9493 23.1297 41.043 22.9996 41.2989C22.8903 41.5146 22.9203 41.9014 23.022 42.0919C23.037 42.1216 23.0819 42.1886 23.1462 42.196C23.1911 42.2005 23.236 42.1767 23.2809 42.1246C23.2809 42.1246 23.5622 41.8003 23.6699 41.7036C23.7073 41.6694 23.7522 41.6768 23.7791 41.6961C23.809 41.7185 23.8165 41.7601 23.7986 41.8003C23.7866 41.8226 23.619 42.1246 23.5173 42.3775L23.5128 42.3849C23.4978 42.4221 23.4829 42.4668 23.5053 42.504C23.5278 42.5412 23.5846 42.5605 23.6774 42.5679C23.7193 42.5679 23.7597 42.5724 23.7971 42.5724C24.3178 42.5724 24.5901 42.434 24.7322 42.312C24.7891 42.2525 24.7996 42.2302 24.8145 42.1856C24.819 42.1737 24.8265 42.1633 24.834 42.1484C24.9387 41.8687 25.0105 41.5489 25.018 41.3108C25.018 41.2097 25.048 41.1799 25.1198 41.11C25.3936 40.8348 25.3936 40.4703 25.3936 40.1192C25.3936 39.7948 25.3936 39.4601 25.6076 39.1998C26.1911 38.5526 26.4948 37.7924 26.7866 37.059C27.0904 36.3032 27.4001 35.5222 28.0225 34.8661C28.1796 34.7054 28.3338 34.6206 28.434 34.6355C28.4834 34.6429 28.5238 34.6727 28.5507 34.7292C28.6824 34.9747 28.645 35.302 28.6031 35.6189C28.5582 35.9759 28.5163 36.3181 28.7078 36.5383C28.835 36.7019 28.8694 36.8775 28.8096 37.0411C28.7273 37.3015 28.4804 38.0914 27.8849 38.441C27.8699 38.4485 27.7128 38.5601 27.6634 38.6091C27.6365 38.6359 27.6185 38.6687 27.5961 38.7058C27.5437 38.7996 27.4794 38.9141 27.2744 38.9736C27.05 39.0302 26.8405 39.1641 26.7283 39.3232C26.414 39.7621 26.429 40.3096 26.4589 40.4658C26.4709 40.5253 26.4934 40.6071 26.5487 40.686C26.5861 40.7351 26.628 40.7648 26.6684 40.7678C26.7028 40.7723 26.7402 40.7633 26.7732 40.7381C26.8061 40.7128 26.848 40.6637 26.9003 40.6042C26.9826 40.5104 27.0844 40.3959 27.2071 40.3022C27.249 40.2724 27.2894 40.2798 27.3118 40.2947C27.3343 40.3096 27.3462 40.3364 27.3387 40.3587C27.3268 40.4003 27.2894 40.4599 27.2415 40.5342C27.1816 40.6309 27.1023 40.75 27.047 40.8883C27.032 40.9181 27.032 40.9478 27.0395 40.9746C27.0589 41.0163 27.0993 41.0311 27.1113 41.0341C27.4899 41.1531 28.051 41.0118 28.3697 40.7172C28.5268 40.5685 28.6061 40.3751 28.6061 40.1177C28.6061 40.0537 28.636 39.954 28.7033 39.8871C28.9248 39.6967 29.0175 39.4036 29.1148 39.0912C29.1373 39.0168 29.1642 38.9379 29.1866 38.8635C29.2884 38.569 29.4185 38.3161 29.7402 38.0379C30.1562 37.6511 30.3432 37.2866 30.4629 37.0619C30.5826 36.8194 30.6096 36.6855 30.6994 36.5442C30.8714 36.272 31.4595 36.2199 31.6734 36.3463C31.7632 36.3984 31.7826 36.4728 31.7333 36.5621C31.6989 36.6216 31.3921 37.117 31.247 37.4591C31.1752 37.6273 31.0151 37.6868 30.9178 37.7418C30.3373 38.081 30.2325 38.7133 30.2146 38.9736C30.2101 39.0555 30.2191 39.1641 30.2594 39.2236C30.2819 39.2578 30.3163 39.2801 30.3537 39.2875C30.3911 39.295 30.4285 39.2831 30.4629 39.2578C30.4974 39.2325 30.8116 38.9156 30.849 38.8859C30.9013 38.8412 30.9462 38.8487 30.9687 38.8665C30.9956 38.8888 31.0031 38.9305 30.9732 38.9781C30.9283 39.0421 30.7113 39.3649 30.7368 39.4393C30.7787 39.5583 30.9013 39.5583 31.0255 39.5583C32.022 39.472 32.3737 38.7698 32.3737 38.7698C32.3961 38.7282 32.426 38.6731 32.4111 38.5273C32.3812 38.2625 32.3213 37.3476 32.8525 36.7778C33.0096 36.6022 33.1039 36.7212 33.1413 36.8001C33.2056 36.9414 33.3029 37.1839 33.3552 37.3029C33.4719 37.5603 33.5497 37.7537 33.6814 38.0066C33.9058 38.4381 34.2395 38.4976 34.6555 38.4455C35.1941 38.3786 35.5652 38.4232 35.9243 38.4574C36.231 38.4842 36.4001 38.502 36.6246 38.2967C36.7488 38.1852 36.9837 37.9798 37.1408 37.7567C37.2425 37.6154 37.2724 37.5261 37.2455 37.3059C37.1707 36.2035 37.7468 35.2514 38.7837 34.7486C38.9408 34.6846 39.1129 34.7039 39.2176 34.8453C39.4495 35.1874 39.9927 36.0667 39.9927 36.815C39.9927 36.8864 39.9657 36.9637 39.9328 37.053C39.858 37.2583 39.7682 37.5112 39.9373 37.8564C39.9493 38.1539 39.8356 38.389 39.7383 38.5972C39.5991 38.8918 39.4869 39.1224 39.87 39.353C39.9792 39.417 40.1169 39.4765 40.3009 39.5315C40.3129 39.536 40.3233 39.536 40.3308 39.536C40.3458 39.536 40.3607 39.5315 40.3727 39.5241C40.3877 39.5166 40.3952 39.5018 40.3952 39.4899C40.4071 39.4036 40.4176 39.1031 40.4326 39.0317C40.44 39.0019 40.455 38.9677 40.4849 38.9677C40.5149 38.9677 40.5448 38.99 40.5568 39.0168C40.5867 39.0882 40.666 39.3813 40.6884 39.4259C40.7079 39.4676 40.7303 39.4928 40.7602 39.5003C40.9144 39.5449 41.1238 39.2801 41.2016 39.1462C41.3363 38.8665 41.2809 38.4544 41.0595 38.0929C41.0251 38.0215 41.0221 37.9962 41.0221 37.9322C41.1044 37.6049 41.0445 37.4368 40.9802 37.2628C40.9428 37.1616 40.9084 37.0545 40.8904 36.9132C40.8306 36.3954 41.1493 34.7575 41.1792 34.5909C41.2316 34.2859 41.2765 34.0702 41.2989 33.847C41.3183 33.6313 41.2271 33.3784 41.0775 33.2147C40.9383 33.066 40.7707 32.9321 40.6091 32.8011C40.467 32.6851 40.3323 32.578 40.2201 32.4664C40.0405 32.2834 39.9837 32.0201 39.9882 31.9457C39.9882 31.9264 39.9927 31.9115 40.0001 31.9041C40.0046 31.8996 40.0151 31.8966 40.0271 31.8966C40.274 31.916 40.4685 32.0751 40.7198 32.2804C40.9413 32.4634 41.1957 32.6717 41.5473 32.8279C42.2475 33.1374 42.9104 33.0927 43.5762 32.6896C43.8605 32.4887 43.9473 32.3176 43.9623 32.2953C44.0116 32.2611 43.9847 32.1718 43.9024 32.2209L43.883 32.2239ZM28.3996 29.4776C28.4415 29.1578 28.6764 28.8156 28.7811 28.4169C28.9308 27.9661 28.9727 27.1776 29.0505 26.5483C29.0924 26.2359 29.2121 26.105 29.4365 26.0752C29.5861 26.0604 29.7432 26.1913 29.8225 26.6331C30.0994 28.4377 30.6455 28.6876 30.9642 29.1637C30.9717 29.1711 30.9762 29.183 30.9792 29.1905C31.0614 29.3393 31.0884 29.4806 30.9597 29.5818C30.8849 29.6413 30.638 29.7305 30.2146 29.4776C29.7088 29.1726 29.631 28.8483 28.7916 29.5148C28.7916 29.5148 28.6794 29.6011 28.5702 29.6264C28.4834 29.6457 28.3831 29.607 28.3981 29.4776H28.3996ZM32.7986 36.0964C32.7687 36.1158 32.7343 36.1039 32.6864 36.0696C32.3527 35.8569 31.428 35.6903 30.65 36.0027C29.8495 36.3225 29.1118 36.7733 29.0624 35.9833C29.0505 35.2841 29.2016 34.9777 28.9577 34.5611C28.9577 34.5611 28.9457 34.5462 28.9353 34.5313C28.9128 34.4971 28.9397 34.4897 28.9472 34.4897C30.0739 34.4004 30.3777 34.0508 30.445 33.9273C30.46 33.9006 30.4405 33.8708 30.4106 33.8678C30.1517 33.8381 28.8604 33.8009 28.3397 33.8753C27.427 34.0062 26.8121 35.3749 26.6924 35.5058C26.5532 35.6546 26.3811 35.54 26.3811 35.4046C26.3811 35.177 26.5158 34.0687 26.6056 33.6848C26.7477 33.0779 26.9467 32.6241 27.5407 32.5348C27.9597 32.4709 28.9861 32.3638 28.9143 32.0885C28.8545 31.8609 28.8275 31.6824 28.8245 31.5827C28.8245 31.4488 28.8919 31.422 29.031 31.4518C29.1328 31.4741 29.2674 31.5336 29.4425 31.5753C30.7338 31.8773 31.3936 31.6392 32.1642 31.2956C32.1866 31.2837 32.4709 31.1572 32.4904 31.1468C32.6295 31.068 32.8046 31.2108 32.7268 31.3744C32.6849 31.4607 32.6295 31.5009 32.5128 31.6169C32.2585 31.8594 31.3113 32.633 31.8799 33.9392C32.3258 34.9598 32.456 35.2202 32.7702 35.9164C32.827 36.0205 32.8345 36.0726 32.7971 36.0949L32.7986 36.0964ZM35.1986 37.8564C35.1343 37.9531 35.037 38.0245 34.85 38.0245C34.6181 38.0245 34.4535 37.9531 34.3562 37.8489C34.1542 37.6362 34.1273 37.3431 34.1797 37.1497C34.2096 37.0262 34.2844 36.9489 34.3637 36.9266C34.3981 36.9147 34.4161 36.9191 34.4355 36.9414C34.4699 36.998 34.5971 37.1943 34.627 37.236C34.6615 37.2851 34.7213 37.3253 34.7737 37.3476C34.868 37.3848 34.9877 37.419 35.0505 37.4487C35.2375 37.5306 35.2824 37.7284 35.2001 37.8579L35.1986 37.8564ZM38.9198 34.2576C38.8929 34.2993 38.8749 34.3022 38.8405 34.3171C37.672 34.756 36.7398 35.9432 36.9089 37.3699C36.9133 37.4443 36.8894 37.5484 36.8191 37.6198C36.8191 37.6198 36.5722 37.8698 36.4181 37.9739C36.3657 38.0111 36.3059 38.0408 36.1667 38.0304C35.9497 38.0156 35.646 37.9962 35.646 37.9962C35.5637 37.9813 35.6011 37.9099 35.6041 37.895C35.6116 37.8802 35.6161 37.8608 35.6191 37.843C35.664 37.6302 35.631 37.3297 35.3303 37.2181C35.2854 37.1914 35.3153 37.1542 35.3183 37.1393C35.45 36.8224 35.6101 36.4282 35.7418 35.8777C35.8211 35.543 35.7717 35.3421 35.655 35.1041C35.6281 35.052 35.5951 35.0029 35.5577 34.9583L35.3737 34.7158C35.3213 34.6563 35.3363 34.5923 35.4111 34.5671L35.6699 34.5001C35.7343 34.4778 35.7268 34.3811 35.6655 34.3662L35.5308 34.3246C35.4036 34.2725 35.3288 34.1713 35.2689 34.094C35.2615 34.0821 35.242 34.0568 35.2271 34.027C35.1971 33.9749 35.1777 33.9184 35.1672 33.8634L35.1522 33.789C35.1522 33.7518 35.0879 33.7518 35.0625 33.7771C34.856 33.9824 34.7931 34.2948 34.9458 34.5432C35.1552 34.8929 35.1478 34.8601 35.3348 35.1205C35.3991 35.2068 35.432 35.2767 35.4545 35.3659C35.4844 35.485 35.4739 35.787 35.3946 36.0027L35.1807 36.6469C35.0535 36.934 34.9069 36.867 34.829 36.8105C34.7243 36.7391 34.627 36.5606 34.5747 36.3716C34.5747 36.3716 34.428 35.8361 34.4325 35.1205C34.4206 35.0342 34.3652 34.8929 34.1737 35.0163L33.6724 35.4299C33.6006 35.4671 33.4779 35.4493 33.5034 35.2841C33.5034 35.2841 33.8625 33.6878 34.2515 32.7907C34.5433 32.0573 34.2171 31.6437 33.8325 31.19C33.2041 30.3896 33.062 29.314 34.5283 29.9016C34.9218 30.0801 35.064 29.8495 35.5502 29.8049C35.8989 29.7752 36.0141 29.9165 36.044 29.976C36.0709 30.0281 36.0814 30.0876 36.0814 30.1173C36.0814 30.1322 36.0769 30.1396 36.062 30.1396C35.239 30.1843 34.2575 30.8656 35.0131 31.9338C35.7582 32.9797 37.8096 33.3293 38.7223 32.3325C38.7343 32.3176 38.7373 32.2879 38.7178 32.273C38.7059 32.2656 38.6909 32.2581 38.6685 32.2656C38.4695 32.34 38.2824 32.3995 38.0999 32.4292C37.6615 32.5006 36.7368 32.4486 36.2999 31.9532C36.0485 31.6705 36.056 31.3387 36.4794 31.2911C36.7158 31.2718 36.831 31.3179 36.9328 31.3179C37.1991 31.3134 37.2515 31.0501 37.1991 30.9341C37.1542 30.818 37.0495 30.6812 36.8999 30.5622C36.7607 30.4654 36.8355 30.3643 36.9268 30.3687C37.7767 30.4178 38.5847 30.5622 38.8929 31.5753C38.9049 31.6125 38.9273 31.7434 38.9572 31.788C39.0246 31.8847 39.1368 31.9591 39.264 32.0677C39.5707 32.34 39.8475 32.816 38.9124 34.2606L38.9198 34.2576ZM40.0211 33.6328C40.1707 33.3233 40.3727 33.5316 40.47 33.8708C40.5942 34.3022 40.6091 34.9985 40.5597 35.3555C40.4924 35.8242 40.271 35.7275 40.1513 35.5638C39.9642 35.299 39.7622 34.9539 39.6231 34.7114C39.6186 34.7039 39.6156 34.6965 39.6111 34.689C39.5468 34.5552 39.5363 34.4465 39.6036 34.3469C39.671 34.2383 39.9523 33.7741 40.0196 33.6328H40.0211ZM31.9308 10.7117C35.2136 10.7117 38.3692 10.9765 41.3049 11.5002C44.0116 11.9837 46.4191 12.6621 48.4555 13.5145C49.0959 13.8091 49.485 14.129 49.7244 14.55C49.9713 14.9859 50.088 15.5958 50.088 16.4706C50.088 20.5425 49.6915 24.3733 48.9044 27.8575C48.1563 31.181 47.0296 34.3037 45.5543 37.1438C42.8326 42.3879 38.8749 46.8659 33.4585 50.8336C32.7881 51.2918 32.3871 51.4555 31.9308 51.4555C31.4744 51.4555 31.0704 51.2918 30.4031 50.8336C24.9866 46.8659 21.029 42.3879 18.3073 37.1438C16.832 34.3037 15.7053 31.1766 14.9571 27.8575C14.1716 24.3733 13.7736 20.5395 13.7736 16.4706C13.7736 15.6003 13.8903 14.9889 14.1372 14.55C14.3766 14.129 14.7701 13.8091 15.406 13.5145C17.4424 12.6591 19.8499 11.9807 22.5567 11.5002C25.4923 10.975 28.648 10.7117 31.9308 10.7117ZM31.9308 10.1538C25.0165 10.1538 19.1721 11.3261 15.1816 13.0057C13.7212 13.6752 13.2125 14.5693 13.2125 16.4706C13.2125 33.3471 19.8469 43.7998 30.0769 51.2889C30.8071 51.7917 31.3128 52.0149 31.9293 52.0149C32.5457 52.0149 33.053 51.7917 33.7817 51.2889C44.0131 43.7998 50.6461 33.3471 50.6461 16.4706C50.6461 14.5678 50.1403 13.6752 48.677 13.0057C44.6864 11.3276 38.842 10.1538 31.9278 10.1538H31.9308ZM16.3651 14.5723V18.5668C16.6764 18.4656 17.1432 18.3213 17.5337 18.2127L17.5038 18.842C17.0878 18.9655 16.3427 19.1886 15.7038 19.3969V14.7821L16.3666 14.5738L16.3651 14.5723ZM18.8474 16.783L19.3337 14.5797L19.835 16.5376L18.8459 16.783H18.8474ZM19.9741 17.0999L20.2434 18.1532L20.9317 18L19.7706 13.6901L18.9357 13.8984L17.7866 18.7751L18.4494 18.5891L18.7038 17.4123L19.9726 17.0999H19.9741ZM21.9133 17.8066V14.6571C21.9133 14.5336 21.9133 14.3819 21.9058 14.2435C21.9357 14.3967 21.9701 14.5187 22.0001 14.6273L22.9277 17.698L22.9622 17.6905L23.9093 14.303C23.9467 14.1647 23.9886 14.0055 24.0185 13.8716C24.011 14.0099 24.0036 14.1691 24.0036 14.303V17.4376L24.6215 17.3439V12.7811L23.7791 12.9046L23.0759 15.4619C23.046 15.578 23.0041 15.7297 22.9667 15.8934C22.9442 15.7401 22.9143 15.6033 22.8799 15.5021L22.1841 13.1753L21.3118 13.3434V17.9211L21.9148 17.8051L21.9133 17.8066ZM26.9856 17.0702C27.7263 16.9839 28.1467 16.664 28.1467 15.9648V15.3652C28.1467 14.9591 27.9776 14.7211 27.6156 14.6511C27.9343 14.5202 28.0719 14.2822 28.0719 13.937V13.4684C28.0719 12.7766 27.6485 12.4151 26.7806 12.5148L25.4594 12.668V17.2383L26.9871 17.0702H26.9856ZM26.1477 13.1991L26.7956 13.1277C27.237 13.0831 27.3761 13.2289 27.3761 13.5413V13.9549C27.3761 14.2792 27.237 14.4458 26.7956 14.483L26.1477 14.547V13.1991ZM26.1477 15.087L26.8809 15.0156C27.3148 14.9784 27.454 15.1094 27.454 15.4471V15.9603C27.454 16.2772 27.2998 16.4364 26.8958 16.4736L26.1477 16.545V15.0856V15.087ZM30.1532 16.9556C31.0181 16.9556 31.6136 16.4007 31.6136 15.459V13.6693C31.6136 12.7156 31.033 12.2173 30.2176 12.2173C29.4021 12.2173 28.7722 12.8094 28.7722 13.7615V15.5512C28.7722 16.4706 29.3303 16.9541 30.1532 16.9541V16.9556ZM29.4604 15.5334V13.6767C29.4604 13.1486 29.7866 12.8391 30.2011 12.8391C30.6156 12.8391 30.9268 13.0995 30.9268 13.6321V15.4887C30.9268 16.0436 30.6275 16.3337 30.1786 16.3337C29.7597 16.3337 29.4604 16.0883 29.4604 15.5334ZM33.0275 16.847V14.8029L33.4914 14.8178L34.2769 16.8916L35.0176 16.9288L34.1677 14.7404C34.6091 14.6392 34.8784 14.3417 34.8784 13.7942V13.3881C34.8784 12.6889 34.4924 12.3348 33.7024 12.2976C33.3687 12.2827 32.7672 12.2753 32.3363 12.2753V16.8381L33.0246 16.8455L33.0275 16.847ZM33.0275 12.8823L33.6754 12.9046C34.0315 12.9195 34.1842 13.0801 34.1842 13.3881V13.7942C34.1842 14.1037 34.03 14.2554 33.653 14.2405L33.0275 14.2182V12.8823ZM37.0375 17.152C37.8874 17.152 38.3363 16.6387 38.3363 15.8235V14.602L36.9926 14.4488V15.0409L37.648 15.1123V15.8116C37.648 16.3174 37.3787 16.5331 36.9852 16.5331C36.4989 16.5331 36.1428 16.2162 36.1428 15.6434V13.824C36.1428 13.3256 36.4271 13.0504 36.8236 13.0504C37.3473 13.0504 37.6435 13.4491 37.651 13.9326L38.3393 14.0189C38.3094 13.0995 37.7333 12.4151 36.7592 12.4151C36.041 12.4151 35.4605 12.8837 35.4605 13.8031V15.578C35.4605 16.6387 36.1936 17.152 37.036 17.152H37.0375ZM39.7323 17.4168V15.3727L40.9982 15.581V17.6251L41.679 17.7485V13.1783L40.9982 13.0623V15.0052L39.7323 14.7969V12.854L39.0515 12.7454V17.3231L39.7323 17.4168ZM42.5288 13.3449L42.87 13.4163L43.2111 13.4878V18.0654L42.5303 17.9122V13.3449H42.5288ZM44.6146 18.3853V15.459C44.6146 15.2834 44.6071 15.0975 44.6071 14.8892C44.652 15.1123 44.7014 15.2581 44.7538 15.4099L45.9523 18.7334L46.663 18.9342V14.3715L46.0974 14.2108V17.5046C46.0525 17.2963 46.0106 17.1579 45.9583 16.9987L44.854 13.8716L44.0416 13.6782V18.241L44.6146 18.3823V18.3853ZM47.4904 19.1886V14.611L47.8271 14.7151L48.1638 14.8193V19.3969L47.4904 19.1886Z" fill="url(#paint5_linear_4866_19037)"/>
<defs>
<linearGradient id="paint0_linear_4866_19037" x1="13.2125" y1="31.0814" x2="50.6491" y2="31.0814" gradientUnits="userSpaceOnUse">
<stop offset="0.05" stop-color="#030304"/>
<stop offset="0.48" stop-color="#181819"/>
<stop offset="1" stop-color="#010101"/>
</linearGradient>
<linearGradient id="paint1_linear_4866_19037" x1="24.629" y1="23.8422" x2="39.0259" y2="41.0991" gradientUnits="userSpaceOnUse">
<stop stop-color="#E9D8A4"/>
<stop offset="0.18" stop-color="#806A3C"/>
<stop offset="0.3" stop-color="#E9D7A1"/>
<stop offset="0.31" stop-color="#CAB784"/>
<stop offset="0.32" stop-color="#B09C6A"/>
<stop offset="0.34" stop-color="#9B8855"/>
<stop offset="0.35" stop-color="#8D7948"/>
<stop offset="0.37" stop-color="#847040"/>
<stop offset="0.4" stop-color="#826E3E"/>
<stop offset="0.47" stop-color="#836F3F"/>
<stop offset="0.5" stop-color="#8A7645"/>
<stop offset="0.52" stop-color="#958250"/>
<stop offset="0.54" stop-color="#A59361"/>
<stop offset="0.55" stop-color="#B9A875"/>
<stop offset="0.56" stop-color="#E1CF9B"/>
<stop offset="0.57" stop-color="#D7C692"/>
<stop offset="0.59" stop-color="#BDAB76"/>
<stop offset="0.61" stop-color="#A99863"/>
<stop offset="0.63" stop-color="#9A8953"/>
<stop offset="0.66" stop-color="#92814A"/>
<stop offset="0.7" stop-color="#907F48"/>
<stop offset="0.75" stop-color="#928149"/>
<stop offset="0.78" stop-color="#99874F"/>
<stop offset="0.8" stop-color="#A9945C"/>
<stop offset="0.82" stop-color="#BBA46B"/>
<stop offset="0.84" stop-color="#B19A5B"/>
<stop offset="0.86" stop-color="#A8944F"/>
<stop offset="0.9" stop-color="#A48F47"/>
<stop offset="1" stop-color="#A38E46"/>
</linearGradient>
<linearGradient id="paint2_linear_4866_19037" x1="18.7532" y1="10.1285" x2="45.8938" y2="40.005" gradientUnits="userSpaceOnUse">
<stop stop-color="#DBCEB1"/>
<stop offset="0.28" stop-color="#907F48"/>
<stop offset="0.73" stop-color="#D5C7A2"/>
<stop offset="1" stop-color="#BD9953"/>
</linearGradient>
<linearGradient id="paint3_linear_4866_19037" x1="18.2968" y1="9.62862" x2="46.3444" y2="40.5056" gradientUnits="userSpaceOnUse">
<stop stop-color="#A38E46"/>
<stop offset="0.36" stop-color="#BBA46B"/>
<stop offset="0.91" stop-color="#806A3C"/>
</linearGradient>
<linearGradient id="paint4_linear_4866_19037" x1="23.3437" y1="7.77175" x2="40.3867" y2="26.5354" gradientUnits="userSpaceOnUse">
<stop stop-color="#DBCEB1"/>
<stop offset="0.04" stop-color="#D8CBAE"/>
<stop offset="0.07" stop-color="#D1C3A5"/>
<stop offset="0.1" stop-color="#C6B796"/>
<stop offset="0.12" stop-color="#B4A37F"/>
<stop offset="0.15" stop-color="#9E8B63"/>
<stop offset="0.17" stop-color="#816B3C"/>
<stop offset="0.18" stop-color="#A78F59"/>
<stop offset="0.19" stop-color="#B39B64"/>
<stop offset="0.2" stop-color="#BAA369"/>
<stop offset="0.24" stop-color="#B19A5B"/>
<stop offset="0.25" stop-color="#A8944F"/>
<stop offset="0.27" stop-color="#A48F47"/>
<stop offset="0.3" stop-color="#A38E46"/>
<stop offset="0.51" stop-color="#DBCEB1"/>
<stop offset="0.54" stop-color="#D9CCAD"/>
<stop offset="0.55" stop-color="#D4C6A7"/>
<stop offset="0.56" stop-color="#CBBD9B"/>
<stop offset="0.57" stop-color="#AD9E72"/>
<stop offset="0.58" stop-color="#907F48"/>
<stop offset="0.66" stop-color="#E3D9A4"/>
<stop offset="0.77" stop-color="#826E3E"/>
<stop offset="0.83" stop-color="#B59F67"/>
<stop offset="0.84" stop-color="#B59F67"/>
<stop offset="1" stop-color="#BBA46B"/>
</linearGradient>
<linearGradient id="paint5_linear_4866_19037" x1="15.3207" y1="11.3722" x2="47.1039" y2="39.111" gradientUnits="userSpaceOnUse">
<stop stop-color="#BBA46B"/>
<stop offset="0.28" stop-color="#DBCEB1"/>
<stop offset="0.39" stop-color="#D2C29F"/>
<stop offset="0.61" stop-color="#BAA672"/>
<stop offset="0.66" stop-color="#B59F67"/>
<stop offset="0.77" stop-color="#AB9A5F"/>
<stop offset="1" stop-color="#D5C7A2"/>
</linearGradient>
</defs>
</svg>
